<svg viewBox="0 0 24 24" xmlns="http://www.w3.org/2000/svg">
  <path d="M5.924, 20.616c-2.06, -1.857 -3.109, -4.412 -3.111, -6.87c-0, -1.984 0.691, -3.921 2.116, -5.345c1.762, -1.764 3.964, -2.67 6.105, -2.67c1.608, -0.002 3.185, 0.515 4.489, 1.548c1.648, 1.305 2.397, 3.203 2.395, 5.002c-0.002, 1.556 -0.55, 3.066 -1.598, 4.116c-1.222, 1.222 -2.723, 1.803 -4.146, 1.803c-1.085, 0 -2.128, -0.334 -2.966, -0.971c-1.12, -0.847 -1.693, -2.041 -1.693, -3.196c-0, -0.781 0.266, -1.549 0.783, -2.153c0.618, -0.73 1.464, -1.083 2.287, -1.079c0.864, 0.001 1.703, 0.369 2.338, 1.002l-0, 0.002l-0.867, 0.866c-0.419, -0.419 -0.961, -0.644 -1.471, -0.644c-0.49, 0.004 -0.952, 0.186 -1.353, 0.651c-0.322, 0.375 -0.488, 0.846 -0.49, 1.355c0.002, 0.751 0.368, 1.579 1.207, 2.218c0.614, 0.466 1.392, 0.72 2.225, 0.72c1.091, 0 2.273, -0.439 3.28, -1.441c0.778, -0.774 1.238, -1.98 1.236, -3.249c-0.002, -1.47 -0.6, -2.987 -1.931, -4.04c-1.081, -0.857 -2.376, -1.282 -3.725, -1.282c-1.795, 0 -3.687, 0.758 -5.238, 2.309c-1.167, 1.168 -1.757, 2.775 -1.757, 4.478c-0, 2.111 0.91, 4.343 2.706, 5.958c1.51, 1.358 3.463, 2.066 5.494, 2.068c2.298, -0.002 4.687, -0.912 6.62, -2.838c1.606, -1.609 2.39, -3.819 2.39, -6.138c0.002, -2.806 -1.16, -5.743 -3.345, -7.838c-1.894, -1.815 -4.391, -2.731 -6.994, -2.731c-2.978, 0 -6.083, 1.203 -8.516, 3.642l-0.869, -0.868c2.662, -2.667 6.078, -4.001 9.385, -4.001c2.89, 0 5.706, 1.023 7.844, 3.073c2.44, 2.342 3.721, 5.583 3.722, 8.723c0.002, 2.591 -0.88, 5.134 -2.749, 7.006c-2.157, 2.151 -4.865, 3.198 -7.488, 3.198c-2.315, 0 -4.568, -0.813 -6.315, -2.384" style="fill: rgb(0, 0, 255);"/>
</svg>
