<svg viewBox="0 0 24 24" xmlns="http://www.w3.org/2000/svg">
  <path d="M23, 23l-3.67, 0l0, -1.3l3.67, 0l0, 1.3Zm-12.22, 0l-3.67, 0l0, -1.3l3.67, 0l0, 1.3Zm-6.11, 0l-3.67, 0l0, -1.3l3.67, 0l0, 1.3Zm12.22, 0l-3.67, 0l-0, -1.3l3.67, 0l0, 1.3Zm3.04, -3.45l-3.64, 0l0, -1.3l3.64, 0l0, 1.3Zm-6.11, 0l-3.64, 0l0, -1.3l3.64, 0l0, 1.3Zm-6.09, 0l-3.68, 0l0, -1.3l3.68, 0l0, 1.3Zm3.05, -3.45l-3.67, 0l-0, -1.3l3.67, -0l-0, 1.3Zm-6.11, 0l-3.67, 0l-0, -1.3l3.67, -0l-0, 1.3Zm18.33, 0l-3.67, 0l-0, -1.3l3.67, -0l-0, 1.3Zm-6.11, 0l-3.67, 0l-0, -1.3l3.67, -0l-0, 1.3Zm3.04, -3.45l-3.64, -0l-0, -1.3l3.64, -0l-0, 1.3Zm-6.11, -0l-3.64, -0l-0, -1.3l3.64, -0l-0, 1.3Zm-6.09, -0l-3.68, -0l-0, -1.3l3.68, -0l-0, 1.3Zm3.05, -3.45l-3.67, -0l-0, -1.3l3.67, -0l-0, 1.3Zm-6.11, -0l-3.67, -0l-0, -1.3l3.67, -0l-0, 1.3Zm18.33, -0l-3.67, -0l-0, -1.3l3.67, -0l-0, 1.3Zm-6.11, -0l-3.67, -0l-0, -1.3l3.67, -0l-0, 1.3Zm3.04, -3.45l-3.64, -0l-0, -1.3l3.64, -0l-0, 1.3Zm-6.11, -0l-3.64, -0l-0, -1.3l3.64, -0l-0, 1.3Zm-6.09, -0l-3.68, -0l-0, -1.3l3.68, -0l-0, 1.3Zm3.05, -3.45l-3.67, -0l-0, -1.3l3.67, -0l-0, 1.3Zm-6.11, -0l-3.67, -0l-0, -1.3l3.67, -0l-0, 1.3Zm18.33, -0l-3.67, -0l-0, -1.3l3.67, -0l-0, 1.3Zm-6.11, -0l-3.67, -0l-0, -1.3l3.67, -0l-0, 1.3Z" style="fill: rgb(0, 0, 255);"/>
</svg>
