<svg viewBox="0 0 24 24" xmlns="http://www.w3.org/2000/svg">
  <path d="M8.197, 17.573c0, -8.176 6.628, -14.803 14.803, -14.803l0, -1.771c-9.154, 0 -16.574, 7.421 -16.574, 16.574l0, 0.002l1.771, 0l0, -0.002Z" style="fill: rgb(255, 0, 0);"/>
  <path d="M8.197, 17.573l0, 0.002l1.779, 0l0, -0.002c0, -7.193 5.832, -13.023 13.024, -13.023l0, -1.78c-8.175, 0 -14.803, 6.627 -14.803, 14.803" style="fill: rgb(255, 140, 0);"/>
  <path d="M11.762, 17.573c-0, -6.207 5.033, -11.238 11.238, -11.238l-0, -1.785c-7.191, 0 -13.023, 5.83 -13.023, 13.023l-0, 0.002l1.785, 0l-0, -0.002Z" style="fill: rgb(0, 190, 60);"/>
  <path d="M12.359, 13.948c1.509, -4.428 5.704, -7.613 10.641, -7.613l-0, 1.772c-3.816, 0 -7.105, 2.258 -8.604, 5.511c2.384, 0.116 4.355, 1.882 4.365, 4.175c-0.011, 2.367 -2.115, 4.178 -4.606, 4.18c-1.088, 0 -2.084, -0.348 -2.872, -0.927c-1.067, 1.206 -2.691, 1.968 -4.511, 1.97c-3.148, -0.006 -5.786, -2.276 -5.799, -5.223c0.013, -2.947 2.653, -5.217 5.799, -5.223c1.82, 0.002 3.444, 0.765 4.51, 1.969c0.327, -0.239 0.688, -0.439 1.077, -0.591Z" style="fill: rgb(0, 0, 255);"/>
  <path d="M17.492, 17.794c-0.004, 1.542 -1.439, 2.896 -3.336, 2.899c-1.018, -0 -1.92, -0.402 -2.525, -1.013l-0.545, -0.548l-0.428, 0.642c-0.769, 1.153 -2.212, 1.961 -3.887, 1.961c-2.546, -0.003 -4.504, -1.824 -4.508, -3.941c0.004, -2.115 1.962, -3.933 4.508, -3.937c1.675, -0.002 3.118, 0.805 3.887, 1.96l0.431, 0.644l0.544, -0.551c0.603, -0.611 1.505, -1.013 2.523, -1.013c1.897, 0.005 3.332, 1.357 3.336, 2.897" style="fill: rgb(230, 230, 230);"/>
</svg>
