<svg viewBox="0 0 24 24" xmlns="http://www.w3.org/2000/svg">
  <path d="M21.682, 15.973l-0.396, -0.916l-1.71, 0.738l-0.904, -0.521l1.731, -0.768l-0.405, -0.912l-2.395, 1.063l-0.809, -0.467l2.075, -0.93l-0.41, -0.912l-2.733, 1.225l-2.724, -1.573l2.722, -1.571l2.735, 1.226l0.41, -0.913l-2.077, -0.931l0.809, -0.466l2.397, 1.061l0.405, -0.913l-1.73, -0.767l0.902, -0.521l1.712, 0.739l0.397, -0.918l-1.029, -0.445l1.123, -0.648l-0.498, -0.866l-1.125, 0.65l0.127, -1.116l-0.993, -0.115l-0.212, 1.852l-0.904, 0.521l0.2, -1.881l-0.994, -0.106l-0.277, 2.606l-0.81, 0.467l0.234, -2.263l-0.994, -0.102l-0.31, 2.983l-2.718, 1.57l-0, -3.142l2.43, -1.758l-0.588, -0.809l-1.842, 1.333l-0, -0.936l2.119, -1.543l-0.589, -0.807l-1.53, 1.113l-0, -1.041l1.494, -1.112l-0.595, -0.802l-0.899, 0.668l-0, -1.296l-1.001, -0l-0, 1.296l-0.903, -0.668l-0.596, 0.803l1.499, 1.112l-0, 1.04l-1.532, -1.114l-0.589, 0.809l2.121, 1.543l-0, 0.935l-1.847, -1.335l-0.585, 0.811l2.432, 1.757l-0, 3.143l-2.725, -1.573l-0.306, -2.982l-0.997, 0.103l0.234, 2.262l-0.807, -0.466l-0.278, -2.606l-0.996, 0.106l0.2, 1.88l-0.9, -0.52l-0.216, -1.851l-0.992, 0.115l0.129, 1.113l-1.124, -0.648l-0.5, 0.865l1.125, 0.65l-1.031, 0.446l0.398, 0.918l1.71, -0.742l0.904, 0.522l-1.732, 0.77l0.409, 0.911l2.393, -1.063l0.808, 0.467l-2.076, 0.93l0.408, 0.914l2.739, -1.226l2.719, 1.571l-2.72, 1.571l-2.737, -1.223l-0.409, 0.911l2.074, 0.931l-0.808, 0.466l-2.395, -1.063l-0.405, 0.914l1.729, 0.767l-0.903, 0.521l-1.708, -0.739l-0.398, 0.916l1.029, 0.446l-1.125, 0.65l0.501, 0.867l1.124, -0.649l-0.128, 1.114l0.993, 0.113l0.212, -1.85l0.904, -0.522l-0.2, 1.882l0.995, 0.107l0.278, -2.608l0.807, -0.466l-0.234, 2.264l0.996, 0.103l0.308, -2.985l2.723, -1.572l-0, 3.144l-2.433, 1.759l0.585, 0.81l1.848, -1.335l-0, 0.934l-2.12, 1.544l0.589, 0.809l1.531, -1.117l-0, 1.042l-1.498, 1.114l0.595, 0.802l0.903, -0.669l-0, 1.298l1, -0l-0, -1.297l0.899, 0.668l0.597, -0.802l-1.496, -1.112l-0, -1.043l1.528, 1.116l0.589, -0.809l-2.117, -1.543l-0, -0.933l1.842, 1.333l0.586, -0.81l-2.428, -1.758l-0, -3.143l2.722, 1.572l0.308, 2.985l0.994, -0.103l-0.233, -2.264l0.809, 0.466l0.277, 2.606l0.994, -0.107l-0.2, -1.88l0.904, 0.521l0.212, 1.851l0.993, -0.115l-0.127, -1.114l1.121, 0.647l0.502, -0.865l-1.123, -0.649l1.027, -0.445Z" style="fill: rgb(0, 0, 255);"/>
</svg>
