<svg viewBox="0 0 24 24" xmlns="http://www.w3.org/2000/svg">
  <path d="M23, 18.832l-0, 2.518c-0, 0.912 -0.738, 1.65 -1.65, 1.65l-1.854, 0l-0, -4.168l3.504, 0Zm-18.494, 0l-0, 4.168l-1.855, 0c-0.912, 0 -1.65, -0.738 -1.65, -1.65l-0, -2.518l3.505, 0Zm13.99, 0l0, 4.168l-12.99, 0l-0, -4.168l12.99, 0Zm-1.297, -4.853l0, 3.854l1.297, 0l0, -7.095c-0.115, 0.377 -0.231, 0.755 -0.371, 1.139c-0.258, 0.704 -0.565, 1.42 -0.926, 2.102Zm-12.693, -3.242c-0.115, 0.377 -0.23, 0.756 -0.371, 1.141c-0.258, 0.703 -0.564, 1.42 -0.926, 2.1l-0, 3.855l1.297, 0l-0, -7.096Zm-2.298, 4.801c-0.36, 0.462 -0.763, 0.873 -1.207, 1.221l-0, 1.074l1.207, 0l-0, -2.295Zm9.792, 2.294c-1.804, -0.02 -3.164, -0.969 -4.198, -2.292l0, 2.293l8.395, 0l0, -2.295c-1.033, 1.325 -2.393, 2.274 -4.197, 2.294Zm9.793, -2.292l-0, 2.293l1.207, -0l-0, -1.074c-0.443, -0.346 -0.848, -0.758 -1.207, -1.219Zm-1.93, -3.662c-0.139, -0.383 -0.254, -0.76 -0.367, -1.135l0, 7.09l1.297, -0l0, -3.848c-0.364, -0.683 -0.67, -1.402 -0.93, -2.107Zm-13.989, -0c-0.14, -0.383 -0.254, -0.758 -0.368, -1.133l-0, 7.088l1.297, -0l-0, -3.851c-0.364, -0.682 -0.67, -1.399 -0.929, -2.104Z" style="fill: rgb(0, 60, 150);"/>
  <path d="M20.305, 5.656c-0.334, -1.013 -0.604, -1.366 -1.373, -1.804c0.769, -0.437 1.039, -0.792 1.373, -1.804c0.332, 1.012 0.602, 1.367 1.373, 1.804c-0.771, 0.438 -1.041, 0.791 -1.373, 1.804m-4.982, 2.663c-0.334, -1.013 -0.602, -1.367 -1.373, -1.805c0.771, -0.437 1.039, -0.791 1.373, -1.803c0.334, 1.012 0.601, 1.366 1.373, 1.803c-0.772, 0.438 -1.039, 0.792 -1.373, 1.805m-3.982, 3.552c-0.334, -1.013 -0.602, -1.366 -1.373, -1.804c0.771, -0.437 1.039, -0.792 1.373, -1.805c0.333, 1.013 0.602, 1.368 1.373, 1.805c-0.771, 0.438 -1.04, 0.791 -1.373, 1.804m-3.229, -7.185c0.77, -0.437 1.039, -0.791 1.373, -1.804c0.333, 1.013 0.601, 1.367 1.373, 1.804c-0.772, 0.438 -1.04, 0.791 -1.373, 1.805c-0.334, -1.014 -0.603, -1.367 -1.373, -1.805m-5.166, 1.42c-0.334, -1.013 -0.603, -1.367 -1.373, -1.804c0.77, -0.438 1.039, -0.792 1.373, -1.805c0.333, 1.013 0.601, 1.367 1.373, 1.805c-0.772, 0.437 -1.04, 0.791 -1.373, 1.804m18.404, -5.106l-18.698, 0c-0.912, 0 -1.651, 0.738 -1.651, 1.65l-0, 12.755c0.933, -0.994 1.659, -2.398 2.195, -3.87c1.006, -2.743 1.312, -5.501 1.312, -5.507l0.993, 0c0.007, 0.004 0.308, 2.764 1.313, 5.507c1.012, 2.778 2.695, 5.332 5.187, 5.296c2.49, 0.036 4.173, -2.518 5.185, -5.296c1.006, -2.743 1.312, -5.501 1.312, -5.507l0.994, 0c0.006, 0.004 0.305, 2.764 1.313, 5.507c0.535, 1.473 1.262, 2.878 2.195, 3.872l-0, -12.757c-0, -0.912 -0.738, -1.65 -1.65, -1.65" style="fill: rgb(0, 60, 150);"/>
</svg>
