<svg viewBox="0 0 24 24" xmlns="http://www.w3.org/2000/svg">
  <path d="M17.185, 13.602c-0.512, -0 -0.924, -0.413 -0.924, -0.924c0, -0.51 0.412, -0.924 0.924, -0.924c0.511, -0 0.922, 0.414 0.922, 0.924c0, 0.511 -0.412, 0.924 -0.922, 0.924m-3.938, 5.077l-0.011, -0c-1.126, 0.002 -2.217, -0.597 -2.801, -1.645l0.877, -0.486c0.397, 0.722 1.148, 1.131 1.924, 1.133c0.359, -0.002 0.724, -0.09 1.064, -0.277l0.002, 0.002l0.485, 0.872c-0.489, 0.271 -1.018, 0.401 -1.54, 0.401m1.456, -17.387c0.759, 1.49 1.195, 3.17 1.195, 4.956c0, 2.04 -0.568, 3.941 -1.541, 5.575l-3.965, 0.354l1.592, 2.45c-1.9, 1.595 -4.348, 2.558 -7.024, 2.558c-1.154, -0 -2.266, -0.182 -3.31, -0.513c1.808, 3.547 5.486, 5.983 9.742, 5.983c6.039, -0 10.938, -4.898 10.938, -10.938c0, -4.886 -3.206, -9.021 -7.627, -10.425" style="fill: rgb(255, 140, 0);"/>
</svg>
