<svg viewBox="0 0 24 24" xmlns="http://www.w3.org/2000/svg">
  <path d="M3.565, 14.211c0.924, 0.012 1.681, 0.622 2.023, 1.449l-0.8, 0.34c-0.244, -0.57 -0.7, -0.91 -1.247, -0.912c-0.659, 0 -1.048, 0.142 -1.27, 0.353c-0.215, 0.194 -0.257, 0.517 -0.257, 0.662l-0, 0.056c0.005, 0.313 0.228, 0.825 1.493, 1.084c1.131, 0.235 1.575, 0.468 1.848, 0.673c0.421, 0.326 0.591, 0.806 0.589, 1.322c0.013, 1.121 -0.854, 2.356 -2.479, 2.361c-0.654, 0 -1.274, -0.252 -1.791, -0.704c-0.165, -0.144 -0.429, -0.43 -0.623, -0.745l0.745, -0.451c0.098, 0.175 0.387, 0.491 0.438, 0.528c0.397, 0.342 0.792, 0.492 1.228, 0.495c1.168, -0.033 1.584, -0.753 1.615, -1.467c-0.05, -0.466 -0.011, -0.397 -0.265, -0.655c-0.112, -0.084 -0.401, -0.274 -1.473, -0.499c-1.461, -0.255 -2.198, -1.087 -2.194, -1.942c-0, -0.013 0.001, -0.022 0.001, -0.031c-0, -0.011 0.001, -0.017 0.001, -0.018l-0, -0.003c0.003, -0.253 0.044, -0.835 0.53, -1.305c0.456, -0.424 1.093, -0.591 1.866, -0.591l0.022, 0Zm18.564, 5.532l-0, -5.677l0.871, 0l-0, 7.502l-0.871, 0l-3.626, -5.648l-0, 5.648l-0.867, 0l-0, -7.502l0.867, 0l3.626, 5.677Zm-13.21, -5.531c-1.624, 0.033 -2.689, 1.713 -2.689, 3.648c-0, 1.935 1.065, 3.613 2.687, 3.65l0.002, -0c1.621, -0.037 2.689, -1.715 2.689, -3.647c-0, -1.938 -1.066, -3.618 -2.689, -3.651Zm5.7, -0c-1.623, 0.033 -2.689, 1.713 -2.689, 3.648c0, 1.935 1.066, 3.613 2.687, 3.65l0.002, -0c1.621, -0.037 2.689, -1.715 2.689, -3.647c0, -1.938 -1.066, -3.618 -2.689, -3.651Zm-5.701, 6.421c-0.902, -0.003 -1.816, -1.108 -1.821, -2.773c0.005, -1.663 0.92, -2.77 1.822, -2.773c0.901, 0.003 1.817, 1.11 1.821, 2.776c-0.004, 1.659 -0.917, 2.769 -1.822, 2.77Zm5.701, -0c-0.902, -0.003 -1.817, -1.108 -1.822, -2.773c0.005, -1.663 0.92, -2.77 1.822, -2.773c0.901, 0.003 1.817, 1.11 1.82, 2.776c-0.003, 1.659 -0.916, 2.769 -1.82, 2.77Zm2.092, -15.194l-0, -1.992l4.696, 4.803l-4.696, 4.799l-0, -1.988l-12.985, -0l-0, -5.622l12.985, -0Z" style="fill: rgb(0, 0, 255);"/>
</svg>
