<svg viewBox="0 0 24 24" xmlns="http://www.w3.org/2000/svg">
  <path d="M2.38, 21.773l1.766, 0l0, -19.545l-1.766, 0l0, -1.229l19.239, 0l0, 1.229l-1.763, 0l0, 19.545l1.763, 0l0, 1.227l-19.239, 0l0, -1.227Zm16.247, 0l0, -19.545l-0.578, 0l0, 5.23l-3.507, 3.506c-0.475, 0.473 -0.611, 0.802 -0.607, 1.036c-0.004, 0.229 0.134, 0.563 0.608, 1.038l3.506, 3.503l0, 5.232l0.578, 0Zm-12.676, -19.545l-0.578, 0l0, 19.545l0.578, 0l0, -5.232l3.505, -3.503c0.473, -0.475 0.608, -0.809 0.605, -1.038c0.003, -0.234 -0.132, -0.563 -0.605, -1.037l-3.505, -3.505l0, -5.23Zm7.53, 17.12l0.986, 0l0, 0.986l-0.986, 0l0, -0.986Zm-3.947, 0l0.986, 0l0, 0.986l-0.986, 0l0, -0.986Zm1.974, 0l0.986, 0l0, 0.986l-0.986, 0l0, -0.986Zm0, -0.001l-0.987, 0l0, -0.986l0.987, 0l0, 0.986Zm1.973, 0l-0.987, 0l0, -0.986l0.987, 0l0, 0.986Zm-0.987, -0.986l-0.986, 0l0, -0.987l0.986, 0l0, 0.987Zm-0.986, -2.96l0.986, 0l0, 0.987l-0.986, 0l0, -0.987Zm0.985, -0.988l-0.986, 0l0, -0.987l0.986, 0l0, 0.987Zm0, -5.921l0.987, 0l0, 0.986l-0.987, 0l0, -0.986Zm-0.986, -0.001l0, -0.987l-0.987, 0l0, 0.987l-0.987, 0l0, 0.811l0.175, 0.174l0.812, 0l0, -0.985l0.987, 0l0, 0.986l-0.987, 0l0, 0.835c0.045, 0.051 0.093, 0.101 0.136, 0.152l0.851, 0l0, -0.986l0.986, 0l0, 0.987l-0.986, 0l0, 0.986l0.986, 0l0, 0.987l-0.986, 0l0, -0.987l-0.299, 0c0.051, 0.176 0.081, 0.359 0.08, 0.549c-0.004, 0.715 -0.389, 1.33 -0.963, 1.904l0, 0.002l-3.147, 3.144l0, 3.91l1.369, 0l0, -0.626l0.987, 0l0, 0.626l0.987, 0l0, -0.626l0.987, 0l0, 0.626l0.986, 0l0, -0.626l0.987, 0l0, 0.626l0.987, 0l0, -0.626l0.986, 0l0, 0.626l1.365, 0l0, -3.912l-3.144, -3.142c-0.574, -0.573 -0.971, -1.188 -0.967, -1.905c0.001, -0.191 0.033, -0.373 0.084, -0.55l-0.299, 0l0, -0.987l0.851, 0c0.042, -0.051 0.091, -0.102 0.137, -0.152l0, -0.835l0.81, 0l0.176, -0.176l0, -0.81l0.81, 0l0.177, -0.176l0, -0.812l0.812, 0l0.174, -0.174l0, -0.811l-0.986, 0l0, 0.986l-0.987, 0l0, -0.986l0.987, 0l0, -0.986l0.986, 0l0, 0.985l0.379, 0l0, -4.289l-9.641, 0l0, 4.289l0.382, 0l0, -0.986l0.987, 0l0, 0.986l-0.986, 0l0, 0.814l0.172, 0.172l0.814, 0l0, -0.985l0.986, 0l0, 0.986l-0.986, 0l0, 0.812l0.173, 0.174l0.813, 0l0, -0.987l0.987, 0l0, -0.985l0.987, 0l0, 0.986l0.986, 0l0, -0.986l0.987, 0l0, 0.986l0.986, 0l0, 0.987l-0.986, 0l0, -0.987l-0.987, 0l0, 0.987l-0.986, 0Zm2.96, -1.974l-0.986, 0l0, -0.986l0.986, 0l0, 0.986Zm-1.974, 0l-0.986, 0l0, -0.986l0.986, 0l0, 0.986Zm-1.973, 0l-0.986, 0l0, -0.986l0.986, 0l0, 0.986Z" style="fill: rgb(255, 0, 255);"/>
</svg>
