<svg viewBox="0 0 24 24" xmlns="http://www.w3.org/2000/svg">
  <path d="M20.462, 15.007c-0, -0.503 -0.182, -0.931 -0.542, -1.285c-0.363, -0.349 -0.784, -0.528 -1.269, -0.528c-0.504, -0 -0.932, 0.179 -1.282, 0.528c-0.353, 0.354 -0.529, 0.782 -0.529, 1.285c-0, 0.463 0.176, 0.875 0.529, 1.237c0.35, 0.363 0.778, 0.544 1.282, 0.544c0.403, -0 0.719, -0.1 0.951, -0.302c0.231, -0.2 0.478, -0.502 0.739, -0.906c0.042, -0.1 0.071, -0.2 0.092, -0.301c0.019, -0.1 0.029, -0.192 0.029, -0.272m-13.251, -6.039c-0, -0.502 -0.183, -0.931 -0.546, -1.283c-0.362, -0.351 -0.786, -0.529 -1.268, -0.529c-0.221, -0 -0.444, 0.036 -0.664, 0.105c-0.223, 0.073 -0.394, 0.177 -0.513, 0.319c-0.022, -0 -0.111, 0.116 -0.271, 0.347c-0.162, 0.231 -0.242, 0.367 -0.242, 0.406c-0.062, 0.081 -0.097, 0.178 -0.106, 0.289c-0.01, 0.109 -0.015, 0.224 -0.015, 0.346c-0, 0.483 0.174, 0.907 0.527, 1.268c0.354, 0.362 0.78, 0.543 1.284, 0.543c0.482, -0 0.906, -0.181 1.268, -0.543c0.363, -0.361 0.546, -0.785 0.546, -1.268m15.788, -1.208l-1.933, 1.39c-0.201, -0.283 -0.467, -0.559 -0.799, -0.831c-0.333, -0.271 -0.67, -0.518 -1.013, -0.739c-1.247, -0.846 -2.646, -1.535 -4.196, -2.068c-1.55, -0.533 -3.009, -0.801 -4.378, -0.801c-0.602, -0 -1.176, 0.041 -1.721, 0.12c-0.545, 0.081 -1.077, 0.222 -1.6, 0.423c0.684, 0.362 1.234, 0.876 1.646, 1.541c0.412, 0.663 0.619, 1.388 0.619, 2.173c-0, 1.147 -0.418, 2.14 -1.253, 2.974c-0.837, 0.836 -1.826, 1.252 -2.974, 1.252c-1.187, -0 -2.188, -0.416 -3.003, -1.252c-0.816, -0.834 -1.223, -1.827 -1.223, -2.974c-0, -0.32 0.033, -0.635 0.104, -0.936c0.071, -0.302 0.176, -0.584 0.318, -0.845l-0, -0.031c0.121, -0.241 0.246, -0.457 0.377, -0.648c0.131, -0.192 0.286, -0.369 0.47, -0.529c0.22, -0.282 0.427, -0.534 0.617, -0.755c0.192, -0.221 0.398, -0.412 0.618, -0.574c0.425, -0.361 0.861, -0.668 1.314, -0.92c0.454, -0.251 0.961, -0.478 1.526, -0.68c0.643, -0.261 1.288, -0.457 1.93, -0.588c0.645, -0.131 1.289, -0.186 1.934, -0.166l0.151, -0c0.562, -0 1.138, 0.035 1.721, 0.106c0.583, 0.069 1.207, 0.187 1.87, 0.348c1.631, 0.362 3.291, 0.989 4.983, 1.886c1.692, 0.896 2.99, 1.937 3.895, 3.124m-0.12, 7.247c-0, 0.604 -0.101, 1.162 -0.303, 1.675c-0.202, 0.515 -0.493, 1.03 -0.876, 1.555c-0.322, 0.444 -0.729, 0.857 -1.221, 1.237c-0.496, 0.383 -1.033, 0.725 -1.617, 1.028c-0.804, 0.382 -1.666, 0.678 -2.583, 0.89c-0.915, 0.212 -1.816, 0.316 -2.701, 0.316c-2.173, -0 -4.512, -0.511 -7.02, -1.54c-2.504, -1.026 -4.362, -2.322 -5.568, -3.893l1.931, -1.419c0.181, 0.261 0.428, 0.524 0.741, 0.784c0.311, 0.263 0.648, 0.525 1.009, 0.785c1.228, 0.826 2.628, 1.516 4.199, 2.069c1.569, 0.554 3.048, 0.829 4.438, 0.829c0.582, -0 1.161, -0.047 1.734, -0.15c0.575, -0.101 1.135, -0.251 1.677, -0.453c-0.704, -0.361 -1.258, -0.879 -1.661, -1.556c-0.403, -0.673 -0.605, -1.392 -0.605, -2.157c-0, -1.188 0.407, -2.188 1.226, -3.005c0.814, -0.814 1.805, -1.223 2.972, -1.223c1.166, -0 2.164, 0.409 2.988, 1.223c0.827, 0.817 1.24, 1.817 1.24, 3.005" style="fill: rgb(0, 0, 255);"/>
</svg>
