<svg viewBox="0 0 24 24" xmlns="http://www.w3.org/2000/svg">
  <path d="M18.083, 18.356c-0, 0.676 -0.547, 1.208 -1.222, 1.208c-0.674, 0 -1.222, -0.547 -1.222, -1.223l-0.001, -10.849c-0, -1.16 -0.326, -2.119 -0.977, -2.873c-0.654, -0.752 -1.539, -1.131 -2.66, -1.131c-0.449, 0 -0.886, 0.083 -1.314, 0.246c-0.428, 0.162 -0.805, 0.387 -1.131, 0.672c-0.348, -0.305 -0.73, -0.53 -1.146, -0.672c-0.418, -0.143 -0.841, -0.215 -1.268, -0.215c-0.326, 0 -0.632, 0.031 -0.918, 0.092c-0.286, 0.06 -0.549, 0.163 -0.793, 0.307c-0.307, -0.573 -0.75, -1.03 -1.33, -1.377c-0.581, -0.346 -1.198, -0.53 -1.85, -0.55l-0, 2.444c0.307, 0 0.582, 0.113 0.825, 0.336c0.245, 0.225 0.367, 0.49 0.367, 0.795l-0, 16.441l2.446, 0l-0, -14.851c-0, -0.675 0.547, -1.223 1.222, -1.223c0.674, 0 1.222, 0.548 1.222, 1.223l-0, 14.851l2.445, 0l-0, -14.851c-0, -0.675 0.548, -1.223 1.222, -1.223c0.676, 0 1.223, 0.548 1.223, 1.223l0.001, 10.881c-0, 1.14 0.322, 2.088 0.962, 2.84c0.641, 0.755 1.534, 1.13 2.674, 1.13c1.101, 0 1.987, -0.38 2.66, -1.144c0.672, -0.764 1.007, -1.695 1.007, -2.797l-0, -6.906l1.223, 0l-2.444, -4.891l-2.446, 4.891l1.223, 0l0, 7.196Z" style="fill: rgb(0, 0, 255);"/>
</svg>
