<svg viewBox="0 0 24 24" xmlns="http://www.w3.org/2000/svg">
  <path d="M19.78, 6.438c0, -0.508 -0.186, -0.942 -0.552, -1.299c-0.367, -0.355 -0.794, -0.533 -1.284, -0.533c-0.51, -0 -0.941, 0.178 -1.298, 0.533c-0.356, 0.357 -0.535, 0.791 -0.535, 1.299c0, 0.49 0.179, 0.917 0.535, 1.283c0.357, 0.367 0.788, 0.551 1.298, 0.551c0.49, -0 0.917, -0.184 1.284, -0.551c0.366, -0.366 0.552, -0.793 0.552, -1.283m2.443, 11.064c0, 0.735 -0.224, 1.411 -0.672, 2.034c-0.449, 0.621 -1.019, 1.093 -1.71, 1.42c-0.674, 0.306 -1.424, 0.519 -2.249, 0.642c-0.825, 0.121 -1.716, 0.182 -2.673, 0.182l0, -2.414c0.713, -0 1.425, -0.045 2.138, -0.139c0.715, -0.092 1.295, -0.248 1.743, -0.473c0.386, -0.203 0.647, -0.38 0.779, -0.535c0.133, -0.152 0.201, -0.422 0.201, -0.808l0, -0.063c0, -0.387 -0.144, -0.828 -0.43, -1.328c-0.285, -0.5 -0.58, -0.982 -0.886, -1.453c-0.49, -0.733 -0.872, -1.414 -1.147, -2.047c-0.273, -0.633 -0.452, -1.304 -0.534, -2.018c-0.448, -0.14 -0.86, -0.338 -1.237, -0.595c-0.378, -0.254 -0.7, -0.555 -0.963, -0.902c-0.306, 0.695 -0.572, 1.412 -0.794, 2.156c-0.225, 0.744 -0.418, 1.521 -0.582, 2.338c-0.346, 1.507 -0.815, 3.011 -1.406, 4.507c-0.592, 1.496 -1.262, 2.776 -2.016, 3.834l-1.956, -0c-0.815, -1.058 -1.517, -2.367 -2.109, -3.925c-0.59, -1.559 -1.039, -3.102 -1.346, -4.631c-0.283, -1.325 -0.636, -2.576 -1.052, -3.759c-0.418, -1.181 -0.932, -2.138 -1.545, -2.872l1.803, -1.651c0.103, 0.102 0.215, 0.24 0.337, 0.413c0.123, 0.173 0.254, 0.373 0.397, 0.595c0.591, 0.938 1.075, 1.963 1.453, 3.073c0.377, 1.11 0.707, 2.347 0.992, 3.712c0.203, 1.059 0.475, 2.079 0.81, 3.055c0.336, 0.981 0.74, 1.938 1.207, 2.875c0.45, -0.896 0.841, -1.824 1.177, -2.781c0.336, -0.957 0.617, -1.947 0.841, -2.965c0.242, -1.1 0.524, -2.141 0.84, -3.117c0.315, -0.979 0.697, -1.904 1.145, -2.781c0.101, -0.246 0.214, -0.485 0.338, -0.719c0.121, -0.233 0.254, -0.453 0.396, -0.656c0.022, -0.041 0.082, -0.137 0.184, -0.291c0.102, -0.153 0.174, -0.248 0.213, -0.291c0.101, -0.245 0.183, -0.437 0.246, -0.581c0.061, -0.141 0.13, -0.275 0.214, -0.396c0.365, -0.632 0.87, -1.121 1.512, -1.468c0.642, -0.346 1.33, -0.519 2.062, -0.519c1.182, -0 2.19, 0.413 3.025, 1.238c0.836, 0.826 1.254, 1.839 1.254, 3.04c0, 0.917 -0.281, 1.748 -0.84, 2.492c-0.56, 0.743 -1.269, 1.258 -2.124, 1.543c0.08, 0.549 0.26, 1.069 0.535, 1.559c0.274, 0.488 0.631, 1.074 1.07, 1.756c0.437, 0.683 0.773, 1.298 1.008, 1.849c0.232, 0.551 0.351, 1.172 0.351, 1.865" style="fill: rgb(255, 140, 0);"/>
</svg>
