<svg viewBox="0 0 24 24" xmlns="http://www.w3.org/2000/svg">
  <path d="M20.542, 21.765c-0.957, -0.02 -1.815, -0.315 -2.581, -0.886c-0.764, -0.57 -1.41, -1.314 -1.941, -2.23c-0.449, -0.776 -0.79, -1.625 -1.023, -2.553c-0.235, -0.928 -0.393, -1.881 -0.474, -2.858l-5.043, -0c-0.103, 0.977 -0.271, 1.93 -0.503, 2.858c-0.236, 0.928 -0.567, 1.777 -0.995, 2.553c-0.53, 0.895 -1.181, 1.634 -1.957, 2.215c-0.773, 0.58 -1.629, 0.881 -2.566, 0.901l-0, -2.444c0.469, -0 0.902, -0.184 1.299, -0.551c0.397, -0.366 0.759, -0.805 1.085, -1.315c0.327, -0.57 0.587, -1.232 0.78, -1.986c0.192, -0.753 0.33, -1.498 0.412, -2.231l-3.576, -0l-0, -2.445l3.576, -0c-0.082, -0.754 -0.22, -1.507 -0.412, -2.261c-0.193, -0.754 -0.453, -1.416 -0.78, -1.987c-0.326, -0.529 -0.688, -0.978 -1.085, -1.345c-0.397, -0.367 -0.83, -0.539 -1.299, -0.518l-0, -2.446c0.937, -0 1.793, 0.29 2.566, 0.871c0.776, 0.581 1.427, 1.329 1.957, 2.246c0.428, 0.754 0.759, 1.595 0.995, 2.521c0.232, 0.927 0.4, 1.902 0.503, 2.919l5.043, -0c0.081, -1.017 0.239, -1.992 0.474, -2.919c0.233, -0.926 0.574, -1.767 1.023, -2.521c0.531, -0.937 1.177, -1.691 1.941, -2.261c0.766, -0.57 1.624, -0.856 2.581, -0.856l-0, 2.446c-0.468, -0.021 -0.905, 0.151 -1.313, 0.518c-0.409, 0.367 -0.764, 0.816 -1.07, 1.345c-0.345, 0.571 -0.616, 1.233 -0.809, 1.987c-0.194, 0.754 -0.322, 1.507 -0.382, 2.261l3.574, -0l-0, 2.445l-3.574, -0c0.06, 0.733 0.188, 1.478 0.382, 2.231c0.193, 0.754 0.464, 1.416 0.809, 1.986c0.306, 0.51 0.661, 0.949 1.07, 1.315c0.408, 0.367 0.845, 0.551 1.313, 0.551l-0, 2.444Z" style="fill: rgb(0, 0, 255);"/>
</svg>
