<svg viewBox="0 0 24 24" xmlns="http://www.w3.org/2000/svg">
  <path d="M17.698, 14.092c-0.011, 3.116 -2.475, 5.389 -5.699, 5.413c-3.223, -0.024 -5.689, -2.297 -5.697, -5.413l0, -5.092c0.176, -0.011 0.351, -0.036 0.529, -0.036c1.548, -0.002 3.12, 0.568 4.737, 1.307c1.753, 0.797 3.55, 1.472 5.6, 1.474c0.178, -0 0.352, -0.028 0.53, -0.036l0, 2.383Zm5.157, -3.868l-1.07, -1.933c-0.546, 0.301 -1.104, 0.531 -1.667, 0.724l0, -6.796l-2.42, -0l0, 7.279c-0.177, 0.011 -0.352, 0.036 -0.53, 0.036c-1.546, 0.002 -3.018, -0.514 -4.685, -1.274c-1.7, -0.772 -3.565, -1.502 -5.652, -1.505c-0.178, -0 -0.353, 0.027 -0.529, 0.035l0, -4.571l-2.421, -0l0, 4.935c-0.945, 0.258 -1.862, 0.636 -2.737, 1.123l1.072, 1.931c0.545, -0.302 1.102, -0.531 1.665, -0.724l0, 4.608c0.008, 4.51 3.709, 7.827 8.118, 7.833c4.408, -0.006 8.108, -3.323 8.119, -7.833l0, -2.747c0.945, -0.258 1.861, -0.636 2.737, -1.121" style="fill: rgb(160, 0, 160);"/>
</svg>
