<svg viewBox="0 0 24 24" xmlns="http://www.w3.org/2000/svg">
  <path d="M23.006, 5.363c-0, 0.315 -0.107, 0.58 -0.32, 0.792c-0.214, 0.214 -0.468, 0.321 -0.765, 0.321c-0.316, -0 -0.58, -0.107 -0.793, -0.321c-0.214, -0.212 -0.32, -0.477 -0.32, -0.792c-0, -0.296 0.106, -0.552 0.32, -0.765c0.213, -0.214 0.477, -0.32 0.793, -0.32c0.297, -0 0.551, 0.106 0.765, 0.32c0.213, 0.213 0.32, 0.469 0.32, 0.765m-1.085, 15.44c-0, -0.315 -0.111, -0.579 -0.334, -0.793c-0.223, -0.213 -0.482, -0.32 -0.779, -0.32c-0.296, -0 -0.552, 0.107 -0.765, 0.32c-0.213, 0.214 -0.32, 0.478 -0.32, 0.793c-0, 0.297 0.107, 0.551 0.32, 0.765c0.213, 0.212 0.469, 0.319 0.765, 0.319c0.297, -0 0.556, -0.107 0.779, -0.319c0.223, -0.214 0.334, -0.468 0.334, -0.765m-3.311, -17.082c-0, 0.149 -0.055, 0.279 -0.167, 0.39c-0.112, 0.111 -0.241, 0.167 -0.389, 0.167c-0.149, -0 -0.274, -0.056 -0.375, -0.167c-0.103, -0.111 -0.153, -0.241 -0.153, -0.39c-0, -0.148 0.05, -0.278 0.153, -0.389c0.101, -0.112 0.226, -0.167 0.375, -0.167c0.148, -0 0.277, 0.055 0.389, 0.167c0.112, 0.111 0.167, 0.241 0.167, 0.389m-1.084, 14.328c-0, -0.168 -0.061, -0.302 -0.182, -0.404c-0.12, -0.101 -0.246, -0.152 -0.375, -0.152c-0.167, -0 -0.301, 0.051 -0.403, 0.152c-0.103, 0.102 -0.154, 0.236 -0.154, 0.404c-0, 0.13 0.051, 0.255 0.154, 0.374c0.102, 0.122 0.236, 0.182 0.403, 0.182c0.129, -0 0.255, -0.06 0.375, -0.182c0.121, -0.119 0.182, -0.244 0.182, -0.374m-8.82, -8.819c-0, 0.148 -0.056, 0.278 -0.166, 0.389c-0.112, 0.112 -0.242, 0.167 -0.39, 0.167c-0.167, -0 -0.301, -0.055 -0.403, -0.167c-0.102, -0.111 -0.154, -0.241 -0.154, -0.389c-0, -0.167 0.052, -0.302 0.154, -0.404c0.102, -0.101 0.236, -0.153 0.403, -0.153c0.148, -0 0.278, 0.052 0.39, 0.153c0.11, 0.102 0.166, 0.237 0.166, 0.404m6.204, 1.53c-0, -0.371 -0.018, -0.733 -0.055, -1.085c-0.037, -0.352 -0.084, -0.687 -0.14, -1.002c-0.241, -1.242 -0.959, -2.211 -2.155, -2.907c-1.197, -0.695 -2.471, -1.043 -3.825, -1.043c-0.539, -0 -1.086, 0.056 -1.642, 0.167c-0.556, 0.111 -1.094, 0.269 -1.614, 0.473c2.245, -0.13 3.969, 0.528 5.174, 1.975c1.206, 1.447 1.809, 3.329 1.809, 5.649c-0, 1.185 -0.139, 2.418 -0.417, 3.699c-0.278, 1.279 -0.65, 2.568 -1.113, 3.866c1.205, -1.575 2.17, -3.181 2.893, -4.813c0.724, -1.631 1.085, -3.292 1.085, -4.979m-6.9, 5.397c-0, -0.946 -0.282, -1.693 -0.848, -2.239c-0.565, -0.548 -1.312, -0.821 -2.239, -0.821c-0.316, -0 -0.612, 0.032 -0.891, 0.097c-0.278, 0.065 -0.528, 0.171 -0.75, 0.32c1.075, -0 1.946, 0.394 2.614, 1.182c0.668, 0.79 1.002, 1.74 1.002, 2.852c-0, 0.519 -0.07, 1.043 -0.208, 1.571c-0.14, 0.53 -0.33, 1.072 -0.571, 1.628c0.538, -0.778 0.988, -1.558 1.349, -2.337c0.362, -0.779 0.542, -1.53 0.542, -2.253m-2.614, -6.371c-0, 0.297 -0.107, 0.552 -0.32, 0.765c-0.213, 0.213 -0.477, 0.32 -0.793, 0.32c-0.297, -0 -0.552, -0.107 -0.765, -0.32c-0.213, -0.213 -0.32, -0.468 -0.32, -0.765c-0, -0.316 0.107, -0.579 0.32, -0.793c0.213, -0.213 0.468, -0.32 0.765, -0.32c0.316, -0 0.58, 0.107 0.793, 0.32c0.213, 0.214 0.32, 0.477 0.32, 0.793m-2.198, 9.347c-0, 0.15 -0.056, 0.277 -0.167, 0.391c-0.111, 0.111 -0.241, 0.166 -0.389, 0.166c-0.149, -0 -0.278, -0.055 -0.39, -0.166c-0.111, -0.114 -0.166, -0.241 -0.166, -0.391c-0, -0.148 0.055, -0.273 0.166, -0.375c0.112, -0.102 0.241, -0.153 0.39, -0.153c0.148, -0 0.278, 0.051 0.389, 0.153c0.111, 0.102 0.167, 0.227 0.167, 0.375m19.808, 3.867l-22.006, -0l-0, -1.113l1.169, -0c0.89, -0 1.748, -0.402 2.573, -1.209c0.826, -0.807 1.239, -1.665 1.239, -2.573c-0, -0.984 -0.303, -1.902 -0.905, -2.755c-0.603, -0.852 -1.368, -1.279 -2.296, -1.279c-0.333, -0 -0.653, 0.055 -0.959, 0.167c-0.306, 0.111 -0.58, 0.277 -0.821, 0.5c0.427, -0.872 1.113, -1.54 2.059, -2.003c0.946, -0.463 1.947, -0.696 3.005, -0.696c0.983, -0 1.938, 0.191 2.865, 0.571c0.928, 0.38 1.771, 0.922 2.532, 1.628l-0, -0.25c-0, -1.966 -0.483, -3.714 -1.447, -5.245c-0.964, -1.53 -2.365, -2.296 -4.201, -2.296c-0.742, -0 -1.465, 0.131 -2.17, 0.39c-0.705, 0.26 -1.382, 0.631 -2.031, 1.113c0.649, -1.186 1.507, -2.156 2.573, -2.907c1.067, -0.751 2.286, -1.275 3.659, -1.572c0.334, -0.092 0.662, -0.162 0.988, -0.209c0.324, -0.046 0.644, -0.07 0.96, -0.07c2.929, -0 5.503, 0.914 7.719, 2.741c2.216, 1.827 4.049, 4.214 5.495, 7.164l-0, 9.903Z" style="fill: rgb(0, 0, 255);"/>
</svg>
