<svg viewBox="0 0 24 24" xmlns="http://www.w3.org/2000/svg">
  <path d="M19.602, 17.599c-0.38, 0.38 -1.348, 1.313 -1.52, 1.347c-0.171, 0.034 -0.344, -0.483 0.346, -1.001c0.691, -0.519 2.555, -2.176 1.174, -0.346m-3.56, -13.015l-0.375, -0c-0, -0 -0.459, 0.708 -0.459, 1.125c-0, 0.416 -0.041, 0.791 -0.041, 0.791c-0, -0 -0.541, 0.042 -0.75, 0.042c-0.209, -0 -0.376, -0.125 -0.584, 0.125c-0.208, 0.25 -0.249, 0.417 -0.291, 0.875c-0.042, 0.458 -0.084, 1.021 -0.292, 1.021c-0.208, -0 -0.458, -0.771 -0.583, -0.313c-0.125, 0.459 -0.542, 0.626 -0.417, 1.042c0.125, 0.417 0.167, 0.708 0.334, 0.792c0.166, 0.083 0.333, 0.542 0.291, 1.083c-0.041, 0.542 0.25, 1.25 -0.125, 1.375c-0.375, 0.125 -1.102, 0.176 -1.269, 0.176c-0.088, 0.001 -0.634, 0.094 -0.481, 0.637c0.138, 0.486 0.215, 0.309 -0.101, 0.576c-0.264, 0.223 -0.44, 0.216 -0.66, -1.054c-0.119, -0.69 -0.206, -0.878 -1.165, -0.878c-0.959, -0 -1.199, 0.209 -2.074, -0.249c-0.875, -0.458 -1.583, -0.335 -1.958, 0.249c-0.375, 0.585 0.112, 1.211 -0.208, 1.46c-0.32, 0.249 -0.5, 0.625 -0.625, 1.25c-0.125, 0.625 -0.5, 0.916 -0.75, 0.458c-0.25, -0.458 -0.584, -1.458 -0.709, -2.083c-0.125, -0.625 0.084, -1.292 -0.166, -1.542c-0.12, -0.12 -0.34, -0.297 -0.537, -0.45c0.462, -5.088 4.747, -9.09 9.955, -9.092c2.761, 0.001 5.265, 1.129 7.077, 2.947c-0.503, 0.027 -1.165, -0.107 -1.579, -0.28c-0.5, -0.208 -1.458, -0.083 -1.458, -0.083m-1.837, 9.939c-0.221, -0.025 -0.54, -0.342 -0.319, -0.465c0.221, -0.123 0.49, -0 0.588, 0.049c0.098, 0.049 0.27, 0.416 -0.269, 0.416m0.42, -6.648c0.167, -0.25 0.458, -0.333 0.458, -0.583c-0, -0.25 0.183, -0.495 0.402, -0.167c0.146, 0.22 0.719, 0.318 0.469, 0.485c-0.205, 0.39 -0.381, 0.281 -0.672, 0.281c-0.291, -0 -0.407, 0.193 -0.407, 0.193c-0, -0 -0.417, 0.041 -0.25, -0.209m0.288, 0.637c0.296, -0.312 0.406, -0.125 0.359, 0.469c-0.047, 0.594 -0.391, 1.015 -0.766, 1.203c-0.375, 0.187 -0.109, 0.156 -0.281, 0.5c-0.172, 0.344 -0.516, -0.078 -0.547, -0.5c-0.031, -0.422 0.375, -0.688 0.672, -0.859c0.297, -0.172 0.422, -0.594 0.563, -0.813m-2.276, 5.447c0.195, -0.048 0.465, 0.074 0.489, 0.245c0.025, 0.172 0.049, 0.491 -0.538, 0.319c-0.172, -0.294 -0.147, -0.515 0.049, -0.564m3.613, 5.041c-0.625, 0.5 -0.625, 0.834 -1.5, 0.209c-0.583, -0.209 -1.291, -0.584 -1.625, -0.584c-0.333, -0 -0.458, 0.47 -0.791, 0.459c-0.334, -0.01 -0.542, -0.293 -0.75, -0.709c-0.209, -0.416 -0.5, -1.5 -0.5, -1.5c-0, -0 0.166, -0.24 0.541, -0.5c0.375, -0.259 0.667, -0.417 0.917, -0.625c0.25, -0.208 1.166, -0.666 1.416, -0.666c0.25, -0 0.834, -0.084 0.542, 0.5c-0.261, 0.524 0.333, 0.625 0.333, 0.625c-0, -0 0.708, 0.291 0.875, 0.041c0.167, -0.25 0.459, -1.166 0.459, -1.166c-0, -0 0.334, -0.293 0.375, -0.084c0.041, 0.209 -0.001, 0.626 0.291, 1.209c0.292, 0.583 0.334, 1.041 0.334, 1.416c-0, 0.375 -0.292, 0.875 -0.917, 1.375m-10.986, -2.359c-0.266, 0.25 -0.485, -0.344 -0.516, -0.547c-0.031, -0.203 0.031, -0.609 0.094, -0.922c0.028, -0.149 0.328, -0.344 0.5, -0.187c0.172, 0.156 0.172, 0.483 0.348, 0.802c0.176, 0.32 -0.161, 0.604 -0.426, 0.854m6.737, -15.641c-6.075, 0.002 -11.001, 4.926 -11.001, 11.001c-0, 6.074 4.926, 10.996 11.001, 10.999c6.074, -0.003 10.997, -4.925 10.999, -10.999c-0.002, -6.075 -4.925, -10.999 -10.999, -11.001" style="fill: rgb(0, 0, 255);"/>
</svg>
