<svg viewBox="0 0 24 24" xmlns="http://www.w3.org/2000/svg">
  <path d="M19.886, 17.141c0.48, -0 0.87, -0.391 0.87, -0.869c-0, -0.483 -0.39, -0.873 -0.87, -0.873c-0.481, -0 -0.872, 0.39 -0.872, 0.873c-0, 0.478 0.391, 0.869 0.872, 0.869Zm-16.642, -0.87c0, 0.479 0.39, 0.869 0.87, 0.869c0.482, 0 0.872, -0.39 0.872, -0.869c0, -0.482 -0.39, -0.873 -0.872, -0.873c-0.48, 0 -0.87, 0.391 -0.87, 0.873Zm18.887, -5.382c-0.482, 0 -0.873, 0.388 -0.873, 0.871c-0, 0.48 0.391, 0.871 0.873, 0.871c0.479, 0 0.869, -0.391 0.869, -0.871c-0, -0.483 -0.39, -0.871 -0.869, -0.871Zm-19.389, 0.871c0, -0.482 -0.391, -0.871 -0.872, -0.871c-0.481, -0 -0.87, 0.389 -0.87, 0.871c0, 0.48 0.389, 0.871 0.87, 0.871c0.481, -0 0.872, -0.391 0.872, -0.871Zm10.733, -1.589l1.3, 0c0.004, -2.526 2.048, -4.572 4.576, -4.576c0.749, -0.004 1.542, 0.263 2.022, 0.607l0.752, -1.061c-0.743, -0.519 -1.739, -0.843 -2.774, -0.846c-3.245, 0 -5.876, 2.631 -5.876, 5.876Zm-8.826, -4.576c2.524, 0.004 4.569, 2.049 4.575, 4.576l1.299, -0c0, -3.244 -2.63, -5.874 -5.874, -5.876c-1.038, 0.006 -2.032, 0.326 -2.775, 0.847l0.753, 1.061c0.479, -0.345 1.271, -0.612 2.022, -0.608Zm1.249, 2.611c0, -0.482 -0.39, -0.872 -0.871, -0.872c-0.481, -0 -0.871, 0.39 -0.871, 0.872c0, 0.479 0.39, 0.87 0.871, 0.87c0.481, -0 0.871, -0.391 0.871, -0.87Zm13.946, -0c-0, -0.482 -0.391, -0.872 -0.871, -0.872c-0.482, -0 -0.871, 0.39 -0.871, 0.872c-0, 0.479 0.389, 0.87 0.871, 0.87c0.48, -0 0.871, -0.391 0.871, -0.87Zm-5.472, -5.88l1.112, 0.672l-2.137, 3.534l-1.341, -1.206l-1.341, 1.206l-2.133, -3.534l1.111, -0.672l1.32, 2.187l1.043, -0.937l1.042, 0.937l1.322, -2.187l0.002, 0Z" style="fill: rgb(255, 0, 0);"/>
  <path d="M16.451, 13.525c0.002, -0.743 0.187, -1.385 0.628, -1.963l-0.779, -0.989l-2.12, 0.935l-2.182, -0.977l-2.168, 0.977l-2.118, -0.935l-0.779, 0.989c0.439, 0.578 0.623, 1.22 0.625, 1.963c0.044, 2.789 -2.95, 6.678 -4.373, 8.418l-0.842, 1.057l19.328, 0l-0.843, -1.057c-1.424, -1.74 -4.422, -5.631 -4.377, -8.418" style="fill: rgb(89, 89, 89);"/>
  <path d="M14.914, 21.699l-0.879, -3.029l-1.25, 0.362l0.774, 2.667l-2.896, 0l0.172, -1.793l-1.294, -0.124l-0.183, 1.917l-4.33, 0c1.557, -2.018 3.794, -5.191 3.831, -8.174c0, -0.361 -0.036, -0.722 -0.115, -1.076l1.084, 0.479c0.003, 0.098 0.006, 0.199 0.006, 0.312c0.015, 0.908 -0.168, 2.211 -0.662, 2.775l1.005, 0.826c0.856, -1.084 0.941, -2.574 0.955, -3.601c0, -0.375 -0.018, -0.676 -0.033, -0.878l0.901, -0.406l1.22, 0.547c-0.002, 0.069 -0.011, 0.137 -0.011, 0.208c0.002, 1.175 0.322, 2.338 0.328, 2.365l1.256, -0.336c-0.004, -0.002 -0.272, -1.035 -0.283, -1.957l0.755, -0.332c-0.08, 0.353 -0.116, 0.714 -0.114, 1.074c0.036, 2.983 2.276, 6.156 3.834, 8.174l-4.071, 0Z" style="fill: rgb(180, 80, 0);"/>
</svg>
