<svg viewBox="0 0 24 24" xmlns="http://www.w3.org/2000/svg">
  <path d="M16.097, 10.829c2.257, -0.101 4.03, -1.155 4.872, -1.996c1.241, -1.241 1.104, -3.115 -0.134, -4.357c-0.459, -0.458 -1.027, -0.747 -1.62, -0.866c-0.117, -0.592 -0.405, -1.156 -0.862, -1.617c-1.243, -1.238 -3.119, -1.376 -4.359, -0.135c-0.838, 0.84 -1.889, 2.606 -1.995, 4.855c-0.105, -2.249 -1.155, -4.015 -1.994, -4.855c-1.24, -1.241 -3.116, -1.103 -4.358, 0.135c-0.457, 0.461 -0.746, 1.025 -0.863, 1.617c-0.594, 0.119 -1.162, 0.408 -1.62, 0.866c-1.238, 1.242 -1.376, 3.116 -0.134, 4.357c0.841, 0.841 2.615, 1.895 4.873, 1.996c-2.258, 0.101 -4.032, 1.155 -4.873, 1.995c-1.242, 1.242 -1.104, 3.117 0.134, 4.358c0.458, 0.459 1.026, 0.748 1.62, 0.865c0.117, 0.594 0.406, 1.157 0.863, 1.619c1.242, 1.236 3.118, 1.374 4.358, 0.133c0.817, -0.818 1.208, -2.385 1.344, -4.545l-0, 3.999c-0.004, 1.116 0.414, 2.081 1.108, 2.738c0.689, 0.658 1.628, 1.006 2.629, 1.006l1.15, 0l-0, -1.299l-1.141, 0c-1.412, -0.035 -2.42, -0.866 -2.447, -2.445l-0, -4.032c0.135, 2.18 0.524, 3.755 1.346, 4.578c1.24, 1.241 3.116, 1.103 4.359, -0.133c0.457, -0.462 0.745, -1.025 0.862, -1.619c0.593, -0.117 1.161, -0.406 1.62, -0.865c1.238, -1.241 1.375, -3.116 0.134, -4.358c-0.842, -0.84 -2.615, -1.894 -4.872, -1.995" style="fill: rgb(0, 190, 60);"/>
</svg>
