<svg viewBox="0 0 24 24" xmlns="http://www.w3.org/2000/svg">
  <path d="M18.062, 12.687c-1.046, 0.409 -4.143, 3.907 -5.412, 8.535l0, -10.276l-1.301, 0l0, 10.276c-1.27, -4.628 -4.367, -8.126 -5.412, -8.535c-1.179, -0.461 -2.031, -1.469 -2.938, -3.156c0, 3.547 0.829, 6.14 3.313, 9.719c1.778, 2.53 3.649, 3.482 4.74, 3.75l1.895, 0c1.091, -0.268 2.962, -1.22 4.74, -3.75c2.484, -3.579 3.313, -6.172 3.313, -9.719c-0.907, 1.687 -1.758, 2.695 -2.938, 3.156" style="fill: rgb(0, 190, 60);"/>
  <path d="M15.675, 4.463c-0.314, -1.062 -0.69, -1.96 -1.128, -2.691c-0, 0 -0.589, 1.681 -1.185, 3.094c-0.149, -1.553 -1.007, -3.407 -1.368, -3.866c-0.364, 0.436 -1.19, 2.19 -1.378, 3.753c-0.794, -1.323 -1.191, -2.981 -1.191, -2.981c-0.448, 0.731 -0.827, 1.629 -1.139, 2.691c-0.31, 1.064 -0.464, 2.082 -0.464, 3.059c-0, 1.393 0.395, 2.421 1.187, 3.083c0.792, 0.662 1.679, 1.02 2.664, 1.07l0.642, 0c0.964, -0.05 1.843, -0.408 2.64, -1.07c0.796, -0.662 1.198, -1.69 1.198, -3.083c-0, -0.977 -0.161, -1.995 -0.478, -3.059" style="fill: rgb(255, 0, 0);"/>
</svg>
