<svg viewBox="0 0 24 24" xmlns="http://www.w3.org/2000/svg">
  <path d="M22.346, 6.556c-0.439, -0.939 -1.131, -1.713 -2.068, -2.319c-0.235, -0.137 -0.455, -0.235 -0.661, -0.293c-0.207, -0.059 -0.427, -0.088 -0.662, -0.088c-0.429, -0 -0.845, 0.097 -1.246, 0.293c-0.402, 0.196 -0.789, 0.46 -1.16, 0.793c-1.135, 0.938 -2.152, 2.196 -3.052, 3.771c-0.9, 1.575 -1.38, 3.048 -1.438, 4.417l-0.147, -0c-0.097, -1.388 -0.591, -2.871 -1.482, -4.446c-0.891, -1.575 -1.893, -2.822 -3.009, -3.742c-0.39, -0.333 -0.786, -0.597 -1.188, -0.793c-0.401, -0.196 -0.807, -0.293 -1.217, -0.293c-0.234, -0 -0.455, 0.029 -0.661, 0.088c-0.206, 0.058 -0.425, 0.156 -0.66, 0.293c-0.959, 0.606 -1.649, 1.38 -2.07, 2.319c-0.42, 0.939 -0.631, 2.006 -0.631, 3.199l-0, 0.322c-0, 0.842 0.28, 1.483 0.836, 1.923c0.559, 0.441 1.297, 0.72 2.217, 0.837c1.369, 0.157 2.68, 0.342 3.932, 0.557c1.238, 0.214 2.361, 0.475 3.37, 0.783l-0, 5.968l1.3, -0l-0, -5.983c0.993, -0.3 2.071, -0.553 3.24, -0.752c1.203, -0.207 2.549, -0.397 4.035, -0.573c0.901, -0.117 1.635, -0.396 2.201, -0.837c0.569, -0.44 0.852, -1.081 0.852, -1.923l0.029, -0.322c-0, -1.193 -0.22, -2.26 -0.66, -3.199" style="fill: rgb(0, 190, 60);"/>
</svg>
