<svg viewBox="0 0 24 24" xmlns="http://www.w3.org/2000/svg">
  <path d="M16.516, 19.319c0.111, -0.371 0.189, -0.71 0.282, -1.063c-1.24, 0.556 -3.282, 1.251 -5.801, 1.253c-2.016, 0.002 -4.331, -0.457 -6.719, -1.785c-0.28, 0.976 -0.187, 2.056 0.36, 3.004c1.268, 2.195 4.794, 2.781 8.926, 0.862c0.891, -0.413 1.77, -0.915 2.612, -1.456c0.14, -0.281 0.27, -0.572 0.34, -0.815Zm5.075, -8.883c-0.418, -0.902 -0.928, -1.792 -1.477, -2.643c-0.332, -0.135 -0.631, -0.252 -0.836, -0.322c-0.52, -0.195 -1.03, -0.369 -1.534, -0.533c0.57, 1.156 1.157, 2.984 1.154, 5.618c-0, 1.933 -0.316, 4.292 -1.165, 7.131l-0.011, 0.035c0.975, 0.28 2.057, 0.188 3.005, -0.36c2.197, -1.268 2.783, -4.791 0.864, -8.926Zm-7.214, -0.584c0.293, 0.74 0.462, 1.537 0.462, 2.355c0.022, 2.309 -1.26, 4.733 -3.962, 6.03c0.04, -0 0.081, 0.004 0.12, 0.004c1.887, -0 3.501, -0.438 4.641, -0.875c0.737, -0.285 1.257, -0.557 1.535, -0.717c0.31, -1.553 0.454, -2.926 0.454, -4.093c0, -0.349 -0.018, -0.671 -0.039, -0.987c-1.068, -0.845 -2.151, -1.402 -3.211, -1.717Zm-7.72, 6.479c0.125, 0.562 0.24, 0.964 0.318, 1.217c0.288, 0.1 0.573, 0.19 0.854, 0.265c2.002, -0.298 3.4, -1.049 4.315, -2.018c-1.98, -0.117 -4.275, -1.666 -4.307, -4.32c-0, -0.186 0.014, -0.376 0.039, -0.57c-0.674, 0.505 -1.23, 1.126 -1.635, 1.82c0.007, 1.398 0.21, 2.677 0.416, 3.606Zm-3.364, -1.09c0.481, 0.501 1.144, 1.149 1.516, 1.329c0.228, 0.129 0.454, 0.244 0.68, 0.356c-0.246, -1.024 -0.52, -2.547 -0.521, -4.266c-0.004, -2.413 0.563, -5.262 2.596, -7.529c-0.127, -0.327 -0.689, -0.633 -0.689, -0.633c-1.113, -0.529 -2.457, -0.523 -3.604, 0.139c-2.196, 1.269 -2.781, 4.793 -0.863, 8.927c0.263, 0.566 0.564, 1.126 0.885, 1.677Zm6.126, -5.204c-0.217, 0.532 -0.313, 1.014 -0.313, 1.438c0.004, 1.863 1.826, 3.058 3.273, 3.06c0.267, 0.002 0.499, -0.045 0.698, -0.116c0.329, -0.712 0.484, -1.468 0.493, -2.212c0, -0.968 -0.28, -1.899 -0.761, -2.664c-0.228, -0.02 -0.453, -0.03 -0.675, -0.03c-0.969, -0.001 -1.886, 0.19 -2.715, 0.524Zm6.639, -3.463c-0.062, -0.084 -0.108, -0.141 -0.146, -0.186c-2.683, -0.726 -5.004, -1.038 -6.62, -1.168c-1.723, 1.475 -2.545, 3.364 -2.868, 5.26c1.448, -1.377 3.472, -2.237 5.711, -2.239c1.689, -0.001 3.491, 0.503 5.234, 1.614c-0.349, -1.759 -0.967, -2.81 -1.311, -3.281Zm3.663, -0.295c0.281, -0.977 0.188, -2.059 -0.359, -3.009c-1.268, -2.195 -4.792, -2.78 -8.927, -0.862c-0.891, 0.413 -1.77, 0.916 -2.614, 1.459c1.932, 0.051 6.54, 0.4 11.9, 2.412Z" style="fill: rgb(255, 0, 0);"/>
</svg>
