<svg viewBox="0 0 24 24" xmlns="http://www.w3.org/2000/svg">
  <path d="M15.206, 18.043c-1.699, -1.73 -4.097, -2.754 -5.123, -2.728l0, 0.003l0, -1.302c1.637, 0.029 4.075, 1.172 6.044, 3.107l-0.921, 0.92Zm3.504, -2.063c-0.793, -1.584 -1.732, -3.036 -3.191, -3.948c-1.504, -0.94 -2.931, -1.099 -4.359, -0.671c-1.35, 0.406 -2.011, 1.14 -2.699, 2.216c-0.741, -0.601 -2.151, -1.069 -2.151, -1.069l-0.718, 1.584c0, -0 1.564, 0.171 2.483, 0.694c-0.128, 0.686 -0.151, 1.286 0.01, 2.375c0.161, 1.089 0.755, 2.369 1.614, 3.228c1.008, 1.008 2.183, 1.427 4.036, 1.623c2.409, 0.258 5.595, -1.149 8.56, -3.203c-1.634, -0.382 -2.771, -1.201 -3.585, -2.829" style="fill: rgb(0, 190, 60);"/>
  <path d="M2.928, 11.318l1.291, -0.153c0.045, 0.378 0.183, 0.746 0.422, 1.079l-1.053, 0.76c-0.372, -0.514 -0.59, -1.095 -0.66, -1.686Zm1.392, -1.157l-0.002, -0l-1.234, -0.405c0.187, -0.569 0.518, -1.098 0.981, -1.523l0.88, 0.958c-0.296, 0.271 -0.506, 0.606 -0.625, 0.97Zm12.03, -1.381l-0.016, 1.301c-0.286, -0.004 -0.589, -0.033 -0.89, -0.056c-0.238, -0.018 -0.475, -0.049 -0.703, -0.088l0.216, -1.282c0.195, 0.035 0.392, 0.059 0.589, 0.074c0.306, 0.024 0.596, 0.049 0.802, 0.051l0.002, -0Zm1.128, -0.127c0.434, -0.103 0.842, -0.268 1.219, -0.482l0.646, 1.128c-0.482, 0.276 -1.006, 0.486 -1.562, 0.619l-0.303, -1.265Zm-4.828, 0.673c-0.019, -0.009 -0.334, -0.126 -0.754, -0.35l0.614, -1.146c0.345, 0.185 0.59, 0.275 0.619, 0.288c0.2, 0.084 0.424, 0.168 0.661, 0.247l-0.404, 1.235c-0.274, -0.091 -0.531, -0.188 -0.736, -0.274Zm-4.476, -0.386l0.373, -1.244c0.52, 0.154 1.036, 0.327 1.456, 0.471l-0.426, 1.229c-0.407, -0.141 -0.907, -0.308 -1.403, -0.456Zm-2.752, -1.497c0.357, -0.113 0.726, -0.168 1.091, -0.168c0.159, -0 0.321, 0.01 0.508, 0.037c0.07, 0.012 0.14, 0.025 0.212, 0.039l-0.263, 1.275c-0.062, -0.013 -0.121, -0.025 -0.152, -0.032c-0.099, -0.014 -0.2, -0.02 -0.305, -0.02c-0.234, -0 -0.468, 0.037 -0.696, 0.109l-0.395, -1.24Zm14.186, 0.047c0.318, -0.303 0.591, -0.651 0.812, -1.032l1.126, 0.653c-0.285, 0.488 -0.635, 0.93 -1.038, 1.317l-0.9, -0.938Zm-5.008, -0.064c0.318, -0.27 0.579, -0.574 0.695, -0.829l1.176, 0.551c-0.243, 0.515 -0.627, 0.92 -1.024, 1.266l-0.847, -0.988Zm-4.846, -0.957l1.29, -0.146c0.027, 0.269 0.217, 0.576 0.531, 0.864l-0.881, 0.958c-0.438, -0.406 -0.856, -0.954 -0.94, -1.676Zm11.112, -1.058c0.115, -0.408 0.179, -0.84 0.179, -1.287l0, -0.012l1.3, -0.002l0, 0.014c0, 0.568 -0.08, 1.122 -0.232, 1.647l-1.247, -0.36Zm-6.072, -0.669l0.945, -0.893c0.416, 0.44 0.72, 0.994 0.86, 1.607l-1.268, 0.291c-0.086, -0.383 -0.276, -0.729 -0.537, -1.005Zm-4.777, 0.13c0.245, -0.573 0.636, -1.064 1.128, -1.431l0.776, 1.044c-0.309, 0.23 -0.556, 0.539 -0.708, 0.897l-1.196, -0.51Zm3.197, -0.813c-0.132, -0 -0.26, 0.012 -0.385, 0.035l0, -0.002l-0.227, -1.279c0.198, -0.035 0.404, -0.053 0.612, -0.053c0.422, -0 0.829, 0.074 1.202, 0.214l-0.449, 1.218c-0.235, -0.086 -0.488, -0.133 -0.753, -0.133Zm7.193, -2.289l0.002, -0l1.12, -0.659c0.281, 0.48 0.498, 1 0.638, 1.554l-1.262, 0.317c-0.109, -0.43 -0.277, -0.837 -0.498, -1.212Z" style="fill: rgb(0, 190, 60);"/>
</svg>
