<svg viewBox="0 0 24 24" xmlns="http://www.w3.org/2000/svg">
  <path d="M18.849, 1.703c-0.445, -0.441 -1.049, -0.688 -1.691, -0.688c-0.692, 0 -1.37, 0.295 -1.86, 0.81l-3.298, 3.689l-3.276, -3.665c-0.512, -0.539 -1.19, -0.834 -1.881, -0.834c-0.643, 0 -1.245, 0.247 -1.697, 0.694c-0.459, 0.448 -0.724, 1.101 -0.721, 1.786l-0, 11.226c-0, 0.397 0.146, 0.779 0.412, 1.076l5.961, 6.665c0.203, 0.224 0.464, 0.378 0.745, 0.463l-0, -1.13l-5.962, -6.666c-0.101, -0.113 -0.156, -0.256 -0.156, -0.408l-0, -11.23c-0.002, -0.416 0.154, -0.808 0.425, -1.072c0.27, -0.267 0.63, -0.403 0.993, -0.403c0.406, 0 0.823, 0.171 1.136, 0.499l3.515, 3.932c0.398, 0.422 0.506, 0.826 0.506, 1.225c-0, -0.399 0.109, -0.803 0.507, -1.225l3.515, -3.932c0.312, -0.328 0.729, -0.499 1.136, -0.499c0.363, 0 0.723, 0.136 0.993, 0.403c0.27, 0.264 0.427, 0.656 0.425, 1.072l-0, 11.23c-0, 0.152 -0.055, 0.295 -0.157, 0.408l-5.962, 6.666l-0, 1.13c0.282, -0.084 0.541, -0.238 0.743, -0.46l5.964, -6.669c0.265, -0.296 0.412, -0.678 0.412, -1.075l-0, -11.23c0.002, -0.681 -0.262, -1.334 -0.727, -1.788" style="fill: rgb(89, 89, 89);"/>
  <path d="M18.15, 2.419c-0.27, -0.267 -0.63, -0.404 -0.993, -0.404c-0.406, 0 -0.823, 0.172 -1.136, 0.5l-3.515, 3.932c-0.398, 0.422 -0.506, 0.826 -0.506, 1.224l0, 15.329c0.156, 0 0.309, -0.032 0.457, -0.076l0, -1.13l5.962, -6.666c0.101, -0.113 0.156, -0.255 0.156, -0.408l0, -11.23c0.002, -0.416 -0.154, -0.807 -0.425, -1.071" style="fill: rgb(0, 190, 60);"/>
  <path d="M11.493, 6.447l-3.515, -3.932c-0.312, -0.328 -0.729, -0.5 -1.135, -0.5c-0.364, 0 -0.724, 0.137 -0.994, 0.404c-0.27, 0.264 -0.426, 0.655 -0.424, 1.071l0, 11.23c0, 0.153 0.054, 0.295 0.156, 0.409l5.962, 6.666l0, 1.13c0.148, 0.043 0.3, 0.075 0.457, 0.075l0, -15.328c0, -0.399 -0.109, -0.803 -0.507, -1.225" style="fill: rgb(255, 190, 0);"/>
</svg>
