<svg viewBox="0 0 24 24" xmlns="http://www.w3.org/2000/svg">
  <path d="M13.078, 15.106c-0.009, 0.008 -0.698, 0.767 -1.217, 1.721c-0.458, 0.91 -0.937, 1.923 -1.314, 1.845c-0.033, 0 -0.07, -0.005 -0.105, -0.013c-0.115, -0.028 -0.166, -0.118 -0.177, -0.392c-0.003, -0.469 0.273, -1.143 0.271, -1.145l-0.431, -0.227c0, 0 -0.263, 0.403 -0.604, 0.806c-0.328, 0.407 -0.796, 0.773 -0.938, 0.745c-0.043, -0.007 -0.05, -0.002 -0.099, -0.064c-0.094, -0.136 -0.133, -0.274 -0.133, -0.43c-0.049, -1.017 1.974, -2.618 1.972, -2.625l-0.25, -0.416c-2.473, 1.159 -3.796, 3.061 -3.807, 4.564c-0.011, 0.759 0.382, 1.434 1.121, 1.735c0.004, 1.029 0.716, 1.789 1.582, 1.789c0.001, 0.001 0.003, 0.001 0.005, 0.001c0.501, 0 1.019, -0.258 1.434, -0.789c0.287, 0.174 0.616, 0.251 0.942, 0.251c0.962, -0.002 2, -0.675 2.012, -1.777c0, -0.144 -0.017, -0.297 -0.059, -0.453c-0.214, -0.808 -0.29, -1.549 -0.29, -2.195c0, -1.645 0.495, -2.655 0.487, -2.661l-0.402, -0.27Zm4.604, 5.937l-0.024, -0c-0.826, -0 -1.697, -0.503 -1.808, -1.517c-0.33, -2.939 -1.932, -4.455 -1.935, -4.459l0.276, -0.395c0.011, 0.004 0.925, 0.461 1.753, 1.164c0.666, 0.585 1.385, 1.306 1.76, 1.27c0.077, -0 0.143, -0.022 0.223, -0.074c0.065, -0.05 0.077, -0.081 0.083, -0.173c0.031, -0.38 -0.712, -1.228 -0.724, -1.228l0.32, -0.368c0, -0.002 0.328, 0.227 0.727, 0.454c0.407, 0.232 0.889, 0.465 1.163, 0.452c0.152, -0.017 0.14, -0.008 0.18, -0.106c0.015, -0.062 0.019, -0.12 0.022, -0.177c0.023, -0.495 -0.635, -1.052 -1.379, -1.425c-0.728, -0.376 -1.462, -0.588 -1.462, -0.588l0.084, -0.479c3.19, 0.228 5.311, 1.965 5.344, 3.628c0.003, 0.467 -0.19, 0.919 -0.565, 1.276c0.095, 0.252 0.141, 0.501 0.139, 0.741c0, 0.876 -0.64, 1.603 -1.53, 1.603c-0.336, -0 -0.698, -0.103 -1.062, -0.32c-0.373, 0.487 -0.989, 0.721 -1.585, 0.721Zm-12.984, -4.828l-0.009, -0c-1.051, -0.016 -1.955, -0.972 -1.97, -2.007c0, -0.064 0.004, -0.128 0.012, -0.192c-0.94, -0.222 -1.454, -0.885 -1.447, -1.584c-0.002, -0.63 0.401, -1.251 1.104, -1.575c-0.001, -0.03 -0.002, -0.059 -0.002, -0.088c0.002, -1.229 1.106, -1.921 2.478, -1.923c1.287, -0 2.881, 0.564 4.37, 1.833l-0.274, 0.399c-0.001, -0 -0.388, -0.203 -0.908, -0.405c-0.52, -0.204 -1.178, -0.406 -1.72, -0.403c-0.443, 0.007 -0.746, 0.121 -0.921, 0.414c-0.021, 0.034 -0.021, 0.047 -0.024, 0.068c-0.008, 0.028 0.049, 0.136 0.241, 0.249c0.182, 0.112 0.452, 0.218 0.724, 0.299c0.548, 0.168 1.102, 0.251 1.102, 0.251l-0.027, 0.485c0, 0.002 -0.402, 0.015 -0.792, 0.11c-0.415, 0.091 -0.681, 0.289 -0.654, 0.406c0, -0 0, 0.014 0.005, 0.042c-0.02, 0.471 1.14, 0.485 2.255, 0.522c0.987, 0.07 1.883, 0.334 2.047, 0.385c0.027, 0.006 0.034, 0.012 0.044, 0.015l-0.1, 0.274l0, 0.194c-0.107, -0 -2.283, 0.025 -4.495, 1.845c-0.321, 0.264 -0.686, 0.386 -1.039, 0.386Zm-0.043, -9.105c0.605, 0.329 1.231, 0.321 1.557, 0.042c1.734, 1.332 4.415, 3.687 5.941, 6.504c0.217, 0.4 1.347, -0.256 1.008, -0.749c-1.933, -2.813 -4.881, -4.848 -6.775, -5.959c0.184, -0.442 -0.186, -1.069 -0.866, -1.439c-0.708, -0.382 -1.474, -0.336 -1.713, 0.106c-0.24, 0.445 0.14, 1.113 0.848, 1.495Zm18.061, 0.414c-0, -0.868 -0.748, -1.543 -1.712, -1.545c-0.096, 0 -0.192, 0.007 -0.292, 0.021c-0.343, -0.598 -0.926, -0.909 -1.559, -0.901c-1.557, 0.017 -3.444, 1.625 -4.316, 4.413l0.446, 0.191c-0, -0.003 0.335, -0.594 0.824, -1.185c0.483, -0.599 1.136, -1.149 1.621, -1.133c0.112, 0 0.219, 0.025 0.333, 0.083c0.078, 0.05 0.069, 0.045 0.078, 0.115c0.019, 0.178 -0.297, 0.67 -0.645, 1.038c-0.342, 0.379 -0.686, 0.675 -0.686, 0.675l0.282, 0.396c0.002, -0.005 0.793, -0.444 1.239, -0.435c0.184, 0.01 0.231, 0.039 0.278, 0.136c0.017, 0.051 0.025, 0.1 0.027, 0.145c0.061, 0.364 -0.857, 0.953 -1.653, 1.506c-0.877, 0.644 -1.534, 1.429 -1.542, 1.437l0.322, 0.361c0.004, -0.002 1.397, -0.918 3.703, -0.918c0.341, 0 0.701, 0.022 1.081, 0.069c0.081, 0.009 0.154, 0.01 0.226, 0.01c1.118, -0.005 1.737, -1.026 1.739, -1.963c-0, -0.422 -0.122, -0.851 -0.396, -1.188c0.408, -0.421 0.604, -0.887 0.602, -1.328Zm-8.641, 2.296c0, -0.396 0.086, -2.401 1.676, -4.492c0.239, -0.318 0.349, -0.669 0.349, -1.008c-0.016, -1.055 -0.985, -1.938 -2.014, -1.95c-0.085, -0.001 -0.17, 0.006 -0.254, 0.019c-0.249, -0.907 -0.903, -1.395 -1.583, -1.389c-0.653, 0 -1.284, 0.426 -1.592, 1.163c-0.003, 0 -0.006, 0 -0.009, 0.001c-1.219, 0 -1.906, 1.067 -1.908, 2.392c0.002, 1.312 0.619, 2.954 1.994, 4.455l0.392, -0.29c-0.008, -0.002 -0.916, -1.594 -0.905, -2.674c0.003, -0.403 0.11, -0.683 0.374, -0.851c0.041, -0.027 0.056, -0.031 0.077, -0.031c0.028, -0.008 0.141, 0.051 0.261, 0.238c0.368, 0.55 0.608, 1.795 0.61, 1.797l0.005, -0.001c0.073, 0.228 0.123, 0.136 0.127, 0.174l0.44, 0.222l-0.091, -0.483c0.003, -0.112 0.017, -0.448 0.085, -0.77c0.082, -0.418 0.264, -0.677 0.387, -0.653c0, 0 0.007, 0.002 0.034, 0.006c0.473, -0.036 0.526, 1.119 0.606, 2.233c0.121, 1.083 0.464, 2.044 0.468, 2.057l0.473, -0.108c0, 0 -0.002, -0.014 -0.002, -0.057Zm-11.29, -2.858c-0.132, 0.243 -0.041, 0.546 0.201, 0.677c0.242, 0.133 0.547, 0.041 0.68, -0.199c0.129, -0.246 0.041, -0.549 -0.202, -0.68c-0.243, -0.133 -0.548, -0.043 -0.679, 0.202Zm-0.169, -1.318c0.244, 0.135 0.548, 0.045 0.679, -0.2c0.134, -0.242 0.04, -0.546 -0.201, -0.678c-0.247, -0.132 -0.549, -0.042 -0.679, 0.201c-0.131, 0.243 -0.042, 0.547 0.201, 0.677Zm2.006, -0.931c0.244, 0.132 0.548, 0.041 0.682, -0.2c0.128, -0.244 0.04, -0.55 -0.205, -0.682c-0.243, -0.131 -0.544, -0.041 -0.675, 0.205c-0.133, 0.242 -0.043, 0.545 0.198, 0.677Z" style="fill: rgb(255, 0, 0);"/>
</svg>
