<svg viewBox="0 0 24 24" xmlns="http://www.w3.org/2000/svg">
  <path d="M11.516, 9l0.104, 0.506c0.167, 1.066 0.251, 2.198 0.251, 3.369c-0, 0.399 -0.011, 0.823 -0.031, 1.27c-0.076, 1.518 -0.381, 2.919 -0.904, 4.17l2.752, 0c-0, 0 0.062, -0.19 0.115, -0.312c0.272, -1.154 0.41, -2.44 0.41, -3.823c-0, -0.354 -0.009, -0.718 -0.023, -1.097c-0.07, -1.377 -0.361, -2.657 -0.868, -3.801l-0.322, -0.595l-1.484, 0.313Z" style="fill: rgb(180, 80, 0);"/>
  <path d="M21.537, 22.999l-18.537, 0l0.826, -1.052c2.028, -2.592 5.111, -4.11 8.442, -4.11c3.332, 0 6.413, 1.518 8.442, 4.11l0.826, 1.052Zm-7.695, -13.945c0.771, 0.014 1.739, 0.088 2.846, 0.311c1.488, 0.3 2.712, 0.771 3.557, 1.161c0.845, 0.391 1.291, 0.693 1.293, 0.689l1.141, 0.766l-0.259, -1.348c-0.007, -0.063 -0.694, -3.582 -4.582, -4.436c-0.495, -0.106 -0.966, -0.15 -1.414, -0.15c-0.369, 0.002 -0.719, 0.036 -1.05, 0.091c1.037, -0.741 2.026, -1.229 2.748, -1.526c0.736, -0.304 1.179, -0.406 1.179, -0.408l1.463, -0.351l-1.323, -0.714c-0.049, -0.021 -1.153, -0.622 -2.696, -0.626c-0.944, -0.001 -2.063, 0.239 -3.132, 0.993c-0.691, 0.483 -1.169, 1.043 -1.504, 1.612c-0.446, -1.088 -1.295, -2.335 -2.918, -3.247c-1.152, -0.647 -2.272, -0.873 -3.24, -0.873c-1.985, 0.006 -3.319, 0.904 -3.373, 0.936l-1.255, 0.843l1.498, 0.205c0.002, -0 0.553, 0.07 1.474, 0.345c0.922, 0.275 2.188, 0.746 3.544, 1.534c0.51, 0.294 0.958, 0.593 1.367, 0.886c-0.584, -0.234 -1.259, -0.402 -2.042, -0.408c-0.298, -0 -0.615, 0.025 -0.94, 0.078c-3.426, 0.592 -4.176, 3.696 -4.187, 3.752l-0.317, 1.325l1.171, -0.698c0.002, -0.002 0.389, -0.236 1.124, -0.534c0.737, -0.297 1.798, -0.645 3.081, -0.842c0.131, -0.02 0.246, -0.026 0.374, -0.042c-0.719, 0.302 -1.458, 0.769 -2.149, 1.499c-1.52, 1.589 -1.874, 3.414 -1.872, 4.714c-0, 1.095 0.238, 1.842 0.253, 1.88l0.481, 1.509l0.596, -1.469c0.002, -0 0.208, -0.516 0.704, -1.342c0.494, -0.824 1.265, -1.932 2.362, -3.053c0.997, -1.018 1.959, -1.743 2.67, -2.212c0.186, -0.123 0.35, -0.225 0.496, -0.31c0.693, -0.328 1.75, -0.54 2.831, -0.54Z" style="fill: rgb(0, 190, 60);"/>
  <path d="M14.403, 8.876c-0.509, -0.831 -1.504, -1.147 -2.223, -0.707c-0.234, 0.144 -0.403, 0.353 -0.516, 0.594c-0.059, -0.054 -0.12, -0.106 -0.19, -0.149c-0.718, -0.44 -1.713, -0.124 -2.222, 0.707c-0.508, 0.83 -0.338, 1.861 0.381, 2.3c0.718, 0.441 1.714, 0.123 2.222, -0.706c0.044, -0.072 0.076, -0.147 0.11, -0.221c0.539, 0.656 1.409, 0.88 2.057, 0.482c0.719, -0.44 0.889, -1.47 0.381, -2.3" style="fill: rgb(255, 190, 0);"/>
</svg>
