<svg viewBox="0 0 24 24" xmlns="http://www.w3.org/2000/svg">
  <path d="M21.665, 13.707c0, -1.111 -0.898, -2.011 -2.011, -2.011c-1.111, 0 -2.01, 0.9 -2.012, 2.011l0, 3.012l-2.013, 0l-0, -9.405c-0, -1.204 -0.593, -2.264 -1.495, -2.924l1.824, -1.825l-0.707, -0.707l-2.048, 2.049c-0.226, -0.083 -0.459, -0.148 -0.703, -0.184l-0, -2.723l-1.001, -0l-0, 2.723c-0.244, 0.036 -0.477, 0.101 -0.702, 0.184l-2.049, -2.049l-0.707, 0.707l1.826, 1.824l-0.002, 0.001c-0.902, 0.661 -1.496, 1.72 -1.496, 2.924l0, 5.379l-2.011, 0l-0, -3.01l-0.002, 0c-0, -1.113 -0.901, -2.011 -2.01, -2.011c-1.112, -0 -2.011, 0.898 -2.013, 2.011l-0, 5.023c-0, 1.111 0.899, 2.011 2.011, 2.013l4.025, 0l0, 6.281l7.26, 0l-0, -2.257l4.025, 0c1.113, -0.002 2.013, -0.9 2.013, -2.012l-0, -5.024l-0.002, 0Z" style="fill: rgb(0, 190, 60);"/>
</svg>
