<svg viewBox="0 0 24 24" xmlns="http://www.w3.org/2000/svg">
  <path d="M14.914, 2.732c0.022, -0.487 0.516, -0.86 1.1, -0.839c0.584, 0.027 1.043, 0.445 1.025, 0.935l-0, -0l0, -0.001c0.16, -0.462 0.742, -0.679 1.295, -0.49c0.554, 0.195 0.87, 0.726 0.713, 1.19c0.338, -0.351 0.957, -0.306 1.381, 0.097c0.42, 0.409 0.488, 1.024 0.15, 1.379l-0.002, 0.002l0.002, -0.002c0.408, -0.269 1.002, -0.09 1.326, 0.396c0.322, 0.491 0.251, 1.106 -0.154, 1.379c-0.41, 0.269 -1.006, 0.09 -1.328, -0.397c-0.286, -0.435 -0.266, -0.971 0.031, -1.274c-0.354, 0.234 -0.885, 0.159 -1.257, -0.202c-0.327, -0.315 -0.442, -0.755 -0.319, -1.102c-0.256, 0.266 -0.702, 0.363 -1.129, 0.213c-0.468, -0.164 -0.768, -0.571 -0.75, -0.973c-0.133, 0.38 -0.563, 0.648 -1.058, 0.626c-0.491, -0.021 -0.892, -0.316 -0.999, -0.699c-0.018, 0.398 -0.343, 0.776 -0.815, 0.905c-0.505, 0.14 -1.01, -0.049 -1.205, -0.428c0.114, 0.411 -0.129, 0.894 -0.594, 1.133c-0.003, 0.002 -0.007, 0.002 -0.011, 0.003c0.305, 0.114 0.541, 0.338 0.591, 0.641c0.026, -0.49 0.522, -0.86 1.106, -0.832c0.584, 0.03 1.039, 0.452 1.017, 0.941l-0, -0l0, -0c0.174, -0.457 0.761, -0.656 1.31, -0.452c0.545, 0.209 0.847, 0.748 0.68, 1.207c0.297, -0.385 0.916, -0.407 1.38, -0.053c0.464, 0.359 0.597, 0.963 0.3, 1.354l-0.001, 0.001l0.001, -0c0.433, -0.227 1.006, 0.01 1.281, 0.527c0.27, 0.52 0.139, 1.126 -0.293, 1.356l-0, -0l0.001, -0c0.472, -0.126 0.979, 0.231 1.133, 0.794c0.15, 0.569 -0.111, 1.13 -0.582, 1.26c-0.475, 0.126 -0.983, -0.232 -1.135, -0.795c-0.133, -0.504 0.053, -1.004 0.43, -1.2c-0.41, 0.11 -0.888, -0.129 -1.128, -0.588c-0.209, -0.402 -0.18, -0.857 0.046, -1.147c-0.326, 0.172 -0.78, 0.123 -1.138, -0.154c-0.391, -0.302 -0.549, -0.782 -0.406, -1.158c-0.247, 0.317 -0.739, 0.434 -1.201, 0.256c-0.46, -0.174 -0.748, -0.581 -0.727, -0.978c-0.142, 0.371 -0.569, 0.628 -1.058, 0.602c-0.524, -0.026 -0.943, -0.365 -1.008, -0.786c-0.011, 0.18 -0.087, 0.352 -0.209, 0.497c0.428, 0.264 0.643, 0.734 0.474, 1.137c0.279, -0.399 0.9, -0.45 1.38, -0.114c0.477, 0.336 0.637, 0.935 0.358, 1.338l-0, 0c0.391, -0.295 0.994, -0.151 1.352, 0.315c0.348, 0.468 0.316, 1.088 -0.072, 1.385l-0.002, 0.001l0.002, -0c0.457, -0.171 0.996, 0.141 1.199, 0.688c0.201, 0.55 -0.008, 1.134 -0.469, 1.306l-0.001, -0l0.001, -0c0.488, 0.04 0.846, 0.545 0.804, 1.131c-0.05, 0.584 -0.482, 1.024 -0.97, 0.988c-0.49, -0.039 -0.85, -0.547 -0.801, -1.128c0.035, -0.453 0.301, -0.821 0.646, -0.947c-0.366, -0.029 -0.723, -0.313 -0.878, -0.737c-0.172, -0.465 -0.047, -0.956 0.275, -1.197c-0.378, 0.139 -0.858, -0.025 -1.156, -0.422c-0.295, -0.392 -0.322, -0.89 -0.093, -1.215c-0.317, 0.239 -0.815, 0.228 -1.216, -0.053c-0.428, -0.301 -0.604, -0.811 -0.436, -1.201c-0.246, 0.347 -0.772, 0.465 -1.253, 0.258c-0.497, -0.215 -0.757, -0.701 -0.642, -1.131c-2.171, 0.945 -3.619, 5.541 -3.571, 10.261l0, 2.202c0.046, 0.308 0.089, 0.613 0.128, 0.916c0.887, -1.642 2.056, -3.25 3.297, -4.157c1.688, 0.562 3.875, 2.312 5.063, 5.125c-1.375, -1.25 -3.688, -3.349 -4.938, -3.563c-1.208, 1.375 -2.518, 3.32 -3.062, 5.938l-2.959, -0c0, -1 -0.646, -6.898 -3.04, -9.292c1.401, 0.313 2.643, 1.728 3.495, 3.638c-0.421, -2.854 -1.181, -5.82 -2.309, -7.159c-0.973, 0.612 -1.688, 1.412 -2.277, 2.632c0.084, -2.357 1.514, -3.743 2.944, -4.09c1.056, 1.056 1.889, 2.845 2.525, 4.902c0.432, -3.989 1.746, -7.551 4.458, -8.65c0.101, -0.148 0.241, -0.271 0.421, -0.356c-0.171, -0.074 -0.321, -0.18 -0.407, -0.347c-0.224, -0.434 0.016, -1.006 0.536, -1.276c0.52, -0.269 1.126, -0.133 1.353, 0.301l0.001, 0.002l-0.001, -0.002c-0.131, -0.472 0.222, -0.981 0.785, -1.14c0.564, -0.155 1.13, 0.1 1.264, 0.569Z" style="fill: rgb(255, 140, 0);"/>
</svg>
