<svg viewBox="0 0 24 24" xmlns="http://www.w3.org/2000/svg">
  <path d="M19.017, 19.235c-1.745, 1.1 -4.237, 1.721 -7.015, 1.719c-2.781, 0.002 -5.273, -0.619 -7.017, -1.719c-1.739, -1.106 -2.736, -2.608 -2.754, -4.57c2.361, 1.844 6.008, 2.859 9.772, 2.859c3.771, 0 7.413, -1.018 9.768, -2.87c-0.017, 1.968 -1.013, 3.473 -2.754, 4.581m1.596, -6.709c0.379, 0 0.685, 0.307 0.685, 0.685c-0, 0.378 -0.306, 0.685 -0.685, 0.685c-0.378, 0 -0.685, -0.307 -0.685, -0.685c-0, -0.378 0.307, -0.685 0.685, -0.685m-6.683, -6.037c0.148, -0.215 0.441, -0.269 0.656, -0.12c0.719, 0.497 1.549, 1.017 2.504, 1.578c1.439, 0.94 2.526, 1.941 3.258, 3.051c0.145, 0.217 0.083, 0.509 -0.134, 0.653c-0.08, 0.053 -0.172, 0.078 -0.261, 0.078c-0.154, 0 -0.304, -0.075 -0.394, -0.212c-0.637, -0.966 -1.621, -1.886 -2.966, -2.766c-0.951, -0.558 -1.799, -1.092 -2.544, -1.605l0.003, 0c-0.218, -0.148 -0.27, -0.442 -0.122, -0.657m3.949, 0.118c-0.027, -0.018 -1.37, -0.803 -2.718, -1.768c-0.674, -0.482 -1.345, -1.007 -1.832, -1.482c-0.497, -0.458 -1.327, -1.538 -1.327, -1.538l-0.002, 0c-0, 0 -0.829, 1.08 -1.329, 1.538c-1.469, 1.439 -4.52, 3.229 -4.522, 3.234c-3.527, 2.277 -5.161, 4.965 -5.149, 8.04c-0.006, 2.433 1.318, 4.389 3.329, 5.642c2.014, 1.264 4.714, 1.905 7.673, 1.907c2.955, -0.002 5.657, -0.643 7.669, -1.907c2.012, -1.253 3.336, -3.209 3.329, -5.642c0.012, -3.075 -1.622, -5.763 -5.121, -8.024" style="fill: rgb(180, 80, 0);"/>
</svg>
