<svg viewBox="0 0 24 24" xmlns="http://www.w3.org/2000/svg">
  <path d="M11.999, 15.602c-1.989, -0 -3.602, -1.612 -3.602, -3.602c0, -1.99 1.613, -3.602 3.602, -3.602c1.989, -0 3.603, 1.612 3.603, 3.602c0, 1.99 -1.614, 3.602 -3.603, 3.602m8.164, -3.188c-0.266, -0.155 -0.587, -0.291 -0.935, -0.413c0.348, -0.122 0.669, -0.259 0.935, -0.413c1.781, -1.029 2.392, -3.305 1.363, -5.087c-1.028, -1.781 -3.306, -2.392 -5.088, -1.363c-0.265, 0.153 -0.544, 0.362 -0.825, 0.605c0.071, -0.365 0.112, -0.711 0.112, -1.018c0, -2.057 -1.667, -3.725 -3.725, -3.725c-2.057, -0 -3.725, 1.668 -3.725, 3.725c0, 0.307 0.042, 0.653 0.113, 1.018c-0.282, -0.243 -0.561, -0.452 -0.827, -0.605c-1.781, -1.029 -4.058, -0.419 -5.087, 1.363c-1.029, 1.781 -0.418, 4.059 1.363, 5.087c0.266, 0.154 0.586, 0.291 0.935, 0.413c-0.348, 0.122 -0.669, 0.258 -0.935, 0.413c-1.781, 1.027 -2.392, 3.304 -1.363, 5.086c1.028, 1.783 3.306, 2.393 5.087, 1.364c0.266, -0.154 0.545, -0.363 0.826, -0.605c-0.071, 0.364 -0.112, 0.711 -0.112, 1.018c0, 2.056 1.667, 3.722 3.725, 3.723c2.057, 0.001 3.726, -1.667 3.725, -3.723c0, -0.307 -0.041, -0.654 -0.112, -1.018c0.281, 0.242 0.56, 0.451 0.825, 0.605c1.783, 1.028 4.059, 0.419 5.088, -1.364c1.029, -1.78 0.418, -4.059 -1.363, -5.086" style="fill: rgb(255, 0, 0);"/>
</svg>
