<svg viewBox="0 0 24 24" xmlns="http://www.w3.org/2000/svg">
  <path d="M16.116, 12.064c-0.356, -0 -0.646, -0.483 -0.646, -1.078c0, -0.595 0.29, -1.078 0.646, -1.078c0.356, -0 0.646, 0.482 0.646, 1.078c0, 0.595 -0.29, 1.078 -0.646, 1.078m-2.059, 4.308c-0.356, -0 -0.646, -0.482 -0.646, -1.077c0, -0.594 0.29, -1.078 0.646, -1.078c0.357, -0 0.647, 0.484 0.647, 1.078c0, 0.595 -0.29, 1.077 -0.647, 1.077m-2.056, -4.308c-0.357, -0 -0.647, -0.483 -0.647, -1.078c0, -0.595 0.29, -1.078 0.647, -1.078c0.356, -0 0.645, 0.482 0.645, 1.078c0, 0.595 -0.289, 1.078 -0.645, 1.078m-0.001, 8.617c-0.357, -0 -0.647, -0.484 -0.647, -1.078c0, -0.596 0.29, -1.076 0.647, -1.076c0.356, -0 0.646, 0.48 0.646, 1.076c0, 0.594 -0.29, 1.078 -0.646, 1.078m-2.058, -4.31c-0.356, 0 -0.646, -0.482 -0.646, -1.077c0, -0.594 0.29, -1.078 0.646, -1.078c0.357, 0 0.647, 0.484 0.647, 1.078c0, 0.595 -0.29, 1.077 -0.647, 1.077m-2.058, -4.308c-0.357, 0 -0.646, -0.483 -0.646, -1.078c0, -0.595 0.289, -1.078 0.646, -1.078c0.356, 0 0.646, 0.483 0.646, 1.078c0, 0.595 -0.29, 1.078 -0.646, 1.078m9.387, -4.29c-1.267, -0.706 -3.686, -1.21 -5.271, -1.21c-1.585, 0 -4.004, 0.504 -5.272, 1.21c-1.701, 0.956 -2.782, 2.601 -2.348, 5.286c0.823, 5.088 5.11, 9.942 7.62, 9.942c2.51, -0.001 6.797, -4.854 7.62, -9.942c0.434, -2.685 -0.648, -4.33 -2.349, -5.286" style="fill: rgb(255, 0, 0);"/>
  <path d="M15.864, 4.229c-0.038, 0.017 -0.073, 0.038 -0.11, 0.057c0.355, -1.1 0.268, -2.271 -0.197, -3.286c-1.384, 0.175 -2.672, 0.971 -3.406, 2.283c-0.058, 0.103 -0.102, 0.211 -0.151, 0.317c-0.049, -0.107 -0.094, -0.214 -0.152, -0.317c-0.733, -1.312 -2.021, -2.108 -3.406, -2.283c-0.464, 1.015 -0.552, 2.187 -0.196, 3.286c-0.038, -0.019 -0.072, -0.04 -0.111, -0.058c-1.375, -0.605 -2.883, -0.466 -4.093, 0.229c0.301, 1.364 1.211, 2.576 2.588, 3.181c0.07, 0.031 0.142, 0.052 0.213, 0.079c1.293, -0.676 3.615, -1.154 5.157, -1.154c1.542, 0 3.864, 0.478 5.157, 1.154c0.07, -0.027 0.143, -0.048 0.213, -0.079c1.377, -0.606 2.287, -1.817 2.588, -3.181c-1.21, -0.695 -2.718, -0.834 -4.094, -0.229" style="fill: rgb(0, 190, 60);"/>
</svg>
