<svg viewBox="0 0 24 24" xmlns="http://www.w3.org/2000/svg">
  <path d="M21.721, 6.234c0.012, 0.191 0.029, 0.381 0.029, 0.576c-0, 5.383 -4.367, 9.75 -9.75, 9.75c-5.385, -0 -9.75, -4.367 -9.75, -9.75c-0, -0.195 0.018, -0.385 0.03, -0.576l-1.235, -0c-0.01, 0.192 -0.029, 0.381 -0.029, 0.576c-0, 6.065 4.917, 10.983 10.984, 10.983c6.068, -0 10.985, -4.918 10.985, -10.983c-0, -0.195 -0.02, -0.384 -0.03, -0.576l-1.234, -0Z" style="fill: rgb(0, 190, 60);"/>
  <path d="M20.491, 6.809c0, 4.689 -3.802, 8.492 -8.491, 8.492c-4.69, 0 -8.491, -3.803 -8.491, -8.492c0, -0.194 0.016, -0.384 0.029, -0.575l-1.259, 0c-0.012, 0.191 -0.029, 0.381 -0.029, 0.575c0, 5.384 4.365, 9.75 9.75, 9.75c5.383, 0 9.75, -4.366 9.75, -9.75c0, -0.194 -0.018, -0.384 -0.03, -0.575l-1.258, 0c0.012, 0.191 0.029, 0.381 0.029, 0.575" style="fill: rgb(230, 230, 230);"/>
  <path d="M12, 15.301c4.689, -0 8.491, -3.803 8.491, -8.492c0, -0.194 -0.016, -0.384 -0.029, -0.575l-16.924, -0c-0.013, 0.191 -0.029, 0.381 -0.029, 0.575c0, 4.689 3.801, 8.492 8.491, 8.492" style="fill: rgb(255, 0, 0);"/>
  <path d="M15.797, 11.071c-0, 0.413 -0.206, 0.747 -0.459, 0.747c-0.254, 0 -0.461, -0.334 -0.461, -0.747c-0, -0.413 0.207, -0.747 0.461, -0.747c0.253, 0 0.459, 0.334 0.459, 0.747Zm-6.674, 0c-0, 0.413 -0.206, 0.747 -0.459, 0.747c-0.254, 0 -0.461, -0.334 -0.461, -0.747c-0, -0.413 0.207, -0.747 0.461, -0.747c0.253, 0 0.459, 0.334 0.459, 0.747Zm3.338, 0c-0, 0.413 -0.206, 0.747 -0.459, 0.747c-0.256, 0 -0.463, -0.334 -0.463, -0.747c-0, -0.413 0.207, -0.747 0.463, -0.747c0.253, 0 0.459, 0.334 0.459, 0.747Zm-1.669, -1.841c-0, 0.414 -0.206, 0.748 -0.459, 0.748c-0.254, 0.001 -0.461, -0.334 -0.461, -0.748c-0, -0.412 0.207, -0.746 0.461, -0.746c0.253, 0 0.459, 0.335 0.459, 0.746Zm3.338, 0c-0, 0.414 -0.206, 0.748 -0.459, 0.748c-0.256, 0 -0.463, -0.334 -0.463, -0.748c-0, -0.412 0.207, -0.746 0.463, -0.746c0.253, 0 0.459, 0.334 0.459, 0.746Z" style="fill: rgb(89, 89, 89);"/>
</svg>
