<svg viewBox="0 0 24 24" xmlns="http://www.w3.org/2000/svg">
  <path d="M20.566, 16.506c-0.124, 0.194 -0.335, 0.301 -0.55, 0.301c-0.119, -0 -0.239, -0.033 -0.347, -0.101c-0.305, -0.194 -0.393, -0.597 -0.2, -0.899c0.471, -0.741 0.796, -1.684 0.799, -2.859c0, -0.233 -0.013, -0.473 -0.039, -0.718c-0.072, -0.744 -0.457, -1.776 -1.062, -2.314l0.002, -0c-0.266, -0.243 -0.285, -0.652 -0.041, -0.917c0.241, -0.266 0.652, -0.285 0.917, -0.042c0.941, 0.877 1.361, 2.132 1.476, 3.135c0.031, 0.294 0.045, 0.58 0.045, 0.856c0.002, 1.419 -0.403, 2.621 -1, 3.558m-2.08, 1.782c-0.353, -0 -0.638, -0.285 -0.638, -0.637c0, -0.353 0.285, -0.638 0.638, -0.638c0.352, -0 0.638, 0.285 0.638, 0.638c0, 0.352 -0.286, 0.637 -0.638, 0.637m4.359, -6.434c-0.314, -2.92 -2.465, -6.138 -6.125, -5.893c-1.288, 0.103 -3.702, 0.326 -4.72, 0.41c-1.019, -0.084 -3.433, -0.307 -4.722, -0.41c-3.66, -0.245 -5.81, 2.973 -6.125, 5.893c-0.418, 3.886 1.432, 6.983 4.048, 8.459c2.933, 1.655 6.393, 1.618 6.799, 2.687c0.405, -1.069 3.865, -1.032 6.798, -2.687c2.616, -1.476 4.465, -4.573 4.047, -8.459" style="fill: rgb(255, 0, 0);"/>
  <path d="M11.222, 9.21c0.012, -0.135 0.019, -0.264 0.019, -0.388c-0, -0.88 -0.282, -1.442 -0.289, -1.454l-0.08, -0.157l-0.125, 0.116c-0.591, 0.547 -1.759, 1.24 -3.399, 1.243l-0.008, -0c-0.095, -0 -0.192, -0.003 -0.288, -0.005l-1.677, -0.075l1.444, -0.857c0.603, -0.353 1.089, -0.838 1.658, -1.334l0.171, -0.148l-0.226, -0.083c-0.63, -0.213 -0.992, -0.586 -1.138, -1.018c-0.078, -0.206 -0.131, -0.434 -0.191, -0.714l-0.225, -1.079l0.961, 0.539c0.854, 0.486 1.723, 0.515 2.622, 0.717c0.042, 0.007 0.058, 0.01 0.062, 0.011c0.229, -0.036 0.144, -0.02 0.292, -0.131c0.112, -0.14 0.137, -0.144 0.156, -0.323l-0, -2.58l2.092, 0l-0, 2.577c0.019, 0.192 0.049, 0.211 0.117, 0.303c0.181, 0.15 0.109, 0.133 0.34, 0.171l0.023, -0.005c0.927, -0.208 1.797, -0.236 2.651, -0.723l0.955, -0.539l-0.221, 1.076c-0.057, 0.281 -0.113, 0.513 -0.199, 0.74c-0.136, 0.41 -0.498, 0.781 -1.146, 0.998l-0.209, 0.08l0.174, 0.148c0.568, 0.495 1.053, 0.978 1.657, 1.334l1.446, 0.854l-1.679, 0.075c-0.072, 0.004 -0.142, 0.006 -0.208, 0.006l-0, -0.189l-0, 0.189c-1.574, -0 -2.636, -0.71 -3.226, -1.255l-0.166, -0.153l-0.058, 0.246c-0.001, 0.008 -0.002, 0.013 -0.003, 0.017l-0.08, 0.341l-0.027, 0c-0.005, 0.015 -0.01, 0.03 -0.016, 0.046c-0.088, 0.247 -0.224, 0.571 -0.421, 0.911c-0.189, 0.321 -0.416, 0.63 -0.702, 0.887l-0.948, 0.857l0.115, -1.273Z" style="fill: rgb(0, 190, 60);"/>
</svg>
