<svg viewBox="0 0 24 24" xmlns="http://www.w3.org/2000/svg">
  <path d="M21.373, 8.346l1.413, -1.415l-5.821, -5.823l-1.415, 1.415l2.203, 2.203l-1.944, 1.944c0.023, 0.169 0.049, 0.337 0.05, 0.51c-0.001, 0.351 -0.067, 0.689 -0.16, 1.02c0.331, -0.093 0.671, -0.159 1.021, -0.16c0.17, -0 0.334, 0.028 0.499, 0.05l1.949, -1.949l2.205, 2.205Z" style="fill: rgb(0, 190, 60);"/>
  <path d="M4.606, 22.1c-0.009, 0.001 -0.022, 0.001 -0.04, 0.002c-0.738, -0.013 -1.418, -0.295 -1.941, -0.815c-0.528, -0.531 -0.819, -1.226 -0.821, -1.975c0.004, -0.749 0.293, -1.442 0.821, -1.971c0.127, -0.127 0.265, -0.237 0.409, -0.335c0.648, 0.48 1.425, 0.755 2.245, 0.755l0.423, -0l0.004, -0.022c0.199, -0.023 0.394, -0.064 0.586, -0.117c-0.09, 0.325 -0.153, 0.658 -0.155, 1.001c0.002, 0.827 0.28, 1.61 0.765, 2.26c-0.097, 0.142 -0.206, 0.279 -0.329, 0.404c-0.532, 0.526 -1.224, 0.813 -1.959, 0.813l-0.008, -0Zm6.814, -5.412l0.004, -0.026c0.137, -0.014 0.269, -0.049 0.404, -0.079c0.025, 0.025 0.056, 0.042 0.082, 0.068c0.018, 0.018 0.031, 0.041 0.049, 0.059c-0.063, 0.275 -0.104, 0.554 -0.104, 0.841c-0, 0.771 0.234, 1.509 0.661, 2.133c-0.139, 0.338 -0.343, 0.648 -0.608, 0.916c-0.531, 0.526 -1.222, 0.812 -1.957, 0.815c-0.013, -0.001 -0.032, -0.002 -0.059, 0.001c-0.734, -0.014 -1.414, -0.301 -1.933, -0.816c-0.529, -0.528 -0.818, -1.226 -0.82, -1.975c0.004, -0.749 0.291, -1.442 0.82, -1.97c0.275, -0.274 0.591, -0.479 0.933, -0.618c0.619, 0.415 1.344, 0.651 2.104, 0.651l0.424, -0Zm4.231, -1.931c-0.75, 0.004 -1.437, 0.287 -1.977, 0.823c-0.529, 0.529 -0.817, 1.222 -0.822, 1.971c0.003, 0.748 0.293, 1.445 0.822, 1.974l0.002, 0.002l-0.002, 0.001c0.532, 0.523 1.226, 0.808 1.977, 0.816c0.74, -0.002 1.436, -0.289 1.972, -0.821c0.524, -0.527 0.815, -1.226 0.819, -1.972c-0.004, -0.749 -0.291, -1.442 -0.816, -1.975c-0.534, -0.528 -1.229, -0.815 -1.975, -0.819Zm-9.303, -2.722c0.283, 0 0.56, -0.039 0.831, -0.101c0.024, 0.023 0.052, 0.039 0.076, 0.063c0.018, 0.019 0.031, 0.042 0.05, 0.06c-0.063, 0.275 -0.103, 0.554 -0.104, 0.84c0, 0.772 0.235, 1.509 0.661, 2.132c-0.138, 0.335 -0.341, 0.642 -0.602, 0.909c-0.003, 0.002 -0.006, 0.004 -0.008, 0.006c-0.003, 0.003 -0.005, 0.006 -0.007, 0.009c-0.528, 0.518 -1.216, 0.805 -1.949, 0.807c-0.012, -0.001 -0.032, -0.001 -0.062, 0.002c-0.731, -0.014 -1.409, -0.301 -1.928, -0.816c-0.53, -0.53 -0.819, -1.223 -0.821, -1.974c0.004, -0.75 0.291, -1.441 0.821, -1.971c0.271, -0.27 0.581, -0.475 0.918, -0.614c0.622, 0.418 1.354, 0.647 2.117, 0.648l0.007, 0Zm6.622, -1.111c-0.531, -0.527 -1.225, -0.814 -1.973, -0.82c-0.748, 0.006 -1.437, 0.288 -1.975, 0.824c-0.53, 0.528 -0.817, 1.221 -0.821, 1.972c0.002, 0.748 0.291, 1.443 0.821, 1.971c0.519, 0.515 1.192, 0.8 1.92, 0.818c0.03, -0.004 0.049, -0.004 0.065, -0.003c0.737, -0.002 1.43, -0.288 1.961, -0.814c-0, -0.001 -0, -0.001 0.001, -0.002c0.001, -0 0.001, -0 0.001, -0.001c0.527, -0.53 0.817, -1.224 0.819, -1.971c-0.005, -0.749 -0.291, -1.442 -0.819, -1.974Zm5.725, -1.068c-0.53, -0.525 -1.227, -0.814 -1.976, -0.816c-0.746, 0.003 -1.436, 0.288 -1.974, 0.822c-0.266, 0.267 -0.471, 0.576 -0.61, 0.913c0.422, 0.623 0.651, 1.356 0.654, 2.122c-0.001, 0.286 -0.041, 0.564 -0.103, 0.838c0.022, 0.022 0.036, 0.049 0.059, 0.071l0.057, 0.058c0.277, -0.064 0.559, -0.106 0.849, -0.107c0.766, 0.002 1.5, 0.234 2.123, 0.656c0.338, -0.137 0.65, -0.341 0.919, -0.609c0.526, -0.528 0.816, -1.224 0.821, -1.971c-0.005, -0.748 -0.291, -1.445 -0.819, -1.977Zm-12.352, 1.18c0.742, 0 1.438, -0.287 1.975, -0.82c0.523, -0.528 0.816, -1.227 0.817, -1.973c-0.006, -0.748 -0.29, -1.442 -0.817, -1.974c-0.53, -0.528 -1.225, -0.812 -1.975, -0.818c-0.746, 0.004 -1.436, 0.288 -1.974, 0.822c-0.53, 0.53 -0.818, 1.224 -0.82, 1.972c0.002, 0.748 0.293, 1.445 0.818, 1.973c0.532, 0.527 1.226, 0.813 1.976, 0.818Zm3.139, -4.914c0.421, 0.623 0.65, 1.357 0.653, 2.121c-0.001, 0.286 -0.04, 0.565 -0.103, 0.838c0.022, 0.022 0.037, 0.05 0.06, 0.072l0.056, 0.056c0.001, 0.001 0.001, 0.001 0.001, 0.002c0.278, -0.064 0.559, -0.105 0.848, -0.106c0.767, 0.001 1.502, 0.233 2.125, 0.657c0.338, -0.138 0.649, -0.342 0.918, -0.609c0.525, -0.531 0.817, -1.226 0.82, -1.973c-0.003, -0.75 -0.289, -1.443 -0.818, -1.977c-0.529, -0.525 -1.227, -0.813 -1.975, -0.815c-0.748, 0.002 -1.437, 0.288 -1.975, 0.819c-0.267, 0.268 -0.471, 0.577 -0.61, 0.915Z" style="fill: rgb(160, 0, 160);"/>
</svg>
