<svg viewBox="0 0 24 24" xmlns="http://www.w3.org/2000/svg">
  <path d="M12.377, 5.083c0.502, -1.146 1.195, -2.089 2.079, -2.833c0.884, -0.743 1.888, -1.115 3.014, -1.115c0.885, -0 1.642, 0.282 2.275, 0.844c0.633, 0.563 1.059, 1.306 1.281, 2.23c-0.462, -0.12 -0.915, -0.205 -1.355, -0.257c-0.443, -0.05 -0.885, -0.075 -1.327, -0.075c-1.066, -0 -2.09, 0.146 -3.073, 0.437c-0.986, 0.291 -1.9, 0.739 -2.744, 1.341l-0.15, -0.572Z" style="fill: rgb(0, 190, 60);"/>
  <path d="M11.349, 5.8c0.035, -0.033 -0.299, -0.735 -0.883, -1.4c-0.571, -0.699 -1.321, -1.473 -1.965, -2.12l0.92, -0.918c0.657, 0.659 1.428, 1.455 2.049, 2.211c0.61, 0.788 1.13, 1.403 1.18, 2.227l-0, 2.357l-1.301, -0l-0, -2.357Z" style="fill: rgb(180, 80, 0);"/>
  <path d="M18.562, 17.296c-0.127, 0.179 -0.327, 0.274 -0.531, 0.274c-0.13, -0 -0.261, -0.038 -0.374, -0.118c-0.294, -0.208 -0.366, -0.614 -0.157, -0.907c1.381, -1.97 1.704, -3.217 1.709, -4.49c0, -0.49 -0.051, -0.994 -0.13, -1.543c-0.052, -0.356 0.195, -0.687 0.55, -0.737c0.354, -0.049 0.685, 0.197 0.737, 0.552c0.082, 0.576 0.143, 1.144 0.143, 1.728c0.009, 1.539 -0.464, 3.153 -1.948, 5.241m-2.618, 2.44c-0.432, -0 -0.78, -0.349 -0.78, -0.78c0, -0.431 0.348, -0.779 0.78, -0.779c0.43, -0 0.78, 0.348 0.78, 0.779c0, 0.431 -0.35, 0.78 -0.78, 0.78m5.157, -11.278c-0.753, -1.045 -1.963, -1.567 -3.631, -1.567c-0.583, -0 -1.145, 0.06 -1.687, 0.181c-0.542, 0.12 -1.116, 0.312 -1.719, 0.573c-0.321, 0.121 -0.592, 0.216 -0.814, 0.286c-0.22, 0.071 -0.43, 0.146 -0.632, 0.226l-1.204, -0c-0.364, -0.1 -1.061, -0.341 -2.096, -0.723c-1.035, -0.381 -1.934, -0.573 -2.697, -0.573c-1.808, -0 -3.069, 0.497 -3.782, 1.492c-0.714, 0.995 -1.07, 2.426 -1.07, 4.295c0, 1.688 0.402, 3.251 1.206, 4.686c0.803, 1.438 1.928, 2.707 3.375, 3.813c0.361, 0.281 0.703, 0.527 1.024, 0.738c0.322, 0.211 0.644, 0.406 0.965, 0.588c0.281, 0.14 0.793, 0.24 1.537, 0.301c0.743, 0.06 1.456, 0.091 2.139, 0.091c0.684, -0 1.392, -0.031 2.125, -0.091c0.733, -0.061 1.231, -0.161 1.492, -0.301c0.322, -0.182 0.649, -0.383 0.979, -0.604c0.332, -0.22 0.679, -0.461 1.041, -0.722c1.426, -1.106 2.546, -2.375 3.359, -3.813c0.815, -1.435 1.221, -2.998 1.221, -4.686c0, -1.748 -0.377, -3.145 -1.131, -4.19" style="fill: rgb(0, 190, 60);"/>
</svg>
