<svg viewBox="0 0 24 24" xmlns="http://www.w3.org/2000/svg">
  <path d="M16.508, 11.37c-0, -0.194 -0.06, -0.351 -0.178, -0.47c-0.119, -0.118 -0.274, -0.177 -0.468, -0.177c-0.194, 0 -0.344, 0.059 -0.454, 0.177c-0.107, 0.119 -0.16, 0.276 -0.16, 0.47c-0, 0.173 0.053, 0.323 0.16, 0.452c0.11, 0.129 0.26, 0.194 0.454, 0.194c0.171, 0 0.323, -0.065 0.453, -0.194c0.129, -0.129 0.193, -0.279 0.193, -0.452m5.172, 0.646c-0, -0.84 -0.102, -1.676 -0.307, -2.505c-0.205, -0.829 -0.501, -1.557 -0.888, -2.182c-0.346, -0.538 -0.745, -0.97 -1.197, -1.293c-0.452, -0.323 -0.948, -0.485 -1.487, -0.485c-0.561, 0 -1.061, 0.162 -1.502, 0.485c-0.442, 0.323 -0.824, 0.755 -1.148, 1.293c-0.388, 0.56 -0.69, 1.266 -0.905, 2.118c-0.217, 0.852 -0.324, 1.674 -0.324, 2.471c0.043, -0.71 0.242, -1.303 0.598, -1.777c0.356, -0.474 0.802, -0.711 1.342, -0.711c0.582, 0 1.05, 0.27 1.406, 0.808c0.355, 0.539 0.533, 1.132 0.533, 1.778c-0, 0.625 -0.178, 1.212 -0.533, 1.762c-0.356, 0.549 -0.824, 0.824 -1.406, 0.824c-0.54, 0 -0.975, -0.226 -1.309, -0.678c-0.334, -0.453 -0.533, -1.024 -0.598, -1.713c-0, 0.861 0.053, 1.696 0.161, 2.504c0.109, 0.807 0.312, 1.481 0.615, 2.02c0.324, 0.625 0.727, 1.068 1.213, 1.326c0.484, 0.258 1.103, 0.387 1.857, 0.387c0.754, 0 1.374, -0.129 1.859, -0.387c0.485, -0.258 0.899, -0.701 1.244, -1.326c0.301, -0.582 0.506, -1.287 0.615, -2.117c0.107, -0.829 0.161, -1.697 0.161, -2.602m1.293, 0c-0, 2.262 -0.356, 4.116 -1.067, 5.559c-0.71, 1.443 -2.08, 2.166 -4.105, 2.166c-2.025, 0 -3.389, -0.723 -4.089, -2.166c-0.699, -1.443 -1.05, -3.285 -1.05, -5.526l-0, -0.033c-0, -1.875 0.431, -3.636 1.293, -5.285c0.862, -1.648 2.144, -2.472 3.846, -2.472c1.681, 0 2.963, 0.824 3.847, 2.472c0.883, 1.649 1.325, 3.41 1.325, 5.285m-14.19, -0.646c-0, -0.194 -0.065, -0.351 -0.193, -0.47c-0.13, -0.118 -0.281, -0.177 -0.454, -0.177c-0.193, 0 -0.35, 0.059 -0.468, 0.177c-0.119, 0.119 -0.178, 0.276 -0.178, 0.47c-0, 0.173 0.059, 0.323 0.178, 0.452c0.118, 0.129 0.275, 0.194 0.468, 0.194c0.173, 0 0.324, -0.065 0.454, -0.194c0.128, -0.129 0.193, -0.279 0.193, -0.452m1.293, 0.679c-0.022, 0.625 -0.21, 1.207 -0.566, 1.745c-0.355, 0.539 -0.813, 0.808 -1.374, 0.808c-0.603, 0 -1.077, -0.275 -1.421, -0.824c-0.346, -0.55 -0.518, -1.137 -0.518, -1.762c-0, -0.646 0.172, -1.239 0.518, -1.778c0.344, -0.538 0.818, -0.808 1.421, -0.808c0.539, 0 0.981, 0.242 1.326, 0.728c0.344, 0.484 0.538, 1.027 0.582, 1.631c-0.022, -0.817 -0.135, -1.621 -0.34, -2.407c-0.205, -0.787 -0.49, -1.471 -0.856, -2.053c-0.367, -0.538 -0.766, -0.97 -1.196, -1.293c-0.432, -0.323 -0.916, -0.485 -1.455, -0.485c-0.539, 0 -1.034, 0.162 -1.486, 0.485c-0.453, 0.323 -0.852, 0.755 -1.197, 1.293c-0.409, 0.625 -0.711, 1.353 -0.904, 2.182c-0.195, 0.829 -0.291, 1.665 -0.291, 2.505c-0, 0.905 0.048, 1.773 0.145, 2.602c0.097, 0.83 0.307, 1.535 0.63, 2.117c0.324, 0.625 0.727, 1.068 1.212, 1.326c0.485, 0.258 1.116, 0.387 1.891, 0.387c0.733, 0 1.342, -0.129 1.827, -0.387c0.484, -0.258 0.91, -0.701 1.276, -1.326c0.28, -0.603 0.48, -1.318 0.599, -2.149c0.117, -0.829 0.177, -1.676 0.177, -2.537m1.293, -0.033c-0, 2.262 -0.355, 4.116 -1.067, 5.559c-0.711, 1.443 -2.079, 2.166 -4.105, 2.166c-2.025, 0 -3.394, -0.723 -4.105, -2.166c-0.71, -1.443 -1.066, -3.285 -1.066, -5.526l-0, -0.033c-0, -1.852 0.436, -3.609 1.309, -5.269c0.872, -1.659 2.159, -2.488 3.862, -2.488c1.681, 0 2.963, 0.829 3.847, 2.488c0.883, 1.66 1.325, 3.417 1.325, 5.269" style="fill: rgb(89, 89, 89);"/>
</svg>
