<svg viewBox="0 0 24 24" xmlns="http://www.w3.org/2000/svg">
  <path d="M15.87, 7.91c0, -0.95 -0.362, -1.689 -1.085, -2.218c-0.725, -0.529 -1.561, -0.794 -2.511, -0.794c-0.669, -0 -1.316, 0.205 -1.942, 0.616c-0.627, 0.41 -1.178, 0.917 -1.651, 1.521c-0.389, 0.454 -0.708, 0.961 -0.957, 1.522c-0.247, 0.562 -0.448, 1.156 -0.597, 1.781c0.689, -0.842 1.425, -1.5 2.202, -1.974c0.777, -0.475 1.629, -0.713 2.558, -0.713c0.689, -0 1.36, 0.167 2.006, 0.502c0.648, 0.335 1.156, 0.783 1.523, 1.343c0.151, -0.344 0.264, -0.636 0.34, -0.875c0.076, -0.236 0.114, -0.474 0.114, -0.711m1.294, -0c0, 0.129 -0.011, 0.259 -0.032, 0.389c-0.021, 0.129 -0.043, 0.258 -0.065, 0.387c-0.129, 0.519 -0.378, 1.129 -0.744, 1.83c-0.367, 0.703 -0.766, 1.409 -1.198, 2.121c-0.065, 0.065 -0.179, 0.217 -0.34, 0.455c-0.162, 0.236 -0.265, 0.42 -0.309, 0.549l-1.068, -0.712c0.13, -0.216 0.313, -0.519 0.551, -0.907c0.236, -0.388 0.41, -0.658 0.517, -0.809l-0.032, -0.033c0.021, -0.064 0.049, -0.129 0.081, -0.194c0.033, -0.065 0.049, -0.118 0.049, -0.161c0, -0.215 -0.071, -0.416 -0.21, -0.6c-0.141, -0.184 -0.319, -0.372 -0.535, -0.566c-0.259, -0.237 -0.561, -0.416 -0.907, -0.535c-0.346, -0.118 -0.692, -0.177 -1.035, -0.177c-1.037, -0 -1.944, 0.366 -2.721, 1.1c-0.777, 0.735 -1.555, 1.696 -2.332, 2.882l0, 1.036l2.559, -0c0.345, -0 0.675, 0.055 0.988, 0.162c0.312, 0.109 0.598, 0.282 0.858, 0.519c0.236, 0.216 0.426, 0.49 0.566, 0.825c0.14, 0.336 0.211, 0.687 0.211, 1.053c0, 0.756 -0.25, 1.376 -0.745, 1.862c-0.497, 0.485 -1.132, 0.728 -1.91, 0.728l-2.396, -0l0, -1.295c0.129, -0 0.334, 0.006 0.614, 0.015c0.281, 0.012 0.497, 0.018 0.647, 0.018c0.368, -0 0.681, -0.006 0.94, -0.018c0.26, -0.009 0.507, -0.047 0.745, -0.112c0.237, -0.064 0.432, -0.195 0.583, -0.389c0.15, -0.194 0.227, -0.464 0.227, -0.809c0, -0.432 -0.12, -0.75 -0.357, -0.956c-0.237, -0.204 -0.561, -0.307 -0.971, -0.307l-3.853, -0l0, -2.559c0, -1.684 0.355, -3.297 1.067, -4.841c0.713, -1.543 1.738, -2.703 3.077, -3.481c0.389, -0.259 0.804, -0.453 1.248, -0.583c0.441, -0.129 0.889, -0.194 1.342, -0.194c1.318, -0 2.462, 0.389 3.433, 1.166c0.973, 0.777 1.457, 1.824 1.457, 3.141m2.592, -0.421c0, 1.534 -0.293, 3.006 -0.875, 4.421c-0.583, 1.414 -1.424, 2.682 -2.526, 3.804c-0.238, 0.216 -0.443, 0.546 -0.616, 0.988c-0.172, 0.443 -0.355, 0.89 -0.549, 1.344c-0.67, 1.511 -1.447, 2.715 -2.332, 3.611c-0.885, 0.895 -2.03, 1.343 -3.432, 1.343c-1.059, -0 -1.987, -0.205 -2.786, -0.615c-0.798, -0.41 -1.435, -1.047 -1.91, -1.91c-0.13, -0.26 -0.238, -0.49 -0.324, -0.697c-0.087, -0.204 -0.14, -0.383 -0.162, -0.534l1.263, -0.259c0.043, 0.194 0.129, 0.421 0.259, 0.68c0.129, 0.258 0.281, 0.486 0.454, 0.68c0.367, 0.476 0.831, 0.821 1.391, 1.036c0.563, 0.216 1.188, 0.323 1.879, 0.323c0.842, -0 1.549, -0.237 2.121, -0.711c0.571, -0.475 1.009, -0.999 1.311, -1.572c0.302, -0.571 0.697, -1.386 1.182, -2.444c0.487, -1.058 0.924, -1.792 1.312, -2.202c1.036, -1.208 1.802, -2.365 2.299, -3.465c0.497, -1.101 0.745, -2.374 0.745, -3.821c0, -1.554 -0.481, -2.807 -1.441, -3.757c-0.961, -0.949 -2.198, -1.424 -3.709, -1.424c-1.943, -0 -3.511, 0.296 -4.711, 0.89c-1.198, 0.594 -2.25, 1.69 -3.157, 3.287l-1.134, -0.615c0.972, -1.749 2.169, -2.995 3.595, -3.74c1.426, -0.745 3.184, -1.117 5.279, -1.117c1.878, -0 3.443, 0.604 4.695, 1.813c1.252, 1.209 1.879, 2.764 1.879, 4.663" style="fill: rgb(255, 140, 0);"/>
</svg>
