<svg viewBox="0 0 24 24" xmlns="http://www.w3.org/2000/svg">
  <path d="M17.173, 14.375c0.534, -0.34 0.945, -0.9 1.149, -1.572c0.084, -0.293 0.125, -0.582 0.125, -0.865c0.003, -0.768 -0.32, -1.53 -0.947, -1.955c0.011, -0.209 0.018, -0.441 0.018, -0.694c-0.004, -1.286 -0.173, -3.079 -1.026, -4.695c-0.841, -1.617 -2.459, -3.025 -5.067, -3.317l-0.722, -0.084l-0, 4.697l0.552, 0.084c2.961, 0.43 4.876, 2.804 4.861, 4.911l-0, 0.068l0.569, 0.047c0.236, 0.098 0.468, 0.422 0.472, 0.938c-0, 0.162 -0.022, 0.33 -0.072, 0.499c-0.141, 0.485 -0.459, 0.801 -0.743, 0.928l-0.035, 0.013c-0.104, 0.036 -0.191, 0.051 -0.261, 0.051c-0.027, 0 -0.052, 0 -0.075, -0.005l-0.467, -0.067l-0.202, 0.414c-0.001, 0.002 -0.004, 0.004 -0.005, 0.006c-0.025, 0.051 -0.056, 0.095 -0.082, 0.145c-0.123, 0.236 -1.533, 3.494 -4.952, 3.494c-3.419, 0 -4.889, -3.346 -5.033, -3.637l-0.207, -0.424l-0.464, 0.069c-0.008, 0.001 -0.018, -0 -0.027, 0.002c-0.019, 0.002 -0.039, 0.003 -0.055, 0.004c-0.073, -0.001 -0.159, -0.017 -0.257, -0.053l-0.048, -0.019c-0.283, -0.129 -0.592, -0.441 -0.73, -0.921c-0.051, -0.173 -0.074, -0.339 -0.074, -0.499c0.004, -0.528 0.244, -0.856 0.492, -0.946l0.55, -0.051l-0, -0.059c-0.016, -2.107 1.9, -4.478 4.862, -4.908l0.549, -0.082l-0, -4.7l-0.719, 0.086c-2.609, 0.291 -4.227, 1.698 -5.07, 3.316c-0.85, 1.616 -1.022, 3.41 -1.024, 4.694c-0, 0.254 0.008, 0.487 0.018, 0.696c-0.628, 0.426 -0.952, 1.188 -0.947, 1.954c-0, 0.283 0.039, 0.575 0.127, 0.865c0.199, 0.672 0.612, 1.235 1.147, 1.574l-0, 5.053c-0.726, 0.793 -1.46, 1.766 -2.099, 2.964l1.138, 0.606c0.618, -1.157 1.332, -2.088 2.032, -2.831l0.043, -0.045c0.405, -0.426 1.596, -1.624 2.854, -2.23c0.896, 0.503 1.885, 0.805 2.942, 0.811c1.056, -0.006 2.049, -0.309 2.943, -0.812c0.95, 0.42 1.601, 1.052 2.163, 1.562c0.033, 0.029 0.065, 0.055 0.098, 0.085c0.142, 0.132 0.288, 0.28 0.435, 0.429c0.089, 0.092 0.179, 0.177 0.271, 0.275l0.06, 0.063c0.657, 0.72 1.323, 1.609 1.9, 2.693l1.139, -0.607c-0.64, -1.198 -1.373, -2.17 -2.099, -2.963l-0, -5.055Zm-6.905, 7.06l-0.005, 0c-2.373, 0.002 -3.405, -1.377 -3.449, -1.45l0.809, -0.573c0.005, -0.002 0.025, 0.037 0.119, 0.131c0.093, 0.094 0.242, 0.224 0.452, 0.357c0.421, 0.265 1.081, 0.541 2.069, 0.543c1.476, -0.004 2.236, -0.621 2.522, -0.9c0.092, -0.093 0.116, -0.131 0.116, -0.131l0.002, 0l0.808, 0.573c-0.042, 0.072 -1.077, 1.45 -3.443, 1.45Zm-0.763, -6.775l-0.834, 0.539c0.033, 0.043 0.523, 0.832 1.593, 0.851c1.067, -0.019 1.557, -0.81 1.593, -0.854l-0.835, -0.534c-0, 0 -0.054, 0.086 -0.189, 0.191c-0.139, 0.109 -0.32, 0.204 -0.569, 0.204c-0.249, 0 -0.433, -0.097 -0.571, -0.204c-0.137, -0.108 -0.18, -0.199 -0.188, -0.193Zm4.118, -2.02c0.518, -0 0.938, -0.421 0.938, -0.938c-0, -0.52 -0.42, -0.939 -0.938, -0.939c-0.52, -0 -0.939, 0.419 -0.939, 0.939c-0, 0.517 0.419, 0.938 0.939, 0.938Zm-7.655, -0.939c-0, 0.518 0.42, 0.938 0.938, 0.938c0.519, 0 0.94, -0.42 0.94, -0.938c-0, -0.52 -0.421, -0.938 -0.94, -0.938c-0.518, 0 -0.938, 0.418 -0.938, 0.938Zm16.684, -6.124l-0.002, -0.003c-0.299, -0.351 -0.727, -0.537 -1.154, -0.537c-0.179, -0 -0.357, 0.036 -0.528, 0.1l-1.278, -1.524l-0.001, -2.615l-1, 0.003l0.001, 1.419l-0.914, -1.089l-0.768, 0.645l1.682, 2.003l0.001, 1.99c-0.587, 0.207 -1.009, 0.76 -1.011, 1.415l0, 0.002c0, 0.832 0.676, 1.505 1.509, 1.505c0.697, -0 1.276, -0.473 1.449, -1.113c0.255, 0.177 0.556, 0.273 0.86, 0.273c0.339, -0 0.685, -0.116 0.967, -0.35c0.35, -0.301 0.538, -0.727 0.538, -1.157c0, -0.34 -0.117, -0.686 -0.351, -0.967Zm-3.463, 2.316c-0.279, -0.002 -0.508, -0.228 -0.508, -0.505c0.002, -0.284 0.229, -0.51 0.51, -0.51c0.278, -0 0.504, 0.228 0.507, 0.508c-0.003, 0.278 -0.229, 0.505 -0.509, 0.507Zm2.63, -0.958c-0.093, 0.078 -0.204, 0.115 -0.321, 0.115c-0.149, -0 -0.291, -0.061 -0.388, -0.179c-0.086, -0.101 -0.123, -0.214 -0.123, -0.325c0, -0.148 0.06, -0.286 0.181, -0.387c0.099, -0.084 0.213, -0.121 0.328, -0.121c0.144, 0.001 0.282, 0.059 0.388, 0.181c0.081, 0.096 0.118, 0.208 0.12, 0.325c-0.002, 0.144 -0.062, 0.288 -0.185, 0.391Zm-1.771, -0.788c-0.109, -0.075 -0.231, -0.131 -0.357, -0.176l0, -0.8l0.514, 0.612c-0.069, 0.116 -0.122, 0.237 -0.157, 0.364Z" style="fill: rgb(255, 0, 255);"/>
</svg>
