<svg viewBox="0 0 24 24" xmlns="http://www.w3.org/2000/svg">
  <path d="M20.725, 11.18c0.39, -0.733 0.579, -1.58 0.58, -2.444c-0.006, -2.691 -1.754, -5.823 -5.068, -5.854c-0.074, 0 -0.149, 0.002 -0.223, 0.006c-1.401, -1.306 -3.086, -1.892 -4.737, -1.888c-4.175, 0.017 -8.215, 3.587 -8.239, 8.175c-0, 0.651 0.085, 1.32 0.263, 1.996c-1.042, 0.374 -1.607, 1.463 -1.603, 2.589c-0, 0.272 0.032, 0.549 0.097, 0.829c0.317, 1.325 1.313, 2.353 2.559, 2.41c1.437, 3.338 4.238, 5.981 7.647, 6.001c3.409, -0.02 6.21, -2.663 7.647, -6.001c1.243, -0.057 2.243, -1.081 2.558, -2.41c0.065, -0.282 0.097, -0.56 0.097, -0.832c0.004, -1.117 -0.552, -2.193 -1.578, -2.577Zm0.286, 3.136c-0.212, 0.923 -0.917, 1.477 -1.43, 1.457c-0.066, 0 -0.133, -0.007 -0.202, -0.022l-0.512, -0.112l-0.19, 0.49c-1.257, 3.242 -3.856, 5.663 -6.676, 5.644c-2.819, 0.019 -5.419, -2.402 -6.677, -5.644l-0.192, -0.493l-0.514, 0.117c-0.058, 0.013 -0.125, 0.02 -0.196, 0.02c-0.514, 0.02 -1.22, -0.536 -1.432, -1.466c-0.044, -0.186 -0.064, -0.372 -0.064, -0.547c0.004, -0.815 0.736, -1.326 0.877, -1.467c3.822, -0.793 8.02, -2.564 10.862, -5.311c1.583, 3.903 4.809, 5.27 4.809, 5.27l0.564, 0.029c0.097, 0.004 0.15, 0.01 0.165, 0.014c0.454, 0.091 0.87, 0.65 0.873, 1.462c-0, 0.177 -0.021, 0.362 -0.065, 0.559Zm-6.516, 2.811c-0.36, 0.319 -1.257, 0.969 -2.494, 0.965c-0.828, -0 -1.494, -0.282 -1.963, -0.572c-0.232, -0.144 -0.413, -0.288 -0.53, -0.393c-0.121, -0.106 -0.159, -0.156 -0.161, -0.154l-0.919, 0.811c0.049, 0.05 1.335, 1.522 3.573, 1.534c2.239, -0.012 3.521, -1.484 3.574, -1.534l-0.919, -0.811c0, -0 -0.042, 0.048 -0.161, 0.154Zm-5.408, -3.66c-0, -0.56 -0.452, -1.012 -1.013, -1.012c-0.558, -0 -1.011, 0.452 -1.011, 1.012c-0, 0.56 0.453, 1.014 1.011, 1.014c0.561, -0 1.013, -0.454 1.013, -1.014Zm6.845, -1.012c-0.561, 0 -1.013, 0.452 -1.013, 1.012c-0, 0.559 0.452, 1.013 1.013, 1.013c0.561, 0 1.012, -0.454 1.012, -1.013c-0, -0.56 -0.451, -1.012 -1.012, -1.012Z" style="fill: rgb(0, 0, 255);"/>
</svg>
