<svg viewBox="0 0 24 24" xmlns="http://www.w3.org/2000/svg">
  <path d="M14.006, 17.043c-0.582, 0 -1.117, -0.18 -1.563, -0.488l-0.736, 1.071c0.652, 0.45 1.446, 0.717 2.299, 0.717c0.86, 0 1.66, -0.274 2.314, -0.729l-0.74, -1.065c-0.453, 0.31 -0.99, 0.494 -1.574, 0.494Zm-3.127, -4.563c-0.38, 0 -0.685, 0.307 -0.685, 0.686c-0, 0.377 0.305, 0.683 0.685, 0.683c0.378, 0 0.684, -0.306 0.684, -0.683c-0, -0.379 -0.306, -0.686 -0.684, -0.686Zm6.256, 0c-0.381, 0 -0.685, 0.307 -0.685, 0.686c-0, 0.377 0.304, 0.683 0.685, 0.683c0.377, 0 0.684, -0.306 0.684, -0.683c-0, -0.379 -0.307, -0.686 -0.684, -0.686Z" style="fill: rgb(0, 60, 150);"/>
  <path d="M19.878, 14.629l-0.017, -0.002l-0.481, -0.015l-0.152, 0.457c-0.954, 2.815 -3.001, 4.636 -5.222, 4.623c-2.219, 0.013 -4.269, -1.808 -5.22, -4.623l-0.155, -0.457l-0.14, 0.005l0.183, -0.82c0.396, -0.311 0.75, -0.613 1.016, -0.902c0.245, -0.275 0.751, -0.762 0.979, -1.465c1.02, 0.462 2.144, 0.732 3.338, 0.732c1.888, -0 3.612, -0.651 5, -1.721l0.509, -0l-0, 1.097l0.564, 0.074c0.745, 0.099 1.311, 0.728 1.313, 1.502c-0.002, 0.811 -0.681, 1.513 -1.515, 1.515m-14.748, -3.627c0.203, -0.225 3.454, -3.856 3.52, -3.926c0.033, -0.035 0.065, -0.07 0.096, -0.101c0.051, -0.053 0.098, -0.102 0.142, -0.147c0.04, -0.04 0.074, -0.074 0.108, -0.108c0.028, -0.028 0.059, -0.059 0.084, -0.082c0.053, -0.051 0.1, -0.093 0.133, -0.119c0.072, -0.037 0.139, -0.052 0.19, -0.052c0.07, 0.004 0.126, 0.01 0.249, 0.121c0.175, 0.167 0.194, 0.282 0.196, 0.354c-0, 0.045 -0.013, 0.078 -0.021, 0.091c-0.173, 0.271 -0.693, 1.092 -1.096, 1.671l-0.917, 1.379l-0.517, 0.776l0.531, 0.469c0.074, -0.057 0.169, -0.117 0.269, -0.178c0.024, -0.014 0.047, -0.028 0.072, -0.042c0.104, -0.06 0.214, -0.12 0.328, -0.174c0.313, -0.149 0.63, -0.259 0.819, -0.258c0.062, 0.001 0.115, 0.009 0.143, 0.037c0.186, 0.182 -0.281, 0.871 -0.709, 1.285c-0.275, 0.301 -0.689, 0.658 -1.212, 1.041l-0.028, 0.021l-3.042, -0l0.662, -2.058Zm8.877, -5.861c1.06, -0 1.921, 0.862 1.921, 1.924c-0, 1.062 -0.861, 1.923 -1.921, 1.923c-1.062, -0 -1.923, -0.861 -1.923, -1.923c-0, -1.062 0.861, -1.924 1.923, -1.924m6.808, 5.317l-0, -0.948c0.946, -0.958 2.185, -2.506 2.185, -3.574c-0, -1.439 -8.386, -2.923 -8.993, -2.923c-0.608, -0 -8.993, 1.484 -8.993, 2.923c-0, 0.625 0.426, 1.41 0.966, 2.147l-2.003, 2.252l-0.874, 2.726l-0.49, -0l-1.597, 7.152l1.27, 0.284l1.368, -6.137l3.564, -0l-1.306, 5.853l1.269, 0.284l-0, -0.002l0.857, -3.845c1.217, 2.547 3.379, 4.333 5.968, 4.343c2.843, -0.011 5.182, -2.15 6.308, -5.101c1.365, -0.22 2.376, -1.397 2.377, -2.778c0.002, -1.226 -0.778, -2.271 -1.876, -2.656" style="fill: rgb(0, 60, 150);"/>
</svg>
