<svg viewBox="0 0 24 24" xmlns="http://www.w3.org/2000/svg">
  <path d="M10.719, 18.264l0.893, -0.451c0.099, 0.196 0.31, 0.339 0.561, 0.339c0.251, -0 0.462, -0.143 0.563, -0.339l-0, 0.002l0.891, 0.449c-0.267, 0.529 -0.821, 0.886 -1.454, 0.886c-0.633, -0 -1.186, -0.357 -1.454, -0.886Zm-3.059, -3.004l0.892, -0.451c0.1, 0.198 0.311, 0.341 0.562, 0.341c0.25, -0 0.461, -0.143 0.562, -0.339l0.891, 0.449c-0.268, 0.53 -0.822, 0.888 -1.453, 0.888c-0.633, -0 -1.188, -0.358 -1.454, -0.888Zm8.401, -0.091c0, -0.494 -0.4, -0.892 -0.893, -0.892c-0.494, -0 -0.892, 0.398 -0.892, 0.892c0, 0.492 0.398, 0.893 0.892, 0.893c0.493, -0 0.893, -0.401 0.893, -0.893Z" style="fill: rgb(255, 0, 255);"/>
  <path d="M16.562, 2.374l3.227, -0l1.662, 1.265l0, 0.002c0.119, 0.093 0.197, 0.238 0.197, 0.402c-0, 0.285 -0.232, 0.516 -0.517, 0.516c-0.069, -0 -0.134, -0.015 -0.194, -0.039l-0.001, -0c-0.007, -0.003 -0.014, -0.007 -0.021, -0.011l-4.354, -2.135Zm-0.624, 5.534l-1.319, -0.818l0.684, -3.884l2.284, 1.118l-1.649, 3.584Zm-3.938, 12.589c-2.566, 0.032 -4.901, -2.58 -5.27, -6.328c2.262, -0.148 5.714, -0.913 8.341, -2.486c0.507, 0.866 1.311, 1.985 2.157, 2.87c-0.492, 3.564 -2.746, 5.967 -5.228, 5.944m-6.618, -14.821c-0.09, 0.156 -0.256, 0.263 -0.447, 0.263c-0.285, -0 -0.516, -0.23 -0.516, -0.515c-0, -0.006 0.002, -0.012 0.002, -0.018l-0.002, -0.001l0.334, -3.031l2.598, -0l-1.967, 3.302l-0.002, -0Zm3.242, -2.896l0.76, 4.31l-1.32, 0.818l-1.106, -2.332l1.51, -2.535l0.156, -0.261Zm11.78, 2.925l0.039, 0.015c0.221, 0.092 0.453, 0.137 0.689, 0.137c1.001, -0 1.818, -0.813 1.818, -1.814c-0, -0.563 -0.256, -1.083 -0.712, -1.438l-2.009, -1.53l-0, -0.002l-5.871, -0l-0.485, 2.761c-0.622, -0.137 -1.251, -0.209 -1.872, -0.203c-0.62, -0.006 -1.25, 0.066 -1.871, 0.203l-0.487, -2.762l-6.057, -0l0.002, 0.004l-0.001, -0l-0.461, 4.188l-0.005, 0.088l-0, 0.072c-0, 1.001 0.814, 1.815 1.815, 1.815c0.081, -0 0.158, -0.021 0.237, -0.032c-0.775, 1.185 -1.296, 2.665 -1.404, 4.465c-0.054, 0.522 -0.066, 0.474 -0.273, 0.786c-0.385, 0.523 -0.605, 1.103 -0.605, 1.688c-0.002, 0.594 0.236, 1.171 0.651, 1.615c0.056, 0.054 0.112, 0.201 0.11, 0.335c-0, 0.06 -0.012, 0.116 -0.022, 0.143c-0.708, 0.54 -1.078, 1.405 -1.08, 2.301c-0.002, 0.818 0.318, 1.686 1.004, 2.37c0.997, 0.979 2.481, 1.307 3.978, 1.314c1.138, 0 2.297, -0.209 3.31, -0.568c0.375, 0.084 0.76, 0.138 1.158, 0.142c0.402, -0.003 0.792, -0.053 1.169, -0.139c1.01, 0.357 2.164, 0.562 3.299, 0.565c1.492, -0.009 2.977, -0.339 3.977, -1.314c0.684, -0.682 1.005, -1.552 1.003, -2.37c-0.003, -0.896 -0.372, -1.764 -1.082, -2.305c-0.009, -0.022 -0.021, -0.071 -0.018, -0.139c-0.005, -0.139 0.053, -0.284 0.107, -0.329c0.418, -0.45 0.654, -1.027 0.652, -1.623c-0, -0.583 -0.218, -1.165 -0.604, -1.686c-0.204, -0.312 -0.218, -0.264 -0.271, -0.786c-0.139, -2.306 -0.95, -4.09 -2.116, -5.39l0.637, -1.386l1.651, 0.809Z" style="fill: rgb(255, 0, 255);"/>
</svg>
