<svg viewBox="0 0 24 24" xmlns="http://www.w3.org/2000/svg">
  <path d="M21.475, 8.468c-0.273, -2.738 -1.561, -4.357 -3.463, -4.337c-0.084, -0 -0.168, 0.003 -0.252, 0.008c-1.367, -2.525 -3.805, -3.166 -6.277, -3.138c-4.398, -0.027 -7.853, 2.859 -8.543, 7.513c-0.44, 2.906 -1.71, 5.768 -1.721, 8.641c-0, 0.72 0.084, 1.442 0.294, 2.158c0.655, 2.317 2.603, 3.363 4.454, 3.363c0.021, -0 0.042, -0 0.062, -0.001c0.928, -0.001 1.84, -0.242 2.641, -0.661c0.996, 0.615 2.115, 0.978 3.318, 0.986c1.202, -0.008 2.319, -0.371 3.315, -0.986c0.801, 0.417 1.713, 0.66 2.643, 0.66c1.867, 0.023 3.853, -1.019 4.519, -3.364c0.227, -0.794 0.317, -1.627 0.317, -2.477c-0.008, -2.952 -1.051, -6.138 -1.307, -8.365Zm-9.487, 13.304c-2.537, 0.019 -4.895, -2.166 -6.034, -5.108l-0.192, -0.489l-0.512, 0.113c-0.053, 0.013 -0.111, 0.018 -0.17, 0.018c-0.433, 0.021 -1.062, -0.466 -1.248, -1.293c-0.041, -0.169 -0.061, -0.335 -0.061, -0.49c0.004, -0.725 0.372, -1.204 0.756, -1.28c0.003, -0.002 0.052, -0.005 0.146, -0.012l0.356, -0.019l0.16, -0.321c1.909, -3.906 5.61, -5.031 8.239, -5.039c1.057, -0.02 1.947, 0.225 2.313, 0.411c0.076, 1.074 0.502, 2.185 1.076, 3.102c0.644, 0.977 1.424, 1.816 2.504, 1.868c0.08, 0.005 0.123, 0.008 0.131, 0.012c0.377, 0.074 0.746, 0.557 0.75, 1.282c-0, 0.154 -0.018, 0.319 -0.057, 0.49c-0.191, 0.827 -0.818, 1.31 -1.25, 1.289c-0.055, -0 -0.113, -0.005 -0.174, -0.02l-0.512, -0.108l-0.189, 0.486c-1.139, 2.942 -3.496, 5.127 -6.032, 5.108Zm-5.959, -0.325c-1.478, -0.024 -2.803, -0.686 -3.338, -2.477c-0.172, -0.588 -0.246, -1.192 -0.246, -1.815c-0.003, -0.613 0.07, -1.248 0.187, -1.901c-0, -0 -0.607, 5.256 3.698, 6.164c-0.101, 0.008 -0.201, 0.029 -0.301, 0.029Zm15.28, -2.477c-0.533, 1.791 -1.859, 2.453 -3.338, 2.477c-0.1, -0 -0.199, -0.021 -0.3, -0.029c4.305, -0.908 3.699, -6.164 3.699, -6.164c0.117, 0.653 0.189, 1.288 0.185, 1.901c-0, 0.623 -0.074, 1.227 -0.246, 1.815Zm-17.793, -2.063c0.766, 2.14 1.906, 3.187 3.969, 4.312c-0, -0 -4.094, -0.484 -3.969, -4.312Zm16.969, -0c0.125, 3.828 -3.969, 4.312 -3.969, 4.312c2.063, -1.125 3.203, -2.172 3.969, -4.312Zm-7.278, 1.605c-0.309, 0.159 -0.74, 0.312 -1.219, 0.312c-0.479, -0 -0.91, -0.153 -1.22, -0.312c-0.311, -0.158 -0.461, -0.302 -0.467, -0.296l-0.802, 0.93c0.053, 0.035 1.012, 0.891 2.489, 0.904c1.475, -0.013 2.436, -0.869 2.489, -0.906l-0.803, -0.928c-0, -0 -0.154, 0.138 -0.467, 0.296Zm-8.628, -1.465c0.687, 1.469 1.375, 2.156 2.39, 2.969c-0, -0 -2.187, -0.563 -2.39, -2.969Zm14.843, -0c-0.203, 2.406 -2.39, 2.969 -2.39, 2.969c1.015, -0.813 1.703, -1.5 2.39, -2.969Zm-7.223, -0.035l-0.572, 1.086c-0.021, -0.016 -0.994, -0.512 -1.592, -1.039c-0.184, -0.202 -0.426, -0.333 -0.473, -0.848c0.042, -0.506 0.291, -0.639 0.443, -0.813c0.174, -0.159 0.361, -0.312 0.534, -0.484c0.348, -0.352 0.61, -0.716 0.614, -1.285c0, -0.452 -0.075, -0.833 -0.149, -1.097c-0.073, -0.264 -0.133, -0.381 -0.133, -0.381l1.105, -0.535c0.024, 0.052 0.402, 0.839 0.404, 2.013c-0.002, 1.405 -1.015, 2.22 -1.447, 2.581c0.118, 0.099 0.281, 0.214 0.445, 0.32c0.404, 0.263 0.818, 0.481 0.819, 0.482l0.002, -0Zm3.293, -4.588c-0.041, -0 -0.076, 0.018 -0.117, 0.023l-0.309, -0.757l-0.435, 0.179l0.306, 0.75c-0.248, 0.177 -0.42, 0.452 -0.42, 0.78c0, 0.541 0.438, 0.976 0.975, 0.976c0.543, -0 0.977, -0.435 0.977, -0.976c0, -0.539 -0.434, -0.975 -0.977, -0.975Zm-7.008, -0c-0.042, -0 -0.076, 0.018 -0.116, 0.023l-0.31, -0.757l-0.437, 0.178l0.307, 0.751c-0.248, 0.177 -0.42, 0.452 -0.42, 0.78c-0, 0.541 0.438, 0.976 0.976, 0.976c0.541, -0 0.976, -0.435 0.976, -0.976c-0, -0.539 -0.435, -0.975 -0.976, -0.975Zm2.891, -6.939c-1.636, 0.431 -4, 1.203 -7.375, 7c2.158, -6.401 6.232, -7.516 7.469, -7.719c2.953, -0.484 4.688, 2 4.688, 2l0.054, 0.055c-0, -0 -2.289, -2.008 -4.836, -1.336Zm8.577, 6.9c-3.162, -1.067 -3.202, -4.603 -3.202, -4.603c0.474, 1.58 2.016, 3.279 3.202, 4.603Zm-9.014, -8.822c2.641, -0.391 4.5, 0.625 6, 2.844c-1.68, -1.383 -3.267, -2.869 -6.156, -2.204c-1.728, 0.398 -4.438, 1.563 -7.438, 7.641c-0, -0 1.875, -7.141 7.594, -8.281Zm9.666, 7.671c-3.161, -1.067 -3.201, -4.603 -3.201, -4.603c0.473, 1.58 2.015, 3.279 3.201, 4.603Zm0.309, -1.023c-0.705, -1.012 -2.133, -3.13 -3.241, -4.306c-0, -0 2.272, 0.848 3.241, 4.306Zm0.263, -1.106c-0.355, -0.988 -0.877, -3.139 -3.24, -4.129c-0, -0 2.746, -0.316 3.24, 4.129Zm-9.693, -6.877c2.471, 0.031 4.252, 0.516 5.365, 2.835l0.201, 0.427c-2.07, -2.983 -5.693, -3 -7.804, -2.333c-3.76, 1.187 -5.092, 5.544 -5.092, 5.544c0.668, -4.138 3.469, -6.446 7.33, -6.473Zm3.687, 5.118c-0, -0 -3.259, -1.561 -7.27, 1.107c-0, -0 2.311, -2.311 4.327, -2.292c2.015, 0.02 2.943, 1.185 2.943, 1.185Z" style="fill: rgb(255, 140, 0);"/>
</svg>
