<svg viewBox="0 0 24 24" xmlns="http://www.w3.org/2000/svg">
  <path d="M15.607, 14.603c-0.474, 0 -0.854, -0.382 -0.854, -0.855c0, -0.472 0.38, -0.854 0.854, -0.854c0.473, 0 0.854, 0.382 0.854, 0.854c0, 0.473 -0.381, 0.855 -0.854, 0.855m-3.607, 5.658c-1.399, -0.005 -2.618, -0.535 -2.653, -0.546l0.449, -1.06c0.002, -0.006 0.28, 0.11 0.695, 0.226c0.412, 0.117 0.96, 0.231 1.509, 0.23c0.546, 0.001 1.111, -0.113 1.527, -0.23c0.418, -0.116 0.675, -0.224 0.675, -0.224l0.002, -0l0.449, 1.058c-0.038, 0.011 -1.256, 0.541 -2.653, 0.546m-3.607, -5.658c-0.471, 0.001 -0.853, -0.381 -0.853, -0.854c0, -0.473 0.382, -0.854 0.853, -0.854c0.473, -0.001 0.855, 0.381 0.855, 0.853c0, 0.473 -0.382, 0.855 -0.855, 0.855m3.607, -12.341c3.774, 0.028 5.968, 1.512 7.041, 3.508c-0.234, -0.013 -0.499, -0.021 -0.793, -0.021c-1.794, 0 -4.657, 0.307 -7.772, 1.835l0.003, 0.006c-2.582, 0.734 -4.808, 2.978 -5.874, 4.186c-0.31, -0.847 -0.474, -1.761 -0.474, -2.672c0.051, -3.44 2.168, -6.798 7.869, -6.842m7.866, 6.841c0, 0.912 -0.164, 1.826 -0.473, 2.672c-1.03, -1.168 -3.141, -3.306 -5.611, -4.113c1.785, -0.513 3.357, -0.65 4.466, -0.65c0.591, -0 1.036, 0.037 1.325, 0.07c0.186, 0.653 0.282, 1.333 0.293, 2.021m0.314, 4.014c0.615, -1.228 0.948, -2.616 0.949, -4.014c0, -2.003 -0.676, -4.038 -2.183, -5.576c-1.506, -1.538 -3.823, -2.53 -6.946, -2.527c-3.125, -0.003 -5.441, 0.989 -6.947, 2.528c-1.508, 1.539 -2.185, 3.574 -2.183, 5.577c0, 1.397 0.333, 2.785 0.949, 4.014c-0.709, 0.396 -1.075, 1.398 -0.831, 2.437c0.283, 1.204 1.273, 2 2.214, 1.784c1.234, 3.18 3.809, 5.66 6.798, 5.66c2.989, -0 5.564, -2.48 6.798, -5.66c0.941, 0.216 1.932, -0.58 2.213, -1.784c0.246, -1.04 -0.12, -2.043 -0.831, -2.439" style="fill: rgb(180, 80, 0);"/>
</svg>
