<svg viewBox="0 0 24 24" xmlns="http://www.w3.org/2000/svg">
  <path d="M13.379, 17.056l0.335, 0.508c-0.078, 0.053 -0.166, 0.108 -0.273, 0.168c-0.37, 0.205 -0.88, 0.402 -1.438, 0.4c-0.56, 0.002 -1.068, -0.195 -1.437, -0.4c-0.109, -0.061 -0.196, -0.117 -0.274, -0.171l0.333, -0.505l-0.784, -0.517l-1.302, 1.979l0.783, 0.516l0.298, -0.453c0.479, 0.327 1.309, 0.762 2.383, 0.773c1.07, -0.011 1.902, -0.445 2.382, -0.771l0.296, 0.451l0.784, -0.516l-1.302, -1.979l-0.784, 0.517Zm2.593, -4.122c-0.509, -0 -0.92, 0.411 -0.92, 0.921c-0, 0.509 0.411, 0.921 0.92, 0.921c0.511, -0 0.923, -0.412 0.923, -0.921c-0, -0.51 -0.412, -0.921 -0.923, -0.921Zm-7.018, 0.92c0, -0.51 -0.414, -0.921 -0.923, -0.921c-0.508, 0 -0.92, 0.411 -0.92, 0.921c0, 0.509 0.412, 0.921 0.92, 0.921c0.509, 0 0.923, -0.412 0.923, -0.921Z" style="fill: rgb(180, 80, 0);"/>
  <path d="M20.648, 14.619c-0.205, 0.883 -0.878, 1.411 -1.356, 1.391c-0.07, 0 -0.129, -0.006 -0.185, -0.02l-0.591, -0.132l-0.138, 0.588c-0.795, 3.4 -3.593, 5.33 -6.376, 5.333c-2.784, -0.003 -5.581, -1.933 -6.376, -5.333l-0.138, -0.582l-0.583, 0.124c-0.072, 0.016 -0.135, 0.023 -0.195, 0.023c-0.48, 0.019 -1.152, -0.505 -1.355, -1.394c-0.044, -0.181 -0.063, -0.354 -0.063, -0.525c0.003, -0.777 0.4, -1.303 0.829, -1.388c0.012, -0.004 0.061, -0.008 0.15, -0.012l1.573, 0c0.262, 0 0.493, -0.166 0.577, -0.414l1.826, -5.372c0.051, -0.157 0.04, -0.327 -0.034, -0.475c-0.075, -0.146 -0.205, -0.256 -0.364, -0.304l-0.68, -0.212c1.271, -1.139 2.963, -1.668 4.833, -1.694c1.868, 0.026 3.561, 0.555 4.832, 1.694l-0.682, 0.212c-0.158, 0.049 -0.287, 0.158 -0.362, 0.304c-0.075, 0.149 -0.088, 0.319 -0.034, 0.475l1.825, 5.372c0.083, 0.248 0.317, 0.414 0.579, 0.414l1.572, 0c0.089, 0.004 0.138, 0.008 0.153, 0.012c0.42, 0.083 0.819, 0.611 0.823, 1.388c0, 0.173 -0.02, 0.348 -0.06, 0.527m-13.76, -7.514l-1.483, 4.367l-0.524, 0c0.105, -1.935 0.608, -3.435 1.4, -4.555l0.607, 0.188Zm10.834, -0.189c0.792, 1.121 1.295, 2.621 1.4, 4.556l-0.525, 0l-1.485, -4.366l0.61, -0.19Zm2.638, 4.658c-0.096, -2.789 -1.018, -4.922 -2.482, -6.355c-1.548, -1.518 -3.658, -2.221 -5.876, -2.219c-2.219, -0.002 -4.329, 0.701 -5.877, 2.219c-1.464, 1.433 -2.386, 3.566 -2.482, 6.356c-1.024, 0.358 -1.576, 1.421 -1.572, 2.517c0, 0.261 0.029, 0.533 0.098, 0.809c0.297, 1.251 1.226, 2.232 2.398, 2.323c1.07, 3.638 4.233, 5.78 7.435, 5.776l0.007, 0c3.2, 0 6.359, -2.141 7.428, -5.777c1.17, -0.093 2.099, -1.074 2.4, -2.325c0.064, -0.275 0.091, -0.545 0.091, -0.806c0.004, -1.098 -0.546, -2.16 -1.568, -2.518" style="fill: rgb(180, 80, 0);"/>
</svg>
