<svg viewBox="0 0 24 24" xmlns="http://www.w3.org/2000/svg">
  <path d="M20.471, 14.701c-0.199, 0.855 -0.846, 1.352 -1.295, 1.332l-0.5, 0l-0.146, 0.439c-1.039, 3.112 -3.596, 5.249 -6.528, 5.245c-2.929, 0.005 -5.488, -2.133 -6.527, -5.245l-0.131, -0.39l-0.402, -0.045c-0.034, -0.004 -0.061, -0.004 -0.078, -0.004l-0.041, 0c-0.45, 0.02 -1.094, -0.475 -1.29, -1.332c-0.033, -0.131 -0.046, -0.252 -0.046, -0.381c-0.014, -0.699 0.484, -1.33 0.923, -1.461l0.614, 0c-0, 0 0.461, -1.842 1.113, -2.773c0.828, -1.176 2.012, -2.233 3.592, -2.227c0.58, 0 1.24, 0.139 2.002, 0.492l0.273, 0.129l0.27, -0.129c0.758, -0.353 1.416, -0.492 2, -0.492c1.578, -0.006 2.763, 1.051 3.592, 2.229c0.406, 0.58 0.71, 1.17 0.91, 1.613c0.117, 0.26 0.213, 1.158 0.213, 1.158l0.601, 0c0.442, 0.129 0.94, 0.758 0.924, 1.461c-0, 0.129 -0.014, 0.254 -0.043, 0.381m-14.463, -7.092c0.942, -1.633 2.568, -3.062 5.994, -3.082c3.424, 0.02 5.051, 1.451 5.994, 3.082c0.229, 0.403 0.407, 0.821 0.547, 1.233c-0.947, -1.162 -2.332, -2.213 -4.269, -2.264c-0.709, -0.002 -1.471, 0.152 -2.272, 0.492c-0.802, -0.338 -1.564, -0.492 -2.273, -0.492c-1.938, 0.051 -3.322, 1.1 -4.27, 2.264c0.141, -0.412 0.321, -0.83 0.549, -1.233m5.994, -5.326c0.713, 0.002 1.321, 0.449 1.565, 1.074c-0.492, -0.068 -1.006, -0.115 -1.565, -0.111c-0.558, -0.004 -1.072, 0.043 -1.564, 0.111c0.244, -0.625 0.849, -1.072 1.564, -1.074m8.319, 9.5c-0.012, -0.895 -0.145, -2.908 -1.207, -4.803c-0.77, -1.394 -2.116, -2.681 -4.176, -3.314c-0.155, -1.494 -1.401, -2.666 -2.936, -2.666c-1.535, 0 -2.783, 1.172 -2.935, 2.666c-2.061, 0.633 -3.409, 1.918 -4.178, 3.312c-1.059, 1.893 -1.195, 3.901 -1.207, 4.799c-0.877, 0.442 -1.465, 1.436 -1.479, 2.543c-0, 0.219 0.024, 0.447 0.082, 0.682c0.27, 1.14 1.075, 2.053 2.112, 2.265c1.254, 3.332 4.154, 5.727 7.605, 5.733c3.453, -0.004 6.354, -2.401 7.606, -5.733c1.035, -0.214 1.836, -1.128 2.111, -2.271c0.053, -0.231 0.078, -0.457 0.078, -0.676c-0.012, -1.098 -0.588, -2.084 -1.476, -2.537" style="fill: rgb(160, 0, 160);"/>
  <path d="M13.037, 17.127l0.324, 0.49c-0.058, 0.045 -0.127, 0.092 -0.205, 0.141c-0.307, 0.195 -0.721, 0.373 -1.154, 0.371c-0.434, 0.002 -0.846, -0.176 -1.153, -0.371c-0.078, -0.049 -0.146, -0.098 -0.205, -0.143l0.323, -0.49l-0.825, -0.541l-1.281, 1.949l0.822, 0.539l0.254, -0.384c0.436, 0.32 1.141, 0.709 2.065, 0.722c0.924, -0.013 1.627, -0.4 2.062, -0.72l0.252, 0.382l0.826, -0.541l-1.281, -1.947l-0.824, 0.543Zm-4.943, -4.074c-0.498, -0 -0.906, 0.404 -0.906, 0.906c-0, 0.502 0.408, 0.907 0.906, 0.907c0.502, -0 0.908, -0.405 0.908, -0.907c-0, -0.502 -0.406, -0.906 -0.908, -0.906Zm7.814, -0c-0.5, -0 -0.904, 0.404 -0.904, 0.906c0, 0.502 0.404, 0.907 0.904, 0.907c0.502, -0 0.908, -0.405 0.908, -0.907c0, -0.502 -0.406, -0.906 -0.908, -0.906Z" style="fill: rgb(160, 0, 160);"/>
</svg>
