<svg viewBox="0 0 24 24" xmlns="http://www.w3.org/2000/svg">
  <path d="M19.74, 7.169c-0.758, -0.887 -1.834, -1.458 -3.289, -1.758l0, -2.479l-2.908, -1.932l-2.909, 1.932l0, 2.484c-1.089, 0.225 -1.972, 0.597 -2.67, 1.152c-1.055, 0.844 -1.592, 2.042 -1.845, 3.463c-0.206, -0.043 -0.413, -0.072 -0.614, -0.071c-0.874, 0.007 -1.68, 0.355 -2.171, 0.982c-0.35, 0.456 -0.508, 1.019 -0.508, 1.586c0.003, 0.732 0.254, 1.489 0.739, 2.14c0.712, 0.934 1.71, 1.545 2.832, 1.951c0.915, 3.437 3.305, 6.381 7.146, 6.381l0.023, -0c2.545, 0.001 4.514, -1.341 5.752, -3.248c1.254, -1.913 1.854, -4.388 1.856, -6.847c-0.006, -2.398 -0.258, -4.333 -1.434, -5.736Zm-1.441, 11.913c-1.1, 1.653 -2.635, 2.691 -4.756, 2.699c-2.88, -0 -4.782, -1.984 -5.742, -4.761c0.415, 0.085 0.84, 0.142 1.265, 0.187c0.102, 0.602 0.314, 1.473 0.726, 1.788c1.076, -0.81 3.31, -1.408 3.31, -1.408c0, -0 -0.877, -0.25 -2.009, -0.292c0.989, -0.014 1.948, -0.097 2.798, -0.234l-0.194, -1.205c-0.865, 0.139 -1.858, 0.23 -2.868, 0.23c-2.557, 0.014 -5.181, -0.614 -6.285, -2.146c-0.333, -0.446 -0.498, -0.967 -0.496, -1.412c0, -0.344 0.095, -0.636 0.256, -0.843c0.181, -0.254 0.672, -0.512 1.201, -0.506c0.389, 0.003 0.789, 0.12 1.149, 0.424c0.804, 0.631 2.188, 3.33 5.804, 3.309c0.397, -0 0.819, -0.029 1.27, -0.096l-0.177, -1.207c-0.395, 0.057 -0.759, 0.083 -1.093, 0.083c-0.339, -0.003 -0.643, -0.035 -0.929, -0.084c0.343, -0.202 0.62, -0.482 0.788, -0.817c0.076, -0.166 0.117, -0.339 0.117, -0.509c-0.041, -0.621 -0.425, -0.998 -0.915, -1.299c0.437, -0.047 0.807, -0.21 1.097, -0.373l-0.604, -1.061l0, -0.002c-0.254, 0.147 -0.498, 0.238 -0.71, 0.236c-0.333, -0 -0.904, -0.196 -1.667, -1.731l-1.097, 0.535c0.335, 0.703 0.699, 1.23 1.08, 1.616c-0.126, -0.021 -0.25, -0.035 -0.374, -0.036c-0.418, -0.02 -0.931, 0.2 -1.134, 0.673c-0.057, 0.128 -0.09, 0.261 -0.109, 0.396c-0.185, -0.203 -0.368, -0.399 -0.561, -0.567c-0.05, -0.042 -0.105, -0.072 -0.158, -0.11c0.207, -1.404 0.63, -2.383 1.446, -3.038c0.882, -0.714 2.366, -1.141 4.776, -1.146l0.072, -0c2.873, 0.007 4.402, 0.599 5.233, 1.584c0.851, 0.988 1.15, 2.619 1.144, 4.946c0.002, 2.259 -0.568, 4.528 -1.654, 6.177Zm-1.539, 0.475l-0.676, 0.655c-0.012, 0 -0.242, -0.248 -0.687, -0.508c-0.454, -0.267 -1.094, -0.524 -1.854, -0.524c-0.762, 0 -1.401, 0.257 -1.854, 0.524c-0.452, 0.263 -0.688, 0.508 -0.687, 0.508l-0.675, -0.655c0.041, -0.033 1.257, -1.304 3.216, -1.315c1.958, 0.011 3.173, 1.281 3.215, 1.315l0.002, 0Zm-0.127, -2.264c-1.426, -0.059 -2.646, 0.294 -2.646, 0.294c-0, 0 2.232, 0.598 3.306, 1.408c1.078, -0.821 0.766, -3.286 0.766, -3.286c-0, -0 -0.719, 1.613 -1.426, 1.584Zm0.176, -3.341l-0.014, 0c-0.898, -0.017 -1.689, -0.475 -2.027, -1.164c-0.074, -0.158 -0.119, -0.33 -0.119, -0.508c0.041, -0.62 0.426, -0.997 0.916, -1.297c-0.438, -0.047 -0.807, -0.212 -1.096, -0.375l0.606, -1.059c0.252, 0.146 0.496, 0.235 0.709, 0.233c0.328, 0.002 0.9, -0.195 1.668, -1.732l1.095, 0.536c-0.338, 0.703 -0.703, 1.23 -1.084, 1.617c0.125, -0.022 0.25, -0.035 0.375, -0.036c0.42, -0.019 0.93, 0.201 1.135, 0.674l0.002, 0.002c0.1, 0.216 0.135, 0.443 0.135, 0.67c-0.012, 0.832 -0.475, 1.79 -1.407, 2.246c-0.294, 0.133 -0.601, 0.193 -0.894, 0.193Zm-6.52, -0.937c-0.467, -0.093 -0.933, -0.406 -1.079, -0.629c0.043, 0.008 0.082, 0.026 0.127, 0.026c0.448, -0 0.81, -0.363 0.81, -0.811c0, -0.102 -0.024, -0.196 -0.058, -0.285c0.114, 0.045 0.231, 0.095 0.35, 0.151c0.759, 0.326 1.094, 0.722 1.056, 0.815c0, 0.437 -0.612, 0.851 -1.206, 0.733Zm7.549, -1.911l-0.01, 0c-0.26, 0 -0.712, 0.139 -1.185, 0.363c-0.072, 0.03 -0.121, 0.063 -0.186, 0.094c0.248, 0.139 0.424, 0.394 0.424, 0.699c-0, 0.309 -0.179, 0.569 -0.433, 0.706c0.113, 0.03 0.23, 0.051 0.347, 0.047c0.178, 0 0.35, -0.033 0.512, -0.107c0.521, -0.225 0.875, -0.927 0.865, -1.393c-0, -0.123 -0.023, -0.224 -0.052, -0.279l0.001, 0c-0.064, -0.102 -0.06, -0.11 -0.283, -0.13Z" style="fill: rgb(255, 0, 0);"/>
</svg>
