<svg viewBox="0 0 24 24" xmlns="http://www.w3.org/2000/svg">
  <path d="M12.291, 14.678c1.083, -0.008 2.317, -0.573 2.73, -1.774l-0.95, -0.309c-0.182, 0.632 -1.028, 1.09 -1.78, 1.084c-0.755, 0.006 -1.602, -0.452 -1.785, -1.084l-0.95, 0.309c0.413, 1.201 1.649, 1.766 2.735, 1.774Zm2.526, -3.01c0.306, -0 0.551, -0.248 0.551, -0.551c0, -0.304 -0.245, -0.551 -0.551, -0.551c-0.304, -0 -0.55, 0.247 -0.55, 0.551c0, 0.303 0.246, 0.551 0.55, 0.551Zm-5.411, -0c0.304, -0 0.551, -0.248 0.551, -0.551c-0, -0.304 -0.247, -0.551 -0.551, -0.551c-0.304, -0 -0.551, 0.247 -0.551, 0.551c-0, 0.303 0.247, 0.551 0.551, 0.551Zm-1.033, -8.31c0.804, 0.339 2.209, 0.495 3.918, 0.506c1.129, 0 2.149, -0.084 2.925, -0.228c0.388, -0.073 0.714, -0.157 0.991, -0.278c0.239, -0.13 0.634, -0.251 0.701, -0.883c-0.067, -0.631 -0.462, -0.753 -0.701, -0.882c-0.804, -0.339 -2.209, -0.496 -3.916, -0.506c-1.131, 0 -2.151, 0.084 -2.927, 0.228c-0.388, 0.072 -0.714, 0.156 -0.991, 0.278c-0.239, 0.129 -0.636, 0.251 -0.702, 0.882c0.066, 0.632 0.463, 0.753 0.702, 0.883Zm3.918, -0.971c0.668, 0 1.298, 0.033 1.838, 0.087c-0.545, 0.06 -1.18, 0.099 -1.838, 0.09c-0.669, 0 -1.3, -0.033 -1.84, -0.088c0.546, -0.059 1.182, -0.098 1.84, -0.089Z" style="fill: rgb(255, 140, 0);"/>
  <path d="M21.245, 15.638c-0.07, -0 -0.152, -0.006 -0.234, -0.019l-1.048, -0.154l0.335, 1.004c0.025, 0.072 0.039, 0.155 0.039, 0.245c-0.004, 0.449 -0.34, 0.842 -0.716, 0.842c-0.167, -0 -0.41, -0.062 -0.731, -0.305l-0.877, -0.658l-0.159, 1.085c-0.104, 0.541 -0.29, 0.613 -0.42, 0.615c-0.118, 0.008 -0.432, -0.11 -0.807, -0.576l-0.373, -1.664c1.189, -1.274 2.468, -2.32 3.85, -2.34c0.058, -0.002 0.101, -0.004 0.132, -0.004c1.645, 0.047 1.901, 0.665 1.923, 1.082c-0.013, 0.429 -0.313, 0.841 -0.914, 0.847m-13.003, 6.068l1.252, -5.583c0.817, 0.439 1.737, 0.7 2.722, 0.701c0.985, -0.001 1.904, -0.262 2.721, -0.7l1.254, 5.582l-7.949, -0Zm-0.439, -3.983c-0.376, 0.459 -0.691, 0.576 -0.808, 0.569c-0.125, -0 -0.312, -0.072 -0.415, -0.613l-0.158, -1.085l-0.875, 0.656c-0.327, 0.245 -0.57, 0.305 -0.74, 0.307c-0.373, -0.002 -0.708, -0.391 -0.712, -0.843c0, -0.085 0.012, -0.169 0.039, -0.241l0.343, -1.008l-1.051, 0.154c-0.093, 0.012 -0.173, 0.019 -0.241, 0.019c-0.601, -0.005 -0.903, -0.418 -0.914, -0.846c0.021, -0.418 0.278, -1.037 1.924, -1.083c0.033, -0 0.074, 0.003 0.126, 0.005c1.389, 0.018 2.666, 1.063 3.858, 2.336l-0.376, 1.673Zm-0.854, -7.232l0.51, -0l0.062, -0.581c0.205, -1.905 1.397, -3.47 2.996, -4.127l0, 0.508c0, 0.987 0.8, 1.787 1.788, 1.787c0.92, -0 1.669, -0.699 1.767, -1.593c-0.156, 0.396 -0.42, 0.677 -0.872, 0.677c-0.588, -0 -0.814, -0.476 -0.814, -1.065l0, -0.633c2.326, 0.084 4.258, 1.972 4.525, 4.446l0.063, 0.581l0.509, -0c0.436, 0.111 0.727, 0.503 0.727, 0.915c0, 0.066 -0.007, 0.128 -0.019, 0.185c-0.085, 0.428 -0.479, 0.734 -0.932, 0.737c-0.045, -0 -0.086, -0.003 -0.129, -0.008l-0.474, -0.058l-0.197, 0.432c-0.78, 1.689 -2.389, 2.831 -4.243, 2.829c-1.854, 0.002 -3.465, -1.14 -4.242, -2.829l-0.196, -0.424l-0.463, 0.048c-0.053, 0.006 -0.101, 0.007 -0.142, 0.007c-0.457, -0 -0.849, -0.306 -0.934, -0.736c-0.013, -0.064 -0.018, -0.119 -0.018, -0.183c-0.002, -0.412 0.289, -0.802 0.728, -0.915m15.663, 2.609c-0.56, -0.442 -1.357, -0.69 -2.376, -0.69c-0.065, -0 -0.123, 0.002 -0.175, 0.004c-0.299, 0.011 -0.584, 0.057 -0.862, 0.12c0.124, -0.206 0.216, -0.436 0.268, -0.686c0.031, -0.156 0.043, -0.302 0.043, -0.442c-0.001, -0.899 -0.545, -1.705 -1.366, -2.059c-0.503, -2.937 -2.945, -5.196 -5.928, -5.2c-2.983, 0.004 -5.424, 2.262 -5.929, 5.2c-0.822, 0.354 -1.367, 1.161 -1.367, 2.059c0, 0.142 0.012, 0.292 0.048, 0.446c0.05, 0.248 0.14, 0.478 0.263, 0.683c-0.28, -0.063 -0.567, -0.11 -0.869, -0.121c-0.041, -0 -0.101, -0.005 -0.167, -0.005c-1.018, -0 -1.815, 0.248 -2.378, 0.69c-0.564, 0.44 -0.85, 1.082 -0.846, 1.693c0.002, 0.995 0.732, 1.935 1.832, 2.115c0.089, 0.971 0.824, 1.929 2.004, 1.949c0.251, 0.001 0.509, -0.047 0.764, -0.142c0.294, 0.512 0.792, 0.88 1.424, 0.878c0.138, -0.002 0.271, -0.033 0.402, -0.064l-0.781, 3.479l11.199, -0l-0.781, -3.479c0.132, 0.031 0.263, 0.062 0.4, 0.064l0.004, -0c0.632, -0 1.13, -0.366 1.423, -0.879c0.255, 0.095 0.51, 0.143 0.76, 0.143c1.18, -0.02 1.918, -0.979 2.006, -1.95c1.099, -0.18 1.829, -1.119 1.831, -2.115c0.006, -0.611 -0.282, -1.251 -0.846, -1.691" style="fill: rgb(255, 140, 0);"/>
</svg>
