<svg viewBox="0 0 24 24" xmlns="http://www.w3.org/2000/svg">
  <path d="M14.887, 7.877c-0.519, -0 -0.938, -0.417 -0.938, -0.939c-0, -0.52 0.419, -0.937 0.938, -0.937c0.517, 0 0.938, 0.417 0.938, 0.937c-0, 0.522 -0.421, 0.939 -0.938, 0.939m-2.884, 2.609c-0.674, -0 -1.22, -0.548 -1.22, -1.223c-0, -0.672 0.546, -1.22 1.22, -1.22c0.674, 0 1.22, 0.548 1.22, 1.22c-0, 0.675 -0.546, 1.223 -1.22, 1.223m-3.822, -3.548c-0, -0.52 0.422, -0.937 0.938, -0.937c0.519, -0 0.939, 0.417 0.939, 0.937c-0, 0.522 -0.42, 0.939 -0.939, 0.939c-0.516, -0 -0.938, -0.417 -0.938, -0.939m13.85, 11.958l-1.263, 0.301l-0.002, 0c0.024, 0.1 0.035, 0.201 0.035, 0.302c-0, 0.572 -0.397, 1.105 -0.984, 1.244c-0.126, 0.031 -0.254, 0.046 -0.376, 0.046c-0.571, -0.024 -0.972, -0.263 -1.168, -0.99c-0.317, -1.211 0.053, -4.311 -0.404, -6.284c-0.181, -0.749 -0.491, -1.325 -0.813, -1.76l0.478, -0c1.71, -0 3.098, -1.388 3.098, -3.097c-0, -1.177 -0.666, -2.193 -1.639, -2.715l0.012, -0.009c-1.272, -0.828 -2.316, -2.199 -2.316, -2.199l-0.002, 0.005c-0.922, -1.637 -2.672, -2.74 -4.684, -2.74c-2.011, -0 -3.761, 1.103 -4.683, 2.74l-0, -0.005c-0, -0 -1.045, 1.371 -2.318, 2.199l0.011, 0.009c-0.972, 0.522 -1.639, 1.538 -1.639, 2.715c-0, 1.709 1.388, 3.097 3.099, 3.097l0.476, -0c-0.323, 0.435 -0.632, 1.012 -0.814, 1.761c-0.456, 1.972 -0.087, 5.071 -0.402, 6.283c-0.201, 0.727 -0.605, 0.967 -1.171, 0.989c-0.121, -0 -0.248, -0.014 -0.376, -0.043c-0.591, -0.142 -0.987, -0.672 -0.987, -1.246c-0, -0.096 0.013, -0.197 0.038, -0.298l-1.261, -0.308l-0.002, -0.002c-0.048, 0.201 -0.074, 0.403 -0.074, 0.608c-0, 1.168 0.798, 2.222 1.98, 2.509c0.228, 0.054 0.457, 0.081 0.682, 0.081c0.017, -0 0.035, 0.001 0.053, 0.001c1.076, -0 2.104, -0.755 2.38, -1.985c0.376, -1.668 0.002, -4.693 0.406, -6.285c0.183, -0.767 0.539, -1.273 0.845, -1.594c0.153, -0.161 0.293, -0.273 0.391, -0.343c0.097, -0.068 0.128, -0.08 0.126, -0.083l-0.023, -0.045l0.165, -0l-0, 11.245l1.3, -0l-0, -11.245l1.148, -0l-0, 11.245l1.3, -0l-0, -11.245l1.147, -0l-0, 11.245l1.301, -0l-0, -11.245l0.167, -0l-0.024, 0.046c-0.002, -0 0.029, 0.013 0.126, 0.083c0.293, 0.211 0.959, 0.789 1.235, 1.934c0.405, 1.592 0.028, 4.619 0.402, 6.285c0.274, 1.231 1.305, 1.987 2.382, 1.987l0.052, -0c0.225, -0 0.453, -0.027 0.682, -0.081c1.18, -0.289 1.978, -1.342 1.978, -2.51c-0, -0.198 -0.021, -0.401 -0.07, -0.603" style="fill: rgb(160, 0, 160);"/>
</svg>
