<svg viewBox="0 0 24 24" xmlns="http://www.w3.org/2000/svg">
  <path d="M16.404, 15.278c-0.792, 0.133 -1.55, -0.372 -1.692, -1.131l2.876, -0.49c0.142, 0.759 -0.388, 1.485 -1.184, 1.621m-9.992, -1.621l2.876, 0.49c-0.143, 0.759 -0.901, 1.264 -1.693, 1.131c-0.795, -0.136 -1.326, -0.862 -1.183, -1.621m5.588, 6.943c-5.188, 0 -5.875, -3.875 -5.875, -3.875c0, 0 0.452, 0.265 1.458, 0.523l0.751, 1.414l0.644, -1.141c0.813, 0.119 1.81, 0.204 3.022, 0.204c1.212, 0 2.209, -0.085 3.021, -0.204l0.645, 1.141l0.751, -1.414c1.006, -0.258 1.458, -0.523 1.458, -0.523c0, 0 -0.688, 3.875 -5.875, 3.875m9.744, -15.874c-1.785, -1.31 -4.36, -2.955 -4.36, -2.955l1.752, 4.625l-1.787, 1.26c-1.464, -1.137 -3.326, -1.819 -5.349, -1.822c-2.024, 0.003 -3.887, 0.685 -5.351, 1.822l-1.786, -1.26l1.752, -4.625c0, 0 -2.574, 1.645 -4.359, 2.955c-1.788, 1.311 -1.809, 2.942 0.858, 4.737c0.392, 0.262 0.877, 0.589 1.295, 0.87c-0.573, 1.094 -0.905, 2.327 -0.906, 3.64l0, 8.255l16.992, 0l0, -8.255c-0.001, -1.313 -0.332, -2.546 -0.905, -3.639c0.418, -0.282 0.904, -0.609 1.295, -0.871c2.667, -1.795 2.646, -3.426 0.859, -4.737" style="fill: rgb(89, 89, 89);"/>
</svg>
