<svg viewBox="0 0 24 24" xmlns="http://www.w3.org/2000/svg">
  <path d="M8.61, 17.815c-0.557, -0.501 -1.023, -1.118 -1.368, -1.813c-0.773, -0.177 -1.68, -0.81 -1.852, -1.96c-0.029, -0.165 -0.039, -0.323 -0.039, -0.471c-0.002, -0.391 0.088, -0.782 0.26, -1.124c-0.182, -0.157 -0.306, -0.38 -0.328, -0.638c-0.032, -0.372 0.153, -0.711 0.45, -0.893c-0.324, -0.129 -0.564, -0.431 -0.596, -0.802c-0.032, -0.37 0.154, -0.709 0.452, -0.891c-0.325, -0.129 -0.566, -0.431 -0.598, -0.802c-0.027, -0.321 0.115, -0.612 0.345, -0.804c-0.341, -0.182 -0.552, -0.557 -0.497, -0.962c0.055, -0.415 0.37, -0.731 0.76, -0.806c-0.293, -0.272 -0.392, -0.711 -0.215, -1.095c0.178, -0.385 0.581, -0.594 0.981, -0.543c-0.192, -0.355 -0.144, -0.807 0.15, -1.113c0.293, -0.305 0.74, -0.371 1.101, -0.195c-0.069, -0.393 0.117, -0.803 0.488, -1.001l0, 0.002c0.366, -0.197 0.803, -0.128 1.092, 0.138c0.045, -0.387 0.328, -0.723 0.729, -0.817c0.396, -0.092 0.793, 0.079 1.005, 0.399c0.129, -0.359 0.47, -0.619 0.875, -0.627c0.035, -0.001 0.068, -0 0.102, 0.003c0.033, -0.003 0.067, -0.005 0.102, -0.005c0.403, -0 0.748, 0.251 0.886, 0.606c0.205, -0.323 0.596, -0.502 0.994, -0.421c0.403, 0.084 0.692, 0.41 0.748, 0.794c0.281, -0.272 0.713, -0.354 1.085, -0.168c0.377, 0.186 0.575, 0.586 0.52, 0.981c0.354, -0.187 0.802, -0.136 1.105, 0.156c0.305, 0.295 0.371, 0.744 0.191, 1.106c0.398, -0.065 0.808, 0.13 1.001, 0.508l0, 0.001c0.19, 0.376 0.106, 0.818 -0.177, 1.101c0.393, 0.064 0.719, 0.37 0.786, 0.784c0.067, 0.402 -0.133, 0.783 -0.467, 0.975c0.241, 0.192 0.389, 0.489 0.362, 0.818c-0.031, 0.372 -0.273, 0.675 -0.597, 0.803c0.297, 0.183 0.483, 0.522 0.451, 0.892c-0.032, 0.37 -0.272, 0.672 -0.595, 0.801c0.296, 0.181 0.481, 0.519 0.449, 0.89c-0.026, 0.292 -0.186, 0.534 -0.408, 0.69c0.219, 0.372 0.329, 0.817 0.328, 1.261c0, 0.14 -0.011, 0.295 -0.035, 0.463c-0.174, 1.156 -1.082, 1.789 -1.855, 1.966c-0.345, 0.695 -0.81, 1.312 -1.367, 1.813l0.878, -0l0, 1.344l3.153, 0.147l2.205, -16.799l1.287, 0.169l-1.323, 10.081l1.249, 0.165l-1.322, 10.078l-8.878, -0l0, -3.895c-0.213, 0.028 -0.429, 0.052 -0.65, 0.052c-0.222, -0 -0.437, -0.024 -0.651, -0.052l0, 3.895l-8.712, -0l0, -3.604l5.083, -0.237l0, -1.344l0.877, -0Zm7.798, -3.261c0.421, -0.118 0.662, -0.267 0.757, -0.755c0.012, -0.07 0.016, -0.146 0.016, -0.226c-0.002, -0.482 -0.25, -0.678 -0.312, -0.679c-0.014, -0.001 -0.129, -0.024 -0.295, -0.045l-0.562, -0.074l-0.078, -0.56c-0.024, -0.168 -0.071, -0.325 -0.109, -0.486c-0.955, -0.206 -2.306, -0.336 -3.815, -0.336c-1.508, -0 -2.856, 0.13 -3.811, 0.335c-0.039, 0.162 -0.085, 0.319 -0.109, 0.487l-0.081, 0.56l-0.559, 0.074c-0.177, 0.022 -0.297, 0.045 -0.294, 0.045c-0.071, -0 -0.313, 0.195 -0.317, 0.677c0, 0.074 0.006, 0.144 0.018, 0.224c0.097, 0.492 0.338, 0.641 0.759, 0.759l0.622, -0l0.191, 0.461c0.668, 1.611 2.045, 2.654 3.584, 2.652c1.537, 0.002 2.914, -1.041 3.582, -2.652l0.189, -0.461l0.624, -0Zm-3.003, 0.174c-0.172, -0.196 -0.365, -0.385 -0.567, -0.504c-0.107, -0.071 -0.227, -0.123 -0.366, -0.123c-0.171, -0 -0.322, 0.069 -0.441, 0.175c-0.118, -0.106 -0.271, -0.175 -0.441, -0.175c-0.136, -0 -0.255, 0.05 -0.36, 0.119c-0.205, 0.119 -0.4, 0.31 -0.573, 0.508c-0.291, 0.334 -0.968, 0.142 -1.293, -0.055c0.232, 1.252 1.729, 1.235 2.558, 0.682c0.013, -0.009 0.02, -0.022 0.031, -0.031c0.027, -0.018 0.055, -0.032 0.078, -0.052c0.023, 0.02 0.051, 0.034 0.077, 0.052c0.012, 0.008 0.019, 0.022 0.032, 0.031c0.828, 0.553 2.327, 0.57 2.558, -0.682c-0.324, 0.197 -1.002, 0.389 -1.293, 0.055Zm0.724, -2.7c-0.334, 0 -0.604, 0.269 -0.604, 0.603c-0, 0.333 0.27, 0.603 0.604, 0.603c0.331, 0 0.602, -0.27 0.602, -0.603c-0, -0.334 -0.271, -0.603 -0.602, -0.603Zm-4.233, 0c0.334, 0 0.603, 0.269 0.603, 0.603c0, 0.333 -0.269, 0.603 -0.603, 0.603c-0.331, 0 -0.601, -0.27 -0.601, -0.603c0, -0.334 0.27, -0.603 0.601, -0.603Z" style="fill: rgb(255, 0, 0);"/>
</svg>
