<svg viewBox="0 0 24 24" xmlns="http://www.w3.org/2000/svg">
  <path d="M14.289, 9.929c-0.355, -0.52 -2.033, -1.563 -2.818, -1.972c-0.516, -0.268 -1.355, -0.654 -1.874, -0.89c0.623, -0.127 1.174, -0.548 1.44, -1.178c0.43, -1.014 -0.045, -2.186 -1.062, -2.617c-1.014, -0.43 -2.187, 0.048 -2.616, 1.062c-0.429, 1.019 0.046, 2.187 1.061, 2.615c0.047, 0.02 0.095, 0.028 0.142, 0.044l-1.075, 0.249c-0.483, -0.588 -1.229, -1.22 -1.418, -2.09c-0.19, -0.869 -0.008, -2.775 -0.008, -3.152c0, -0.376 -0.139, -0.88 -0.621, -0.985c-0.481, -0.104 -0.901, 0.326 -1.068, 0.912c-0.166, 0.586 -0.452, 3.122 -0.094, 4.334c0.566, 1.916 2.498, 3.53 2.513, 3.549c0.016, 0.995 0.079, 1.123 0.137, 1.907c0.056, 0.738 0.153, 1.407 0.272, 2.27c-1.071, 0.755 -2.891, 1.822 -3.518, 3.203c-0.629, 1.383 -0.062, 4.44 0.147, 5.063c0.209, 0.623 0.753, 0.811 1.234, 0.717c0.482, -0.094 0.816, -0.452 0.816, -1.121c0, -0.669 -0.642, -2.727 -0.047, -3.763c0.215, -0.374 2.089, -2.015 3.188, -1.952c0.816, 0.046 1.162, 0.774 1.445, 1.465c0.283, 0.691 1.299, 3.371 1.885, 4.292c0.586, 0.921 1.14, 1.209 1.607, 1.079c0.465, -0.131 0.787, -0.717 0.477, -1.382c-0.313, -0.665 -3.547, -7.517 -3.605, -9.871c-0.03, -1.186 0.181, -1.573 0.181, -1.573c0, 0 1.203, 0.514 1.738, 1.047c0.533, 0.534 0.952, 1.948 1.172, 2.419c0.22, 0.472 0.785, 0.754 1.224, 0.534c0.44, -0.219 0.597, -0.649 0.471, -1.173c-0.125, -0.523 -0.875, -2.384 -1.326, -3.042Zm3.728, -8.088c0.066, 0 0.126, 0.039 0.155, 0.099c0.143, 0.311 0.286, 0.481 0.787, 0.927c0.842, 0.729 0.992, 0.867 1.258, 1.263c0.25, 0.354 0.389, 0.719 0.389, 1.068c-0.002, 0.437 -0.199, 0.889 -0.52, 1.286c-0.213, 0.268 -0.468, 0.494 -0.893, 0.8c-0.078, 0.052 -0.179, 0.037 -0.234, -0.034l-0.124, -0.155c-0.049, -0.063 -0.047, -0.15 0.002, -0.211c0.042, -0.052 0.085, -0.094 0.126, -0.136c0.484, -0.491 0.563, -0.595 0.676, -0.826c0.107, -0.221 0.156, -0.412 0.156, -0.604c0.013, -0.38 -0.379, -0.862 -1.447, -1.531l0.002, 3.913c0.006, 0.456 -0.018, 0.591 -0.141, 0.809c-0.285, 0.547 -0.928, 0.928 -1.56, 0.932l-0.016, 0c-0.355, 0 -0.652, -0.105 -0.854, -0.351c-0.134, -0.174 -0.214, -0.389 -0.214, -0.617c-0, -0.445 0.289, -0.835 0.747, -1.066c0.243, -0.114 0.526, -0.201 0.751, -0.204c0.21, 0 0.401, 0.017 0.571, 0.061l-0, -5.252c-0, -0.046 0.02, -0.09 0.051, -0.12c0.03, -0.032 0.075, -0.051 0.12, -0.051l0.212, 0Z" style="fill: rgb(255, 0, 0);"/>
</svg>
