<svg viewBox="0 0 24 24" xmlns="http://www.w3.org/2000/svg">
  <path d="M9.596, 16.466c0, 0.481 0.393, 0.874 0.876, 0.876c0.484, -0.002 0.877, -0.395 0.877, -0.876l0, -0.457c-0.721, -0.16 -1.239, -0.573 -1.239, -1.064c0, -0.625 0.847, -1.136 1.89, -1.136c1.045, -0 1.89, 0.511 1.89, 1.136c0, 0.492 -0.517, 0.905 -1.241, 1.064l0, 0.457c0, 0.481 0.395, 0.874 0.876, 0.876c0.485, -0.002 0.877, -0.395 0.879, -0.876l1.298, -0c0, 1.201 -0.975, 2.175 -2.177, 2.175c-0.595, -0 -1.133, -0.24 -1.526, -0.627c-0.393, 0.387 -0.931, 0.627 -1.527, 0.627c-1.201, -0 -2.176, -0.974 -2.176, -2.175l1.3, -0Zm5.123, -4.855c-0, -0.453 0.367, -0.819 0.82, -0.819c0.451, -0 0.819, 0.366 0.819, 0.819c-0, 0.453 -0.368, 0.82 -0.819, 0.82c-0.453, -0 -0.82, -0.367 -0.82, -0.82Zm-5.436, -0c-0, -0.453 -0.367, -0.819 -0.82, -0.819c-0.452, -0 -0.819, 0.366 -0.819, 0.819c-0, 0.453 0.367, 0.82 0.819, 0.82c0.453, -0 0.82, -0.367 0.82, -0.82Z" style="fill: rgb(180, 80, 0);"/>
  <path d="M12, 20.261c-5.007, -0.062 -6.792, -2.896 -6.868, -6.824c0, -0.404 0.021, -0.815 0.066, -1.231l0, -0.002c0.071, -0.698 0.172, -1.364 0.302, -1.998c0.42, -0.395 0.829, -0.851 1.202, -1.374c0.848, -1.185 1.346, -2.43 1.472, -3.474c0.931, -0.659 2.142, -1.043 3.826, -1.053c1.685, 0.01 2.896, 0.394 3.827, 1.054c0.126, 1.044 0.625, 2.289 1.472, 3.473c0.373, 0.521 0.78, 0.976 1.199, 1.37c0.131, 0.635 0.232, 1.303 0.304, 2.002c0.043, 0.418 0.063, 0.828 0.063, 1.231c-0.076, 3.93 -1.86, 6.764 -6.865, 6.826m9.512, -14.442c-1.625, -2.271 -3.885, -3.438 -5.049, -2.606c-0.234, 0.167 -0.391, 0.418 -0.502, 0.707c-1.077, -0.587 -2.389, -0.923 -3.961, -0.915c-1.571, -0.008 -2.883, 0.328 -3.96, 0.914c-0.112, -0.288 -0.268, -0.539 -0.502, -0.706c-1.163, -0.832 -3.423, 0.335 -5.048, 2.606c-1.624, 2.271 -1.998, 4.786 -0.833, 5.618c0.579, 0.415 1.431, 0.332 2.34, -0.134c-0.034, 0.254 -0.066, 0.51 -0.093, 0.77l0.001, -0c-0.049, 0.46 -0.073, 0.916 -0.073, 1.364c0, 2.183 0.578, 4.222 1.928, 5.727c1.35, 1.509 3.447, 2.404 6.24, 2.398l0.029, -0c2.776, -0 4.862, -0.897 6.209, -2.398c1.35, -1.507 1.928, -3.546 1.926, -5.729c0, -0.447 -0.022, -0.902 -0.07, -1.362c-0.028, -0.26 -0.059, -0.517 -0.093, -0.772c0.91, 0.468 1.763, 0.551 2.343, 0.136c1.166, -0.832 0.791, -3.347 -0.832, -5.618" style="fill: rgb(180, 80, 0);"/>
</svg>
