<svg viewBox="0 0 24 24" xmlns="http://www.w3.org/2000/svg">
  <path d="M22.439, 15.973l0.475, 0.043l0.086, -0.947l-0.473, -0.043c-0.216, -0.02 -0.415, -0.03 -0.618, -0.041c0.017, -0.207 0.038, -0.411 0.039, -0.626c0, -2.253 -0.646, -4.535 -2.17, -6.295l-1.018, -6.205l-3.493, 3.523c-0.972, -0.25 -2.06, -0.387 -3.265, -0.387c-1.208, -0 -2.296, 0.137 -3.272, 0.387l-3.491, -3.523l-1.018, 6.207c-1.524, 1.76 -2.17, 4.042 -2.17, 6.293c0.001, 0.215 0.022, 0.419 0.039, 0.626c-0.202, 0.011 -0.402, 0.021 -0.615, 0.04l-0.475, 0.043l0.089, 0.951l0.475, -0.045c0.23, -0.022 0.451, -0.034 0.671, -0.044c0.124, 0.54 0.31, 1.05 0.551, 1.526c-0.279, 0.073 -0.563, 0.151 -0.857, 0.242l-0.455, 0.141l0.283, 0.911l0.456, -0.143c0.374, -0.116 0.733, -0.21 1.077, -0.294c1.722, 2.441 5.044, 3.822 8.712, 3.828c3.668, -0.006 6.988, -1.388 8.709, -3.83c0.343, 0.085 0.704, 0.18 1.077, 0.296l0.454, 0.141l0.284, -0.907l-0.454, -0.143c-0.295, -0.091 -0.579, -0.17 -0.858, -0.242c0.242, -0.476 0.427, -0.986 0.55, -1.527c0.221, 0.011 0.443, 0.022 0.675, 0.044Zm-4.081, 1.904l0, -0.002c0.001, 0 0.393, 0.041 1.002, 0.149c-1.516, 1.794 -4.182, 2.863 -7.358, 2.878c-3.178, -0.015 -5.844, -1.084 -7.361, -2.876c0.609, -0.107 0.999, -0.15 1, -0.152l0.474, -0.047l-0.096, -0.946l-0.474, 0.047c-0.011, 0.001 -0.619, 0.066 -1.506, 0.242c-0.229, -0.398 -0.409, -0.821 -0.534, -1.271c0.849, 0.009 1.406, 0.065 1.408, 0.065l0.473, 0.048l0.097, -0.948l-0.473, -0.047l-0.003, -0.002c-0.01, 0 -0.685, -0.067 -1.68, -0.069c-0.02, -0.193 -0.037, -0.386 -0.037, -0.587c0, -2.077 0.611, -4.105 1.972, -5.599l0.121, -0.135l0.685, -4.174l2.298, 2.322l0.355, -0.103c0.943, -0.276 2.028, -0.437 3.281, -0.437c1.251, 0 2.335, 0.161 3.281, 0.435l0.35, 0.104l2.298, -2.319l0.683, 4.167l0.124, 0.137c1.361, 1.497 1.972, 3.523 1.972, 5.602c0, 0.2 -0.018, 0.394 -0.038, 0.585c-0.996, 0.002 -1.668, 0.07 -1.68, 0.072l-0.475, 0.048l0.097, 0.949l0.474, -0.048l-0.001, -0.002c0.001, 0 0.557, -0.056 1.407, -0.065c-0.124, 0.45 -0.304, 0.873 -0.532, 1.271c-0.888, -0.176 -1.497, -0.24 -1.506, -0.241l-0.475, -0.049l-0.097, 0.95l0.474, 0.048Zm-6.833, -0.741l0, -0.331c-0.166, -0.139 -0.279, -0.339 -0.279, -0.572c0, -0.416 0.337, -0.753 0.756, -0.753c0.413, -0 0.752, 0.337 0.752, 0.753c0, 0.232 -0.112, 0.431 -0.276, 0.569l0, 0.343c0.007, 0.506 0.415, 0.913 0.922, 0.915c0.507, -0.002 0.92, -0.414 0.92, -0.924l0.951, -0c0, 1.034 -0.834, 1.876 -1.871, 1.876c-0.557, -0 -1.056, -0.243 -1.399, -0.628c-0.344, 0.385 -0.842, 0.628 -1.397, 0.628c-1.039, -0 -1.875, -0.842 -1.875, -1.876l0.951, -0c0, 0.51 0.413, 0.922 0.924, 0.924c0.506, -0.002 0.92, -0.414 0.92, -0.924l0.001, -0Zm-3.424, -4.351c-0.436, 0 -0.789, 0.353 -0.789, 0.789c-0, 0.438 0.353, 0.792 0.789, 0.792c0.437, 0 0.791, -0.354 0.791, -0.792c-0, -0.436 -0.354, -0.789 -0.791, -0.789Zm7.802, 0c-0.438, 0 -0.791, 0.353 -0.791, 0.789c0, 0.438 0.353, 0.792 0.791, 0.792c0.436, 0 0.789, -0.354 0.789, -0.792c0, -0.436 -0.353, -0.789 -0.789, -0.789Z" style="fill: rgb(255, 140, 0);"/>
</svg>
