<svg viewBox="0 0 24 24" xmlns="http://www.w3.org/2000/svg">
  <path d="M5.678, 7.516c0.057, -0.072 0.116, -0.142 0.176, -0.212c-0.003, -0.071 -0.006, -0.144 -0.006, -0.22c0, -3.397 2.755, -6.151 6.151, -6.151c3.394, 0 6.148, 2.754 6.148, 6.151c0, 0.076 -0.002, 0.149 -0.006, 0.22c0.06, 0.07 0.119, 0.14 0.177, 0.212l4.664, 0l0, 0.65c0, 1.889 -1.201, 3.491 -2.883, 4.09c0.005, 0.109 0.008, 0.218 0.008, 0.328c0, 3.58 -2.324, 6.611 -5.542, 7.685l0, 2.731l-1.3, 0l0, -2.417c-0.413, 0.064 -0.834, 0.108 -1.266, 0.108c-0.433, 0 -0.854, -0.044 -1.269, -0.109l0, 2.418l-1.301, 0l0, -2.732c-3.218, -1.075 -5.54, -4.105 -5.54, -7.684c0, -0.11 0.002, -0.22 0.007, -0.33c-1.681, -0.599 -2.881, -2.201 -2.883, -4.088l0, -0.65l4.665, 0Zm11.992, 1.301l-0.194, -0.266c-0.148, -0.199 -0.308, -0.393 -0.479, -0.578l-0.194, -0.21l0.025, -0.28c0.01, -0.146 0.02, -0.278 0.02, -0.399c-0.006, -2.678 -2.172, -4.846 -4.849, -4.85c-2.678, 0.004 -4.846, 2.172 -4.849, 4.85c0, 0.121 0.007, 0.253 0.018, 0.399l0.023, 0.282l-0.192, 0.208c-0.171, 0.185 -0.329, 0.379 -0.477, 0.578l-0.196, 0.266l-3.943, 0c0.253, 1.163 1.174, 2.074 2.337, 2.324l0.575, 0.121l-0.064, 0.583c-0.027, 0.247 -0.041, 0.492 -0.041, 0.739c0.006, 3.759 3.048, 6.801 6.809, 6.807c3.758, -0.006 6.8, -3.048 6.807, -6.807c0, -0.247 -0.014, -0.492 -0.041, -0.737l-0.064, -0.585l0.574, -0.121c1.165, -0.248 2.087, -1.161 2.34, -2.324l-3.945, 0Zm-4.133, -0.224l-3.074, -0l1.537, -1.7l1.537, 1.7Zm-4.606, -2.816c-0.478, 0 -0.861, 0.385 -0.861, 0.863c-0, 0.476 0.383, 0.86 0.861, 0.86c0.476, 0 0.861, -0.384 0.861, -0.86c-0, -0.478 -0.385, -0.863 -0.861, -0.863Zm6.138, 0c-0.476, 0 -0.861, 0.385 -0.861, 0.863c0, 0.476 0.385, 0.86 0.861, 0.86c0.478, 0 0.861, -0.384 0.861, -0.86c0, -0.478 -0.383, -0.863 -0.861, -0.863Z" style="fill: rgb(255, 140, 0);"/>
</svg>
