<svg viewBox="0 0 24 24" xmlns="http://www.w3.org/2000/svg">
  <path d="M20.81, 10.521c0.39, -0.526 1.115, -1.286 2.19, -1.589c-1.829, -1.157 -3.377, -1.486 -4.965, -1.486c-0, -0 1.103, -0.894 2.922, -1.428c-2.281, -1.355 -5.105, -1.397 -6.558, -0.697c-0, -0 0.691, -1.182 2.375, -2.073c-2.188, -0.594 -4.335, -0.196 -5.69, 0.794l-0.894, -0.896c-0.386, -0.387 -0.9, -0.582 -1.404, -0.582c-0.506, -0 -1.019, 0.196 -1.405, 0.584c-0.387, 0.384 -0.582, 0.898 -0.582, 1.403c-0, 0.504 0.195, 1.018 0.584, 1.403l0.892, 0.891l-5.759, 5.759c-1.01, 1.007 -1.518, 2.337 -1.516, 3.66c-0.002, 1.32 0.506, 2.648 1.516, 3.658c1.01, 1.008 2.336, 1.517 3.658, 1.514l0.009, -0c1.317, 0.001 2.641, -0.508 3.649, -1.514l3.071, -3.067c0.603, 0.967 1.328, 2.468 1.319, 3.949l1.264, -0c-0.013, -2.343 -1.308, -4.368 -1.979, -5.308l-0.434, -0.599l-3.687, 3.685l-5.531, -5.531l6.206, -6.206l-1.786, -1.784c-0.143, -0.144 -0.211, -0.323 -0.213, -0.51c0.002, -0.189 0.07, -0.367 0.213, -0.509c0.141, -0.145 0.323, -0.213 0.511, -0.213c0.185, -0 0.367, 0.068 0.51, 0.21l1.62, 1.622l0.144, 0.046c2.791, 0.91 5.447, 2.764 7.385, 4.396c1.941, 1.632 3.15, 3.017 3.155, 3.017l0.952, -0.831l-0.002, -0.002c-0.015, -0.01 -0.657, -0.743 -1.74, -1.766Zm-14.636, 9.652c-0.334, -0 -0.662, -0.058 -0.986, -0.142l0.757, -0.756l-0.893, -0.892l-1.095, 1.095c-0.191, -0.133 -0.378, -0.278 -0.549, -0.449c-0.764, -0.766 -1.145, -1.764 -1.145, -2.765c-0, -0.804 0.254, -1.597 0.744, -2.277l5.441, 5.443c-0.68, 0.489 -1.472, 0.743 -2.274, 0.743Zm2.676, -9.298c-0, 0.498 0.4, 0.898 0.897, 0.898c0.494, -0 0.896, -0.4 0.896, -0.898c-0, -0.494 -0.402, -0.895 -0.896, -0.895c-0.497, -0 -0.897, 0.401 -0.897, 0.895Z" style="fill: rgb(180, 80, 0);"/>
</svg>
