<svg viewBox="0 0 24 24" xmlns="http://www.w3.org/2000/svg">
  <path d="M20.929, 8.479l-0.268, -0.425c0.608, -0.588 1.13, -1.21 1.449, -1.8c0.162, -0.332 0.29, -0.63 0.294, -1.001c0.002, -0.621 -0.431, -1.049 -0.853, -1.335c-1.089, -0.719 -3.696, -1.394 -4.295, -1.501c-0.136, -0.019 -0.272, -0.031 -0.403, -0.031c-0.367, -0.008 -0.801, 0.116 -1.083, 0.429c-0.278, 0.306 -0.385, 0.658 -0.468, 1.051c-0.01, 0.051 -0.017, 0.118 -0.026, 0.178c-1.04, -0.333 -2.137, -0.508 -3.276, -0.508c-1.139, 0 -2.236, 0.175 -3.277, 0.508c-0.008, -0.059 -0.016, -0.125 -0.025, -0.175c-0.084, -0.396 -0.191, -0.748 -0.469, -1.054c-0.283, -0.314 -0.717, -0.438 -1.083, -0.428c-0.131, 0 -0.267, 0.011 -0.407, 0.031c-0.594, 0.107 -3.2, 0.781 -4.289, 1.501c-0.421, 0.283 -0.857, 0.708 -0.857, 1.333c0.004, 0.368 0.131, 0.674 0.298, 1.001c0.318, 0.591 0.842, 1.214 1.451, 1.803l-0.271, 0.421c-1.209, 1.888 -1.876, 4.074 -1.878, 6.19c-0.02, 3.253 2.042, 5.174 4.333, 6.098c2.3, 0.955 4.899, 1.108 6.474, 1.11c1.572, -0.002 4.174, -0.155 6.473, -1.11c2.291, -0.924 4.354, -2.845 4.333, -6.098c-0, -2.114 -0.669, -4.3 -1.877, -6.188Zm-2.956, 11.086c-2.018, 0.847 -4.495, 1.013 -5.973, 1.011c-1.482, 0.002 -3.959, -0.164 -5.974, -1.011c-2.025, -0.874 -3.513, -2.23 -3.532, -4.898c-0.002, -1.841 0.591, -3.804 1.671, -5.488l0.165, -0.258c0.693, 0.555 1.416, 1.038 2.047, 1.365c0.241, 0.119 0.488, 0.187 0.738, 0.187l0.008, 0c0.662, 0 1.1, -0.512 1.236, -0.931c0.353, -1.143 0.438, -2.688 0.442, -3.915c-0.001, -0.083 -0.003, -0.155 -0.004, -0.234c1, -0.364 2.069, -0.557 3.203, -0.557c1.133, 0 2.201, 0.193 3.202, 0.558c-0, 0.079 -0.002, 0.15 -0.002, 0.234c0.003, 1.227 0.086, 2.772 0.43, 3.882c0.139, 0.45 0.583, 0.963 1.241, 0.963l0.012, 0c0.249, 0 0.496, -0.068 0.736, -0.185c0.632, -0.328 1.357, -0.811 2.05, -1.366l0.162, 0.255c1.085, 1.69 1.676, 3.652 1.676, 5.49c-0.02, 2.668 -1.509, 4.024 -3.534, 4.898Zm-5.972, -6.606c-2.326, 0.013 -4.406, 1.136 -4.476, 2.993c0.07, 1.854 2.148, 2.98 4.476, 2.992c2.322, -0.012 4.402, -1.138 4.472, -2.992c-0.07, -1.857 -2.15, -2.98 -4.472, -2.993Zm2.542, 4.331c-0.621, 0.393 -1.532, 0.656 -2.542, 0.654c-1.015, 0.002 -1.924, -0.261 -2.545, -0.654c-0.63, -0.397 -0.934, -0.881 -0.931, -1.338c-0.002, -0.459 0.301, -0.942 0.931, -1.341c0.621, -0.391 1.53, -0.654 2.545, -0.652c1.01, -0.002 1.921, 0.261 2.542, 0.652c0.63, 0.399 0.932, 0.882 0.93, 1.341c0.002, 0.457 -0.3, 0.941 -0.93, 1.338Zm-3.843, -2.019c-0.338, 0 -0.613, 0.275 -0.613, 0.613l0, 0.266c0, 0.34 0.275, 0.613 0.613, 0.613c0.338, 0 0.613, -0.273 0.613, -0.613l0, -0.266c0, -0.338 -0.275, -0.613 -0.613, -0.613Zm2.599, 0c-0.338, 0 -0.614, 0.275 -0.614, 0.613l-0, 0.266c-0, 0.34 0.276, 0.613 0.614, 0.613c0.338, 0 0.613, -0.273 0.613, -0.613l-0, -0.266c-0, -0.338 -0.275, -0.613 -0.613, -0.613Zm4.107, -1.328l-1.014, -0l-0, -1.922l1.014, -0l-0, 1.922Zm-9.776, -0l-1.013, -0l-0, -1.922l1.013, -0l-0, 1.922Zm9.091, -10.244l-0, 0.003c0.01, -0.005 0.049, -0.015 0.132, -0.015c0.055, 0 0.131, 0.004 0.224, 0.019c0.247, 0.008 3.178, 0.846 3.727, 1.276c0.167, 0.117 0.26, 0.208 0.286, 0.247c0.013, 0.024 0.009, 0.008 0.015, 0.024c0.004, 0.013 -0.023, 0.157 -0.153, 0.408c-0.5, 1.027 -2.634, 2.847 -3.913, 3.462c-0.071, 0.036 -0.118, 0.046 -0.14, 0.048c-0.01, -0.013 -0.024, -0.037 -0.036, -0.073c-0.259, -0.811 -0.369, -2.324 -0.365, -3.47c-0.002, -0.735 0.045, -1.381 0.077, -1.492c0.059, -0.307 0.139, -0.434 0.146, -0.437Zm-13.675, 1.956c-0.132, -0.246 -0.156, -0.386 -0.152, -0.403c0.004, -0.012 -0.015, 0 0.012, -0.022c0.029, -0.039 0.121, -0.132 0.29, -0.247c0.548, -0.431 3.48, -1.27 3.724, -1.278c0.095, -0.013 0.169, -0.019 0.226, -0.019c0.132, 0.01 0.128, 0.021 0.132, 0.015c0.008, 0 0.088, 0.127 0.148, 0.427c0.028, 0.125 0.076, 0.765 0.074, 1.499c0.004, 1.146 -0.103, 2.659 -0.37, 3.494c-0.008, 0.019 -0.021, 0.038 -0.031, 0.049c-0.022, -0.002 -0.068, -0.013 -0.142, -0.049c-1.274, -0.615 -3.41, -2.432 -3.911, -3.466Z" style="fill: rgb(255, 0, 255);"/>
</svg>
