<svg viewBox="0 0 24 24" xmlns="http://www.w3.org/2000/svg">
  <path d="M21.139, 11.449l-1.006, -0.168l0.335, 0.963c-0, 0 0.104, 0.297 0.217, 0.838c0.113, 0.543 0.225, 1.308 0.225, 2.186l-0, 0.017c-0.167, -0.129 -0.275, -0.206 -0.28, -0.211l-0.834, -0.596l-0.119, 1.016c-0, 0.002 -0.076, 0.648 -0.274, 1.5c-0.125, 0.547 -0.305, 1.172 -0.536, 1.74c-0.329, -0.488 -0.617, -0.918 -0.618, -0.92l-0.295, -0.441l-0.475, 0.234c-0.002, 0.002 -0.955, 0.467 -2.228, 0.756l-2.648, -1.047l-0, -1.053l1.545, -1.367l-4.297, 0l1.544, 1.367l-0, 1.053l-2.65, 1.047c-1.272, -0.289 -2.224, -0.76 -2.228, -0.756l-0.477, -0.234l-0.293, 0.441c-0.001, 0.002 -0.288, 0.432 -0.617, 0.918c-0.23, -0.566 -0.409, -1.193 -0.535, -1.738c-0.199, -0.852 -0.272, -1.498 -0.273, -1.498l-0.121, -1.02l-0.832, 0.598c-0.006, 0.005 -0.116, 0.082 -0.282, 0.211l-0, -0.017c-0.002, -1.755 0.454, -3.016 0.443, -3.024l0.337, -0.965l-1.008, 0.17c-0.009, 0.001 -0.106, 0.018 -0.29, 0.057c0.411, -1.586 1.097, -3.071 1.81, -4.102l0.354, -0.516l-0.525, -0.337c-0.657, -0.426 -0.904, -1.031 -0.91, -1.61c-0.002, -0.449 0.169, -0.854 0.397, -1.079c0.256, -0.257 0.598, -0.387 0.988, -0.389c0.464, 0 0.98, 0.198 1.389, 0.608c0.124, 0.124 0.227, 0.27 0.326, 0.438l0.34, 0.583l0.544, -0.404c1.157, -0.866 2.602, -1.198 4.253, -1.249l-0, 0.719c-0.961, 0.057 -1.878, 0.282 -2.713, 0.661l0.384, 0.849c0.718, -0.328 1.503, -0.524 2.329, -0.581l-0, 0.914c-0.961, 0.059 -1.878, 0.282 -2.713, 0.66l0.384, 0.848c0.718, -0.326 1.503, -0.521 2.329, -0.578l-0, 1.282l0.929, 0l-0, -1.282c0.821, 0.056 1.603, 0.25 2.317, 0.574l0.384, -0.846c-0.833, -0.379 -1.746, -0.601 -2.701, -0.659l-0, -0.912c0.821, 0.057 1.603, 0.252 2.317, 0.575l0.384, -0.848c-0.831, -0.375 -1.744, -0.599 -2.701, -0.656l-0, -0.72c1.649, 0.051 3.093, 0.383 4.25, 1.249l0.542, 0.406l0.342, -0.585c0.099, -0.168 0.202, -0.314 0.327, -0.438c0.408, -0.409 0.924, -0.608 1.388, -0.608c0.39, 0.002 0.73, 0.132 0.989, 0.389c0.228, 0.225 0.397, 0.63 0.394, 1.079c-0.005, 0.579 -0.254, 1.184 -0.909, 1.612l-0.522, 0.337l0.353, 0.514c0.714, 1.031 1.398, 2.516 1.81, 4.102c-0.185, -0.039 -0.28, -0.056 -0.289, -0.057m-9.141, 9.105c-1.559, -0.068 -1.968, -0.259 -2.411, -1.224l2.41, -0.955l2.413, 0.955c-0.442, 0.965 -0.851, 1.156 -2.412, 1.224m10.076, -7.648l0.926, 0.244l-0.176, -0.94c-0.35, -1.874 -1.068, -3.659 -1.9, -5.016c0.675, -0.633 0.986, -1.473 0.982, -2.253c-0.002, -0.732 -0.253, -1.433 -0.749, -1.933c-0.502, -0.505 -1.176, -0.746 -1.844, -0.744c-0.801, 0.002 -1.613, 0.333 -2.242, 0.962c-0.051, 0.051 -0.1, 0.103 -0.145, 0.156c-1.464, -0.891 -3.169, -1.152 -4.928, -1.152c-1.758, 0 -3.464, 0.261 -4.927, 1.152c-0.046, -0.053 -0.094, -0.105 -0.145, -0.156c-0.629, -0.629 -1.442, -0.962 -2.243, -0.962c-0.67, -0.002 -1.343, 0.241 -1.843, 0.744c-0.496, 0.498 -0.749, 1.201 -0.751, 1.933c-0.003, 0.778 0.306, 1.62 0.983, 2.254c-0.832, 1.357 -1.549, 3.142 -1.897, 5.015l-0.175, 0.938l0.922, -0.242c0.071, -0.019 0.138, -0.037 0.202, -0.053c-0.125, 0.604 -0.247, 1.443 -0.248, 2.415c-0, 0.427 0.025, 0.88 0.084, 1.353l0.152, 1.226l0.876, -0.875c0.098, -0.099 0.201, -0.195 0.303, -0.285c0.19, 0.973 0.562, 2.436 1.243, 3.555l0.485, 0.789l0.527, -0.762c0.29, -0.42 0.668, -0.98 0.923, -1.361c0.417, 0.172 1.07, 0.412 1.853, 0.6c0.555, 1.529 1.784, 2.334 3.676, 2.255c0.083, 0.004 0.164, 0.006 0.245, 0.006c1.754, 0 2.902, -0.799 3.432, -2.261c0.781, -0.19 1.436, -0.428 1.852, -0.6c0.256, 0.381 0.634, 0.941 0.924, 1.359l0.525, 0.764l0.486, -0.789c0.681, -1.119 1.053, -2.582 1.243, -3.555c0.103, 0.09 0.207, 0.188 0.305, 0.287l0.877, 0.875l0.15, -1.23c0.059, -0.471 0.081, -0.924 0.081, -1.351c-0, -0.971 -0.122, -1.811 -0.247, -2.415c0.065, 0.016 0.132, 0.034 0.203, 0.053" style="fill: rgb(255, 140, 0);"/>
  <path d="M7.12, 14.592c-1.155, -1.576 -1.348, -3.854 -1.34, -4.961c-0.001, -0.406 0.024, -0.639 0.022, -0.639l-0.926, -0.084c-0.003, 0.012 -0.027, 0.284 -0.027, 0.723c0.01, 1.333 0.191, 4.248 2.08, 6.157l0.515, 0.519l0.249, -0.689c0.226, -0.624 0.494, -1.061 0.7, -1.342c0.206, -0.28 0.332, -0.375 0.328, -0.381l-0.603, -0.705c-0.038, 0.03 -0.536, 0.466 -0.998, 1.402Zm11.075, -5.603l0.926, -0.079c0.002, 0.012 0.022, 0.282 0.024, 0.723c-0.012, 1.332 -0.195, 4.246 -2.076, 6.155l-0.52, 0.519l-0.248, -0.69c-0.224, -0.621 -0.492, -1.062 -0.699, -1.341c-0.206, -0.28 -0.328, -0.379 -0.326, -0.379l0.601, -0.707c0.039, 0.031 0.536, 0.466 0.998, 1.401c1.152, -1.576 1.348, -3.854 1.339, -4.958c0, -0.408 -0.021, -0.643 -0.021, -0.644l0.002, -0Zm-10.373, 2.484c1.154, 0.255 1.456, -0.93 1.456, -0.93l-2.382, -0.524c0, -0 -0.227, 1.2 0.926, 1.454Zm8.354, -0c1.153, -0.254 0.926, -1.454 0.926, -1.454l-2.381, 0.524c-0, -0 0.3, 1.185 1.455, 0.93Z" style="fill: rgb(255, 140, 0);"/>
</svg>
