<svg viewBox="0 0 24 24" xmlns="http://www.w3.org/2000/svg">
  <path d="M22.191, 13.138c-0.121, 0.028 -0.245, 0.04 -0.375, 0.04c-0.547, 0.013 -1.209, -0.276 -2.064, -0.292c-0.304, -0.005 -0.633, 0.049 -0.96, 0.18c-0.298, -0.683 -0.803, -1.125 -1.275, -1.377c-0.648, -0.351 -1.185, -0.539 -1.385, -0.801l-0.668, -0.778l-0.37, 0.956c-0.144, 0.385 -0.206, 0.805 -0.206, 1.24c0.015, 1.067 0.336, 2.229 1.03, 3.032c-0.04, 0.019 -0.101, 0.035 -0.193, 0.043c-0.155, -0.004 -0.33, -0.063 -0.476, -0.26c-0.698, -0.748 -0.317, -3.928 -3.196, -6.383c-0.226, -0.193 -0.463, -0.358 -0.705, -0.512l0.71, -1.809c0.217, -0.536 0.735, -0.86 1.284, -0.863c0.174, 0 0.352, 0.035 0.529, 0.107c0.535, 0.218 0.862, 0.74 0.862, 1.288c0, 0.175 -0.034, 0.353 -0.103, 0.53l1.133, 0.461l0, -0.002c0.131, -0.323 0.195, -0.659 0.195, -0.989c0, -1.032 -0.613, -2.005 -1.623, -2.419c-0.323, -0.133 -0.661, -0.199 -0.993, -0.199c-0.427, 0 -0.845, 0.106 -1.216, 0.3c-0.228, -0.709 -0.753, -1.317 -1.495, -1.622c-0.323, -0.134 -0.66, -0.198 -0.992, -0.198c-1.03, 0 -2.006, 0.613 -2.42, 1.625l1.135, 0.462c0.217, -0.537 0.737, -0.862 1.285, -0.862c0.175, 0 0.352, 0.034 0.527, 0.106c0.535, 0.217 0.86, 0.738 0.86, 1.285c0, 0.178 -0.033, 0.356 -0.103, 0.529l-0.001, 0.007l-0.667, 1.7c-0.811, -0.322 -1.661, -0.479 -2.497, -0.478c-2.023, 0.002 -3.987, 0.856 -5.245, 2.333l0.002, 0.001c-0.956, 1.129 -1.511, 2.729 -1.515, 4.399c-0.008, 2.174 0.99, 4.523 3.404, 5.914c1.543, 0.888 3.513, 1.355 5.554, 1.357l0.006, 0c3.406, 0 7.073, -1.324 9.081, -4.457c1.798, 0.002 3.651, -1.015 3.893, -2.951l0.062, -0.83l-0.809, 0.187Zm-1.37, 1.811c-0.524, 0.357 -1.215, 0.568 -1.68, 0.563c-0.11, 0 -0.207, -0.012 -0.283, -0.028l-0.44, -0.099l-0.224, 0.39c-1.647, 2.887 -5.007, 4.19 -8.236, 4.192c-1.853, 0.002 -3.634, -0.436 -4.941, -1.194c-0.819, -0.478 -1.424, -1.074 -1.864, -1.73c1.331, 0.611 3.393, 1.299 5.949, 1.301c0.595, 0 1.216, -0.04 1.861, -0.12l-0.154, -1.214c-0.595, 0.076 -1.163, 0.111 -1.707, 0.111c-2.088, 0 -3.824, -0.508 -5.036, -1.016c-0.858, -0.357 -1.428, -0.705 -1.692, -0.875c-0.098, -0.433 -0.148, -0.873 -0.15, -1.312c-0.004, -1.395 0.486, -2.744 1.223, -3.608c0.988, -1.172 2.636, -1.904 4.311, -1.903c1.234, 0.002 2.472, 0.39 3.503, 1.264c2.473, 2.079 1.909, 4.493 3.003, 6.176c0.376, 0.512 0.94, 0.76 1.461, 0.758c0.698, 0 1.494, -0.641 1.494, -1.373c0, -0.092 -0.024, -0.371 -0.024, -0.371l-0.194, -0.162c-0.471, -0.371 -0.888, -1.459 -0.889, -2.344c0.292, 0.149 0.572, 0.258 0.798, 0.397c0.466, 0.289 0.755, 0.511 0.904, 1.351l0.163, 0.975l0.843, -0.604c0.358, -0.3 0.608, -0.357 0.932, -0.367c0.43, -0.012 0.986, 0.199 1.685, 0.272c-0.152, 0.205 -0.362, 0.398 -0.616, 0.57Zm-10.891, -0.177c-0.346, -0.125 -0.729, 0.053 -0.854, 0.398c-0.127, 0.348 0.051, 0.733 0.398, 0.858c0.347, 0.127 0.729, -0.051 0.857, -0.399c0.125, -0.347 -0.052, -0.73 -0.401, -0.857Z" style="fill: rgb(0, 60, 150);"/>
</svg>
