<svg viewBox="0 0 24 24" xmlns="http://www.w3.org/2000/svg">
  <path d="M8.488, 16.518c0.002, 0.796 0.65, 1.445 1.451, 1.445c0.797, -0 1.444, -0.647 1.448, -1.445l1.226, -0c0.002, 0.798 0.65, 1.445 1.449, 1.445c0.796, -0 1.446, -0.649 1.449, -1.445l1.227, -0c-0.003, 1.477 -1.2, 2.674 -2.676, 2.675c-0.83, -0.001 -1.572, -0.379 -2.063, -0.972c-0.49, 0.593 -1.23, 0.971 -2.06, 0.972c-1.478, -0.001 -2.676, -1.198 -2.676, -2.675l1.225, -0Zm0.316, -4.471c-0, -0.514 -0.416, -0.93 -0.93, -0.93c-0.511, -0 -0.93, 0.416 -0.93, 0.93c-0, 0.514 0.419, 0.929 0.93, 0.929c0.514, -0 0.93, -0.415 0.93, -0.929Zm7.036, -0.93c-0.514, 0 -0.931, 0.416 -0.931, 0.93c-0, 0.513 0.417, 0.928 0.931, 0.928c0.513, 0 0.929, -0.415 0.929, -0.928c-0, -0.514 -0.416, -0.93 -0.929, -0.93Z" style="fill: rgb(180, 80, 0);"/>
  <path d="M19.938, 14.802l-0.659, -0l0.044, 0.654c0, -0 0.003, 0.03 0.003, 0.116c0.002, 0.394 -0.084, 1.72 -1.001, 2.902c-0.915, 1.175 -2.663, 2.323 -6.326, 2.332c-3.664, -0.009 -5.412, -1.157 -6.327, -2.332c-0.918, -1.182 -1.003, -2.508 -1.002, -2.904c-0, -0.077 0.004, -0.092 0.002, -0.092l0.069, -0.676l-0.679, -0c-1.013, -0.002 -1.833, -0.822 -1.836, -1.836c0.003, -1.014 0.823, -1.834 1.837, -1.837l0.613, -0l-0, -0.612c0.001, -0.642 0.093, -1.261 0.248, -1.854c0.479, -0.632 1.208, -1.274 2.324, -1.649c2.77, -0.931 4.752, 1.054 4.752, 1.054c-0, -0 1.986, -1.985 4.752, -1.054c1.116, 0.374 1.844, 1.015 2.323, 1.647c0.155, 0.594 0.248, 1.213 0.248, 1.856l0, 0.612l0.614, -0c1.013, 0.003 1.832, 0.823 1.834, 1.837c-0.002, 1.014 -0.822, 1.834 -1.834, 1.836m0.596, -4.841c-0.287, -4.464 -3.997, -7.996 -8.534, -7.996c-4.538, -0 -8.249, 3.532 -8.535, 7.997c-1.405, 0.277 -2.464, 1.517 -2.464, 3.004c-0, 1.485 1.056, 2.724 2.46, 3.005c0.057, 0.729 0.294, 2.021 1.243, 3.253c1.157, 1.515 3.381, 2.821 7.296, 2.811l0.042, -0c3.886, -0 6.098, -1.302 7.256, -2.811c0.947, -1.233 1.184, -2.525 1.241, -3.253c1.404, -0.28 2.462, -1.52 2.462, -3.005c-0, -1.487 -1.061, -2.727 -2.467, -3.005" style="fill: rgb(180, 80, 0);"/>
</svg>
