<svg viewBox="0 0 24 24" xmlns="http://www.w3.org/2000/svg">
  <path d="M21.106, 18.883c0, 0.574 0.049, 1.18 0.176, 1.826c-0.088, -0.019 -0.172, -0.035 -0.26, -0.053c-1.841, -3.244 -0.396, -6.105 -2.185, -8.728c-1.231, -1.805 -2.78, -2.412 -4.189, -2.505c0.469, -0.407 1.033, -0.787 1.691, -1.135c0.081, -0.007 0.205, -0.016 0.384, -0.016c1.168, 0.037 3.708, 0.301 4.607, 3.693c0.187, 0.715 0.252, 1.363 0.252, 1.988c0.006, 1.59 -0.468, 3.067 -0.476, 4.93m-14.01, -0.789c-0.96, -1.315 -1.428, -3.006 -1.425, -4.256c0, -0.158 0.01, -0.31 0.026, -0.453l0.042, -0.432l-0.022, -0.009c0.214, -2.84 3.587, -7.541 5.17, -8.385c0.183, -0.065 0.456, -0.116 0.781, -0.113c1.454, 0.017 3.451, 0.848 3.805, 2.944c-2.863, 1.604 -4.14, 4.032 -4.13, 6.384c0.007, 2.353 1.205, 4.589 3.064, 5.974c-1.112, 0.434 -2.094, 0.621 -2.953, 0.621c-1.994, -0.007 -3.388, -0.959 -4.358, -2.275m-3.815, -8.892l0, -0.018c0.454, -2.11 2.24, -4.987 3.809, -5.83c0.155, -0.013 0.31, -0.025 0.465, -0.025c0.709, 0.008 1.391, 0.14 2.097, 0.639c-1.953, 1.591 -4.49, 5.232 -5.051, 8.319c-1.211, -1.027 -1.322, -2.672 -1.32, -3.085m-0.795, -5.815c0.595, -0.243 1.518, -0.518 2.42, -0.515c0.239, -0 0.472, 0.025 0.702, 0.065c-1.298, 1.106 -2.387, 2.829 -3.045, 4.526c-0.189, -0.569 -0.351, -1.306 -0.347, -2.152c0, -0.59 0.074, -1.234 0.27, -1.924m20.203, 17.945c-0.273, -0.908 -0.366, -1.697 -0.366, -2.449c-0.008, -1.629 0.468, -3.1 0.474, -4.93c0, -0.711 -0.076, -1.47 -0.29, -2.295c-1.047, -4.081 -4.43, -4.636 -5.784, -4.602l-0.055, -0c-0.552, -2.769 -3.198, -3.843 -5, -3.827c-0.307, 0.001 -0.598, 0.029 -0.87, 0.09c-1.061, -0.938 -2.232, -1.214 -3.243, -1.207c-0.179, -0 -0.354, 0.009 -0.523, 0.021c-0.692, -0.353 -1.431, -0.477 -2.126, -0.477c-1.311, 0.003 -2.497, 0.424 -3.178, 0.736l-0.242, 0.112l-0.081, 0.253c-0.294, 0.914 -0.405, 1.776 -0.405, 2.554c0, 1.23 0.279, 2.249 0.564, 2.963c0.143, 0.359 0.288, 0.645 0.403, 0.846c0.035, 0.061 0.068, 0.116 0.098, 0.163c0.013, 0.704 0.202, 3.102 2.393, 4.389c-0.002, 0.055 -0.003, 0.109 -0.003, 0.166c0.007, 2.998 2.107, 7.703 6.999, 7.746c1.251, -0 2.649, -0.318 4.196, -1.039c1.427, 0.817 3.703, 0.912 6.317, 1.555l1.033, 0.244l-0.311, -1.012Z" style="fill: rgb(0, 0, 255);"/>
</svg>
