<svg viewBox="0 0 24 24" xmlns="http://www.w3.org/2000/svg">
  <path d="M19.424, 21.583c-0.133, 0.078 -0.277, 0.114 -0.421, 0.114c-0.296, -0 -0.578, -0.15 -0.734, -0.423l-0.684, -1.177c0.569, -0.147 1.108, -0.356 1.612, -0.608l0.54, 0.932c0.077, 0.134 0.113, 0.277 0.113, 0.426c-0, 0.29 -0.153, 0.578 -0.426, 0.736m-7.868, -3.616c-0.309, -0.21 -0.846, -0.484 -1.564, -0.481c-0.351, -0 -0.736, 0.066 -1.149, 0.211c-0.563, 0.238 -1.13, 0.363 -1.731, 0.363c-2.701, -0.051 -4.67, -1.197 -4.681, -3.712c0.002, -1.981 0.853, -3.328 2.043, -4.335l3.947, 0c0.606, 0.36 1.306, 0.581 2.063, 0.581c1.876, 0 3.44, -1.285 3.896, -3.021c0.063, 0.132 0.132, 0.259 0.179, 0.401c0.003, 0.132 0.373, 1.381 1.636, 1.335c3.022, 0.003 5.307, 2.415 5.312, 4.865c-0.005, 2.6 -2.64, 4.895 -6.097, 4.897c-1.471, 0 -2.81, -0.422 -3.854, -1.104m-5.95, 3.307c-0.158, 0.273 -0.441, 0.423 -0.736, 0.423c-0.145, 0 -0.287, -0.036 -0.426, -0.116c-0.276, -0.161 -0.424, -0.44 -0.426, -0.734c-0, -0.14 0.036, -0.285 0.118, -0.424l0.78, -1.347c0.576, 0.159 1.19, 0.234 1.816, 0.259l-1.126, 1.939Zm-3.312, -14.732l1.422, 0c0.746, 0.58 1.759, 0.918 2.833, 0.928c-0, -0.001 -0, -0.002 -0.001, -0.004c0.105, 0.45 0.284, 0.869 0.524, 1.247l-4.778, 0l-0, -2.171Zm2.256, -3.616c0.492, -0.374 1.221, -0.627 2.039, -0.627c0.767, -0.002 1.581, 0.211 2.291, 0.537c0.001, 0 0.002, 0 0.003, -0.001c-1.326, 0.571 -2.266, 1.834 -2.409, 3.33c-0.771, -0.021 -1.456, -0.262 -1.924, -0.617c-0.499, -0.38 -0.748, -0.839 -0.748, -1.31c-0, -0.473 0.249, -0.931 0.748, -1.312m8.677, 3.624c-0.002, 1.515 -1.229, 2.741 -2.743, 2.746c-1.519, -0.005 -2.745, -1.231 -2.748, -2.746c-0, -0.123 0.021, -0.24 0.037, -0.359c0.367, -0.682 0.905, -0.913 1.494, -0.925c0.482, -0.005 0.962, 0.198 1.209, 0.452c0.156, 0.147 0.292, 0.481 0.287, 0.788c-0.008, 0.348 -0.126, 0.559 -0.327, 0.655c-0.033, 0.015 -0.082, 0.026 -0.146, 0.026c-0.232, -0.007 -0.404, -0.166 -0.406, -0.336c-0, -0.047 0.011, -0.122 0.058, -0.218l-1.182, -0.544c-0.116, 0.252 -0.176, 0.51 -0.176, 0.762c0.015, 1.02 0.882, 1.634 1.706, 1.634c0.231, 0 0.471, -0.044 0.699, -0.149c0.772, -0.372 1.082, -1.152 1.074, -1.83c-0.004, -0.624 -0.213, -1.243 -0.668, -1.706c-0.49, -0.485 -1.162, -0.754 -1.878, -0.811c0.302, -0.114 0.625, -0.184 0.967, -0.185c1.514, 0.004 2.741, 1.23 2.743, 2.746m7.08, 12.262c1.512, -1.119 2.488, -2.752 2.502, -4.638c-0.016, -3.246 -2.898, -6.156 -6.614, -6.164c-0.394, -0.047 -0.22, -0.029 -0.4, -0.441c-0.278, -0.854 -0.795, -1.59 -1.452, -2.162c-0.461, -1.557 -1.823, -2.712 -3.488, -2.866c-0.171, -0.139 -0.349, -0.273 -0.537, -0.399c-1.04, -0.672 -2.375, -1.139 -3.729, -1.143c-2.133, 0.004 -4.047, 1.297 -4.087, 3.239c0.008, 0.362 0.099, 0.692 0.225, 1.004l-0.6, 0c-0.625, 0.003 -1.131, 0.503 -1.133, 1.131l-0, 2.509c0.002, 0.626 0.508, 1.129 1.133, 1.131l0.526, 0c-0.903, 1.101 -1.524, 2.507 -1.521, 4.335c-0.011, 1.665 0.726, 2.994 1.854, 3.815c0.221, 0.164 0.466, 0.295 0.712, 0.424l-0.686, 1.184c-0.194, 0.333 -0.294, 0.708 -0.294, 1.076c-0.002, 0.74 0.388, 1.46 1.073, 1.858c0.333, 0.194 0.703, 0.292 1.068, 0.292l0.011, -0c0.74, 0.002 1.463, -0.383 1.862, -1.071l1.561, -2.695c0.355, -0.076 0.696, -0.184 1.022, -0.323c0.252, -0.089 0.485, -0.123 0.677, -0.123c0.396, 0.004 0.644, 0.134 0.849, 0.265c1.268, 0.832 2.851, 1.322 4.569, 1.322c0.273, 0 0.542, -0.016 0.809, -0.04l0.924, 1.594c0.396, 0.686 1.118, 1.071 1.854, 1.071l0.006, -0c0.366, -0 0.741, -0.095 1.08, -0.292c0.679, -0.4 1.069, -1.118 1.067, -1.858c-0, -0.363 -0.091, -0.738 -0.288, -1.078l-0.555, -0.957Z" style="fill: rgb(0, 0, 255);"/>
</svg>
