<svg viewBox="0 0 24 24" xmlns="http://www.w3.org/2000/svg">
  <path d="M23.469, 14.941l-2.399, -1.092c0.118, -0.505 0.182, -1.027 0.182, -1.567c0, -1.274 -0.343, -2.512 -0.934, -3.634l-1.411, -7.613l-4.092, 3.064c-0.884, -0.282 -1.83, -0.444 -2.816, -0.444c-0.986, 0 -1.93, 0.162 -2.814, 0.445l-4.097, -3.065l-1.41, 7.618c-0.591, 1.12 -0.932, 2.358 -0.932, 3.629c0, 0.538 0.065, 1.063 0.183, 1.567l-2.396, 1.092l2.363, 1.219l-0.101, 0.046l-1.262, 0.575l5.075, 2.439c0.784, 1.992 2.91, 3.355 5.391, 3.358c2.482, -0.003 4.608, -1.369 5.393, -3.36l5.079, -2.439l-1.367, -0.62l2.365, -1.218Zm-5.344, 1.29l1.265, 0.544l-3.068, 1.474l-0.073, 0.303c-0.473, 1.509 -2.148, 2.727 -4.25, 2.724c-2.1, 0.003 -3.775, -1.215 -4.249, -2.724l-0.086, -0.267l-3.066, -1.472l1.277, -0.585l-2.364, -1.215l0.982, -0.449l-0.173, -0.547c-0.174, -0.56 -0.274, -1.139 -0.274, -1.734c0, -1.208 0.379, -2.408 1.048, -3.487l0.007, -0.01c0.55, -0.888 0.995, -1.521 1.801, -2.141l-0.847, -3.263l2.903, 2.172l0.33, -0.117c0.852, -0.305 1.762, -0.482 2.711, -0.482c0.951, -0 1.86, 0.177 2.713, 0.482l0.327, 0.117l2.907, -2.178l-0.848, 3.269c0.795, 0.61 1.239, 1.237 1.778, 2.104l0.029, 0.046c0.669, 1.08 1.048, 2.28 1.048, 3.488c0, 0.597 -0.099, 1.174 -0.274, 1.733l-0.175, 0.548l0.984, 0.449l-2.363, 1.218Zm-8.058, 3.02c0, 0.808 1.387, 1.095 1.933, 1.095c0.546, 0 1.932, -0.287 1.932, -1.095c0, -0.808 -0.865, -1.143 -1.932, -1.143c-1.068, 0 -1.933, 0.335 -1.933, 1.143Zm-3.238, -7.327l2.743, 1.646c-0.265, 1.008 -1.094, 1.457 -1.85, 1.007c-0.759, -0.457 -1.16, -1.645 -0.893, -2.653Zm10.343, -0l-2.744, 1.646c0.265, 1.008 1.094, 1.457 1.851, 1.007c0.758, -0.457 1.159, -1.645 0.893, -2.653Z" style="fill: rgb(89, 89, 89);"/>
</svg>
