<svg viewBox="0 0 24 24" xmlns="http://www.w3.org/2000/svg">
  <path d="M22.952, 16.422l-1.352, -0.111c-0.033, 0.078 -0.2, 0.431 -0.508, 0.785c-0.36, 0.414 -0.827, 0.75 -1.457, 0.75c-0.601, -0.011 -0.867, -0.274 -1.359, -0.858c-0.454, -0.552 -0.967, -1.384 -1.975, -1.843c-0.478, -0.211 -0.974, -0.295 -1.443, -0.295c-1.153, 0.013 -2.166, 0.462 -2.842, 0.872c1.209, -1.353 2.769, -3.376 2.982, -6.711l0.015, -0.497c-0, -1.644 -0.581, -3.301 -1.895, -4.526c-1.314, -1.229 -3.315, -1.977 -6.021, -1.977c-0, 0 -0.598, 0.01 -0.91, 0.029c-2.763, 0.147 -5.166, 2.089 -5.176, 4.826c0.008, 2.716 2.384, 4.822 5.219, 4.825c-0, 0 1.439, 0.093 3.053, -0.223c-0.441, 0.595 -1.042, 1.348 -1.637, 2.104c-0, 0 -2.186, 2.574 -2.403, 4.319l-0.042, 0.637c-0, 1.045 0.488, 2.104 1.088, 2.536c0.882, 0.716 1.628, 0.87 2.536, 0.87c0.772, 0 1.026, -0.1 1.026, -0.1c2.344, -0.545 3.517, -2.279 4.388, -2.248c1.015, 0 1.461, 0.654 1.461, 0.654c0.414, 0.398 1.017, 1.001 2.127, 1.428c0.552, 0.219 1.075, 0.32 1.562, 0.32c1.534, -0.002 2.496, -1.023 2.973, -1.879c0.566, -1.014 0.618, -2.232 0.627, -2.964l-0.037, -0.723Zm-1.73, 3.037c-0.386, 0.652 -0.935, 1.215 -1.833, 1.215c-0.302, 0 -0.658, -0.063 -1.085, -0.229c-0.89, -0.355 -1.255, -0.736 -1.7, -1.157c-0.425, -0.421 -1.024, -0.905 -1.994, -0.994c-0.089, -0.011 -0.183, -0.013 -0.266, -0.013c-2.045, 0.128 -2.924, 1.985 -4.744, 2.263c-0.268, 0.054 -0.527, 0.076 -0.775, 0.076c-1.411, -0.048 -2.277, -0.683 -2.307, -2.105c-0, -0.14 0.01, -0.29 0.03, -0.449c0.089, -0.891 1.214, -2.535 2.35, -3.959c0.565, -0.724 1.127, -1.416 1.559, -2.014c0.425, -0.626 0.766, -1.036 0.809, -1.674c-0, -0.083 -0.01, -0.174 -0.041, -0.278l-0.195, -0.624l-0.61, 0.242c-1.296, 0.511 -2.226, 0.614 -4.19, 0.618c-0.924, -0.002 -1.749, -0.299 -2.409, -0.771l3.606, 0l0.002, -1.286l-4.54, -0.001l-0.189, 0c-0.231, -0.447 -0.374, -0.936 -0.375, -1.453c-0.011, -1.879 1.689, -3.375 3.941, -3.513c0.287, -0.018 0.562, -0.025 0.83, -0.025c4.934, 0.056 6.554, 2.523 6.605, 5.196c-0, 0.135 -0.003, 0.269 -0.013, 0.402c-0.218, 3.106 -1.636, 4.787 -2.826, 6.114c-0.545, 0.624 -0.866, 1.155 -0.888, 1.753c-0.001, 0.205 0.057, 0.457 0.245, 0.66c0.186, 0.205 0.462, 0.286 0.681, 0.282c0.493, -0.015 0.901, -0.247 1.43, -0.641c0.405, -0.324 1.535, -0.942 2.528, -0.927c0.318, 0 0.623, 0.054 0.91, 0.183c0.574, 0.245 0.977, 0.817 1.486, 1.462c0.486, 0.624 1.211, 1.357 2.383, 1.35c0.814, -0.023 1.443, -0.318 1.922, -0.691c-0.072, 0.367 -0.18, 0.723 -0.337, 0.988Zm-14.374, -13.81c-0.499, 0 -0.9, 0.404 -0.9, 0.902c-0, 0.499 0.401, 0.902 0.9, 0.902c0.499, 0 0.902, -0.403 0.902, -0.902c-0, -0.498 -0.403, -0.902 -0.902, -0.902Z" style="fill: rgb(0, 190, 60);"/>
</svg>
