<svg viewBox="0 0 24 24" xmlns="http://www.w3.org/2000/svg">
  <path d="M3.246, 11.554c0.347, -1.135 1.576, -3.907 5.463, -5.755c1.637, -0.782 3.313, -1.04 4.813, -1.04c3.074, 0.004 5.433, 1.074 5.479, 1.09l0.846, 0.381l-1.212, 1.075c0.698, 0.293 1.698, 0.75 2.658, 1.314l1.227, 0.716l-1.37, 0.382c-0.156, 0.044 -0.3, 0.093 -0.426, 0.144c0.537, 0.435 1.237, 1.108 1.748, 1.973l0.528, 0.904l-1.046, -0c-0.104, -0.005 -0.34, 0.034 -0.615, 0.073c0.613, 2.111 0.697, 3.755 0.699, 3.785l0.032, 0.633l-3.469, -0l-0, 2.012l-3.606, -0l-0, -2.014l-4.053, -0l-0, 2.014l-3.607, -0l-0, -2.012l-6.335, -0l-0, -5.675l2.246, -0Zm17.301, 0.134c0.081, 0.002 0.193, -0.009 0.321, -0.025c-0.259, -0.297 -0.537, -0.56 -0.785, -0.771c-0.449, -0.38 -0.784, -0.584 -0.787, -0.584l-0.711, -0.434l0.638, -0.539c0.022, -0.018 0.15, -0.125 0.383, -0.263c-1.226, -0.613 -2.3, -1.002 -2.303, -1.005l-0.95, -0.344l1.249, -1.107c-0.156, -0.05 -0.331, -0.104 -0.523, -0.156c-0.904, -0.25 -2.163, -0.499 -3.557, -0.499c-1.364, -0 -2.855, 0.236 -4.294, 0.923c-3.357, 1.605 -4.439, 3.87 -4.783, 4.87c-0.114, 0.333 -0.136, 0.495 -0.136, 0.495l-0.08, 0.507l-2.026, -0l-0, 3.272l6.335, -0l-0, 2.011l1.202, -0l-0, -2.011l6.457, -0l-0, 2.011l1.2, -0l-0, -2.011l3.377, -0c-0.09, -0.744 -0.299, -2.066 -0.798, -3.548l-0.265, -0.792l0.836, -0Zm-14.108, 0.343c-0.477, 0 -0.862, 0.387 -0.862, 0.864c0, 0.478 0.385, 0.864 0.862, 0.864c0.478, 0 0.863, -0.386 0.863, -0.864c0, -0.477 -0.385, -0.864 -0.863, -0.864Zm11.217, 1.508l-4.809, 0l-0, -1.203l4.809, 0l-0, 1.203Zm-7.856, -6.4c-0.503, -0.001 -1.011, 0.192 -1.396, 0.578c-0.839, 0.861 -1.283, 2.226 -1.305, 2.26l1.134, 0.4c-0, -0.002 0.106, -0.305 0.296, -0.696c0.187, -0.393 0.465, -0.856 0.728, -1.114c0.148, -0.151 0.343, -0.225 0.543, -0.225c0.196, -0 0.391, 0.074 0.544, 0.225c0.149, 0.149 0.224, 0.344 0.224, 0.541c-0, 0.198 -0.075, 0.392 -0.224, 0.545c-0.26, 0.26 -0.725, 0.539 -1.115, 0.726c-0.393, 0.191 -0.696, 0.295 -0.696, 0.297l0.401, 1.136l-0, -0.002c0.034, -0.023 1.396, -0.467 2.259, -1.308c0.384, -0.383 0.579, -0.891 0.577, -1.394c-0, -0.505 -0.197, -1.01 -0.577, -1.391c-0.385, -0.387 -0.894, -0.579 -1.393, -0.578Zm7.856, 3.903l-4.809, 0l-0, -1.202l4.809, 0l-0, 1.202Z" style="fill: rgb(180, 80, 0);"/>
</svg>
