<svg viewBox="0 0 24 24" xmlns="http://www.w3.org/2000/svg">
  <path d="M20.102, 20.364c-0.174, 0.1 -0.365, 0.146 -0.557, 0.146c-0.392, 0 -0.771, -0.203 -0.976, -0.56c-0.104, -0.18 -0.151, -0.37 -0.151, -0.561c-0, -0.39 0.202, -0.766 0.561, -0.971c0.184, -0.107 0.373, -0.156 0.562, -0.156c0.389, 0.002 0.764, 0.201 0.975, 0.566c0.102, 0.178 0.149, 0.366 0.149, 0.557c-0, 0.389 -0.202, 0.768 -0.563, 0.979m-3.422, -6.381c-0.594, 0 -1.142, -0.151 -1.615, -0.406l-0, -0.001c-0.313, -0.172 -0.656, -0.256 -0.983, -0.254c-0.154, 0 -0.302, 0.018 -0.443, 0.049c-0.619, 0.145 -0.952, 0.54 -0.998, 0.563c-0.88, 1.051 -2.258, 1.73 -3.829, 1.728c-2.632, -0.005 -4.653, -1.863 -4.657, -4.011c0.004, -1.347 0.685, -2.475 1.888, -3.222l0.622, -0.382c-0.189, 0.955 -0.38, 1.904 -0.381, 1.906l-0.013, 0.124c0.005, 1.563 1.254, 2.841 2.815, 2.843c1.561, -0.002 2.812, -1.278 2.816, -2.843l-0.015, -0.13c-0, -0.003 -0.69, -3.315 -0.763, -3.807l-1.247, 0.187l-0.002, 0c0.085, 0.554 0.661, 3.321 0.762, 3.807c-0.029, 0.85 -0.72, 1.52 -1.551, 1.522c-0.835, -0.002 -1.524, -0.673 -1.55, -1.528c0.098, -0.486 0.649, -3.228 0.734, -3.773l-0.203, -1.21l-0.002, 0c-0.373, 0.074 -0.739, 0.109 -1.085, 0.109c-0.483, 0 -0.93, -0.075 -1.288, -0.194c-0.464, -0.162 -0.753, -0.387 -0.903, -0.625c-0.059, -0.144 -0.099, -0.289 -0.099, -0.443c-0, -0.412 0.221, -0.82 0.678, -1.163c0.452, -0.336 1.123, -0.569 1.876, -0.567c0.051, 0 0.092, 0 0.124, 0.002c2.023, 0.227 4.111, 2.447 4.628, 5.545c0.018, 0.028 0.091, 1.058 1.184, 1.466c0.221, 0.07 0.434, 0.1 0.643, 0.1c0.691, -0.007 1.183, -0.282 1.23, -0.3c0.477, -0.263 1.028, -0.41 1.627, -0.41c1.733, 0.004 3.039, 1.245 3.041, 2.658c-0.002, 1.412 -1.31, 2.656 -3.041, 2.66m-10.197, 5.967c-0.208, 0.357 -0.589, 0.56 -0.978, 0.56c-0.193, 0 -0.381, -0.046 -0.559, -0.148c-0.362, -0.211 -0.561, -0.588 -0.561, -0.977c-0, -0.188 0.047, -0.38 0.152, -0.559l-0, -0.002c0.207, -0.358 0.581, -0.56 0.972, -0.562c0.191, 0 0.381, 0.049 0.562, 0.154c0.358, 0.204 0.561, 0.583 0.561, 0.973c-0, 0.193 -0.047, 0.383 -0.149, 0.561m-3.495, -12.69l-0, -1.705l1.2, 0c0.312, 0.281 0.698, 0.495 1.118, 0.637c0.5, 0.168 1.065, 0.257 1.666, 0.26c-0.038, 0.208 -0.091, 0.49 -0.153, 0.808l-3.831, 0Zm16.598, -1.976c0.786, 0.002 1.424, 0.642 1.426, 1.433c-0.002, 0.786 -0.639, 1.423 -1.426, 1.425c-0.791, -0.002 -1.429, -0.639 -1.431, -1.425c0.002, -0.791 0.642, -1.431 1.431, -1.433m2.342, 14.101c-0, -0.404 -0.101, -0.816 -0.316, -1.189l-0.002, -0.003c-0.445, -0.762 -1.248, -1.192 -2.069, -1.192c-0.058, 0 -0.117, 0.018 -0.175, 0.022l-1.063, -2.072c1.549, -0.577 2.672, -1.953 2.682, -3.628c-0.004, -0.76 -0.248, -1.448 -0.645, -2.038c1.116, -0.327 1.936, -1.346 1.936, -2.568c-0, -1.49 -1.203, -2.694 -2.69, -2.695c-1.488, 0 -2.693, 1.205 -2.693, 2.695c-0, 0.248 0.045, 0.484 0.107, 0.712c-0.107, -0.006 -0.211, -0.029 -0.32, -0.029c-0.808, 0 -1.57, 0.202 -2.224, 0.563c0.009, -0.006 -0.047, 0.026 -0.176, 0.068c-0.129, 0.043 -0.303, 0.083 -0.457, 0.083c-0.086, 0 -0.174, -0.013 -0.252, -0.038c-0.119, -0.038 -0.19, -0.123 -0.254, -0.249c-0.031, -0.058 -0.051, -0.12 -0.063, -0.162c-0.011, -0.042 -0.007, -0.042 -0.009, -0.042c-0.604, -3.532 -2.94, -6.25 -5.775, -6.616c-0.117, -0.007 -0.175, -0.007 -0.226, -0.007c-1.977, 0 -3.774, 1.179 -3.816, 2.992c-0, 0.101 0.005, 0.202 0.018, 0.301l-0.651, 0c-0.594, 0 -1.07, 0.485 -1.07, 1.074l-0, 2.086c-0, 0.589 0.481, 1.069 1.07, 1.069l1.228, 0c-0.718, 0.866 -1.134, 1.946 -1.13, 3.129c0.008, 2.058 1.301, 3.788 3.158, 4.661l-0.365, 0.712c-0.059, -0.005 -0.117, -0.023 -0.177, -0.023c-0.824, 0 -1.627, 0.427 -2.066, 1.194l-0, -0.001c-0.215, 0.373 -0.321, 0.784 -0.321, 1.191c-0, 0.553 0.208, 1.089 0.57, 1.522l-0.694, 1.351l1.283, 0.742l0.824, -1.279c0.134, 0.023 0.268, 0.051 0.4, 0.051l0.005, 0c0.823, 0 1.621, -0.43 2.066, -1.19c0.215, -0.376 0.318, -0.79 0.318, -1.193c-0, -0.476 -0.157, -0.935 -0.426, -1.332l0.749, -1.159c0.196, 0.018 0.395, 0.028 0.595, 0.028c1.925, -0.002 3.646, -0.82 4.737, -2.116c0.008, -0.004 0.051, -0.04 0.112, -0.083c0.086, -0.065 0.205, -0.121 0.226, -0.119c0.078, -0.015 0.141, -0.022 0.195, -0.022c0.131, 0 0.237, 0.024 0.374, 0.098l0.005, 0.002c0.377, 0.204 0.795, 0.352 1.239, 0.447l1.884, 2.921c-0.271, 0.397 -0.429, 0.86 -0.429, 1.335c-0, 0.408 0.105, 0.82 0.32, 1.191c0.439, 0.763 1.244, 1.194 2.07, 1.192c0.135, 0 0.268, -0.028 0.403, -0.051l0.824, 1.279l1.285, -0.742l-0.697, -1.354c0.359, -0.432 0.568, -0.965 0.568, -1.519" style="fill: rgb(89, 89, 89);"/>
</svg>
