<svg viewBox="0 0 24 24" xmlns="http://www.w3.org/2000/svg">
  <path d="M18.268, 18.52c2.398, -0 4.732, -2.252 4.732, -3.467c-0, -1.217 -2.334, -3.465 -4.73, -3.467c-1.113, -0 -2.123, 0.338 -2.893, 0.885l-1.539, -0.978c0.871, -0.633 1.422, -1.545 1.422, -2.561c-0, -1.916 -1.945, -3.467 -4.344, -3.467c-0.123, -0 -0.243, 0.03 -0.366, 0.041l-1.474, -3.916l-6.426, -0l-0, 1.299l5.526, -0.002l1.098, 2.914c-0.346, 0.135 -0.676, 0.301 -0.986, 0.494l-0.862, -2.289l-6.425, -0l-0, 1.301l5.525, -0.002l0.693, 1.838c-0.63, 0.62 -1.035, 1.29 -1.035, 1.789c-0, 1.158 2.051, 3.252 4.386, 3.447c0.063, 0.191 0.167, 0.465 0.308, 0.784l-1.376, -0l-2.994, 2.992l-2.397, -0l-0, 1.301l2.938, -0.002l2.991, -2.995l1.519, 0.002c0.16, 0.263 0.342, 0.532 0.543, 0.803l-1.961, -0l-0, 5.846l-2.018, -0l-0, 1.3l3.318, -0.002l-0, -5.846l1.815, 0l-0, 4.06l4.123, -0l-0, 1.787l1.303, -0l-0, -3.088l-4.127, -0l-0, -1.807c1.01, 0.6 2.233, 1.006 3.713, 1.006" style="fill: rgb(89, 89, 89);"/>
</svg>
