<svg viewBox="0 0 24 24" xmlns="http://www.w3.org/2000/svg">
  <path d="M11.075, 7.02c-0.379, 0.099 -0.767, -0.13 -0.865, -0.51l1.374, -0.356c0.098, 0.38 -0.13, 0.767 -0.509, 0.866m10.315, 3.021c-0, -0 0.208, 0.691 -0.27, 1.379c-0.149, -1.769 -1.6, -1.832 -1.6, -1.832c-0, -0 1.076, 0.484 0.281, 2.102c-0.736, 1.498 0.096, 2.583 0.986, 2.393c-0.21, 2.677 -1.197, 4.732 -1.946, 5.282c-0.899, 0.66 -1.558, 0.3 -1.679, -0.48c-0.12, -0.779 1.379, -2.338 0.959, -4.677c-0.42, -2.338 -2.458, -2.877 -4.497, -1.919c-2.039, 0.96 -3.538, 3.239 -4.138, 3.239c-0.599, -0 -1.379, -0.481 -0.72, -1.38c0.482, -0.656 3.476, -2.477 5.195, -4.324l0.203, 1.086l0.794, -1.633l0.705, 0.703l-0.27, -1.708l0.87, 0.149c-0, -0 -0.84, -1.258 -1.343, -2.131l-0.004, 0.008c-0.026, -0.054 -0.056, -0.108 -0.089, -0.163c0.485, -0.203 1.062, -0.491 1.667, -0.899l2.063, 0.362l0.169, -0.974l-1.188, -0.207c0.37, -0.334 0.735, -0.71 1.078, -1.148l-0.778, -0.607c-0.937, 1.2 -2.07, 1.938 -2.971, 2.374c-0.296, 0.143 -0.56, 0.25 -0.786, 0.333c-0.193, -0.129 -0.42, -0.24 -0.686, -0.331c0.358, -0.313 0.755, -0.704 1.145, -1.183l2.079, -0.251l-0.117, -0.982l-1.199, 0.144c0.257, -0.426 0.497, -0.892 0.699, -1.411l-0.92, -0.355c-0.55, 1.419 -1.421, 2.454 -2.157, 3.132c-0.442, 0.408 -0.806, 0.663 -1.04, 0.815c-1.017, 0.22 -1.968, 0.908 -2.966, 1.372c-1.158, 0.54 -2.009, 0.499 -2.009, 0.499l0.039, -1.138c-0, -0 -1.533, 0.783 -1.669, 1.478c-0.137, 0.696 0.261, 1.066 0.921, 1.352c0.948, 0.411 3.756, -0.435 5.61, -0.071c-0.646, 2.112 -4.403, 2.592 -5.523, 4.351c-0.623, 0.979 -0.823, 2.328 -0.332, 3.426c-0.382, -0.266 -1.15, -0.839 -1.257, -1.204c-0.061, -0.182 -0.089, -0.487 -0.089, -0.809c-0.002, -0.571 0.092, -1.227 0.185, -1.397l-0.043, -0.134c-0.47, -0.23 -1.054, -0.423 -1.489, -0.425c-0.087, -0 -0.169, 0.005 -0.248, 0.028c-0.544, 0.133 -1.003, 0.567 -1.002, 1.241c-0, 0.056 0.004, 0.114 0.013, 0.18l0.175, 0.049c0.249, -0.32 0.493, -0.412 0.705, -0.413c0.278, -0.003 0.526, 0.176 0.61, 0.292c0.013, 0.001 0.246, 0.849 0.238, 1.491c-0, 0.128 -0.009, 0.249 -0.025, 0.359c-0.099, 0.542 -0.334, 0.984 -0.95, 0.987c-0.16, -0 -0.347, -0.031 -0.566, -0.101l-0.123, 0.125c0.169, 0.461 1.437, 1.246 1.445, 1.261l0.143, -0.038c-0, -0.013 0.662, -1.276 0.838, -1.245l-0, -0.002l0.017, -0c0.255, 0.022 1.316, 1.251 1.733, 1.296l-0, 0.003c0.217, -0.041 0.39, -0.256 0.518, -0.476c0.447, 0.359 1.038, 0.632 1.803, 0.761c3.177, 0.54 4.558, -2.254 5.457, -3.016c0.9, -0.761 2.158, -0.7 1.919, 0.978c-0.067, 0.474 -0.18, 0.818 -0.302, 1.12c-1.12, 0.131 -2.293, 0.85 -2.293, 2.472c-0.285, 0.221 -1.397, 0.429 -2.038, 0.423c-0.09, -0 -0.172, -0.004 -0.243, -0.011c-0.534, -0.049 -1.777, -0.744 -1.966, -1l-0.14, -0.014c-0.484, 0.402 -0.987, 0.963 -1.078, 1.413c-0.016, 0.09 -0.026, 0.182 -0.026, 0.275c-0.005, 0.514 0.282, 1.015 0.909, 1.22l0.121, -0.141c-0.108, -0.203 -0.149, -0.375 -0.149, -0.52c-0.006, -0.442 0.389, -0.688 0.579, -0.729l0.002, -0.041l-0, 0.041c0.161, -0.004 1.22, 0.143 1.68, 0.615c0.363, 0.355 0.733, 0.58 0.721, 0.892c0.002, 0.182 -0.11, 0.439 -0.449, 0.811l0.065, 0.166c0.016, 0.001 0.031, 0.001 0.041, 0.001c0.504, -0.012 1.691, -0.796 1.703, -0.796l0.015, -0.156c-0.009, -0.002 -0.839, -0.833 -0.812, -1.059l-0, -0.011c-0.038, -0.168 1.377, -0.089 1.843, -0.233c0.166, -0.065 0.541, -0.267 0.948, -0.495c0.325, 0.999 1.535, 2.04 3.088, 1.574c1.799, -0.54 2.775, -2.128 3.178, -4.138c0.285, -1.423 0.091, -2.704 -0.159, -3.775c1.651, -1.019 0.189, -3.87 0.189, -3.87" style="fill: rgb(0, 190, 60);"/>
</svg>
