<svg viewBox="0 0 24 24" xmlns="http://www.w3.org/2000/svg">
  <path d="M21.751, 8.511c0.82, -0.824 1.249, -1.889 1.249, -2.935c0.002, -0.908 -0.327, -1.81 -1.003, -2.486c-0.677, -0.677 -1.58, -1.007 -2.486, -1.005c-1.047, -0 -2.114, 0.428 -2.938, 1.251c-0.256, 0.258 -0.457, 0.543 -0.633, 0.838c-1.176, -0.469 -2.486, -0.75 -3.939, -0.753c-1.453, 0.003 -2.763, 0.284 -3.938, 0.753c-0.176, -0.295 -0.377, -0.58 -0.635, -0.838c-0.823, -0.823 -1.89, -1.251 -2.937, -1.251c-0.906, -0.002 -1.811, 0.328 -2.486, 1.007c-0.676, 0.674 -1.005, 1.576 -1.005, 2.484c0.002, 1.046 0.429, 2.111 1.253, 2.935c0.153, 0.155 0.317, 0.289 0.484, 0.41c-0.999, 1.77 -1.524, 3.75 -1.529, 5.6c-0.015, 2.587 1.29, 4.536 3.28, 5.705c1.988, 1.181 4.631, 1.687 7.513, 1.689c2.884, -0.002 5.526, -0.508 7.513, -1.689c1.99, -1.169 3.296, -3.118 3.28, -5.705c-0.004, -1.85 -0.529, -3.83 -1.527, -5.6c0.166, -0.122 0.329, -0.255 0.484, -0.41Zm-2.867, 10.66c-1.697, 1.019 -4.145, 1.521 -6.883, 1.517c-2.739, 0.004 -5.186, -0.498 -6.883, -1.517c-1.695, -1.029 -2.669, -2.471 -2.682, -4.65c0.003, -1.853 0.599, -3.849 1.717, -5.562c0.202, -0.31 0.42, -0.611 0.655, -0.899c0.029, -0.035 0.054, -0.072 0.083, -0.106c0.247, -0.295 0.517, -0.573 0.8, -0.839c0.096, -0.09 0.198, -0.174 0.299, -0.26c0.2, -0.173 0.409, -0.336 0.625, -0.492c0.123, -0.088 0.242, -0.178 0.369, -0.26c0.311, -0.202 0.634, -0.388 0.975, -0.552c1.176, -0.567 2.527, -0.9 4.042, -0.902c1.516, 0.002 2.866, 0.335 4.043, 0.902c0.339, 0.164 0.662, 0.349 0.972, 0.55c0.13, 0.084 0.251, 0.176 0.376, 0.265c0.212, 0.154 0.417, 0.314 0.614, 0.483c0.104, 0.09 0.21, 0.177 0.31, 0.271c0.28, 0.263 0.547, 0.537 0.793, 0.829c0.033, 0.041 0.063, 0.085 0.097, 0.126c0.23, 0.283 0.445, 0.578 0.642, 0.883c1.118, 1.713 1.715, 3.709 1.719, 5.563c-0.014, 2.179 -0.988, 3.621 -2.683, 4.65Zm-6.883, -1.562c-0.555, 0 -1.005, 0.275 -1.005, 0.611c0, 0.339 0.45, 0.613 1.005, 0.613c0.555, 0 1.006, -0.274 1.006, -0.613c0, -0.336 -0.451, -0.611 -1.006, -0.611Zm-3.108, -5.631c-0.983, -0.604 -2.424, -0.048 -3.218, 1.241c-0.794, 1.29 -0.639, 2.826 0.343, 3.431c0.982, 0.605 2.423, 0.049 3.217, -1.241c0.794, -1.29 0.64, -2.828 -0.342, -3.431Zm6.217, -0c-0.982, 0.604 -1.136, 2.142 -0.342, 3.431c0.794, 1.29 2.235, 1.846 3.217, 1.241c0.982, -0.605 1.137, -2.142 0.344, -3.431c-0.795, -1.289 -2.236, -1.845 -3.219, -1.241Z" style="fill: rgb(89, 89, 89);"/>
</svg>
