<svg viewBox="0 0 24 24" xmlns="http://www.w3.org/2000/svg">
  <path d="M7.783, 9.932l1.226, 0l0, 1.986l-1.226, 0l0, -1.986Zm-2.626, -0l-1.228, -0l-0, 1.986l1.228, -0l0, -1.986Z" style="fill: rgb(255, 140, 0);"/>
  <path d="M18.508, 13.596c-0.477, 0.092 -0.941, 0.133 -1.389, 0.133c-0.506, -0 -0.986, -0.057 -1.442, -0.141c-0.245, -0.32 -0.495, -0.623 -0.751, -0.883c-0.632, -0.63 -1.369, -1.074 -2.141, -1.363c0.527, -1.213 1.558, -2.928 3.405, -3.975c0.943, -0.541 1.734, -0.74 2.384, -0.74c1.471, -0.002 2.436, 1.039 2.923, 2.312c0.171, 0.468 0.275, 0.973 0.275, 1.464c-0.041, 1.373 -0.666, 2.64 -3.264, 3.193m-2.538, 7.166c-0.416, 0.404 -0.997, 0.592 -1.736, 0.596c-0.216, 0.004 -0.444, -0.016 -0.677, -0.049l2.968, -2.967c0.037, 0.248 0.058, 0.486 0.055, 0.713c-0.004, 0.738 -0.197, 1.303 -0.61, 1.707m-0.812, -5.783c0.267, 0.42 0.512, 0.867 0.723, 1.334l-4.367, 4.365c-0.468, -0.207 -0.919, -0.451 -1.339, -0.717l4.983, -4.982Zm-7.703, 1.322c2.098, -0.383 3.773, -1.959 4.304, -4c0.783, 0.174 1.554, 0.57 2.21, 1.195l-5.278, 5.276c-0.695, -0.729 -1.1, -1.6 -1.236, -2.471m-5.229, -5.375c0.004, -2.344 1.901, -4.242 4.245, -4.245c2.342, 0.003 4.237, 1.901 4.242, 4.245c-0.005, 2.342 -1.9, 4.238 -4.242, 4.242c-2.344, -0.004 -4.241, -1.9 -4.245, -4.242m9.207, -4.777c0.695, -2.404 1.902, -3 3.177, -3.033c0.566, -0 1.156, 0.148 1.688, 0.393c0.874, 0.406 1.609, 1.062 1.927, 1.918c-0.814, 0.063 -1.696, 0.332 -2.643, 0.875c-1.903, 1.089 -3.029, 2.717 -3.677, 4.019c-0.086, -0.786 -0.342, -1.52 -0.726, -2.171c-0.001, -0.028 -0.003, -0.054 -0.003, -0.083c-0, -0.616 0.075, -1.259 0.257, -1.918m11.215, 2.365c-0.479, -1.317 -1.534, -2.608 -3.12, -2.99c-0.332, -1.515 -1.493, -2.573 -2.719, -3.13c-0.669, -0.308 -1.423, -0.504 -2.199, -0.506c-1.786, -0.031 -3.638, 1.156 -4.362, 3.937c-0.089, 0.328 -0.147, 0.651 -0.194, 0.973c-0.658, -0.574 -1.453, -0.99 -2.331, -1.196c0.247, -1.669 1.675, -2.956 3.416, -2.959l-0, -1.227c-2.37, 0.002 -4.309, 1.76 -4.63, 4.039c-0.013, -0 -0.025, -0.002 -0.038, -0.002c-0.014, -0 -0.027, 0.002 -0.042, 0.002c-0.321, -2.279 -2.258, -4.039 -4.628, -4.039l-0, 1.227c1.742, -0 3.17, 1.29 3.416, 2.96c-2.417, 0.567 -4.218, 2.734 -4.218, 5.323c-0, 2.941 2.323, 5.33 5.235, 5.455c0.162, 1.203 0.708, 2.393 1.665, 3.352c1.484, 1.457 4.041, 2.83 6.335, 2.851l0.02, -0c0.941, -0 1.871, -0.261 2.57, -0.941c0.712, -0.693 0.986, -1.637 0.984, -2.588c-0.015, -1.373 -0.528, -2.846 -1.247, -4.129c0.184, 0.012 0.366, 0.031 0.558, 0.031c0.522, -0 1.065, -0.048 1.623, -0.156c3.014, -0.547 4.297, -2.516 4.256, -4.398c-0, -0.659 -0.135, -1.302 -0.35, -1.889" style="fill: rgb(255, 140, 0);"/>
</svg>
