<svg viewBox="0 0 24 24" xmlns="http://www.w3.org/2000/svg">
  <path d="M6.184, 17.141c1.039, -0.546 1.618, -1.74 1.325, -2.934c-0.296, -1.207 -1.386, -2.008 -2.578, -1.991c0.061, -0.809 0.24, -1.61 0.549, -2.373l1.736, -1.735l3.242, 3.242c-0.73, 1.139 -0.6, 2.67 0.396, 3.668c0.997, 0.998 2.527, 1.127 3.667, 0.396l3.433, 3.432c-1.315, 1.122 -2.903, 1.743 -4.525, 1.867c0.016, -1.192 -0.783, -2.279 -1.991, -2.576c-1.193, -0.294 -2.387, 0.286 -2.935, 1.324c-0.453, -0.296 -0.883, -0.64 -1.281, -1.039c-0.398, -0.398 -0.743, -0.828 -1.038, -1.281m13.277, -8.637c-1.039, 0.548 -1.619, 1.742 -1.326, 2.934c0.298, 1.207 1.386, 2.009 2.578, 1.993c-0.126, 1.623 -0.747, 3.211 -1.869, 4.524l-3.431, -3.432c0.731, -1.14 0.601, -2.671 -0.395, -3.667c-0.998, -0.998 -2.528, -1.128 -3.668, -0.397l-3.243, -3.242l1.738, -1.737c0.762, -0.309 1.563, -0.488 2.37, -0.55c-0.017, 1.193 0.784, 2.283 1.991, 2.58c1.194, 0.292 2.387, -0.287 2.934, -1.325c0.453, 0.295 0.884, 0.64 1.282, 1.038c0.399, 0.398 0.742, 0.828 1.039, 1.281m-0.149, -2.173c-1.791, -1.791 -4.143, -2.688 -6.488, -2.688c-1.012, -0 -2.021, 0.177 -2.989, 0.509c-0.049, -0.013 -0.973, -0.264 -2.094, -0.267c-0.57, 0.004 -1.209, 0.067 -1.808, 0.295l-0, -2.18l-1.261, -0l-0, 2.672l-2.672, -0l-0, 1.26l2.18, -0c-0.229, 0.602 -0.29, 1.243 -0.294, 1.814c0.003, 1.129 0.255, 2.062 0.263, 2.093l0.001, 0.002c-0.332, 0.965 -0.508, 1.972 -0.507, 2.982c-0.001, 2.345 0.896, 4.7 2.689, 6.49c1.789, 1.79 4.141, 2.689 6.492, 2.687l0.006, -0c2.344, -0 4.695, -0.897 6.482, -2.687c1.791, -1.792 2.69, -4.145 2.688, -6.49c0.002, -2.348 -0.895, -4.701 -2.688, -6.492" style="fill: rgb(255, 0, 0);"/>
</svg>
