<svg viewBox="0 0 24 24" xmlns="http://www.w3.org/2000/svg">
  <path d="M9.208, 11.945c-0.844, -0.013 -1.629, 0.415 -2.089, 1.129c-0.472, 0.711 -0.684, 1.653 -0.687, 2.807c0.003, 1.152 0.215, 2.095 0.688, 2.807c0.46, 0.714 1.245, 1.14 2.088, 1.127l0.036, -0c0.829, -0 1.598, -0.423 2.053, -1.127c0.471, -0.712 0.684, -1.655 0.686, -2.807c-0.002, -1.154 -0.215, -2.096 -0.686, -2.807c-0.461, -0.714 -1.246, -1.142 -2.089, -1.129Zm-0, 6.57c-0.808, -0.006 -1.42, -0.6 -1.476, -2.634c0.056, -2.035 0.668, -2.631 1.476, -2.637c0.808, 0.006 1.42, 0.602 1.474, 2.637c-0.054, 2.034 -0.666, 2.628 -1.474, 2.634Zm10.36, -12.239l-0.557, 0.928c-0.021, 0.051 -1.656, 2.736 -1.666, 5.965c0, 1.23 0.996, 2.226 2.225, 2.226c1.23, -0 2.225, -0.996 2.225, -2.226c-0.01, -3.231 -1.647, -5.914 -1.668, -5.965l-0.559, -0.928Zm0.002, 7.817l0, 0.002c-0.51, -0.002 -0.924, -0.417 -0.924, -0.926c-0.002, -1.388 0.367, -2.727 0.744, -3.712c0.061, -0.158 0.121, -0.307 0.18, -0.446c0.059, 0.14 0.119, 0.289 0.182, 0.448c0.375, 0.983 0.746, 2.322 0.744, 3.71c-0.002, 0.509 -0.414, 0.924 -0.926, 0.924Zm-17.366, -3.401l3.976, -3.976l0.919, 0.919l-3.976, 3.976l-0.919, -0.919Zm9.114, -3.056l0.919, -0.92l3.974, 3.973l-0.92, 0.92l-3.973, -3.973Z" style="fill: rgb(0, 0, 255);"/>
</svg>
