<svg viewBox="0 0 24 24" xmlns="http://www.w3.org/2000/svg">
  <path d="M15.234, 15.494c0.002, 0.994 -0.201, 1.805 -0.65, 2.329c-0.445, 0.523 -1.177, 0.9 -2.584, 0.907c-1.408, -0.007 -2.142, -0.384 -2.587, -0.907c-0.448, -0.524 -0.652, -1.335 -0.65, -2.329l0, -0.634l2.587, 0l0, 2.571l1.3, 0l0, -2.571l2.585, 0l-0.001, 0.634Zm5.204, -1.935l-16.877, 0l0, 1.301l3.902, 0l0, 0.634c0.002, 1.152 0.22, 2.286 0.955, 3.167c0.738, 0.883 1.946, 1.376 3.582, 1.368l0.04, 0c1.613, 0 2.807, -0.493 3.54, -1.368c0.735, -0.881 0.953, -2.015 0.955, -3.167l0, -0.634l3.903, 0l0, -1.301Z" style="fill: rgb(255, 0, 0);"/>
  <path d="M19.009, 7.057l-2.75, -0l1.858, -1.971l-0.944, -0.892l-2.892, 3.067l-0, 0.893l2.89, 3.065l0.948, -0.891l-0.002, -0.001l-1.857, -1.97l2.749, -0l-0, -1.3Zm-12.049, -0.475c-0, -0.358 0.291, -0.649 0.649, -0.649c0.359, -0 0.65, 0.291 0.65, 0.649l-0, 2.22c-0.001, 0.358 -0.292, 0.649 -0.65, 0.649c-0.358, -0 -0.648, -0.291 -0.649, -0.649l-0.002, -0l-0, -2.22l0.002, -0Z" style="fill: rgb(255, 0, 0);"/>
</svg>
