<svg viewBox="0 0 24 24" xmlns="http://www.w3.org/2000/svg">
  <path d="M8.252, 8.193l-1.855, -1.97l0.946, -0.89l2.888, 3.065l-0, 0.892l-2.888, 3.066l-0.946, -0.891l1.857, -1.972l-2.748, -0l0, -1.3l2.746, -0Zm9.353, 3.272l-0.002, -0.002l-1.857, -1.969l2.749, -0l-0, -1.3l-2.75, -0l1.858, -1.971l-0.944, -0.892l-2.892, 3.067l-0, 0.893l2.89, 3.065l0.948, -0.891Z" style="fill: rgb(255, 0, 0);"/>
  <path d="M14.53, 16.828c-0.454, 0.958 -1.081, 1.666 -2.53, 1.687c-1.396, -0.021 -1.997, -0.669 -2.441, -1.568c-0.362, -0.778 -0.462, -1.704 -0.481, -2.298l2.271, 0l0, 2.079l1.301, 0l0, -2.079l2.356, 0c-0.032, 0.568 -0.144, 1.434 -0.476, 2.179m-9.178, -3.48l0, 1.301l2.421, 0c0.022, 0.693 0.128, 1.793 0.605, 2.841c0.516, 1.186 1.688, 2.326 3.567, 2.326l0.055, 0c1.992, 0.02 3.199, -1.219 3.718, -2.463c0.444, -1.01 0.559, -2.045 0.589, -2.704l2.341, 0l0, -1.301l-13.296, 0Z" style="fill: rgb(255, 0, 0);"/>
</svg>
