<svg viewBox="0 0 24 24" xmlns="http://www.w3.org/2000/svg">
  <path d="M12.509, 13.744c0.569, -0.004 1.032, -0.465 1.034, -1.037c-0.002, -0.573 -0.463, -1.037 -1.038, -1.039c-0.286, 0.002 -0.536, 0.112 -0.723, 0.297l-0.913, -0.931c0.422, -0.41 1.003, -0.666 1.636, -0.666c1.29, 0 2.337, 1.047 2.337, 2.339c-0, 0.679 -0.293, 1.287 -0.756, 1.712c0.379, 0.397 0.615, 0.93 0.615, 1.524c-0, 1.213 -0.982, 2.193 -2.194, 2.197c-0.608, 0 -1.162, -0.249 -1.558, -0.648l0.002, 0l0.921, -0.916c0.164, 0.163 0.384, 0.264 0.635, 0.264c0.492, -0.003 0.894, -0.404 0.897, -0.896c-0.003, -0.494 -0.402, -0.895 -0.895, -0.899l-0.374, -0l-0, -1.298l0.372, -0l-0, -0.002l0.002, -0Zm-5.967, 0.299l-0.71, -0.708l1.647, -1.652l0.711, 0.708l-1.648, 1.652Zm9.974, -0l-0.709, -0.708l1.647, -1.652l0.71, 0.708l-1.648, 1.652Zm1.661, -0.709l1.651, -1.65l0.708, 0.708l-1.651, 1.65l-0.708, -0.708Zm-14.005, 0.708l-0.709, -0.707l1.649, -1.651l0.708, 0.707l-1.648, 1.651Zm12.225, -3.994l2.608, -2.039l-0.797, -1.024l-1.811, 1.413l-1.813, -1.413l-0.8, 1.026l2.613, 2.037Zm-8.796, -1.65l-1.814, -1.412l-0.798, 1.025l2.612, 2.037l2.61, -2.039l-0.798, -1.023l-1.812, 1.412Z" style="fill: rgb(255, 0, 255);"/>
</svg>
