<svg viewBox="0 0 24 24" xmlns="http://www.w3.org/2000/svg">
  <path d="M18.977, 8.697l-2.85, 0l1.524, 1.457l-0.94, 0.939l-3.011, -3.044l3.011, -3.076l0.94, 0.939l-1.524, 1.49l2.85, 0l-0, 1.295Zm-3.107, 6.477l-7.739, 0c0.561, 0.603 1.208, 1.181 1.943, 1.731c0.734, 0.552 1.381, 0.825 1.943, 0.825c0.539, 0 1.169, -0.273 1.894, -0.825c0.722, -0.55 1.375, -1.128 1.959, -1.731m1.941, -0.26c-0.129, 0.086 -0.301, 0.265 -0.518, 0.535c-0.214, 0.269 -0.345, 0.436 -0.388, 0.502c-0.756, 0.799 -1.565, 1.511 -2.428, 2.137c-0.863, 0.627 -1.683, 0.938 -2.46, 0.938c-0.756, 0 -1.55, -0.286 -2.38, -0.858c-0.831, -0.571 -1.603, -1.235 -2.316, -1.992c-0.108, -0.084 -0.302, -0.295 -0.582, -0.63c-0.282, -0.335 -0.465, -0.546 -0.551, -0.632l0.518, -1.035l10.587, 0l0.518, 1.035Zm-7.479, -6.865l-3.043, 3.044l-0.939, -0.939l1.49, -1.457l-2.817, 0l-0, -1.295l2.849, 0l-1.522, -1.49l0.939, -0.939l3.043, 3.076Z" style="fill: rgb(255, 0, 255);"/>
</svg>
