<svg viewBox="0 0 24 24" xmlns="http://www.w3.org/2000/svg">
  <path d="M1, 12.002c0, -6.077 4.925, -11.002 11, -11.002c6.075, 0 11, 4.925 11, 11.002c0, 6.074 -4.925, 10.998 -11, 10.998c-6.075, 0 -11, -4.924 -11, -10.998Zm11, 9.771c5.397, -0.011 9.761, -4.375 9.772, -9.771c-0.011, -5.399 -4.375, -9.764 -9.772, -9.775c-5.397, 0.011 -9.764, 4.376 -9.773, 9.775c0.009, 5.396 4.376, 9.76 9.773, 9.771Zm-6.557, -7.041l1.173, -0.358c0.478, 1.652 2.656, 3.086 5.371, 3.077c2.752, 0.009 4.952, -1.465 5.393, -3.145l1.182, 0.329c-0.701, 2.419 -3.424, 4.036 -6.575, 4.044c-3.11, -0.008 -5.799, -1.58 -6.544, -3.947Zm3.921, -5.25c0, 1.402 -0.559, 2.54 -1.252, 2.54c-0.689, 0 -1.249, -1.138 -1.249, -2.54c0, -1.403 0.56, -2.54 1.249, -2.54c0.693, 0 1.252, 1.137 1.252, 2.54Zm7.774, 0c-0, 1.402 -0.559, 2.54 -1.25, 2.54c-0.691, 0 -1.251, -1.138 -1.251, -2.54c-0, -1.403 0.56, -2.54 1.251, -2.54c0.691, 0 1.25, 1.137 1.25, 2.54Z" style="fill: rgb(255, 140, 0);"/>
</svg>
