<svg viewBox="0 0 24 24" xmlns="http://www.w3.org/2000/svg">
  <path d="M11.999, 12.754c-3.619, -0.006 -5.175, 1.687 -5.253, 1.789c-0.598, 0.593 -0.893, 1.356 -0.891, 2.062c-0, 0.588 0.193, 1.138 0.523, 1.572c0.539, 0.703 1.372, 0.97 2.152, 0.963c0.295, -0 0.586, -0.034 0.869, -0.09c1.207, -0.306 1.996, -1.067 2.6, -1.014c0.605, -0.053 1.395, 0.708 2.589, 1.014c0.293, 0.058 0.586, 0.093 0.879, 0.093l0.026, -0c0.775, -0 1.593, -0.273 2.126, -0.966c0.328, -0.434 0.522, -0.982 0.522, -1.572c0.004, -0.708 -0.293, -1.472 -0.922, -2.097c-0.046, -0.067 -1.6, -1.76 -5.22, -1.754Zm4.588, 4.633c-0.237, 0.303 -0.594, 0.449 -1.12, 0.456c-0.192, -0 -0.401, -0.023 -0.614, -0.066c-0.663, -0.085 -1.505, -0.987 -2.854, -1.04c-1.348, 0.053 -2.189, 0.955 -2.855, 1.04c-0.217, 0.041 -0.426, 0.066 -0.614, 0.066c-0.528, -0.007 -0.882, -0.153 -1.118, -0.458c-0.157, -0.203 -0.258, -0.477 -0.258, -0.78c0.004, -0.36 0.134, -0.764 0.545, -1.176c0.033, -0.037 0.068, -0.081 0.214, -0.202c0.446, -0.358 1.678, -1.168 4.086, -1.172c1.607, 0.002 2.689, 0.364 3.364, 0.711c0.337, 0.172 0.575, 0.343 0.721, 0.461c0.147, 0.121 0.178, 0.169 0.182, 0.165c0.441, 0.445 0.573, 0.851 0.575, 1.213c-0, 0.303 -0.101, 0.582 -0.254, 0.782Zm5.24, -4.086c-0.981, -1.391 -2.797, -2.077 -2.829, -2.102l-0.69, -0.272l0.004, 0.739c0.01, 0.041 -0.019, 1.996 0.937, 3.412c0.299, 0.439 0.791, 0.677 1.288, 0.677c0.305, 0 0.617, -0.091 0.887, -0.273l0.007, -0.006c0.431, -0.303 0.671, -0.79 0.671, -1.288c-0, -0.303 -0.089, -0.617 -0.275, -0.887Zm-19.655, 0.001c-0.187, 0.268 -0.278, 0.579 -0.278, 0.886c-0, 0.496 0.237, 0.986 0.676, 1.292l0.004, 0.002c0.268, 0.184 0.582, 0.273 0.886, 0.273c0.496, -0 0.985, -0.239 1.289, -0.674c0.956, -1.419 0.928, -3.374 0.938, -3.415l0.002, -0.74l-0.686, 0.274c-0.035, 0.025 -1.85, 0.709 -2.831, 2.102Zm18.683, 1.357l-0, 0.001c-0.101, 0.064 -0.207, 0.094 -0.319, 0.096c-0.181, -0.002 -0.358, -0.088 -0.463, -0.243c-0.357, -0.508 -0.563, -1.233 -0.659, -1.823c-0.011, -0.064 -0.021, -0.126 -0.029, -0.185c0.05, 0.029 0.104, 0.059 0.157, 0.091c0.512, 0.306 1.113, 0.76 1.46, 1.272c0.069, 0.1 0.098, 0.207 0.101, 0.32c-0.003, 0.178 -0.087, 0.358 -0.248, 0.471Zm-16.927, -0.148c-0.111, 0.158 -0.289, 0.243 -0.468, 0.245c-0.112, -0.002 -0.22, -0.032 -0.32, -0.099l0.001, -0c-0.163, -0.113 -0.247, -0.289 -0.247, -0.469c-0, -0.11 0.032, -0.217 0.1, -0.316c0.351, -0.514 0.95, -0.97 1.463, -1.275c0.054, -0.032 0.106, -0.063 0.158, -0.091c-0.09, 0.614 -0.283, 1.437 -0.687, 2.005Zm4.324, -6.591l-1.856, -1.97l0.945, -0.893l3.311, 3.511l-3.31, 3.514l-0.946, -0.892l1.856, -1.971l-2.747, 0l0, -1.299l2.747, 0Zm9.352, 3.272l-0, -0.002l-1.859, -1.971l2.75, 0l-0, -1.299l-2.749, 0l1.858, -1.97l-0.945, -0.892l-3.312, 3.512l3.31, 3.512l0.947, -0.89Z" style="fill: rgb(0, 0, 255);"/>
</svg>
