<svg viewBox="0 0 24 24" xmlns="http://www.w3.org/2000/svg">
  <path d="M12, 15.218c3.24, 0.015 4.454, 1.388 4.898, 2.009c0.143, 0.208 0.176, 0.299 0.176, 0.301l1.206, -0.488c-0.022, -0.136 -1.408, -3.145 -6.28, -3.123c-4.872, -0.022 -6.258, 2.987 -6.28, 3.123l1.206, 0.488c0, -0.002 0.033, -0.093 0.175, -0.301c0.445, -0.621 1.659, -1.994 4.899, -2.009Zm6.494, -6.742l-2.75, 0l1.858, -1.971l-0.944, -0.892l-2.892, 3.067l0, 0.893l2.89, 3.065l0.948, -0.891l-0.002, -0.003l-1.857, -1.968l2.749, 0l0, -1.3Zm-10.241, -0.001l-1.856, -1.97l0.946, -0.89l2.888, 3.065l-0, 0.892l-2.888, 3.065l-0.946, -0.89l1.858, -1.971l-2.748, -0l-0, -1.301l2.746, -0Z" style="fill: rgb(0, 0, 255);"/>
</svg>
