<svg viewBox="0 0 24 24" xmlns="http://www.w3.org/2000/svg">
  <path d="M14.517, 17.082l-11.589, -0l0, -1.292l11.589, -0l0, 1.292Zm6.553, -5.779c0, 0.668 -0.184, 1.373 -0.548, 2.115c-0.367, 0.742 -0.851, 1.114 -1.454, 1.114c-0.624, -0 -1.113, -0.372 -1.468, -1.114c-0.354, -0.742 -0.533, -1.447 -0.533, -2.115c0, -0.387 0.065, -0.882 0.194, -1.483c0.129, -0.604 0.301, -1.248 0.517, -1.938c0.215, -0.688 0.435, -1.339 0.661, -1.953c0.227, -0.612 0.436, -1.146 0.629, -1.598c0.409, 1.141 0.845, 2.41 1.308, 3.81c0.464, 1.399 0.694, 2.453 0.694, 3.162Zm-1.291, -0c0, -0.343 -0.081, -0.817 -0.242, -1.419c-0.163, -0.603 -0.318, -1.151 -0.469, -1.646c-0.172, 0.581 -0.332, 1.151 -0.484, 1.71c-0.151, 0.559 -0.224, 1.044 -0.224, 1.453c0, 0.237 0.067, 0.576 0.208, 1.016c0.141, 0.442 0.307, 0.716 0.5, 0.824c0.194, -0.151 0.36, -0.436 0.501, -0.856c0.139, -0.419 0.21, -0.779 0.21, -1.082Zm-16.207, -2.79c-0, -0.358 0.291, -0.649 0.649, -0.649c0.359, 0 0.65, 0.291 0.65, 0.649l0.001, 0l-0, 2.218l-0.001, 0c-0, 0.36 -0.291, 0.651 -0.65, 0.651c-0.358, 0 -0.649, -0.291 -0.649, -0.651l-0.001, 0l-0, -2.218l0.001, 0Zm10.336, 0c0, -0.358 -0.291, -0.649 -0.649, -0.649c-0.359, 0 -0.649, 0.291 -0.65, 0.649l0, 2.219c0.001, 0.359 0.291, 0.65 0.65, 0.65c0.358, 0 0.649, -0.291 0.649, -0.65l0, -2.219Z" style="fill: rgb(0, 0, 255);"/>
</svg>
