<svg viewBox="0 0 24 24" xmlns="http://www.w3.org/2000/svg">
  <path d="M9.254, 13.726c-1.244, 0.058 -2.09, 1.046 -2.813, 1.899c-0.699, 0.875 -1.177, 1.725 -1.187, 1.743l1.132, 0.64l-0, -0.002c-0, -0 0.446, -0.787 1.07, -1.568c0.604, -0.804 1.475, -1.472 1.798, -1.414c0.321, -0.058 1.192, 0.61 1.796, 1.414c0.624, 0.781 1.066, 1.568 1.071, 1.568l1.133, -0.636c-0.012, -0.02 -0.49, -0.87 -1.189, -1.745c-0.723, -0.853 -1.569, -1.841 -2.811, -1.899Zm10.277, -8.027l-0.557, 0.928c-0.021, 0.051 -1.656, 2.736 -1.666, 5.965c0, 1.229 0.996, 2.225 2.225, 2.225c1.23, -0 2.225, -0.996 2.225, -2.225c-0.01, -3.231 -1.647, -5.914 -1.668, -5.965l-0.559, -0.928Zm0.002, 7.817l0, 0.002c-0.51, -0.002 -0.924, -0.418 -0.924, -0.926c-0.002, -1.388 0.367, -2.727 0.744, -3.712c0.061, -0.158 0.121, -0.307 0.18, -0.446c0.059, 0.14 0.119, 0.289 0.182, 0.448c0.375, 0.983 0.746, 2.322 0.744, 3.71c-0.002, 0.508 -0.414, 0.924 -0.926, 0.924Zm-17.329, -2.824l3.976, -3.976l0.919, 0.919l-3.976, 3.976l-0.919, -0.919Zm9.114, -3.056l0.919, -0.92l3.974, 3.974l-0.92, 0.919l-3.973, -3.973Z" style="fill: rgb(0, 0, 255);"/>
</svg>
