<svg viewBox="0 0 24 24" xmlns="http://www.w3.org/2000/svg">
  <path d="M18.358, 17.878l-0.002, -0c0.002, -0 0.395, 0.042 1.004, 0.149c-1.516, 1.794 -4.181, 2.863 -7.359, 2.878c-3.178, -0.015 -5.845, -1.084 -7.361, -2.877c0.609, -0.106 1, -0.148 1.001, -0.15l0.475, -0.049l-0.098, -0.948l-0.474, 0.05l0, -0.001c-0.012, 0.002 -0.62, 0.066 -1.506, 0.242c-0.23, -0.398 -0.409, -0.822 -0.534, -1.271c0.849, 0.008 1.405, 0.065 1.407, 0.065l0.474, 0.049l0.096, -0.949l-0.473, -0.048l-0.002, -0c-0.011, -0.002 -0.686, -0.07 -1.68, -0.071c-0.016, -0.154 -0.026, -0.311 -0.03, -0.47c0.107, 0.01 0.214, 0.019 0.321, 0.019c1.069, -0.006 2.153, -0.435 2.18, -0.441l0.575, -0.217l-0.354, -0.502c-0.04, -0.021 -0.997, -1.498 -2.26, -1.937c0.324, -0.973 0.81, -1.875 1.504, -2.639l0.122, -0.135l0.682, -4.17l2.299, 2.32l0.354, -0.104c0.944, -0.276 2.029, -0.436 3.282, -0.436c1.251, -0 2.336, 0.16 3.278, 0.436l0.353, 0.103l2.299, -2.319l0.682, 4.168l0.124, 0.137c0.694, 0.764 1.182, 1.666 1.503, 2.64c-1.263, 0.439 -2.219, 1.915 -2.258, 1.937l-0.353, 0.5l0.573, 0.22c0.027, 0.005 1.11, 0.432 2.18, 0.439c0.107, -0 0.213, -0.009 0.32, -0.019c-0.004, 0.16 -0.014, 0.316 -0.03, 0.47c-0.996, 0.001 -1.669, 0.069 -1.681, 0.071l-0.475, 0.047l0.096, 0.95l0.475, -0.048l0, -0.002c0.001, -0 0.558, -0.055 1.407, -0.063c-0.125, 0.449 -0.304, 0.872 -0.532, 1.27c-0.889, -0.176 -1.497, -0.24 -1.508, -0.242l-0.475, -0.048l-0.096, 0.949l0.475, 0.047Zm-15.248, -4.397c-0.382, -0.114 -0.714, -0.433 -0.69, -0.69c0, -0.051 0.007, -0.1 0.025, -0.154c0.095, -0.29 0.28, -0.375 0.635, -0.393c0.128, -0 0.26, 0.023 0.379, 0.057c0.352, 0.1 0.834, 0.494 1.186, 0.872c0.063, 0.065 0.121, 0.13 0.175, 0.191c-0.355, 0.093 -0.805, 0.182 -1.203, 0.18c-0.195, -0 -0.372, -0.024 -0.507, -0.063m17.434, -1.18c0.109, -0.035 0.245, -0.057 0.375, -0.057c0.354, 0.02 0.543, 0.102 0.634, 0.386c0.019, 0.06 0.024, 0.116 0.024, 0.161c0.025, 0.257 -0.306, 0.575 -0.691, 0.691c-0.134, 0.039 -0.311, 0.062 -0.504, 0.062c-0.397, -0 -0.844, -0.09 -1.2, -0.185c0.054, -0.06 0.112, -0.123 0.173, -0.187c0.351, -0.377 0.834, -0.77 1.187, -0.871l0.002, -0Zm1.895, 3.675l0.473, 0.043l0.088, -0.948l-0.475, -0.044c-0.215, -0.019 -0.414, -0.029 -0.618, -0.041c0.017, -0.206 0.038, -0.411 0.039, -0.625c0, -0.129 -0.005, -0.259 -0.009, -0.389c0.326, -0.273 0.578, -0.658 0.593, -1.181c0, -0.144 -0.024, -0.288 -0.063, -0.426c-0.15, -0.516 -0.525, -0.807 -0.925, -0.954c-0.343, -1.212 -0.913, -2.362 -1.766, -3.345l-1.018, -6.209l-3.49, 3.527c-0.974, -0.251 -2.06, -0.388 -3.267, -0.388c-1.206, -0 -2.293, 0.137 -3.269, 0.388l-3.495, -3.525l-1.017, 6.209c-0.849, 0.982 -1.42, 2.131 -1.762, 3.342c-0.401, 0.145 -0.776, 0.435 -0.924, 0.947c-0.047, 0.144 -0.067, 0.293 -0.067, 0.434c0.016, 0.522 0.267, 0.907 0.592, 1.18c-0.004, 0.13 -0.01, 0.26 -0.01, 0.39c0.001, 0.214 0.022, 0.419 0.04, 0.625c-0.203, 0.012 -0.402, 0.022 -0.615, 0.041l-0.474, 0.043l0.087, 0.95l0.475, -0.044c0.231, -0.022 0.451, -0.033 0.671, -0.044c0.123, 0.541 0.31, 1.05 0.551, 1.527c-0.278, 0.072 -0.562, 0.15 -0.856, 0.241l-0.456, 0.141l0.284, 0.911l0.455, -0.143c0.373, -0.116 0.733, -0.21 1.077, -0.294c1.721, 2.442 5.043, 3.823 8.713, 3.829c3.669, -0.006 6.988, -1.388 8.709, -3.83c0.344, 0.084 0.705, 0.179 1.079, 0.295l0.453, 0.142l0.283, -0.908l-0.455, -0.142c-0.294, -0.092 -0.579, -0.17 -0.858, -0.242c0.242, -0.477 0.427, -0.986 0.55, -1.527c0.222, 0.011 0.444, 0.022 0.677, 0.044" style="fill: rgb(255, 140, 0);"/>
  <path d="M11.524, 16.997l-0, -0.19c-0.167, -0.138 -0.279, -0.339 -0.279, -0.572c-0, -0.416 0.338, -0.753 0.756, -0.753c0.414, -0 0.753, 0.337 0.753, 0.753c-0, 0.232 -0.111, 0.432 -0.277, 0.571l-0, 0.193c0.002, 0.388 0.318, 0.702 0.705, 0.704c0.388, -0.002 0.705, -0.317 0.705, -0.706l0.951, -0c-0, 0.771 -0.526, 1.412 -1.237, 1.599c-0.035, 0.178 -0.087, 0.397 -0.176, 0.632c-0.176, 0.489 -0.586, 1.175 -1.425, 1.187c-0.84, -0.012 -1.247, -0.7 -1.426, -1.187c-0.086, -0.235 -0.137, -0.454 -0.172, -0.632c-0.713, -0.186 -1.241, -0.827 -1.241, -1.599l0.953, -0c0.002, 0.389 0.316, 0.704 0.706, 0.706c0.388, -0.002 0.703, -0.315 0.703, -0.706l0.001, -0Zm0.476, 2.468c-0.196, 0.014 -0.379, -0.181 -0.531, -0.573c-0.045, -0.116 -0.075, -0.23 -0.1, -0.337c0.239, -0.085 0.457, -0.217 0.631, -0.395c0.176, 0.179 0.395, 0.311 0.636, 0.396c-0.026, 0.107 -0.057, 0.221 -0.101, 0.336c-0.155, 0.392 -0.337, 0.587 -0.535, 0.573Zm-3.902, -7.066l-1.456, 1.077l0.568, 0.768l0.89, -0.66l0.89, 0.658l0.565, -0.766l-1.457, -1.077Zm7.805, 0.001l-1.46, 1.074l0.567, 0.769l0.892, -0.658l0.89, 0.658l0.568, -0.767l-1.457, -1.076Z" style="fill: rgb(255, 140, 0);"/>
</svg>
