<svg viewBox="0 0 24 24" xmlns="http://www.w3.org/2000/svg">
  <path d="M18.358, 17.878c0.002, -0 0.393, 0.041 1, 0.148c-1.515, 1.793 -4.181, 2.862 -7.357, 2.878c-3.179, -0.016 -5.845, -1.085 -7.362, -2.878c0.61, -0.107 1.001, -0.148 1.002, -0.15l0.473, -0.049l-0.098, -0.947l-0.473, 0.051l0, -0.004c-0.012, 0.004 -0.619, 0.067 -1.506, 0.244c-0.229, -0.398 -0.408, -0.821 -0.533, -1.27c0.849, 0.007 1.405, 0.066 1.405, 0.064l0.476, 0.048l0.096, -0.948l-0.473, -0.047l0, -0.002c-0.014, -0 -0.688, -0.07 -1.683, -0.072c-0.019, -0.191 -0.036, -0.384 -0.036, -0.584c0, -2.078 0.611, -4.106 1.972, -5.601l0.122, -0.136l0.683, -4.172l2.298, 2.321l0.356, -0.103c0.943, -0.275 2.027, -0.435 3.281, -0.435c1.251, -0 2.336, 0.16 3.28, 0.435l0.353, 0.103l2.296, -2.319l0.685, 4.169l0.121, 0.135c1.363, 1.497 1.973, 3.524 1.973, 5.603c-0.001, 0.2 -0.017, 0.393 -0.037, 0.586c-0.996, 0.002 -1.668, 0.07 -1.68, 0.072l-0.475, 0.046l0.096, 0.951l0.474, -0.05c0.003, -0 0.557, -0.057 1.407, -0.064c-0.126, 0.449 -0.305, 0.872 -0.533, 1.27c-0.888, -0.175 -1.495, -0.24 -1.505, -0.242l-0.475, -0.049l-0.099, 0.947l0.476, 0.051Zm4.08, -1.904l0.475, 0.045l0.087, -0.95l-0.473, -0.043c-0.215, -0.02 -0.414, -0.029 -0.618, -0.041c0.017, -0.206 0.038, -0.411 0.039, -0.625c0, -2.254 -0.645, -4.534 -2.17, -6.296l-1.017, -6.207l-3.494, 3.525c-0.975, -0.251 -2.06, -0.387 -3.266, -0.387c-1.207, -0 -2.293, 0.136 -3.269, 0.387l-3.494, -3.525l-1.019, 6.21c-1.525, 1.759 -2.17, 4.04 -2.17, 6.293c0.001, 0.214 0.022, 0.419 0.039, 0.625c-0.203, 0.012 -0.402, 0.021 -0.616, 0.041l-0.472, 0.043l0.086, 0.95l0.475, -0.045c0.232, -0.021 0.451, -0.032 0.672, -0.043c0.123, 0.54 0.309, 1.05 0.55, 1.526c-0.278, 0.073 -0.562, 0.151 -0.857, 0.242l-0.454, 0.142l0.283, 0.912l0.457, -0.146c0.372, -0.115 0.731, -0.209 1.075, -0.293c1.722, 2.441 5.044, 3.825 8.714, 3.83c3.669, -0.005 6.989, -1.387 8.71, -3.83c0.343, 0.084 0.703, 0.18 1.076, 0.295l0.456, 0.142l0.283, -0.908l-0.454, -0.142c-0.294, -0.092 -0.579, -0.171 -0.858, -0.244c0.242, -0.476 0.427, -0.986 0.55, -1.528c0.221, 0.013 0.442, 0.022 0.674, 0.045" style="fill: rgb(255, 140, 0);"/>
  <path d="M15.904, 14.774c0, -0 -1.369, 1.678 -1.375, 3.562c0.002, 0.759 0.617, 1.373 1.375, 1.373c0.758, -0 1.374, -0.612 1.374, -1.373c-0.004, -1.884 -1.374, -3.562 -1.374, -3.562Zm-3.426, 2.03c0.166, -0.138 0.277, -0.337 0.277, -0.569c-0, -0.417 -0.339, -0.754 -0.754, -0.754c-0.417, -0 -0.755, 0.337 -0.755, 0.754c-0, 0.232 0.111, 0.433 0.278, 0.571l-0, 0.538l-1.275, 0.923l0.559, 0.772l1.192, -0.863l1.193, 0.863l0.559, -0.772l-1.274, -0.923l-0, -0.54Zm3.426, 1.953c-0.232, -0.002 -0.42, -0.188 -0.42, -0.421c0, -0.772 0.202, -1.407 0.403, -1.849c0.006, -0.012 0.011, -0.024 0.017, -0.035c0.005, 0.011 0.01, 0.023 0.016, 0.035c0.204, 0.442 0.406, 1.079 0.406, 1.849c0, 0.231 -0.191, 0.419 -0.422, 0.421Zm0.001, -5.434l-0.893, -0.657l-0.566, 0.767l1.459, 1.076l1.454, -1.078l-0.565, -0.763l-0.889, 0.655Zm-7.807, 0l-0.889, -0.657l-0.566, 0.767l1.455, 1.074l1.458, -1.073l-0.562, -0.766l-0.896, 0.655Z" style="fill: rgb(255, 140, 0);"/>
</svg>
