<svg viewBox="0 0 24 24" xmlns="http://www.w3.org/2000/svg">
  <path d="M8.244, 15.007c0.002, 0.863 0.703, 1.566 1.568, 1.567c0.866, -0.001 1.567, -0.704 1.57, -1.567l1.235, 0c0.002, 0.863 0.702, 1.566 1.569, 1.567c0.865, -0.001 1.565, -0.704 1.567, -1.567l1.236, 0c-0.002, 1.547 -1.255, 2.8 -2.803, 2.802c-0.885, -0.002 -1.673, -0.41 -2.188, -1.048c-0.513, 0.638 -1.301, 1.046 -2.186, 1.048c-1.549, -0.002 -2.803, -1.255 -2.803, -2.802l1.235, 0Zm8.622, -5.367c0.346, -0 0.687, 0.129 0.953, 0.393l4.192, 4.195l0.875, -0.874l-3.327, -3.407c0, -4.176 -3.384, -7.561 -7.561, -7.561c-4.177, -0 -7.564, 3.385 -7.564, 7.561l-3.322, 3.406l0.873, 0.873l4.193, -4.193c0.262, -0.264 0.602, -0.393 0.95, -0.393c0.344, -0 0.687, 0.129 0.951, 0.393c0.262, 0.261 0.391, 0.604 0.392, 0.951c-0.001, 0.344 -0.13, 0.685 -0.394, 0.951l-4.193, 4.193l0.875, 0.873l0, -0.002l4.193, -4.192c0.502, -0.505 0.756, -1.167 0.754, -1.823c0.002, -0.66 -0.252, -1.323 -0.754, -1.823c-0.504, -0.505 -1.166, -0.757 -1.824, -0.757c-0.465, -0 -0.932, 0.134 -1.345, 0.386c0.039, -0.209 0.089, -0.415 0.147, -0.616c0.418, -0.502 1.025, -0.993 1.911, -1.291c2.421, -0.815 4.158, 0.922 4.158, 0.922c0, -0 1.736, -1.737 4.158, -0.922c0.885, 0.298 1.49, 0.788 1.909, 1.289c0.06, 0.202 0.109, 0.409 0.148, 0.62c-0.412, -0.254 -0.879, -0.388 -1.348, -0.388c-0.657, -0 -1.319, 0.253 -1.823, 0.756c-0.503, 0.5 -0.756, 1.166 -0.756, 1.824c0, 0.655 0.255, 1.32 0.756, 1.823l4.194, 4.193l0.874, -0.872l-4.194, -4.195c-0.263, -0.264 -0.394, -0.606 -0.394, -0.949c0, -0.348 0.129, -0.688 0.392, -0.949c0.265, -0.266 0.607, -0.395 0.951, -0.395Z" style="fill: rgb(180, 80, 0);"/>
</svg>
