<svg viewBox="0 0 24 24" xmlns="http://www.w3.org/2000/svg">
  <path d="M12.982, 12.415c-0.328, 0 -0.65, 0.084 -0.959, 0.209c-0.322, -0.137 -0.666, -0.211 -1.008, -0.211c-0.66, 0 -1.324, 0.254 -1.826, 0.76l-4.795, 4.794l0.873, 0.875l4.797, -4.798c0.262, -0.266 0.602, -0.393 0.951, -0.395c0.342, 0.002 0.684, 0.129 0.949, 0.395c0.262, 0.262 0.393, 0.603 0.393, 0.949c0, 0.344 -0.131, 0.687 -0.393, 0.95l-4.796, 4.797l0.873, 0.873l3.959, -3.957l3.957, 3.959l0.873, -0.875l-3.961, -3.961c0.478, -0.498 0.724, -1.144 0.722, -1.786c0.002, -0.447 -0.125, -0.894 -0.359, -1.295c0.254, 0.049 0.502, 0.147 0.701, 0.346l4.797, 4.796l0.875, -0.871l-4.799, -4.798c-0.504, -0.504 -1.168, -0.758 -1.824, -0.756Zm5.346, -1.849l-0, -0.619c-0.002, -0.615 -0.094, -1.21 -0.26, -1.774c-0.418, -0.502 -1.023, -0.992 -1.91, -1.29c-2.422, -0.814 -4.158, 0.922 -4.158, 0.922c0, -0 -1.736, -1.736 -4.158, -0.922c-0.887, 0.298 -1.492, 0.789 -1.91, 1.291c-0.166, 0.564 -0.258, 1.158 -0.26, 1.773l-0, 0.619l-0.617, -0c-0.844, -0 -1.524, 0.68 -1.526, 1.525c0.002, 0.842 0.684, 1.526 1.526, 1.528l0, 1.234c-1.526, -0 -2.762, -1.238 -2.762, -2.762c0, -1.32 0.926, -2.423 2.164, -2.695c0.283, -3.919 3.553, -7.01 7.543, -7.01c3.99, -0 7.258, 3.091 7.541, 7.01c1.238, 0.272 2.164, 1.375 2.164, 2.695c0, 1.524 -1.236, 2.762 -2.762, 2.762l0, -1.234c0.842, -0.002 1.524, -0.686 1.526, -1.528c-0.002, -0.845 -0.682, -1.525 -1.526, -1.525l-0.615, -0Zm-9.297, 0.548c0, -0.354 -0.287, -0.641 -0.645, -0.641c-0.353, 0 -0.64, 0.287 -0.64, 0.641c0, 0.355 0.287, 0.645 0.64, 0.645c0.358, 0 0.645, -0.29 0.645, -0.645Zm7.223, 0c-0, -0.354 -0.287, -0.641 -0.643, -0.641c-0.355, 0 -0.642, 0.287 -0.642, 0.641c-0, 0.355 0.287, 0.645 0.642, 0.645c0.356, 0 0.643, -0.29 0.643, -0.645Z" style="fill: rgb(180, 80, 0);"/>
</svg>
