<svg viewBox="0 0 24 24" xmlns="http://www.w3.org/2000/svg">
  <path d="M21.888, 13.444c0.001, -4.096 -2.83, -7.722 -6.904, -8.442c-0.479, -0.088 -0.955, -0.125 -1.421, -0.125c-1.185, 0.001 -2.327, 0.265 -3.373, 0.736c0.174, -0.264 0.281, -0.548 0.281, -0.847c-0.036, -0.965 -0.879, -1.471 -1.655, -1.473c-0.09, -0 -0.178, 0.007 -0.26, 0.022c-0.152, 0.022 -0.286, 0.043 -0.401, 0.063c-0.047, -0.216 -0.117, -0.462 -0.219, -0.717c-0.271, -0.728 -0.988, -1.639 -2.229, -1.658c-0.033, -0.002 -0.059, -0.003 -0.059, -0.001c-1.945, 0.08 -3.501, 2.233 -3.536, 4.764c0, 0.06 0.001, 0.112 0.004, 0.156c0.031, 1.356 0.382, 2.141 0.611, 2.508c-0.012, 0.25 -0.027, 0.696 -0.027, 1.305c0, 2.531 0.26, 7.839 2.177, 13.264l1.18, -0.417l0, -0.002c-1.848, -5.214 -2.108, -10.401 -2.108, -12.845c0, -0.931 0.038, -1.449 0.038, -1.45l0.017, -0.278l-0.182, -0.19c-0.046, -0.065 -0.417, -0.578 -0.455, -1.937c-0.004, -0.056 -0.004, -0.091 -0.004, -0.114c-0.002, -1 0.337, -1.913 0.809, -2.553c0.458, -0.624 1.027, -0.949 1.432, -0.961l0.059, 0.002c0.621, 0.016 0.877, 0.356 1.114, 0.878c0.102, 0.254 0.164, 0.524 0.194, 0.727c0.001, 0.003 0, 0.004 0.001, 0.007c-0.356, 0.276 -0.937, 0.784 -1.297, 1.438l1.108, 0.585c0.134, -0.266 0.44, -0.595 0.712, -0.833c0.194, -0.172 0.357, -0.292 0.436, -0.349c0.845, -0.462 1.29, 0.043 1.291, 0.059c0, 0.022 -0.008, 0.132 -0.219, 0.336c-0.969, 0.91 -2.65, 2.571 -2.652, 2.573l-0.166, 0.165l-0.133, 1.736c-0.394, 0.774 -0.69, 1.616 -0.849, 2.518c-0.097, 0.522 -0.138, 1.048 -0.138, 1.565c-0.003, 4.099 2.83, 7.726 6.902, 8.448c0.478, 0.08 0.952, 0.12 1.425, 0.12c1.062, -0 2.089, -0.213 3.043, -0.594c0.071, 0.063 0.149, 0.138 0.232, 0.23c0.25, 0.275 0.653, 0.834 0.647, 1.136l1.25, -0c-0.03, -0.766 -0.59, -1.552 -0.941, -1.949c2.096, -1.249 3.666, -3.407 4.129, -6.04l0.002, -0.003c0.089, -0.526 0.133, -1.045 0.133, -1.563Zm-1.366, 1.354c-0.643, 3.632 -3.72, 6.182 -7.129, 6.18c-0.396, -0 -0.803, -0.035 -1.208, -0.105c-3.438, -0.604 -5.868, -3.687 -5.87, -7.214c-0, -0.446 0.038, -0.896 0.12, -1.345c0.641, -3.635 3.715, -6.186 7.124, -6.187l0.005, -0c0.399, -0 0.797, 0.032 1.2, 0.106c3.446, 0.605 5.873, 3.686 5.876, 7.211c0, 0.442 -0.04, 0.894 -0.119, 1.353l0.002, 0.001Zm-7.646, 2.162l-1.273, -1.142l-0.833, 0.935l1.849, 1.655l2.31, -0.922l-0.463, -1.161l-1.59, 0.635Zm4.124, -2.185l-1.227, -0.218l0.432, -2.424l1.226, 0.219l-0.431, 2.423Zm-6.827, -3.702l1.232, 0.217l-0.427, 2.424l-1.232, -0.217l0.427, -2.424Z" style="fill: rgb(255, 140, 0);"/>
</svg>
