<svg viewBox="0 0 24 24" xmlns="http://www.w3.org/2000/svg">
  <path d="M20.549, 1.209c-0.206, -0.037 -0.43, -0.056 -0.662, -0.056c-1.061, -0.01 -2.628, 0.424 -2.854, 2.016c-0.035, 0.32 -0.064, 0.579 -0.089, 0.786c-0.139, -0.047 -0.295, -0.093 -0.465, -0.134c-0.143, -0.033 -0.285, -0.052 -0.432, -0.052c-0.861, -0.008 -1.467, 0.482 -1.589, 1.347c-0.132, 0.93 0.259, 1.586 1.03, 1.875c0.215, 0.065 0.537, 0.181 0.745, 0.257c0.156, 0.548 0.925, 1.345 1.309, 1.594c-0.016, 0.295 -0.052, 0.624 -0.093, 0.948c-0.143, -0.177 -0.295, -0.345 -0.455, -0.502c-1.302, -1.285 -3.089, -1.879 -4.992, -1.877c-1.905, -0.002 -3.693, 0.592 -4.995, 1.875c-0.161, 0.158 -0.313, 0.327 -0.458, 0.505c-0.041, -0.324 -0.076, -0.653 -0.093, -0.948c0.384, -0.249 1.154, -1.046 1.31, -1.594c0.208, -0.076 0.529, -0.192 0.744, -0.257c0.771, -0.289 1.162, -0.945 1.03, -1.875c-0.122, -0.865 -0.727, -1.355 -1.589, -1.347c-0.146, 0 -0.289, 0.019 -0.431, 0.052c-0.171, 0.041 -0.326, 0.087 -0.465, 0.134c-0.025, -0.207 -0.055, -0.466 -0.09, -0.786c-0.226, -1.592 -1.793, -2.026 -2.854, -2.016c-0.232, 0 -0.456, 0.019 -0.662, 0.056c-1.246, 0.234 -2.42, 1.349 -2.449, 2.865c-0, 0.067 0.002, 0.131 0.008, 0.191c0.093, 1.092 -0.041, 2.839 1.082, 4.225c0.23, 5.668 1.517, 14.342 1.519, 14.354l1.213, -0.187c-0.004, -0.014 -1.314, -8.883 -1.514, -14.426l-0.01, -0.229c-0, 0 -1.032, -0.769 -1.067, -3.827c-0.001, -0.039 -0.004, -0.074 -0.004, -0.101c-0.029, -0.785 0.765, -1.557 1.434, -1.656c0.134, -0.024 0.29, -0.037 0.45, -0.037c0.862, 0.01 1.514, 0.274 1.633, 0.924c0.148, 1.314 0.334, 2.319 0.334, 2.319c-0, 0 0.828, -0.5 1.438, -0.625c0.609, -0.125 0.922, 0.031 0.969, 0.203c0.046, 0.172 0.012, 0.499 -0.338, 0.617c-0.35, 0.117 -1.236, 0.44 -1.236, 0.44c-0, 0 -0.145, 0.505 -0.63, 1.005c-0.484, 0.5 -1.063, 0.707 -1.063, 0.707l-0, 0.495c0.003, 1.036 0.263, 2.532 0.351, 3.017c-0.409, 1.008 -0.638, 2.192 -0.637, 3.551c-0.002, 2.525 0.769, 4.463 2.075, 5.746c1.302, 1.284 3.09, 1.877 4.995, 1.877c1.903, 0 3.69, -0.593 4.992, -1.877c1.306, -1.283 2.076, -3.221 2.073, -5.746c0.002, -1.358 -0.228, -2.543 -0.637, -3.551c0.089, -0.484 0.348, -1.982 0.35, -3.018l-0, -0.495c-0, 0 -0.579, -0.207 -1.063, -0.707c-0.484, -0.5 -0.63, -1.004 -0.629, -1.005c-0, 0 -0.887, -0.323 -1.236, -0.44c-0.351, -0.118 -0.385, -0.445 -0.338, -0.617c0.047, -0.172 0.359, -0.328 0.969, -0.203c0.609, 0.125 1.437, 0.625 1.437, 0.625c-0, 0 0.187, -1.005 0.334, -2.319c0.119, -0.65 0.772, -0.914 1.633, -0.924c0.16, 0 0.316, 0.013 0.45, 0.037c0.669, 0.099 1.463, 0.871 1.435, 1.656c-0, 0.027 -0.003, 0.062 -0.004, 0.101c-0.035, 3.058 -1.069, 3.827 -1.069, 3.827l-0.008, 0.229c-0.201, 5.543 -1.511, 14.412 -1.515, 14.426l1.213, 0.187c0.003, -0.012 1.29, -8.686 1.52, -14.354c1.121, -1.386 0.989, -3.133 1.081, -4.225c0.007, -0.06 0.008, -0.124 0.008, -0.191c-0.028, -1.516 -1.203, -2.631 -2.449, -2.865Zm-2.709, 13.826c-0.057, 4.544 -2.535, 6.336 -5.838, 6.395c-3.305, -0.059 -5.785, -1.851 -5.842, -6.395c0.057, -4.546 2.537, -6.337 5.842, -6.397c3.303, 0.06 5.781, 1.851 5.838, 6.397Zm-3.009, 1.832c-0, 0.003 -0.383, 2.479 -2.817, 2.479c-2.433, 0 -2.815, -2.476 -2.816, -2.479l5.633, 0Zm-4.878, -1.617l-1.228, 0l0, -2.47l1.228, 0l0, 2.47Zm5.323, 0l-1.228, 0l-0, -2.47l1.228, 0l-0, 2.47Z" style="fill: rgb(255, 140, 0);"/>
</svg>
