<svg viewBox="0 0 24 24" xmlns="http://www.w3.org/2000/svg">
  <rect x="5.764" y="12.098" width="1.999" height="10.899" style="fill: rgb(180, 80, 0);"/>
  <path d="M12.374, 9.325c0, -0.747 -0.336, -1.409 -0.858, -1.864c0.042, -0.179 0.068, -0.364 0.068, -0.556c0, -1.351 -1.082, -2.446 -2.426, -2.477c-0.279, -1.067 -1.241, -1.859 -2.395, -1.859c-1.154, 0 -2.116, 0.792 -2.394, 1.859c-1.345, 0.031 -2.427, 1.126 -2.427, 2.477c0, 0.192 0.027, 0.377 0.068, 0.557c-0.521, 0.455 -0.858, 1.116 -0.858, 1.863c0, 1.001 0.596, 1.859 1.45, 2.252c-0.047, 0.191 -0.079, 0.387 -0.079, 0.592c0, 1.37 1.113, 2.483 2.484, 2.483c0.686, 0 1.307, -0.279 1.757, -0.728c0.449, 0.449 1.07, 0.728 1.756, 0.728c1.372, 0 2.482, -1.113 2.482, -2.483c0, -0.204 -0.032, -0.401 -0.079, -0.591c0.855, -0.392 1.451, -1.251 1.451, -2.253" style="fill: rgb(0, 190, 60);"/>
  <path d="M12.837, 8.302l0.875, -1.346l3.829, 0l4.301, 6.05l0, 8.426l-12.373, -0l0, -7.952l1.193, -1.834l0, -5.267l2.175, -0l0, 1.923Zm7.704, 12.219l0, -6.215l-2.529, 0l0, 6.215l2.529, 0Zm-3.828, -0.285l0, -6.483l-2.998, -4.608l-3.049, 4.689l0, 6.402l0.762, 0l0, -6.043l4.299, -0l0, 6.043l0.986, 0Zm-2.286, 0l0, -4.744l-1.7, 0l0, 1.471c0.11, -0.063 0.231, -0.108 0.367, -0.108c0.421, 0 0.76, 0.34 0.76, 0.76c0, 0.418 -0.339, 0.76 -0.76, 0.76c-0.136, -0 -0.257, -0.046 -0.367, -0.108l0, 1.969l1.7, -0Zm5.644, -2.586l-1.572, -0l0, -2.594l1.572, -0l0, 2.594Z" style="fill: rgb(255, 0, 0);"/>
  <path d="M21.303, 19.732c-0.479, 0 -0.909, 0.199 -1.219, 0.518c-0.308, -0.319 -0.739, -0.518 -1.218, -0.518c-0.478, 0 -0.909, 0.199 -1.217, 0.519c-0.31, -0.32 -0.741, -0.519 -1.219, -0.519c-0.938, 0 -1.697, 0.76 -1.697, 1.697l-5.465, 0c-0, -0.937 -0.76, -1.697 -1.697, -1.697c-0.479, 0 -0.91, 0.199 -1.219, 0.519c-0.308, -0.32 -0.739, -0.519 -1.217, -0.519c-0.479, 0 -0.91, 0.199 -1.219, 0.519c-0.308, -0.32 -0.739, -0.519 -1.217, -0.519c-0.938, 0 -1.699, 0.76 -1.699, 1.697l-0, 1.569l22, 0l-0, -1.569c-0, -0.937 -0.759, -1.697 -1.697, -1.697" style="fill: rgb(0, 190, 60);"/>
</svg>
