<svg viewBox="0 0 24 24" xmlns="http://www.w3.org/2000/svg">
  <path d="M23, 22.999l-22, 0l0, -1.309l22, 0l0, 1.309Zm-15.481, -16.388c1.095, -0.004 1.985, 0.337 2.563, 0.956c0.579, 0.618 0.804, 1.437 0.804, 2.255l0, 0.931c0, 0.82 -0.225, 1.636 -0.804, 2.257c-0.041, 0.044 -0.084, 0.086 -0.129, 0.128c0.221, 0.131 0.419, 0.289 0.588, 0.472c0.58, 0.615 0.807, 1.434 0.807, 2.257l0, 0.929c0, 0.817 -0.227, 1.636 -0.807, 2.256c-0.574, 0.615 -1.456, 0.955 -2.541, 0.955l-5.693, 0l0, -13.396l5.212, 0Zm6.445, 5.137l5.773, -5.135l1.956, -0l-7.53, 6.697l7.53, 6.697l-1.956, -0l-5.773, -5.135l0, 5.133l-1.31, -0l0, -13.392l1.31, -0l0, 5.135Zm-5.984, 6.948c1.653, -0.072 1.976, -0.725 2.057, -1.9l0, -0.929c-0.081, -1.179 -0.404, -1.833 -2.057, -1.902l-4.367, 0l0, 4.731l4.367, 0Zm-0.461, -6.04c1.655, -0.071 1.978, -0.727 2.059, -1.903l0, -0.931c-0.081, -1.174 -0.404, -1.83 -2.059, -1.899l-3.906, 0l0, 4.733l3.906, 0Zm15.481, -7.729l-22, 0l0, -1.31l5.924, -2.618l10.183, 0l5.893, 2.618l0, 1.31Z" style="fill: rgb(255, 0, 255);"/>
</svg>
