<svg viewBox="0 0 24 24" xmlns="http://www.w3.org/2000/svg">
  <path d="M21.697, 19.208l-4.11, 2.081l0, -11.672l4.11, -2.082l0, 11.673Zm-4.916, -10.641l-1.275, -0l2.843, -1.441l1.279, -0l-2.847, 1.441Zm-0.495, 13.131l-4.086, -0l0, -5.534l-5.817, -0l0, 5.534l-4.084, -0l0, -11.83l4.156, -0l0, -4.826l5.677, -0l0, 4.826l4.154, -0l0, 11.83Zm-8.602, -0.135l0, -4.1l3.215, 0l0.002, 4.1l-3.217, -0Zm3.688, -19.263l4.097, 0l-2.843, 1.44l-4.096, -0l2.842, -1.44Zm6.173, 3.778l-4.112, 2.082l0, -3.369l4.11, -2.082l0.002, 3.369Zm1.299, -0.25l0, -4.828l-7.785, -0l-5.904, 2.993l0, 2.721l-4.155, 2.106l0, 14.177l16.093, 0l5.905, -2.992l0, -14.177l-4.154, -0Z" style="fill: rgb(0, 190, 60);"/>
  <path d="M4.999, 16.164l0, 1.351l-1.35, 0l0, -1.351l1.35, 0Zm9.938, 1.351l-1.35, 0l-0, -1.351l1.35, 0l-0, 1.351Zm-6.626, -5.4l0, 1.349l-1.35, 0l0, -1.349l1.35, 0Zm-3.312, 0l0, 1.349l-1.35, 0l0, -1.349l1.35, 0Zm6.626, 0l0, 1.349l-1.353, 0l0, -1.349l1.353, 0Zm3.312, 1.349l-1.35, -0l-0, -1.349l1.35, -0l-0, 1.349Zm-5.723, -7.368l0, 1.437l1.438, 0l0, 1.281l-2.717, 0l0, -2.718l1.279, 0Z" style="fill: rgb(0, 190, 60);"/>
</svg>
