<svg viewBox="0 0 24 24" xmlns="http://www.w3.org/2000/svg">
  <path d="M12.63, 1l-0, 1.494l1.493, 0l-0, 1.263l-1.493, 0l-0, 1.201l2.783, 2.382l-0, 4.606l6.578, 5.26l-0, 5.794l-19.981, 0l-0, -5.792l6.576, -5.262l-0, -4.606l2.781, -2.38l-0, -1.203l-1.492, 0l-0, -1.263l1.492, 0l-0, -1.494l1.263, 0Zm8.097, 20.736l-0, -3.923l-6.578, -5.261l-0, -4.63l-2.15, -1.843l-2.15, 1.842l-0, 4.631l-6.578, 5.261l-0, 3.923l6.672, 0l-0, -3.787c-0, -1.136 0.921, -2.056 2.056, -2.056c1.136, 0 2.057, 0.92 2.057, 2.056l-0, 3.787l6.671, 0Zm-8.096, -8.74l0, 1.262l-1.264, 0l0, -1.262l1.264, 0Z" style="fill: rgb(255, 0, 255);"/>
</svg>
