<svg viewBox="0 0 24 24" xmlns="http://www.w3.org/2000/svg">
  <path d="M21.772, 21.77l-5.623, 0l0, -3.014l-3.677, -0.706l0, -7.801l3.414, 1.901l5.886, 3.278l0, 6.342Zm-19.544, -6.342l4.924, -2.742l0, 5.54l3.136, -0.762l0, -6.524l1.241, -0.691l0, 7.801l-3.675, 0.706l0, 3.014l-5.626, 0l0, -6.342Zm5.866, -3.267l0.95, -0.528l0.302, -0.169l0, 5.258l-1.252, 0.305l0, -4.865Zm-3.415, -3.834c0.204, -0.96 0.261, -2.133 0.277, -2.824l1.145, 0.245c-0.012, 0.625 -0.059, 1.903 -0.261, 2.829c-0.186, 0.87 -0.49, 1.673 -0.671, 2.11l-1.144, -0.245c0.194, -0.492 0.473, -1.265 0.654, -2.115m1.053, -6.243c0.646, 0.002 1.169, 0.524 1.17, 1.171c-0.001, 0.643 -0.526, 1.167 -1.17, 1.169c-0.646, -0.002 -1.167, -0.526 -1.169, -1.169c0.002, -0.647 0.523, -1.169 1.169, -1.171m10.327, 8.757l0, -3.14l-4.06, -2.502l-4.056, 2.502l-0, 3.139l-3.545, 1.973c0.22, -0.511 0.375, -0.933 0.473, -1.224l0.847, 0.183l0.161, -0.341c0.007, -0.018 0.578, -1.232 0.886, -2.658c0.273, -1.287 0.282, -2.963 0.284, -3.336l-0, -0.049l0.016, -0.398l-0.105, -0.024c0.536, -0.383 0.887, -1.005 0.887, -1.712c-0, -1.169 -0.947, -2.114 -2.114, -2.114c-1.168, 0 -2.114, 0.945 -2.114, 2.114c0, 0.468 0.159, 0.896 0.416, 1.248l-0.014, 0.403c-0, 0.005 -0.003, 0.034 -0, 0.09c-0, 0.354 -0.018, 2.005 -0.263, 3.133c-0.279, 1.301 -0.823, 2.452 -0.821, 2.455l-0.251, 0.534l0.579, 0.129l0.676, 0.144c-0.163, 0.484 -0.48, 1.297 -0.98, 2.224l-1.96, 1.092l-0, 8.292l22, 0l-0, -8.293l-6.942, -3.864Z" style="fill: rgb(255, 140, 0);"/>
  <path d="M3.722, 20.072l0, 0.794l-0.608, 0l0, -0.794l0.608, 0Zm17.168, 0.051l-0.608, -0.051l-0, 0.794l0.608, 0l-0, -0.743Zm-15.682, 0.666l0.916, 0l0, -0.983l-0.916, 0.076l0, 0.907Zm12.671, 0l0.917, 0l-0, -0.907l-0.917, -0.076l-0, 0.983Zm-14.765, -2.026l0.608, -0.143l0, -0.795l-0.608, 0.195l0, 0.743Zm17.775, -0.743l-0.607, -0.195l-0, 0.796l0.607, 0.142l-0, -0.743Zm-15.681, 0.206l0.917, -0.216l-0, -0.982l-0.917, 0.291l-0, 0.907Zm13.588, -0.908l-0.918, -0.291l-0, 0.982l0.918, 0.216l-0, -0.907Zm-4.185, -0.008l1.191, 0.278l0, -1.162l-1.191, -0.407l0, 1.291Zm-11.497, -0.652l0.608, -0.286l0, -0.794l-0.608, 0.337l0, 0.743Zm17.775, -0.743l-0.607, -0.337l-0, 0.794l0.607, 0.286l-0, -0.743Zm-15.681, -0.252l0.917, -0.434l-0, -0.983l-0.917, 0.509l-0, 0.908Zm13.588, -0.908l-0.918, -0.509l-0, 0.984l0.918, 0.433l-0, -0.908Zm-4.185, -1.092l1.191, 0.645l0, -1.163l-1.191, -0.77l0, 1.288Z" style="fill: rgb(255, 140, 0);"/>
</svg>
