<svg viewBox="0 0 24 24" xmlns="http://www.w3.org/2000/svg">
  <path d="M10.86, 12.686c-0.031, 0.136 -0.043, 0.278 -0.053, 0.421l-2.004, 0.27l-0.871, -2.95l2.928, 2.259Zm-1.526, 2.485l-0.244, -0.822l-0.111, -0.379l1.695, 0.227l-0.123, 0.986l0.461, 0.33l-0.217, 0.703l-1.461, -1.045Zm7.141, -2.064c-0.011, -0.143 -0.023, -0.284 -0.052, -0.421l3.241, -2.501l-3.676, 1.508c-0.107, -0.153 -0.228, -0.296 -0.361, -0.425l1.492, -3.631l-2.357, 3.052c-0.193, -0.083 -0.398, -0.141 -0.611, -0.179l-0.511, -3.803l-0.509, 3.803c-0.212, 0.038 -0.417, 0.095 -0.611, 0.178l-2.356, -3.051l1.492, 3.63c-0.134, 0.13 -0.255, 0.272 -0.362, 0.425l-3.401, -1.394l-1.279, -4.335c0.535, -0.244 0.887, -0.653 0.887, -1.119c0, -0.14 -0.041, -0.273 -0.102, -0.401c0.061, -0.128 0.102, -0.261 0.102, -0.402c0, -0.477 -0.371, -0.895 -0.931, -1.138c0.214, -0.781 -0.369, -1.479 -1.382, -1.904c0.246, 0.823 -1.344, 0.852 -0.971, 1.962c-0.492, 0.249 -0.814, 0.638 -0.814, 1.08c0, 0.141 0.041, 0.274 0.102, 0.402c-0.061, 0.128 -0.102, 0.261 -0.102, 0.401c0, 0.618 0.623, 1.132 1.471, 1.299l0.706, 7.883l-1.269, 2.363l1.419, 4.802l0, 1.808l14.854, 0c0, -0.952 -0.424, -1.799 -1.083, -2.389l0.016, -0.003l-2.419, -2.416l-0.83, -2.678l0.463, -0.329l-0.124, -0.986l3.989, -0.534l-4.121, -0.556Z" style="fill: rgb(0, 0, 255);"/>
</svg>
