<svg viewBox="0 0 24 24" xmlns="http://www.w3.org/2000/svg">
  <path d="M8.579, 18.203c-0.226, 0.223 -0.531, 0.342 -0.91, 0.344c-0.503, 0.002 -1.103, -0.236 -1.58, -0.713c-0.482, -0.48 -0.717, -1.079 -0.714, -1.578c0.002, -0.38 0.121, -0.688 0.347, -0.912c0.228, -0.23 0.536, -0.35 0.914, -0.35l0.006, 0c0.498, 0 1.093, 0.232 1.572, 0.714l0.003, 0c0.478, 0.48 0.712, 1.078 0.71, 1.579c-0.002, 0.376 -0.12, 0.685 -0.348, 0.916m0.497, -3.354l-0.002, -0.002c-0.696, -0.695 -1.577, -1.069 -2.438, -1.07c-0.646, -0.002 -1.294, 0.223 -1.775, 0.704c-0.48, 0.478 -0.706, 1.128 -0.704, 1.775c0.004, 0.862 0.379, 1.743 1.071, 2.437c0.694, 0.692 1.576, 1.069 2.441, 1.071l0.009, 0c0.641, 0 1.286, -0.224 1.763, -0.704c0.48, -0.482 0.704, -1.128 0.702, -1.773c-0.001, -0.861 -0.374, -1.744 -1.067, -2.438Z" style="fill: rgb(0, 0, 255);"/>
  <path d="M18.895, 11.851l-1.867, 1.866l-1.643, -0.601l1.931, -1.931c0.482, -0.48 0.706, -1.129 0.703, -1.775c-0.002, -0.864 -0.378, -1.746 -1.069, -2.439c-0.692, -0.691 -1.576, -1.067 -2.438, -1.069c-0.646, -0.002 -1.298, 0.22 -1.775, 0.708l-1.893, 1.891l-0.561, -1.529l2.978, -2.978l4.938, 1.806l1.809, 4.941l-1.113, 1.11Zm-6.04, -0.708l-2.147, -0.785l2.891, -2.891c0.225, -0.228 0.531, -0.346 0.913, -0.348c0.499, -0.002 1.099, 0.231 1.576, 0.713c0.479, 0.476 0.716, 1.079 0.714, 1.578c-0.002, 0.38 -0.12, 0.686 -0.347, 0.914l-2.854, 2.855l-0.745, -2.036Zm-1.836, 8.581l-1.867, 1.869l-4.935, -1.81l-1.809, -4.936l2.977, -2.978l4.939, 1.808l1.807, 4.936l-1.111, 1.111Zm9.706, -16.456l-6.193, -2.268l-5.659, 5.662l1.021, 2.787l-0.447, 0.447l-2.791, -1.021l-5.659, 5.66l2.27, 6.196l6.194, 2.269l5.662, -5.66l-1.062, -2.901l0.375, -0.375l2.899, 1.063l5.663, -5.661l-2.273, -6.198Z" style="fill: rgb(0, 0, 255);"/>
</svg>
