<svg viewBox="0 0 24 24" xmlns="http://www.w3.org/2000/svg">
  <path d="M21.772, 7.638l-3.946, 0l0, 2.655l-11.657, 0l0, -2.655l-3.943, 0l0, -4.556l5.624, 0c0.81, 1.455 2.36, 2.447 4.149, 2.447c1.789, 0 3.337, -0.992 4.148, -2.447l5.625, 0l0, 4.556Zm-15.603, 6.137l11.656, 0l0, 7.143l-11.656, 0l0, -7.143Zm9.205, -11.921l-0.164, 0.362c-0.555, 1.228 -1.781, 2.088 -3.211, 2.086c-1.43, 0.002 -2.66, -0.858 -3.213, -2.086l-0.163, -0.362l-7.623, 0l0, 7.012l3.942, 0l0, 13.28l14.11, 0l0, -13.28l3.948, 0l0, -7.012l-7.626, 0Z" style="fill: rgb(0, 0, 255);"/>
</svg>
