<svg viewBox="0 0 24 24" xmlns="http://www.w3.org/2000/svg">
  <path d="M18.398, 19.726c-0.967, -0.987 -1.586, -2.022 -1.939, -2.733c1.008, 1.128 2.03, 1.837 2.925, 2.289c-0.28, 0.175 -0.609, 0.327 -0.986, 0.444m-12.128, -4.354c-2.565, -2.556 -4.016, -6.068 -4.007, -8.709c0.034, -2.129 0.812, -3.511 2.564, -3.898c0.319, -0.07 0.618, -0.101 0.904, -0.101c1.76, -0.018 3.068, 1.272 4.296, 3.105c-0.542, 0.284 -1.049, 0.654 -1.504, 1.109l-1.336, 1.333l0.071, 0.334c0.018, 0.071 0.585, 2.756 3.093, 5.269c2.099, 2.096 4.316, 2.833 5.026, 3.028c0.154, 1.293 0.493, 2.34 0.887, 3.169c-2.899, -0.015 -6.785, -1.428 -9.994, -4.639m10.121, -7.601c0.963, 0.964 1.444, 2.223 1.445, 3.489c-0.001, 1.239 -0.468, 2.47 -1.394, 3.427c-0.92, -0.32 -2.625, -1.078 -4.255, -2.71c-1.63, -1.63 -2.389, -3.335 -2.71, -4.255c0.955, -0.929 2.186, -1.396 3.427, -1.397c1.265, 0.001 2.522, 0.48 3.487, 1.446m4.036, 9.822c-1.824, -0.372 -3.154, -1.164 -3.624, -1.472l0.483, -0.482c0.231, -0.231 0.434, -0.48 0.621, -0.738c1.421, 1.028 2.441, 1.989 2.52, 2.692m1.696, 2.468l0.877, -2.296c-0.447, 0.032 -0.879, 0.03 -1.294, 0.002c0, -0.004 0.001, -0.008 0.001, -0.012c-0.08, -1.712 -1.58, -2.778 -3.166, -3.941c0.367, -0.811 0.556, -1.683 0.556, -2.554c0, -1.586 -0.606, -3.175 -1.811, -4.382c-1.209, -1.211 -2.801, -1.816 -4.382, -1.816c-0.565, -0 -1.131, 0.08 -1.68, 0.235c-1.32, -2.029 -2.941, -3.879 -5.493, -3.895c-0.375, -0 -0.767, 0.04 -1.17, 0.129c-2.449, 0.505 -3.595, 2.706 -3.561, 5.132c0.01, 3.075 1.587, 6.8 4.377, 9.599c3.473, 3.468 7.662, 5.012 10.958, 5.016c0.222, -0 0.439, -0.013 0.654, -0.027c0.662, 0.93 1.265, 1.348 1.265, 1.348l2.036, -1.375c-0.293, -0.175 -0.562, -0.364 -0.82, -0.559c0.48, -0.22 0.903, -0.501 1.259, -0.848c0.843, 0.246 1.394, 0.244 1.394, 0.244" style="fill: rgb(255, 140, 0);"/>
</svg>
