<svg viewBox="0 0 24 24" xmlns="http://www.w3.org/2000/svg">
  <path d="M4.142, 15.763l-0.66, -0.273c-0.033, -1.129 -0.138, -4.211 -0.366, -5.62c-0.102, -0.619 -0.246, -1.627 -0.387, -2.633c0.063, 0.074 0.126, 0.148 0.189, 0.222c0.787, 0.882 1.631, 1.735 2.02, 2.231l-0.368, 5.961l-0.428, 0.112Zm-0.311, -13.463l0.02, -0c0.916, 0.006 2.251, 0.484 3.428, 2.378c1.837, 2.978 2.866, 6.555 3.549, 7.646c0.194, 0.295 0.456, 0.668 0.75, 1.053c-0.036, 0.017 -0.068, 0.04 -0.103, 0.057c-0.179, 0.087 -0.353, 0.183 -0.524, 0.288c-0.088, 0.054 -0.176, 0.106 -0.261, 0.165c-0.218, 0.152 -0.429, 0.315 -0.622, 0.502c-0.002, 0.002 -0.005, 0.004 -0.008, 0.006c-0.015, 0.015 -0.026, 0.031 -0.042, 0.047c-0.146, 0.148 -0.281, 0.299 -0.405, 0.448c-0.046, 0.055 -0.084, 0.107 -0.127, 0.161c-0.087, 0.111 -0.172, 0.221 -0.248, 0.327c-0.012, 0.018 -0.027, 0.035 -0.039, 0.052c-0.036, -0.231 -0.085, -0.449 -0.128, -0.673c-0.037, -0.19 -0.068, -0.386 -0.11, -0.571c-0.054, -0.241 -0.118, -0.469 -0.179, -0.7c-0.047, -0.175 -0.088, -0.356 -0.138, -0.524c-0.067, -0.229 -0.14, -0.44 -0.211, -0.657c-0.052, -0.154 -0.1, -0.316 -0.153, -0.465c-0.075, -0.212 -0.153, -0.405 -0.231, -0.603c-0.052, -0.134 -0.103, -0.277 -0.155, -0.403c-0.076, -0.185 -0.15, -0.346 -0.225, -0.515c-0.054, -0.12 -0.108, -0.251 -0.16, -0.364c-0.059, -0.128 -0.113, -0.232 -0.17, -0.349c-0.064, -0.13 -0.13, -0.271 -0.189, -0.386c-0.006, -0.013 -0.01, -0.02 -0.017, -0.032c-0.213, -0.414 -0.395, -0.736 -0.512, -0.934c-0.446, -0.731 -1.428, -1.643 -2.332, -2.674c-0.912, -0.994 -1.636, -2.127 -1.591, -2.604c-0, -0.097 0.017, -0.158 0.041, -0.21c0.009, -0.02 0.008, -0.04 0.016, -0.06c0.034, -0.05 0.083, -0.103 0.168, -0.172c0.138, -0.105 0.475, -0.234 0.908, -0.234m14.059, 12.464c0.675, 0.346 1.075, 0.853 1.27, 1.32c-0.164, -0.012 -0.337, -0.019 -0.521, -0.028c-0.009, -0 -0.019, 0.002 -0.028, 0.002c-0.21, 0.003 -0.437, 0.018 -0.672, 0.04c-0.034, 0.004 -0.066, 0.006 -0.1, 0.01c-0.238, 0.026 -0.487, 0.065 -0.741, 0.115l-0.123, 0.023c-0.256, 0.054 -0.517, 0.121 -0.778, 0.201l-0.123, 0.038c-0.266, 0.085 -0.531, 0.183 -0.792, 0.297c-0.037, 0.016 -0.073, 0.033 -0.109, 0.048c-0.266, 0.121 -0.528, 0.257 -0.781, 0.412c-0.026, 0.015 -0.051, 0.033 -0.077, 0.049c-0.26, 0.163 -0.511, 0.344 -0.745, 0.546c-0.011, 0.01 -0.021, 0.021 -0.032, 0.03c-0.483, 0.424 -0.897, 0.937 -1.204, 1.55c-0.006, 0.013 -0.016, 0.024 -0.023, 0.037c-0.005, -0.002 -0.01, -0.003 -0.015, -0.004c-0.258, -0.098 -0.513, -0.201 -0.755, -0.332c-0.766, -0.427 -1.423, -1.004 -1.858, -1.932c0.051, -0.111 0.122, -0.257 0.221, -0.434c0.23, -0.41 0.586, -0.949 1.076, -1.438c0.009, -0.01 0.022, -0.018 0.032, -0.028c0.302, -0.295 0.72, -0.55 1.178, -0.755c0.88, -0.386 1.898, -0.585 2.483, -0.574c0.994, 0.004 1.922, 0.147 3.217, 0.807m3.817, 5.136c-0, 0.145 -0.027, 0.301 -0.085, 0.471c-0.012, 0.018 -0.052, 0.048 -0.139, 0.087c-0.011, 0.005 -0.019, 0.009 -0.031, 0.014c-0.048, 0.02 -0.106, 0.04 -0.181, 0.061c-0.305, 0.087 -0.786, 0.141 -1.371, 0.139c-1.238, 0.002 -2.945, -0.219 -4.755, -0.546c-0.239, -0.042 -0.499, -0.086 -0.765, -0.134c-0.123, -0.022 -0.254, -0.051 -0.382, -0.077c-0.142, -0.027 -0.285, -0.056 -0.429, -0.089c0.006, -0.012 0.011, -0.025 0.019, -0.038c0.104, -0.178 0.227, -0.347 0.365, -0.506c0.027, -0.034 0.056, -0.065 0.085, -0.097c0.144, -0.154 0.298, -0.3 0.467, -0.434c0.032, -0.025 0.065, -0.048 0.096, -0.072c0.179, -0.135 0.365, -0.263 0.562, -0.377c0.015, -0.009 0.032, -0.016 0.046, -0.024c0.199, -0.112 0.404, -0.212 0.613, -0.304c0.025, -0.011 0.049, -0.023 0.075, -0.034c0.215, -0.09 0.433, -0.169 0.651, -0.239c0.031, -0.009 0.06, -0.019 0.089, -0.028c0.222, -0.067 0.442, -0.124 0.657, -0.17c0.02, -0.004 0.038, -0.007 0.058, -0.011c0.462, -0.093 0.901, -0.139 1.278, -0.134c0.281, -0.002 0.518, 0.026 0.67, 0.062c1.483, 0.747 2.458, 1.702 2.407, 2.48m1.301, -0c-0.042, -1.468 -1.125, -2.463 -2.409, -3.235c-0.039, -1.078 -0.709, -2.328 -2.114, -3.055c-1.457, -0.756 -2.678, -0.955 -3.812, -0.951c-0.497, 0.007 -1.134, 0.088 -1.801, 0.261c-0.375, -0.468 -0.729, -0.961 -0.958, -1.31c-0.446, -0.632 -1.621, -4.508 -3.528, -7.615c-1.352, -2.208 -3.14, -3.002 -4.535, -2.995c-0.672, 0.004 -1.253, 0.168 -1.691, 0.483c-0.265, 0.182 -0.466, 0.431 -0.599, 0.705c-0.005, 0.011 -0.015, 0.018 -0.02, 0.029c-0.006, 0.057 -0.483, 1.029 -0.545, 1.693c-0, 0.011 -0.002, 0.041 -0.002, 0.083c0.002, 0.066 0.017, 0.13 0.024, 0.195l-0.013, 0.005c0.002, 0.004 0.555, 4.234 0.829, 5.889c0.253, 1.524 0.36, 5.858 0.362, 5.863l0.008, 0.422l1.847, 0.766l1.759, -0.467l0.294, -4.77c0.555, 1.256 1.163, 2.953 1.44, 4.871c0.292, 2.345 1.568, 3.767 2.993, 4.52c1.42, 0.762 2.97, 0.959 3.991, 1.147c1.852, 0.332 3.59, 0.562 4.957, 0.562c1.265, -0.041 2.342, -0.081 2.893, -1.099l0.441, -1.014c0.002, -0.004 0.005, -0.006 0.007, -0.01c0.127, -0.351 0.182, -0.666 0.182, -0.973" style="fill: rgb(255, 0, 255);"/>
</svg>
