<svg viewBox="0 0 24 24" xmlns="http://www.w3.org/2000/svg">
  <path d="M22.434, 14.367c-0, -1.269 -0.085, -1.848 -1.26, -1.848l-0, 0.66c-0, 0.542 -0.218, 1.288 -1.255, 1.763c-0.151, 0.07 -0.895, 0.288 -1.936, 0.579c0.383, 0.14 0.658, 0.499 0.658, 0.931l-0, 2.092c-0, 1.206 -0.981, 2.187 -2.187, 2.187c-1.207, 0 -2.188, -0.981 -2.188, -2.187l-0, -2.008c-0.676, 0.182 -1.354, 0.364 -2.008, 0.538l-0.258, 0.069l-0.257, -0.069c-0.655, -0.175 -1.335, -0.357 -2.011, -0.539l-0, 2.009c-0, 1.206 -0.982, 2.187 -2.188, 2.187c-1.206, 0 -2.187, -0.981 -2.187, -2.187l-0, -2.092c-0, -0.432 0.277, -0.791 0.66, -0.932c-1.041, -0.291 -1.785, -0.509 -1.937, -0.579c-1.036, -0.475 -1.253, -1.22 -1.253, -1.762l-0, -0.66c-1.152, 0 -1.259, 0.579 -1.259, 1.848c-0, 0.4 -0.566, 6.885 -0.566, 6.885c0.002, 0.966 0.785, 1.748 1.75, 1.748l18.498, 0c0.967, 0 1.75, -0.783 1.75, -1.75l-0.566, -6.883Zm-13.703, 2.085l0, 2.092c0, 0.656 -0.532, 1.187 -1.188, 1.187c-0.655, 0 -1.187, -0.531 -1.187, -1.187l0, -2.092l0.538, 0l0, -10.348c0, -2.82 2.285, -5.103 5.105, -5.105c2.818, 0.002 5.105, 2.285 5.105, 5.105l-0.002, 10.348l0.538, 0l0, 2.092c0, 0.656 -0.531, 1.187 -1.187, 1.187c-0.657, 0 -1.188, -0.531 -1.188, -1.187l0, -2.092l0.537, 0l0.002, -10.348c-0.004, -2.1 -1.705, -3.801 -3.805, -3.803c-2.102, 0.002 -3.803, 1.703 -3.805, 3.803l0, 10.348l0.537, 0Zm3.269, -6.46c-0.983, -0 -2.001, 0.038 -2.956, 0.099l-0, 5.223c1.577, 0.427 2.956, 0.795 2.956, 0.795c-0, -0 1.377, -0.367 2.952, -0.794l0.001, -5.224c-0.954, -0.061 -1.971, -0.099 -2.953, -0.099Zm-0, 5.104c-0.543, -0 -0.983, -0.439 -0.983, -0.982c-0, -0.543 0.44, -0.983 0.983, -0.983c0.543, -0 0.983, 0.44 0.983, 0.983c-0, 0.543 -0.44, 0.982 -0.983, 0.982Zm7.503, -1.063c0.381, -0.175 0.671, -0.408 0.671, -0.854l-0, -1.166c-0, -0.515 -0.182, -1.066 -0.906, -1.357c-0.218, -0.087 -0.686, -0.183 -1.314, -0.272l-0.001, 4.107c0.83, -0.231 1.446, -0.41 1.55, -0.458Zm-14.771, -3.377c-0.725, 0.291 -0.906, 0.842 -0.906, 1.357l0, 1.166c0, 0.446 0.29, 0.679 0.671, 0.854c0.104, 0.048 0.718, 0.226 1.546, 0.457l0, -4.106c-0.626, 0.09 -1.093, 0.185 -1.311, 0.272Z" style="fill: rgb(255, 0, 0);"/>
</svg>
