<svg viewBox="0 0 24 24" xmlns="http://www.w3.org/2000/svg">
  <path d="M21.547, 8.484c-0.098, 0.372 -0.224, 0.666 -0.375, 0.883c-0.285, 0.372 -0.905, 1.199 -1.864, 2.484c-0.96, 1.287 -1.657, 2.367 -2.092, 3.238c-0.284, 0.502 -0.481, 1.047 -0.589, 1.635c-0.109, 0.59 -0.208, 1.307 -0.295, 2.158c-0.021, 0.043 -0.065, 0.397 -0.13, 1.063c-0.066, 0.666 -0.131, 1.031 -0.197, 1.096c-0.087, 0.086 -0.158, 0.156 -0.212, 0.211c-0.055, 0.054 -0.115, 0.103 -0.181, 0.148c0.045, -1.373 -1.536, -3.656 -4.74, -6.85c-3.204, -3.193 -5.505, -4.79 -6.899, -4.79c-0.197, 0 -0.338, 0.044 -0.425, 0.13c-0.088, 0.088 -0.131, 0.229 -0.131, 0.426c-0, 0.197 0.049, 0.436 0.147, 0.719c0.098, 0.283 0.234, 0.59 0.409, 0.916c-0.437, -0.633 -0.828, -1.254 -1.177, -1.863c-0.35, -0.61 -0.523, -1.068 -0.523, -1.374c-0, -0.043 0.011, -0.087 0.032, -0.131c0.175, -0.217 0.333, -0.404 0.474, -0.556c0.142, -0.152 0.289, -0.294 0.442, -0.425c-0, -0.02 0.005, -0.032 0.015, -0.032l0.082, 0c0.197, -0.088 0.513, -0.137 0.95, -0.149c0.435, -0.009 0.718, -0.015 0.849, -0.015c0.763, -0.043 1.433, -0.114 2.011, -0.213c0.577, -0.098 1.128, -0.266 1.651, -0.506c0.807, -0.414 1.619, -0.899 2.436, -1.455c0.817, -0.556 1.815, -1.248 2.992, -2.076c0.327, -0.24 0.725, -0.425 1.194, -0.556c0.468, -0.132 0.91, -0.197 1.324, -0.197c1.22, 0 2.354, 0.523 3.4, 1.57c1.047, 1.047 1.568, 2.201 1.568, 3.465c-0, 0.327 -0.048, 0.677 -0.146, 1.046m-10.55, 11.585c-0.87, 0 -1.575, -0.705 -1.575, -1.575c-0, -0.869 0.705, -1.574 1.575, -1.574c0.869, 0 1.574, 0.705 1.574, 1.574c-0, 0.87 -0.705, 1.575 -1.574, 1.575m10.696, -16.194c0.35, 0 0.655, -0.137 0.917, -0.409c0.261, -0.273 0.393, -0.572 0.393, -0.898c-0, -0.372 -0.132, -0.682 -0.393, -0.933c-0.262, -0.251 -0.567, -0.377 -0.917, -0.377c-0.347, 0 -0.648, 0.122 -0.898, 0.36c-0.25, 0.241 -0.388, 0.535 -0.409, 0.883c-0.544, -0.457 -1.127, -0.806 -1.748, -1.045c-0.621, -0.241 -1.258, -0.36 -1.913, -0.36c-0.589, 0 -1.178, 0.087 -1.765, 0.262c-0.589, 0.174 -1.102, 0.425 -1.538, 0.751c-1.134, 0.785 -2.099, 1.445 -2.894, 1.978c-0.795, 0.535 -1.585, 1.01 -2.371, 1.422c-0.567, 0.284 -1.601, 0.464 -3.105, 0.539c-1.504, 0.078 -2.419, 0.28 -2.747, 0.607c-0.218, 0.195 -0.398, 0.37 -0.539, 0.522c-0.143, 0.153 -0.279, 0.317 -0.408, 0.491c-0.132, 0.13 -0.224, 0.267 -0.279, 0.408c-0.053, 0.142 -0.081, 0.311 -0.081, 0.507c-0, 1.854 1.912, 4.704 5.737, 8.549c0.478, 0.481 0.941, 0.931 1.388, 1.352c-0, 0.003 -0.001, 0.006 -0.001, 0.01c-0, 1.585 1.29, 2.875 2.875, 2.875c0.188, 0 0.371, -0.021 0.55, -0.056c1.519, 1.052 2.78, 1.591 3.771, 1.591c0.24, 0 0.517, -0.098 0.834, -0.295c0.317, -0.197 0.583, -0.402 0.802, -0.621c0.262, -0.328 0.43, -0.861 0.507, -1.602c0.075, -0.74 0.136, -1.199 0.179, -1.373c0.066, -0.699 0.147, -1.324 0.245, -1.881c0.098, -0.554 0.256, -1.017 0.474, -1.388c0.349, -0.699 0.751, -1.367 1.209, -2.01c0.458, -0.645 1.037, -1.436 1.734, -2.373c0.088, -0.15 0.233, -0.359 0.441, -0.619c0.208, -0.264 0.366, -0.459 0.474, -0.59c0.219, -0.37 0.397, -0.801 0.541, -1.291c0.141, -0.49 0.212, -0.965 0.212, -1.423c-0, -0.632 -0.114, -1.253 -0.343, -1.862c-0.229, -0.612 -0.54, -1.178 -0.934, -1.701" style="fill: rgb(255, 140, 0);"/>
</svg>
