<svg viewBox="0 0 24 24" xmlns="http://www.w3.org/2000/svg">
  <path d="M18.338, 20.111c-1.59, 1.043 -3.84, 1.713 -6.339, 1.711c-2.496, 0.002 -4.749, -0.668 -6.339, -1.711c-1.595, -1.05 -2.493, -2.424 -2.491, -3.869c-0.005, -1.317 0.754, -2.578 2.095, -3.582c0.594, 2.349 3.47, 3.875 6.736, 3.884c3.265, -0.009 6.144, -1.535 6.736, -3.886c1.341, 1.006 2.099, 2.266 2.096, 3.584c0.002, 1.445 -0.896, 2.819 -2.494, 3.869m-10.376, -10.704c0.517, 1.434 2.076, 2.302 3.686, 2.305c0.134, 0 0.272, -0.006 0.411, -0.018l0.003, -0.001c1.835, -0.146 3.032, -1.167 3.634, -2.49c1.273, 0.685 1.991, 1.67 1.982, 2.65c0.001, 0.874 -0.545, 1.733 -1.57, 2.407c-1.018, 0.669 -2.483, 1.108 -4.108, 1.106c-1.626, 0.002 -3.09, -0.437 -4.108, -1.106c-1.025, -0.674 -1.57, -1.533 -1.568, -2.407c-0.008, -0.888 0.581, -1.775 1.638, -2.446m1.002, -1.236c0.103, -0.635 0.317, -0.866 0.71, -1.12c0.597, -0.374 1.666, -0.519 2.703, -1.028c0.752, -0.36 1.457, -1.009 1.851, -2.051c0.489, 0.945 0.756, 2.005 0.754, 2.981c-0.043, 1.91 -0.871, 3.346 -3.027, 3.567c-0.1, 0.008 -0.201, 0.014 -0.307, 0.014c-1.51, -0.01 -2.699, -0.954 -2.702, -2.11c-0, -0.085 0.006, -0.17 0.018, -0.253m9.831, 3.105c-0.243, -1.379 -1.312, -2.496 -2.743, -3.209c0.069, -0.366 0.114, -0.737 0.106, -1.114c-0.002, -1.683 -0.623, -3.462 -1.755, -4.845l-0.911, -1.108l-0.131, 1.428c-0.242, 2.116 -1.136, 2.425 -2.378, 2.883c-0.617, 0.205 -1.293, 0.363 -1.913, 0.731c-0.624, 0.355 -1.158, 1.021 -1.27, 1.961c-0.008, 0.048 -0.006, 0.098 -0.011, 0.148c-1.35, 0.714 -2.355, 1.802 -2.588, 3.129c-1.914, 1.19 -3.206, 2.935 -3.21, 4.962c0.069, 3.945 4.639, 6.747 10.008, 6.758c5.37, -0.011 9.942, -2.811 10.011, -6.758c-0.004, -2.029 -1.297, -3.774 -3.215, -4.966" style="fill: rgb(180, 80, 0);"/>
</svg>
