<svg viewBox="0 0 24 24" xmlns="http://www.w3.org/2000/svg">
  <path d="M18.346, 14.683c1.226, -1.449 1.969, -3.321 1.97, -5.365c-0.002, -4.59 -3.729, -8.318 -8.316, -8.318c-4.59, -0 -8.317, 3.728 -8.319, 8.318c0.001, 2.045 0.744, 3.916 1.971, 5.366c-2.621, 1.207 -4.337, 2.961 -4.337, 4.286c0, 2.226 4.784, 4.03 10.685, 4.03c5.899, -0 10.685, -1.804 10.685, -4.03c0, -1.326 -1.716, -3.079 -4.339, -4.287Zm-6.346, -12.421c3.887, 0.009 7.046, 3.165 7.053, 7.056c-0.007, 3.888 -3.166, 7.048 -7.053, 7.056c-3.892, -0.008 -7.049, -3.168 -7.056, -7.056c0.007, -3.891 3.164, -7.047 7.056, -7.056Zm4.795, 8.277c-0.363, 0 -0.657, 0.294 -0.657, 0.657c-0, 0.362 0.294, 0.656 0.657, 0.656c0.362, 0 0.656, -0.294 0.656, -0.656c-0, -0.363 -0.294, -0.657 -0.656, -0.657Zm-4.545, -5.937c2.468, -0 4.457, 1.994 4.461, 4.461c0, 0.268 0.219, 0.486 0.487, 0.486c0.269, -0 0.489, -0.218 0.489, -0.486c-0.003, -3.002 -2.434, -5.428 -5.437, -5.432c-0.268, -0 -0.486, 0.217 -0.486, 0.486c0, 0.268 0.218, 0.485 0.486, 0.485Z" style="fill: rgb(160, 0, 160);"/>
</svg>
