<svg viewBox="0 0 24 24" xmlns="http://www.w3.org/2000/svg">
  <path d="M17.583, 13.303l1.668, 2.896l-3.336, -0l1.668, -2.896Zm-5.583, 7.092l-1.667, -2.896l3.334, -0l-1.667, 2.896Zm-7.251, -4.196l1.668, -2.897l1.668, 2.897l-3.336, -0Zm-0, -8.4l3.336, -0l-1.668, 2.898l-1.668, -2.898Zm7.251, -4.193l1.666, 2.893l-3.332, -0l1.666, -2.893Zm2.415, 12.593l-4.831, -0l-2.417, -4.199l2.418, -4.201l4.829, -0l2.419, 4.201l-2.418, 4.199Zm4.837, -8.4l-1.669, 2.898l-1.669, -2.898l3.338, -0Zm-0.919, 4.201l3.167, -5.501l-6.334, -0l-3.166, -5.499l-3.166, 5.499l-6.334, -0l3.167, 5.501l-3.167, 5.499l6.333, -0l3.167, 5.501l3.167, -5.501l6.333, -0l-3.167, -5.499Z" style="fill: rgb(0, 0, 255);"/>
  <path d="M14.025, 12c0, 1.119 -0.906, 2.025 -2.025, 2.025c-1.119, -0 -2.025, -0.906 -2.025, -2.025c0, -1.119 0.906, -2.025 2.025, -2.025c1.119, 0 2.025, 0.906 2.025, 2.025" style="fill: rgb(0, 0, 255);"/>
</svg>
