<svg viewBox="0 0 24 24" xmlns="http://www.w3.org/2000/svg">
  <path d="M14.889, 7.694c0.293, 0.045 0.543, 0.09 0.736, 0.129l-0, 0.06c-1.074, 0.268 -3.411, 0.158 -3.373, 0.339l-0.026, 0l-0, 9.286c-0.077, -0.001 -0.147, -0.007 -0.225, -0.007c-1.085, 0.002 -2.059, -0.237 -2.714, -0.582c-0.671, -0.354 -0.925, -0.763 -0.912, -1.032l-0, -9.329c0.916, 0.594 2.239, 0.884 3.626, 0.909c1.128, 0 2.148, 0.113 2.888, 0.227m5.094, 3.613c0.293, 0.046 0.543, 0.091 0.738, 0.129l-0, 10.01c-0.789, -0.143 -2.113, -0.329 -3.627, -0.329c-1.084, 0 -2.06, -0.239 -2.713, -0.585c-0.672, -0.354 -0.926, -0.762 -0.912, -1.031l-0, -9.328c0.916, 0.593 2.238, 0.884 3.625, 0.908c1.129, 0 2.149, 0.113 2.889, 0.226m-16.701, -8.359c0.916, 0.594 2.238, 0.885 3.625, 0.908c1.576, 0 2.939, 0.222 3.627, 0.355l-0, 0.061c-1.073, 0.268 -3.409, 0.158 -3.374, 0.339l-0.029, 0l-0, 9.286c-0.076, -0.001 -0.146, -0.006 -0.224, -0.006c-1.084, 0.001 -2.061, -0.238 -2.715, -0.584c-0.67, -0.353 -0.924, -0.762 -0.91, -1.031l-0, -9.328Zm-1.243, 9.328c0.145, 1.929 2.403, 2.814 4.868, 2.857c0.078, 0 0.148, 0.004 0.224, 0.006l-0, 0.748c0.147, 1.93 2.404, 2.815 4.87, 2.856c0.077, 0 0.149, 0.005 0.225, 0.006l-0, 0.752c0.145, 1.927 2.403, 2.814 4.868, 2.857c1.129, 0 2.149, 0.113 2.889, 0.227c0.746, 0.115 1.207, 0.229 1.209, 0.225l0.769, 0.19l-0, -12.554l-0.47, -0.119c-0.03, -0.006 -1.969, -0.488 -4.397, -0.488c-0.078, 0 -0.148, -0.009 -0.225, -0.012l-0, -2.996l-0.474, -0.118c-0.027, -0.006 -1.965, -0.486 -4.394, -0.488c-0.077, 0 -0.151, -0.01 -0.227, -0.012l-0, -2.994l-0.47, -0.117c-0.03, -0.006 -1.968, -0.49 -4.397, -0.488c-2.6, 0.003 -4.868, -1.614 -4.868, -1.614l-0, 11.276Z" style="fill: rgb(0, 0, 255);"/>
</svg>
