<svg viewBox="0 0 24 24" xmlns="http://www.w3.org/2000/svg">
  <path d="M21.611, 11.76l-11.723, -0l-5.944, -6.016l0, -2.528l5.689, 5.757l11.499, -0l0.377, 0.381c0.055, 0.097 0.262, 0.5 0.262, 1.318c0, 0.522 -0.084, 0.875 -0.16, 1.088m-0.619, 9.033l-11.725, -0l-5.942, -6.015l0, -1.661l4.332, 4.387l0.858, -0l0.498, 0.504l11.502, -0l0.377, 0.387c0.057, 0.103 0.258, 0.504 0.258, 1.312c0, 0.522 -0.084, 0.873 -0.158, 1.086m-1.199, -6.916c0.06, 0.104 0.259, 0.504 0.261, 1.313c0, 0.523 -0.088, 0.875 -0.16, 1.088l-11.724, -0l-5.943, -6.018l0, -2.525l5.688, 5.755l11.503, -0l0.375, 0.387Zm-4.953, -10.331l1.5, 1.524l-8.746, -0l-1.516, -1.524l8.762, -0Zm7.64, 9.2c0.072, -0.088 0.524, -0.752 0.518, -2.074c0.006, -1.322 -0.446, -1.984 -0.518, -2.072l-6.506, -6.621l-13.257, -0l0, 4.267l0.25, 0.254l-1.967, -0l0, 4.262l1.098, 1.113l0, 3.406l6.657, 6.741l12.92, -0l0.184, -0.242c0.072, -0.088 0.523, -0.749 0.52, -2.073c0.003, -1.324 -0.448, -1.984 -0.52, -2.072l-0.844, -0.863c0.133, -0.342 0.268, -0.862 0.266, -1.582c0.002, -1.325 -0.447, -1.987 -0.518, -2.075l-0.125, -0.126l1.661, -0l0.181, -0.243Z" style="fill: rgb(0, 0, 255);"/>
</svg>
