<svg viewBox="0 0 24 24" xmlns="http://www.w3.org/2000/svg">
  <path d="M20.05, 3.607c-0, 0.637 -0.229, 1.183 -0.686, 1.64c-0.457, 0.458 -1.003, 0.686 -1.639, 0.686c-0.637, 0 -1.183, -0.228 -1.64, -0.686c-0.457, -0.457 -0.685, -1.003 -0.685, -1.64c-0, -0.656 0.222, -1.207 0.67, -1.654c0.447, -0.448 1, -0.671 1.655, -0.671c0.636, 0 1.182, 0.223 1.639, 0.671c0.457, 0.447 0.686, 0.998 0.686, 1.654m2.951, 13.237c-0.517, 0.278 -1.164, 0.512 -1.937, 0.701c-0.776, 0.188 -1.51, 0.313 -2.206, 0.374l-0, 4.798l-2.267, 0l-0, -4.798c-0.775, -0.061 -1.561, -0.19 -2.354, -0.389c-0.795, -0.199 -1.432, -0.457 -1.909, -0.776c0.458, -1.171 0.845, -2.171 1.163, -2.996c0.318, -0.824 0.616, -1.604 0.895, -2.338c0.1, -0.26 0.243, -0.663 0.432, -1.209c0.189, -0.546 0.342, -0.938 0.462, -1.177c0.319, -0.755 0.612, -1.242 0.88, -1.462c0.267, -0.217 0.769, -0.327 1.505, -0.327c0.735, 0 1.238, 0.11 1.506, 0.327c0.268, 0.22 0.561, 0.707 0.879, 1.462c0.119, 0.278 0.279, 0.695 0.477, 1.251c0.199, 0.557 0.347, 0.955 0.448, 1.193c0.278, 0.795 0.566, 1.585 0.862, 2.37c0.299, 0.785 0.688, 1.783 1.164, 2.996" style="fill: rgb(255, 0, 0);"/>
  <rect x="10.183" y="2.475" width="1.192" height="19.049" style="fill: rgb(89, 89, 89);"/>
  <path d="M6.962, 3.607c0, 0.637 -0.233, 1.183 -0.701, 1.64c-0.467, 0.458 -1.019, 0.686 -1.654, 0.686c-0.637, 0 -1.178, -0.228 -1.626, -0.686c-0.446, -0.457 -0.671, -1.003 -0.671, -1.64c0, -0.656 0.22, -1.207 0.657, -1.654c0.436, -0.448 0.983, -0.671 1.64, -0.671c0.635, 0 1.187, 0.223 1.654, 0.671c0.468, 0.447 0.701, 0.998 0.701, 1.654m1.193, 10.196c0, 0.557 -0.155, 0.965 -0.464, 1.221c-0.308, 0.26 -0.75, 0.43 -1.326, 0.508l0, 7.185l-3.578, 0l0, -7.185c-0.595, -0.078 -1.043, -0.248 -1.341, -0.508c-0.299, -0.256 -0.447, -0.664 -0.447, -1.221l0, -4.769c0, -0.755 0.243, -1.242 0.73, -1.462c0.488, -0.217 1.168, -0.327 2.043, -0.327l1.61, 0c0.853, 0 1.529, 0.11 2.027, 0.327c0.496, 0.22 0.746, 0.707 0.746, 1.462l0, 4.769Z" style="fill: rgb(0, 0, 255);"/>
</svg>
