<svg viewBox="0 0 24 24" xmlns="http://www.w3.org/2000/svg">
  <path d="M21.011, 13.111l-3.544, 0l-0.622, -0.533l-0, -9.315l4.166, 0l-0, 9.848Zm-15.506, 8.572c0.096, -0.097 0.205, -0.193 0.31, -0.265l0.398, -0.274l0.127, -0.455l0.743, -2.674l0.324, -1.174l-1.15, -0.402c-1.636, -0.57 -3.459, -1.752 -3.459, -2.533l-0, -0.59l11.386, 0c0.465, 0 0.885, -0.074 1.265, -0.225l1.511, 1.297c-0.027, 0.033 -0.037, 0.048 -0.069, 0.084c-0.705, 0.801 -2.488, 2.424 -5.544, 2.424l-0, 1.301c2.921, -0.007 4.864, -1.278 5.939, -2.273c-0.454, 1.896 -0.952, 3.936 -1.055, 4.265l-0.316, 0.988l0.861, 0.506l-11.271, 0Zm-2.707, -9.773c0.027, -0.091 0.116, -0.275 0.41, -0.406c0.55, -0.248 2.824, -1.055 8.982, -1.055l3.352, 0l-0, 0.18c-0, 0.764 -0.624, 1.387 -1.387, 1.387l-11.357, 0l-0, -0.106Zm19.704, -10.894l-7.148, 0l-0, 1.624l0.191, 0l-0, 0.947l-0.947, 0l-0, 1.894l0.947, 0l-0, 3.67l-3.355, 0c-5.354, 0 -8.272, 0.609 -9.515, 1.168c-1.109, 0.498 -1.177, 1.482 -1.177, 1.482l-0, 2.105c-0, 2.264 4.332, 3.762 4.332, 3.762l-0.743, 2.673c-0, 0 -1.145, 0.762 -1.145, 1.706c-0, 0.933 0.398, 0.937 0.405, 0.937l13.122, 0c-0, 0 0.943, -0.029 0.943, -0.937c-0, -0.909 -0.943, -1.463 -0.943, -1.463c0.207, -0.651 1.514, -6.172 1.514, -6.172l3.328, 0l-0, -11.772l0.191, 0l-0, -1.624Z" style="fill: rgb(0, 0, 255);"/>
</svg>
