<svg viewBox="0 0 24 24" xmlns="http://www.w3.org/2000/svg">
  <path d="M20.571, 8.952l-3.217, 3.217c-0.128, 0.126 -0.294, 0.189 -0.46, 0.189c-0.166, -0 -0.332, -0.063 -0.46, -0.189c-0.255, -0.256 -0.255, -0.667 0, -0.92l3.217, -3.217c0.5, -0.504 0.77, -1.155 0.772, -1.851c-0.002, -0.666 -0.246, -1.284 -0.696, -1.768l0.002, -0c-0.245, -0.263 -0.232, -0.672 0.031, -0.917c0.261, -0.245 0.673, -0.231 0.918, 0.031c0.673, 0.72 1.045, 1.665 1.043, 2.654c0.002, 1.04 -0.413, 2.03 -1.15, 2.771m-5.124, 4.824c-0.358, -0 -0.649, -0.291 -0.649, -0.651c0, -0.359 0.291, -0.65 0.649, -0.65c0.359, -0 0.65, 0.291 0.65, 0.65c0, 0.36 -0.291, 0.651 -0.65, 0.651m-6.522, 6.786c-0.739, 0.733 -1.708, 1.135 -2.744, 1.135c-1.039, -0 -2.006, -0.4 -2.741, -1.135c-0.727, -0.727 -1.126, -1.677 -1.139, -2.7c0.003, -0.033 0.003, -0.066 0, -0.098c0.014, -1.022 0.41, -1.972 1.137, -2.691l5.513, -5.515c0.244, 0.73 0.82, 1.903 2.203, 3.289c1.384, 1.382 2.555, 1.958 3.284, 2.203l-5.513, 5.512Zm12.552, -18.042c-0.977, -0.978 -2.287, -1.519 -3.664, -1.519c-1.381, -0 -2.69, 0.541 -3.664, 1.519l-11.63, 11.632c-0.97, 0.961 -1.509, 2.256 -1.516, 3.619l0, 0.052c-0.002, 1.378 0.541, 2.684 1.516, 3.657c0.974, 0.977 2.285, 1.517 3.662, 1.517c1.375, -0 2.684, -0.542 3.662, -1.515l11.634, -11.632c0.978, -0.981 1.52, -2.291 1.52, -3.668c0, -1.381 -0.542, -2.688 -1.52, -3.662" style="fill: rgb(255, 0, 0);"/>
</svg>
