<svg viewBox="0 0 24 24" xmlns="http://www.w3.org/2000/svg">
  <path d="M21.901, 1c0.605, 0 1.099, 0.492 1.099, 1.1l-0, 19.8c-0, 0.608 -0.494, 1.1 -1.099, 1.1l-19.801, -0c-0.608, -0 -1.1, -0.492 -1.1, -1.1l-0, -19.8c-0, -0.608 0.492, -1.1 1.1, -1.1l19.801, -0Zm-8.013, 19.5c2.702, -0.002 4.94, -2.117 4.949, -4.803c-0.005, -1.742 -0.938, -3.236 -2.331, -4.08l-0.252, -0.152l0.183, -0.229c0.64, -0.808 1.024, -1.818 1.026, -2.925c-0.007, -2.692 -2.247, -4.809 -4.95, -4.809l-5.791, -0.002l-0, 17l7.166, 0Zm-0, -7.377l-4.935, -0.004l-0, 5.149l4.935, 0c1.53, 0 2.711, -1.19 2.716, -2.571c-0.005, -1.394 -1.188, -2.574 -2.716, -2.574Zm-1.223, -2.241l-3.711, 0l-0, -5.15l3.559, 0c1.529, 0.005 2.712, 1.186 2.714, 2.578c-0.002, 1.34 -1.106, 2.488 -2.562, 2.572Z" style="fill: rgb(255, 0, 0);"/>
</svg>
