<svg viewBox="0 0 24 24" xmlns="http://www.w3.org/2000/svg">
  <path d="M17.557, 18.04c-1.184, 1.635 -3.145, 2.709 -5.477, 2.711c-0.021, 0 -0.046, -0.002 -0.08, -0.002l-0.082, 0c-2.328, 0 -4.295, -1.078 -5.474, -2.709c-1.217, -1.656 -1.746, -3.783 -1.748, -6.042c0.002, -2.257 0.531, -4.386 1.746, -6.038c1.181, -1.637 3.144, -2.71 5.476, -2.713c0.028, 0 0.049, 0 0.071, 0.003c0.045, -0.003 0.07, -0.003 0.089, -0.003c2.329, 0 4.293, 1.076 5.479, 2.711c1.217, 1.654 1.744, 3.783 1.748, 6.043c-0.004, 2.256 -0.531, 4.383 -1.748, 6.039m4.344, -17.04l-19.801, 0c-0.607, 0 -1.1, 0.492 -1.1, 1.1l-0, 19.799c-0, 0.609 0.493, 1.101 1.1, 1.101l19.801, 0c0.605, 0 1.099, -0.492 1.099, -1.101l-0, -19.799c-0, -0.608 -0.494, -1.1 -1.099, -1.1" style="fill: rgb(255, 0, 0);"/>
  <path d="M12.002, 5.741c-1.668, 0.015 -2.721, 0.631 -3.512, 1.676c-0.795, 1.06 -1.261, 2.67 -1.263, 4.553c0, 0 -0.002, 0.014 0, 0.042l0, 0.016c0, 1.881 0.466, 3.49 1.261, 4.552l0, 0.003c0.793, 1.045 1.846, 1.66 3.508, 1.676c1.67, -0.016 2.723, -0.631 3.516, -1.676c0.789, -1.059 1.256, -2.662 1.258, -4.536l0.002, -0.007l0, -0.07c-0.002, -1.883 -0.469, -3.493 -1.26, -4.551c-0.793, -1.047 -1.846, -1.663 -3.51, -1.678" style="fill: rgb(255, 0, 0);"/>
</svg>
