<svg viewBox="0 0 24 24" xmlns="http://www.w3.org/2000/svg">
  <path d="M13.105, 12.003c0.147, -0.001 0.287, -0.024 0.423, -0.06c0.602, 1.071 1.806, 1.869 3.073, 2.525c1.021, 0.508 2.055, 0.884 2.935, 1.064l1.947, 4.141l-3.534, -0.611l-2.308, 2.737l-2.594, -9.796l0.058, -0Zm-2.634, -0.06c-0.6, 1.069 -1.806, 1.868 -3.074, 2.524c-1.021, 0.507 -2.054, 0.882 -2.933, 1.064l-1.947, 4.141l3.534, -0.61l2.307, 2.736l2.595, -9.796l-0.057, 0c-0.148, 0 -0.289, -0.024 -0.425, -0.059Zm-1.304, -2.689l0, 1.023c0, 0.307 0.087, 0.589 0.228, 0.838l0, 0.112c-0.287, 0.625 -1.365, 1.488 -2.582, 2.079c-1.264, 0.648 -2.716, 1.063 -3.313, 1.051c-0.401, -0 -0.685, -0.088 -0.851, -0.245c-0.167, -0.154 -0.346, -0.452 -0.35, -1.174l0, -8.668c0.004, -0.724 0.181, -1.022 0.35, -1.175c0.166, -0.156 0.45, -0.244 0.851, -0.244c0.009, -0.001 0.018, -0.001 0.027, -0.001c0.614, -0 2.04, 0.411 3.286, 1.05c1.217, 0.593 2.295, 1.454 2.582, 2.08l0, 0.11c-0.141, 0.25 -0.228, 0.534 -0.228, 0.842l0, 1.021l-3.896, -0l0, 1.301l3.896, -0Zm5.663, -1.3l-0, -1.022c-0, -0.307 -0.085, -0.59 -0.225, -0.84l-0, -0.111c0.286, -0.627 1.365, -1.488 2.581, -2.08c1.264, -0.649 2.715, -1.062 3.313, -1.05c0.402, -0 0.684, 0.088 0.851, 0.245c0.167, 0.152 0.344, 0.451 0.35, 1.173l-0, 8.669c-0.006, 0.723 -0.183, 1.02 -0.35, 1.175c-0.167, 0.156 -0.449, 0.243 -0.851, 0.243c-0.598, 0.013 -2.049, -0.403 -3.313, -1.05c-1.216, -0.593 -2.295, -1.452 -2.581, -2.079l-0, -0.115c0.139, -0.248 0.224, -0.53 0.225, -0.834l-0, -1.024l3.9, -0l-0, -1.3l-3.9, -0Zm-1.726, -1.45c0.233, -0 0.427, 0.191 0.427, 0.428l-0, 3.345c-0, 0.231 -0.194, 0.424 -0.426, 0.426l-2.208, -0c-0.237, -0.002 -0.428, -0.195 -0.43, -0.426l-0, -3.345c0.001, -0.235 0.192, -0.428 0.43, -0.428l2.208, -0Z" style="fill: rgb(255, 0, 0);"/>
</svg>
