<svg viewBox="0 0 24 24" xmlns="http://www.w3.org/2000/svg">
  <path d="M19.504, 7.768c-0.512, -0.002 -0.926, -0.415 -0.928, -0.928c0.002, -0.511 0.416, -0.924 0.928, -0.926c0.512, 0.002 0.925, 0.415 0.928, 0.926c-0.003, 0.513 -0.416, 0.926 -0.928, 0.928m-9.56, 13.48c-1.969, -1.486 -6.12, -2.294 -6.352, -6.805c0.35, 0.783 0.827, 1.47 1.416, 2.028c1.281, 1.222 3.039, 1.863 4.937, 1.861l0.009, -0c1.896, -0 3.651, -0.64 4.929, -1.861c0.588, -0.558 1.064, -1.242 1.414, -2.023c-0.236, 4.505 -4.384, 5.313 -6.353, 6.8m-5.155, -13.634c0.083, -0.491 0.28, -1.231 0.731, -2.022l9.246, -0c-0.018, 0.143 -0.028, 0.283 -0.03, 0.422c0.004, 0.565 0.116, 1.148 0.229, 1.599l-10.176, 0.001Zm9.444, 2.281c0.035, 0.047 0.068, 0.092 0.098, 0.137l-2.869, -0.506c0.015, -0.011 0.029, -0.022 0.044, -0.031c0.328, -0.229 0.774, -0.444 1.243, -0.442c0.089, -0 0.178, 0.008 0.27, 0.024c0.53, 0.091 0.936, 0.453 1.214, 0.818m-5.815, -0.368l-2.858, 0.503c0.029, -0.044 0.062, -0.09 0.097, -0.135c0.278, -0.365 0.684, -0.727 1.213, -0.818c0.091, -0.017 0.18, -0.025 0.272, -0.025l0.029, -0c0.458, -0 0.888, 0.222 1.202, 0.444c0.015, 0.01 0.03, 0.02 0.045, 0.031m-3.875, -0.704l1.307, -0c-0.843, 0.572 -1.186, 1.511 -1.204, 1.527l0.361, 0.438l4.197, -0.74l0.188, -0.534c-0.015, -0.01 -0.335, -0.381 -0.858, -0.692l2.822, -0.001c-0.523, 0.311 -0.843, 0.682 -0.86, 0.692l0.189, 0.534l4.198, 0.741l0.359, -0.438c-0.015, -0.016 -0.359, -0.957 -1.205, -1.529l1.31, -0c0.251, 0.76 0.388, 1.586 0.388, 2.453c-0.028, 3.776 -2.528, 5.814 -5.79, 5.849c-3.26, -0.035 -5.761, -2.073 -5.79, -5.849c-0, -0.867 0.138, -1.693 0.388, -2.451m14.961, -4.117c-0.137, -0 -0.271, 0.016 -0.4, 0.041c-0.433, -0.62 -1.339, -1.4 -2.631, -2.18c-1.41, -0.83 -3.243, -1.565 -5.216, -1.567c-0.953, -0 -1.939, 0.177 -2.9, 0.604c-4.438, 1.968 -4.818, 5.843 -4.841, 6.514c-0.264, 0.706 -0.446, 1.463 -0.523, 2.255l-0.018, -0.005c-0.425, 1.388 -0.613, 2.609 -0.613, 3.687c-0.002, 6.238 6.426, 7.248 7.115, 8.369l0.468, 0.576l0.47, -0.576c0.687, -1.121 7.112, -2.133 7.112, -8.371c-0, -1.076 -0.187, -2.297 -0.611, -3.685l-0.017, 0.005c-0.082, -0.83 -0.272, -1.623 -0.559, -2.357l0.002, -0c-0.006, -0.002 -0.404, -1.175 -0.397, -2.002c-0.006, -0.322 0.073, -0.543 0.118, -0.6c0.011, -0.003 0.045, -0.009 0.093, -0.009c0.231, -0.008 0.728, 0.142 1.177, 0.322c0.106, 0.037 0.202, 0.076 0.296, 0.113c-0.16, 0.3 -0.26, 0.637 -0.26, 1c-0, 1.182 0.956, 2.135 2.135, 2.135c1.179, -0 2.135, -0.953 2.135, -2.135c-0, -1.179 -0.956, -2.134 -2.135, -2.134" style="fill: rgb(255, 0, 0);"/>
  <path d="M8.285, 13.45c0.348, 0 0.82, 0.134 1.487, 0.55l0.345, 0c0.665, -0.418 1.139, -0.55 1.485, -0.55c0.798, -0.053 1.228, 0.818 2.199, 1.303c-0.438, 0.357 -0.954, 0.507 -1.506, 0.51c-0.746, 0.001 -1.545, -0.294 -2.156, -0.753l-0.388, 0c-0.612, 0.457 -1.411, 0.754 -2.157, 0.753c-0.552, -0.003 -1.069, -0.153 -1.506, -0.511c0.969, -0.483 1.399, -1.355 2.197, -1.302m1.659, 1.718c0.684, 0.455 1.516, 0.744 2.351, 0.746l0.007, 0c0.846, 0 1.708, -0.318 2.331, -1.075l-0.178, -0.525c-0.943, -0.154 -1.404, -1.454 -2.853, -1.514c-0.474, 0 -1.01, 0.165 -1.658, 0.545c-0.648, -0.379 -1.183, -0.543 -1.659, -0.545c-1.45, 0.06 -1.91, 1.36 -2.852, 1.516l-0.176, 0.523c0.623, 0.758 1.487, 1.076 2.337, 1.075c0.835, -0.002 1.667, -0.292 2.35, -0.746" style="fill: rgb(255, 0, 0);"/>
  <path d="M7.133, 12.212c0.394, -0 0.711, -0.317 0.711, -0.71c-0, -0.393 -0.317, -0.71 -0.711, -0.71c-0.39, -0 -0.709, 0.317 -0.709, 0.71c-0, 0.393 0.319, 0.71 0.709, 0.71Zm5.625, -0c0.39, -0 0.708, -0.317 0.708, -0.71c0, -0.393 -0.318, -0.71 -0.708, -0.71c-0.392, -0 -0.71, 0.317 -0.71, 0.71c0, 0.393 0.318, 0.71 0.71, 0.71Z" style="fill: rgb(255, 0, 0);"/>
</svg>
