<svg viewBox="0 0 24 24" xmlns="http://www.w3.org/2000/svg">
  <path d="M6.62, 21.698l0.655, -1.252l9.448, 0l0.656, 1.252l-10.759, 0Zm2.572, -11.409c0.267, -0.018 0.497, -0.097 0.709, -0.202c0.027, -0.014 0.058, -0.023 0.085, -0.037l0, 1.637l-0.438, 0.672l-1.146, -0.961l-0.01, 0.012l0, -1.362c0.235, 0.129 0.496, 0.221 0.8, 0.241m-0.471, -4.349c0.195, -0.312 0.378, -0.387 0.471, -0.383c0.093, -0.004 0.273, 0.071 0.469, 0.383c0.096, 0.156 0.181, 0.363 0.24, 0.602c0.055, 0.222 0.089, 0.469 0.088, 0.732c0.001, 0.264 -0.033, 0.512 -0.088, 0.733c-0.06, 0.238 -0.144, 0.445 -0.24, 0.601c-0.196, 0.312 -0.376, 0.386 -0.469, 0.382c-0.093, 0.004 -0.276, -0.07 -0.471, -0.382c-0.187, -0.302 -0.329, -0.787 -0.329, -1.334c0, -0.545 0.142, -1.032 0.329, -1.334m2.809, -3.258c0.195, -0.313 0.378, -0.386 0.469, -0.382c0.092, -0.004 0.275, 0.069 0.471, 0.382c0.187, 0.302 0.329, 0.787 0.327, 1.334c0.002, 0.545 -0.14, 1.033 -0.327, 1.335c-0.196, 0.312 -0.379, 0.387 -0.471, 0.38c-0.091, 0.007 -0.274, -0.068 -0.469, -0.38c-0.187, -0.302 -0.331, -0.79 -0.329, -1.335c-0.002, -0.547 0.142, -1.032 0.329, -1.334m2.809, 3.258c0.195, -0.312 0.376, -0.387 0.469, -0.382c0.09, -0.005 0.273, 0.07 0.468, 0.382c0.188, 0.302 0.331, 0.788 0.329, 1.335c0.002, 0.545 -0.141, 1.03 -0.329, 1.333c-0.195, 0.313 -0.378, 0.387 -0.468, 0.382c-0.093, 0.005 -0.274, -0.069 -0.471, -0.382c-0.098, -0.159 -0.182, -0.371 -0.241, -0.614c-0.054, -0.218 -0.087, -0.461 -0.086, -0.719c-0.001, -0.259 0.032, -0.501 0.086, -0.72c0.059, -0.243 0.144, -0.456 0.243, -0.615m-6.432, 12.107l1.641, -1.378l1.083, 1.78l1.369, -1.608l1.369, 1.608l1.083, -1.78l1.641, 1.378l0.373, -0.975l0, 2.073l-8.934, 0l0, -2.078l0.375, 0.98Zm4.805, -10.743l0, 4.061l-0.712, 0.821l-0.712, -0.821l0, -4.091c-0.001, -0.154 -0.015, -0.306 -0.031, -0.459c0.221, 0.114 0.461, 0.198 0.742, 0.218c0.281, -0.02 0.522, -0.104 0.742, -0.218c-0.016, 0.153 -0.029, 0.306 -0.031, 0.46c0, 0.01 0.002, 0.019 0.002, 0.029m2.096, 2.987c0.303, -0.021 0.563, -0.114 0.797, -0.242l0, 1.358l-0.007, -0.009l-1.146, 0.961l-0.44, -0.675l0, -1.634c0.233, 0.128 0.493, 0.22 0.796, 0.241m2.958, 9.346l0, -3.029l0.978, 0.452l-0.189, -1.699l2.073, -0.848l-2.073, -0.848l0.189, -1.698l-1.839, 0.883l0, -5.575c-0.02, -1.471 -0.662, -2.919 -2.097, -3.017c-0.268, 0.018 -0.499, 0.096 -0.712, 0.2l0, -0.413c0, -0.01 0.002, -0.019 0.002, -0.029c-0.021, -1.47 -0.663, -2.919 -2.099, -3.016c-1.436, 0.097 -2.077, 1.546 -2.098, 3.016l0, 0.001l0, -0.001l0, 0.441c-0.213, -0.103 -0.443, -0.18 -0.709, -0.198c-1.437, 0.096 -2.078, 1.545 -2.099, 3.015l0, 5.576l-1.837, -0.883l0.189, 1.698l-2.073, 0.848l2.073, 0.848l-0.189, 1.699l0.976, -0.451l0, 3.026l-1.761, 3.362l15.055, 0l-0.498, -0.951l-1.262, -2.409Z" style="fill: rgb(0, 190, 60);"/>
</svg>
