<svg viewBox="0 0 24 24" xmlns="http://www.w3.org/2000/svg">
  <path d="M22.044, 20.554l-2.664, 0l0, -0.929l2.664, -0l0, 0.929Zm-5.81, 0l-2.662, 0l0, -0.929l2.662, -0l0, 0.929Zm-3.71, -2.314c-0, -0.849 0.715, -3.297 1.485, -4.506c0.294, -0.467 0.698, -0.858 1.065, -1.15l1.608, 3.012l1.609, -3.011c0.368, 0.292 0.772, 0.682 1.064, 1.149c0.847, 1.332 1.506, 3.221 1.496, 4.281c0, 0.365 -0.076, 0.567 -0.142, 0.655l-8.055, 0c-0.05, -0.066 -0.13, -0.236 -0.13, -0.43m4.874, -6.016l-0.716, 1.34l-0.716, -1.341c0.225, 0.082 0.462, 0.141 0.718, 0.145c0.254, -0.004 0.49, -0.063 0.714, -0.144m-0.714, -4.929c0.838, 0 1.52, 0.922 1.52, 2.059c0, 1.136 -0.682, 2.057 -1.52, 2.057c-0.84, -0 -1.52, -0.921 -1.52, -2.057c0, -1.137 0.68, -2.059 1.52, -2.059m-6.257, 13.259l-2.662, 0l0, -0.928l2.662, 0l0, 0.928Zm-4.578, -12.036c0.001, -0.377 0.081, -0.711 0.205, -1.001l2.628, 0c0.124, 0.29 0.205, 0.624 0.206, 1.001c-0.002, 1.215 -0.777, 2.055 -1.52, 2.057c-0.745, -0.002 -1.517, -0.842 -1.519, -2.057m-1.23, 12.036l-2.665, 0l0, -0.929l2.665, -0l0, 0.929Zm17.104, -1.883c0.051, -0.212 0.083, -0.433 0.083, -0.656c-0.011, -1.383 -0.717, -3.302 -1.64, -4.789c-0.523, -0.825 -1.246, -1.4 -1.743, -1.732c0.112, -0.137 0.213, -0.284 0.302, -0.442c1.199, -0.517 1.838, -1.192 1.85, -2.012c-0.095, -1.372 -1.537, -2.132 -2.728, -2.333c-0.096, -0.061 -0.196, -0.116 -0.299, -0.163l1.157, -1.157l-0.593, -0.591l-1.009, 1.01l0, -1.43l-0.839, -0l0, 1.432l-1.012, -1.012l-0.592, 0.591l1.156, 1.157c-0.103, 0.047 -0.202, 0.102 -0.297, 0.163c-1.193, 0.2 -2.637, 0.961 -2.734, 2.334c0.014, 0.82 0.651, 1.496 1.857, 2.013c0.087, 0.158 0.187, 0.304 0.299, 0.439c-0.497, 0.333 -1.218, 0.908 -1.743, 1.733c-0.434, 0.699 -0.817, 1.493 -1.105, 2.283c-0.548, -1.805 -1.409, -3.572 -1.524, -3.848c-0.274, -0.51 -0.758, -0.724 -1.209, -0.976c-0.067, -0.035 -0.13, -0.064 -0.194, -0.095c0.428, -0.551 0.677, -1.289 0.678, -2.072c-0.002, -1.325 -0.714, -2.51 -1.796, -2.884l0.227, -2.226c0, -0.003 0.002, -0.005 0.002, -0.009c0, -0.502 -0.407, -0.908 -0.909, -0.908c-0.5, -0 -0.906, 0.406 -0.906, 0.908l0.228, 2.234c-1.085, 0.374 -1.796, 1.56 -1.798, 2.885c0.001, 0.783 0.251, 1.521 0.677, 2.072c-0.064, 0.03 -0.127, 0.06 -0.194, 0.095c-0.45, 0.252 -0.934, 0.466 -1.207, 0.974c-0.175, 0.413 -1.96, 4.047 -1.98, 6.277c-0.001, 0.248 0.036, 0.498 0.102, 0.735l-1.29, -0l0, 2.838l22, -0l0, -2.838l-1.277, -0Z" style="fill: rgb(255, 0, 255);"/>
</svg>
