<svg viewBox="0 0 24 24" xmlns="http://www.w3.org/2000/svg">
  <path d="M3.368, 15.988l-0, -6.199l8.632, 3.6l11, -4.588l-11, -4.589l-11, 4.589l1.068, 0.446l-0, 6.741c-0.183, 0.088 -0.353, 0.211 -0.488, 0.377c-0.29, 0.352 -0.413, 0.814 -0.413, 1.338c0.055, 1.267 1.051, 2.228 1.066, 2.292l0.485, 0.545l0.486, -0.545c0.017, -0.064 1.01, -1.025 1.066, -2.292c-0, -0.524 -0.124, -0.986 -0.414, -1.338c-0.134, -0.167 -0.305, -0.29 -0.488, -0.377Zm15.197, -3.969l-6.565, 2.736l-6.566, -2.736c-0.2, 1.02 -0.402, 2.787 -0.557, 3.654c-0.277, 1.545 1.795, 2.578 2.476, 2.918c1.59, 0.795 3.153, 1.198 4.647, 1.198c1.494, -0 3.057, -0.403 4.647, -1.198c0.68, -0.34 2.752, -1.373 2.475, -2.918c-0.155, -0.867 -0.357, -2.634 -0.557, -3.654Z" style="fill: rgb(89, 89, 89);"/>
</svg>
