<svg viewBox="0 0 24 24" xmlns="http://www.w3.org/2000/svg">
  <path d="M18.441, 8.952c0.534, 1.135 0.883, 2.826 0.882, 4.365c-0.001, 0.037 0.002, 0.037 -0.001, 0.039c0.004, 1.274 -0.248, 2.468 -0.614, 3.147c-0.236, 0.377 -0.387, 0.58 -0.557, 0.695l0, -8.79c0.084, 0.148 0.177, 0.317 0.29, 0.544m2.884, -1.333c-0.74, -1.618 -2.285, -3.249 -4.635, -3.406c-0.546, -0.504 -1.226, -0.814 -2.002, -0.832l-9.723, 0c-2.083, 0.05 -3.462, 2.178 -3.465, 4.568l0, 12.67l16.651, 0c1.244, -0.169 2.847, -1.596 3.368, -2.642c0.714, -1.368 0.972, -2.992 0.981, -4.631c-0.008, -1.995 -0.399, -4.035 -1.175, -5.727" style="fill: rgb(89, 89, 89);"/>
  <path d="M16.926, 11.876l0.001, 7.517l-4.481, 0.001l-0.001, -7.518l4.481, -0Zm-5.706, 7.517l-8.496, 0l-0, -11.444c-0, -0.973 0.289, -1.845 0.722, -2.438c0.436, -0.601 0.972, -0.907 1.52, -0.907l7.369, 0c-0.699, 0.853 -1.113, 2.055 -1.115, 3.345l-0, 11.444Zm6.456, -13.751c1.198, 0.429 2.032, 1.418 2.536, 2.49c0.688, 1.488 1.06, 3.386 1.065, 5.212c-0.007, 1.511 -0.256, 2.952 -0.847, 4.074c-0.464, 0.917 -1.265, 1.757 -2.278, 1.957l-0, -0.865c0.696, -0.186 1.257, -0.702 1.629, -1.417c0.477, -0.904 0.724, -2.113 0.76, -3.419l0.008, -0.005l-0, -0.326l-0.002, -0.014c-0.002, -1.722 -0.366, -3.534 -0.995, -4.891c-0.472, -1.11 -1.046, -1.621 -1.575, -1.863c-0.077, -0.328 -0.178, -0.642 -0.308, -0.936l0.007, 0.003Zm-0.75, 4.206l-0, 0.805l-4.482, 0l-0, -0.805l4.482, 0Zm0, -1.223l-4.482, -0l0, -0.675c0, -0.972 0.289, -1.845 0.72, -2.44c0.438, -0.6 0.974, -0.905 1.523, -0.905l0.001, -0c0.546, -0 1.082, 0.306 1.518, 0.906c0.432, 0.594 0.72, 1.466 0.72, 2.439l0, 0.675Z" style="fill: rgb(255, 0, 0);"/>
  <path d="M4.294, 16.942c-0.375, 0 -0.681, 0.303 -0.681, 0.68c-0, 0.376 0.306, 0.678 0.681, 0.678c0.375, 0 0.678, -0.302 0.678, -0.678c-0, -0.377 -0.303, -0.68 -0.678, -0.68Zm5.329, 0c-0.375, 0 -0.679, 0.303 -0.679, 0.68c0, 0.376 0.304, 0.678 0.679, 0.678c0.375, 0 0.681, -0.302 0.681, -0.678c-0, -0.377 -0.306, -0.68 -0.681, -0.68Z" style="fill: rgb(230, 230, 230);"/>
</svg>
