<svg viewBox="0 0 24 24" xmlns="http://www.w3.org/2000/svg">
  <path d="M19.752, 15.253c0, -0.367 -0.129, -0.674 -0.388, -0.923c-0.258, -0.247 -0.561, -0.372 -0.906, -0.372c-0.346, -0 -0.647, 0.125 -0.907, 0.372c-0.258, 0.249 -0.388, 0.556 -0.388, 0.923c0, 0.323 0.13, 0.615 0.388, 0.874c0.26, 0.259 0.561, 0.388 0.907, 0.388c0.345, -0 0.648, -0.129 0.906, -0.388c0.259, -0.259 0.388, -0.551 0.388, -0.874m-3.885, -0c0, -0.367 -0.129, -0.674 -0.386, -0.923c-0.26, -0.247 -0.551, -0.372 -0.875, -0.372c-0.368, -0 -0.675, 0.125 -0.922, 0.372c-0.25, 0.249 -0.373, 0.556 -0.373, 0.923c-0, 0.323 0.123, 0.615 0.373, 0.874c0.247, 0.259 0.554, 0.388 0.922, 0.388c0.324, -0 0.615, -0.129 0.875, -0.388c0.257, -0.259 0.386, -0.551 0.386, -0.874m-6.829, -0c0, -0.627 -0.222, -1.149 -0.664, -1.57c-0.442, -0.42 -0.955, -0.631 -1.538, -0.631c-0.626, -0 -1.149, 0.211 -1.569, 0.631c-0.422, 0.421 -0.632, 0.943 -0.632, 1.57c-0, 0.582 0.21, 1.09 0.632, 1.521c0.42, 0.432 0.943, 0.647 1.569, 0.647c0.583, -0 1.096, -0.215 1.538, -0.647c0.442, -0.431 0.664, -0.939 0.664, -1.521m10.714, -7.77l-15.505, -0l-0, 2.59l15.505, -0l-0, -2.59Zm3.238, 8.416c-0, 0.692 -0.259, 1.292 -0.777, 1.797c-0.518, 0.508 -1.123, 0.762 -1.813, 0.762l-16.801, -0c-0.712, -0 -1.322, -0.254 -1.829, -0.762c-0.507, -0.505 -0.76, -1.105 -0.76, -1.797l0, -7.768c0, -0.712 0.253, -1.321 0.76, -1.829c0.507, -0.506 1.117, -0.76 1.829, -0.76l16.801, -0c0.713, -0 1.322, 0.254 1.829, 0.76c0.506, 0.508 0.761, 1.117 0.761, 1.829l-0, 7.768Z" style="fill: rgb(255, 0, 255);"/>
</svg>
