<svg viewBox="0 0 24 24" xmlns="http://www.w3.org/2000/svg">
  <path d="M2.776, 20.883l0, -17.224l1.57, -0l0, 1.859l1.251, -0l0, -1.859l2.575, -0l0, 1.859l1.25, -0l0, -1.859l2.578, -0l0, 1.858l1.25, -0l0, -1.858l2.575, -0l0, 1.859l1.25, -0l0, -1.859l1.568, -0l0.002, 10.533l-1.747, -3.028l-4.101, -2.969l4.531, -0l0, -1.248l-13.234, -0l0, 1.248l8.49, -0l0.24, 2.323l-8.73, -0.004l0, 1.252l8.861, 0.002l0.163, 1.576l0.429, 0.742l-9.453, -0l0, 1.25l10.174, -0l1.339, 2.318l-11.512, -0l0, 1.25l12.233, -0l1.143, 1.979l-14.695, -0Zm11.472, -8.756l-0.111, -1.064l0.274, -0.159l0.866, 0.629l-1.029, 0.594Zm4.903, 9.166l-4.572, -7.916l1.614, -0.93l4.572, 7.915l-1.614, 0.931Zm3.32, -0.474l-2.574, -4.459l-0.003, -13.948l-2.819, -0l0, -1.411l-1.25, -0l0, 1.411l-2.575, -0l0, -1.412l-1.25, -0l0, 1.412l-2.578, -0l0, -1.411l-1.25, -0l0, 1.411l-2.575, -0l0, -1.411l-1.251, -0l0, 1.411l-2.818, -0l0, 19.721l16.664, -0l0.501, 0.867l3.778, -2.181Z" style="fill: rgb(255, 140, 0);"/>
</svg>
