<svg viewBox="0 0 24 24" xmlns="http://www.w3.org/2000/svg">
  <path d="M18.802, 1.944l0.292, 0.898c0.039, 0.12 0.067, 0.229 0.102, 0.345l1.178, -0l0, 3.5l1.124, -0c0.468, -0 0.851, 0.383 0.851, 0.851l0, 9.528c0, 0.467 -0.383, 0.85 -0.851, 0.85l-1.96, -0c-0.116, 0.963 -0.172, 1.655 0.245, 2.694l0.718, 1.785l-10.199, -0l-0.328, -0.814c-0.602, -1.493 -0.569, -2.617 -0.454, -3.665l-1.813, -0c-0.468, -0 -0.851, -0.383 -0.851, -0.85l-0, -9.528c-0, -0.468 0.383, -0.851 0.851, -0.851l2.073, -0c-0.031, -0.941 -0.168, -1.84 -0.557, -3.043l-0.551, -1.7l10.13, -0Zm-0.225, 19.151c-0.512, -1.274 -0.464, -2.188 -0.349, -3.179l-7.399, -0c-0.116, 0.992 -0.164, 1.903 0.351, 3.179l7.397, -0Zm2.472, -4.478l0, -1.301l-1.3, -0l0, 1.301l1.3, -0Zm-2.196, -0l0, -1.301l-1.3, -0l0, 1.301l1.3, -0Zm-2.197, -0l0, -1.301l-1.3, -0l0, 1.301l1.3, -0Zm-11.663, -9.93c0.468, 0.001 0.851, 0.384 0.851, 0.851l0, 7.635c0, 0.467 -0.383, 0.85 -0.851, 0.85l-1.833, 0c-0.467, 0 -0.85, -0.383 -0.85, -0.85l0, -7.635c0, -0.467 0.383, -0.85 0.85, -0.851l1.833, 0Zm16.056, 7.852l0, -1.302l-1.3, -0l0, 1.302l1.3, -0Zm-2.196, -0l0, -1.302l-1.3, -0l0, 1.302l1.3, -0Zm-2.197, -0l0, -1.302l-1.3, -0l0, 1.302l1.3, -0Zm-2.729, -0.808l0, -2.574l-5.454, -0l0, 2.574l5.454, -0Zm7.122, -1.271l0, -1.303l-1.3, -0l0, 1.303l1.3, -0Zm-2.196, -0l0, -1.303l-1.3, -0l0, 1.303l1.3, -0Zm-2.197, -0l0, -1.303l-1.3, -0l0, 1.303l1.3, -0Zm1.748, -2.619c0.079, -2.605 0.299, -3.996 -0.547, -6.597l-7.398, -0c0.843, 2.601 0.625, 3.992 0.547, 6.597l7.398, -0Z" style="fill: rgb(89, 89, 89);"/>
</svg>
