<svg viewBox="0 0 24 24" xmlns="http://www.w3.org/2000/svg">
  <path d="M14.484, 23.015l-0.001, -2.789l3.042, -0l4.58, -3.622l0, -15.583l-16.968, -0l-3.246, 3.689l0, 15.516l7.485, -0l0, 2.789l5.108, -0Z" style="fill: rgb(89, 89, 89);"/>
  <path d="M10.677, 20.226l2.507, 0l0, 2.789l-2.507, 0l0, -2.789Zm-7.485, -14.62l13.458, 0l0, 13.319l-13.458, 0l0, -13.319Zm17.615, 10.367l-2.855, 2.258l-0, -12.961l2.855, -2.257l-0, 12.96Zm-3.73, -11.667l-13.097, -0l1.748, -1.986l13.86, -0l-2.511, 1.986Z" style="fill: rgb(255, 0, 0);"/>
  <path d="M4.483, 7.019l-0, 3.255l2.173, -0l-3.305, 4.078l4.773, 3.865l5.863, -7.223l-0.886, -0.72l2.188, -0l-0, -3.255l-10.806, -0Z" style="fill: rgb(89, 89, 89);"/>
  <path d="M7.933, 16.39l-2.154, -1.745l3.78, -1.253l0.443, -3.957l2.157, 1.749l-4.226, 5.206Zm0.712, -6.505l-0.286, 2.537l-2.42, 0.801l2.706, -3.338Z" style="fill: rgb(230, 230, 230);"/>
</svg>
