<svg viewBox="0 0 24 24" xmlns="http://www.w3.org/2000/svg">
  <path d="M19.764, 18.932c-0.15, 0.871 -0.334, 1.566 -0.511, 1.994c-0.024, 0.061 -0.049, 0.114 -0.072, 0.162c-0.002, -0.005 -0.004, -0.01 -0.007, -0.015c-0.05, -0.112 -0.104, -0.253 -0.161, -0.422c-0.003, -0.008 -0.006, -0.015 -0.008, -0.023c-0.055, -0.167 -0.112, -0.365 -0.168, -0.58c-0.009, -0.033 -0.017, -0.066 -0.026, -0.101c-0.054, -0.215 -0.107, -0.452 -0.155, -0.704c-0.009, -0.04 -0.016, -0.083 -0.024, -0.124c-0.05, -0.269 -0.097, -0.551 -0.137, -0.852c-0.116, -0.805 -0.207, -1.734 -0.273, -2.74c0.206, 0.038 0.416, 0.064 0.633, 0.064c0.461, -0 0.897, -0.095 1.302, -0.253c-0.085, 1.372 -0.22, 2.601 -0.393, 3.594m-1.661, -6.918c-0, -0.86 0.043, -2.152 0.043, -2.152c0.223, -0.075 0.46, -0.124 0.709, -0.125c0.519, 0.001 0.992, 0.182 1.375, 0.476c0.129, 0.099 0.245, 0.212 0.351, 0.336c0.011, 0.013 0.023, 0.027 0.034, 0.04c0.088, 0.11 0.166, 0.229 0.234, 0.353c0.016, 0.029 0.032, 0.057 0.047, 0.087c0.056, 0.115 0.099, 0.238 0.137, 0.364c0.01, 0.039 0.026, 0.076 0.035, 0.115c0.038, 0.163 0.061, 0.331 0.061, 0.506c-0, 0.174 -0.023, 0.342 -0.061, 0.505c-0.009, 0.039 -0.025, 0.077 -0.036, 0.116c-0.037, 0.125 -0.08, 0.248 -0.136, 0.363c-0.015, 0.03 -0.031, 0.058 -0.048, 0.088c-0.067, 0.124 -0.145, 0.243 -0.234, 0.352c-0.011, 0.014 -0.022, 0.027 -0.034, 0.041c-0.105, 0.123 -0.222, 0.237 -0.351, 0.336c-0.383, 0.293 -0.856, 0.473 -1.374, 0.474c-0.248, -0 -0.483, -0.049 -0.706, -0.123c-0.028, -0.695 -0.046, -1.408 -0.046, -2.152m-0.784, 7.141c0.041, 0.231 0.084, 0.452 0.128, 0.662c0.004, 0.023 0.01, 0.044 0.015, 0.066c0.039, 0.185 0.08, 0.364 0.123, 0.532l-9.102, -4.62c-0.024, -0.096 -0.047, -0.196 -0.07, -0.298c-0.033, -0.148 -0.067, -0.295 -0.097, -0.452c-0.029, -0.154 -0.053, -0.318 -0.079, -0.479c-0.025, -0.155 -0.051, -0.308 -0.072, -0.468c-0.024, -0.188 -0.04, -0.385 -0.058, -0.58c-0.013, -0.147 -0.031, -0.288 -0.04, -0.438c-0.019, -0.291 -0.027, -0.59 -0.031, -0.893c-0, -0.059 -0.005, -0.114 -0.005, -0.173c-0, -0.069 0.005, -0.135 0.006, -0.204c0.004, -0.292 0.012, -0.583 0.03, -0.864c0.009, -0.147 0.026, -0.285 0.039, -0.429c0.019, -0.2 0.035, -0.401 0.06, -0.594c0.019, -0.144 0.042, -0.281 0.064, -0.42c0.029, -0.183 0.057, -0.367 0.091, -0.542c0.024, -0.125 0.051, -0.242 0.077, -0.362c0.028, -0.126 0.057, -0.249 0.087, -0.37l9.102, -4.617c-0.029, 0.113 -0.055, 0.244 -0.083, 0.365c-0.025, 0.107 -0.051, 0.209 -0.074, 0.322c-0.053, 0.256 -0.103, 0.527 -0.148, 0.81c-0.012, 0.068 -0.023, 0.133 -0.034, 0.201c-0.048, 0.311 -0.093, 0.638 -0.134, 0.979c-0.016, 0.131 -0.029, 0.27 -0.043, 0.405c-0.028, 0.25 -0.053, 0.503 -0.077, 0.765c-0.013, 0.158 -0.026, 0.319 -0.038, 0.481c-0.02, 0.26 -0.038, 0.525 -0.053, 0.795c-0.01, 0.166 -0.02, 0.332 -0.029, 0.503c-0.013, 0.293 -0.025, 0.592 -0.035, 0.896c-0.005, 0.156 -0.012, 0.308 -0.015, 0.466c-0.011, 0.463 -0.019, 0.933 -0.02, 1.414c-0, 2.776 0.193, 5.288 0.515, 7.141m1.282, -14.059c0.15, -0.871 0.333, -1.568 0.51, -1.995c0.025, -0.062 0.049, -0.112 0.074, -0.161c0.216, 0.469 0.512, 1.51 0.683, 2.819c0.125, 0.857 0.221, 1.853 0.289, 2.932c-0.405, -0.158 -0.842, -0.253 -1.302, -0.253c-0.218, -0 -0.43, 0.027 -0.637, 0.064c-0, -0 0.19, -2.3 0.383, -3.406m-11.781, 8.609c0.01, 0.115 0.021, 0.227 0.034, 0.338c0.059, 0.521 0.136, 1.02 0.233, 1.489c0.004, 0.018 0.005, 0.04 0.009, 0.057l-4.289, -0c-0.238, -1.034 -0.396, -2.261 -0.396, -3.576c-0, -1.314 0.158, -2.54 0.397, -3.575l4.289, -0c-0.003, 0.017 -0.005, 0.037 -0.009, 0.054c-0.097, 0.469 -0.174, 0.969 -0.234, 1.49c-0.013, 0.114 -0.024, 0.227 -0.034, 0.342c-0.053, 0.545 -0.09, 1.105 -0.09, 1.69c-0, 0.585 0.037, 1.146 0.09, 1.691m15.61, -1.691c-0, -0.916 -0.354, -1.743 -0.92, -2.375c-0.077, -1.823 -0.238, -3.461 -0.466, -4.767c-0.163, -0.929 -0.352, -1.688 -0.589, -2.267c-0.251, -0.532 -0.469, -1.101 -1.272, -1.183c-0.184, 0.019 -0.328, 0.069 -0.458, 0.132c-0.039, 0.019 -0.073, 0.042 -0.107, 0.064c-0.042, 0.025 -0.089, 0.044 -0.125, 0.074l-10.727, 5.444l-5.961, -0l-0.13, 0.481c-0.338, 1.243 -0.562, 2.752 -0.564, 4.396c0.002, 1.646 0.226, 3.155 0.564, 4.396l0.128, 0.48l5.963, -0l10.721, 5.442c0.037, 0.032 0.087, 0.051 0.129, 0.078c0.035, 0.022 0.068, 0.045 0.107, 0.065c0.131, 0.062 0.276, 0.113 0.46, 0.132c0.803, -0.082 1.021, -0.651 1.272, -1.186c0.552, -1.366 0.92, -3.916 1.05, -7.025c0.57, -0.634 0.925, -1.463 0.925, -2.381" style="fill: rgb(255, 140, 0);"/>
</svg>
