<svg viewBox="0 0 24 24" xmlns="http://www.w3.org/2000/svg">
  <path d="M17.706, 19.23l-14.577, -0l0, -1.83l13.947, -0l0, -2.144c-0.001, -0.696 -0.385, -1.31 -0.958, -1.627l1.086, -5.103c0.682, -0.14 1.263, -0.632 1.423, -1.36l0.823, -3.867c0.014, -0.065 0.013, -0.124 0.019, -0.187l1.591, 0.339l-3.354, 15.779Zm-12.62, -3.974c0, -0.321 0.253, -0.555 0.508, -0.555l9.675, -0c0.254, -0 0.507, 0.234 0.507, 0.555l0, 0.845l-10.69, -0l0, -0.845Zm11.178, -8.592l0.82, -3.869l0, -0.002c0.041, -0.214 0.26, -0.391 0.527, -0.391c0.037, -0 0.082, 0.004 0.127, 0.013c0.275, 0.057 0.453, 0.298 0.449, 0.516c0, 0.039 -0.004, 0.07 -0.01, 0.099l-0.822, 3.864c-0.043, 0.216 -0.258, 0.393 -0.524, 0.393c-0.045, -0 -0.086, -0.004 -0.13, -0.013c-0.275, -0.057 -0.452, -0.298 -0.448, -0.518c0, -0.025 0.002, -0.058 0.011, -0.092m2.699, -4.988c-0.252, -0.259 -0.579, -0.451 -0.957, -0.533c-0.13, -0.027 -0.263, -0.041 -0.395, -0.041c-0.837, -0.002 -1.612, 0.557 -1.798, 1.424l-0.001, -0l-0.82, 3.866c-0.025, 0.115 -0.039, 0.238 -0.039, 0.364c0.002, 0.675 0.382, 1.273 0.959, 1.591l-1.075, 5.054l-9.243, -0c-1.022, 0.006 -1.806, 0.851 -1.808, 1.855l0, 0.845l-1.956, -0l0, 4.43l1.265, -0l0, 2.473l15.877, -0l0, -3.472l3.632, -17.084l-3.641, -0.772Z" style="fill: rgb(0, 60, 150);"/>
</svg>
