<svg viewBox="0 0 24 24" xmlns="http://www.w3.org/2000/svg">
  <path d="M21.941, 7.235c0, 0.819 -0.148, 1.63 -0.443, 2.43c-0.299, 0.797 -0.711, 1.473 -1.248, 2.027l-9.341, 9.372c-0.613, 0.595 -1.285, 1.065 -2.012, 1.415c-0.729, 0.347 -1.48, 0.521 -2.259, 0.521c-0.758, 0 -1.367, -0.127 -1.828, -0.383c-0.461, -0.256 -0.99, -0.693 -1.583, -1.305c-0.41, -0.39 -0.707, -0.846 -0.891, -1.37c-0.184, -0.519 -0.278, -1.079 -0.278, -1.676c0, -0.611 0.094, -1.212 0.278, -1.795c0.184, -0.584 0.481, -1.062 0.891, -1.43l7.622, -7.621c0.349, -0.348 0.747, -0.609 1.196, -0.783c0.452, -0.175 0.923, -0.262 1.416, -0.262c0.837, 0 1.542, 0.256 2.105, 0.768c0.562, 0.514 0.842, 1.198 0.842, 2.06c0, 0.451 -0.102, 0.901 -0.307, 1.352c-0.203, 0.451 -0.459, 0.839 -0.765, 1.168l-5.257, 5.284l-1.32, -1.29l5.254, -5.286c0.164, -0.184 0.295, -0.383 0.399, -0.598c0.101, -0.214 0.154, -0.426 0.154, -0.63c0, -0.348 -0.1, -0.599 -0.293, -0.754c-0.195, -0.153 -0.465, -0.231 -0.812, -0.231c-0.245, 0 -0.483, 0.042 -0.708, 0.123c-0.225, 0.082 -0.419, 0.215 -0.582, 0.401l-7.654, 7.589c-0.204, 0.186 -0.358, 0.473 -0.46, 0.86c-0.103, 0.392 -0.154, 0.749 -0.154, 1.075c0, 0.331 0.045, 0.643 0.138, 0.939c0.093, 0.299 0.251, 0.569 0.476, 0.815c0.45, 0.452 0.794, 0.753 1.031, 0.905c0.235, 0.155 0.598, 0.231 1.09, 0.231c0.532, 0 1.05, -0.128 1.552, -0.383c0.501, -0.256 0.967, -0.59 1.398, -0.999l9.374, -9.374c0.348, -0.367 0.625, -0.85 0.829, -1.443c0.205, -0.595 0.306, -1.167 0.306, -1.722c0, -0.778 -0.107, -1.352 -0.322, -1.722c-0.215, -0.367 -0.639, -0.869 -1.273, -1.504c-0.393, -0.388 -0.918, -0.681 -1.582, -0.877c-0.67, -0.194 -1.297, -0.292 -1.891, -0.292c-0.537, 0 -1.047, 0.072 -1.537, 0.216c-0.494, 0.144 -0.903, 0.379 -1.229, 0.706l-7.377, 7.408l-1.321, -1.322l7.376, -7.376c0.512, -0.512 1.121, -0.884 1.829, -1.123c0.706, -0.234 1.456, -0.351 2.259, -0.351c0.857, 0 1.726, 0.142 2.596, 0.428c0.873, 0.288 1.593, 0.718 2.166, 1.292l0.771, 0.769c0.449, 0.45 0.791, 1.004 1.027, 1.659c0.235, 0.656 0.352, 1.351 0.352, 2.089" style="fill: rgb(0, 0, 255);"/>
</svg>
