<svg viewBox="0 0 24 24" xmlns="http://www.w3.org/2000/svg">
  <path d="M17.967, 2.778l-0, -0.551l3.805, -0l-0, 4.763c-0.882, -1.716 -2.194, -3.168 -3.805, -4.212m3.805, 18.994l-4.736, -0c2.03, -1.049 3.688, -2.707 4.736, -4.737l-0, 4.737Zm-19.544, -0l-0, -4.737c1.048, 2.03 2.706, 3.688 4.736, 4.737l-4.736, -0Zm-0, -19.545l3.459, -0l-0, 0.78c-1.451, 1.017 -2.64, 2.378 -3.459, 3.964l-0, -4.744Zm14.512, 7.597l-9.826, -0l-0, -7.597l9.824, -0l0.002, 7.597Zm-2.712, 1.227c0.136, 0.291 0.231, 0.602 0.231, 0.947c-0.002, 1.248 -1.014, 2.26 -2.259, 2.262c-1.248, -0.002 -2.258, -1.014 -2.26, -2.262c-0, -0.344 0.096, -0.656 0.232, -0.947l4.056, -0Zm-5.381, -0c-0.085, 0.303 -0.135, 0.619 -0.135, 0.947c-0, 1.926 1.561, 3.488 3.488, 3.49c1.926, -0.002 3.486, -1.564 3.488, -3.49c-0, -0.328 -0.05, -0.644 -0.134, -0.947l2.613, -0l-0, -6.783c2.313, 1.787 3.805, 4.582 3.805, 7.73c-0.01, 5.399 -4.375, 9.764 -9.773, 9.774c-5.398, -0.01 -9.761, -4.375 -9.771, -9.774c-0, -2.99 1.344, -5.658 3.459, -7.449l-0, 6.502l2.96, -0Zm-7.646, 11.949l21.998, -0l-0, -22l-21.998, -0l-0, 22Z" style="fill: rgb(0, 0, 255);"/>
</svg>
