<svg viewBox="0 0 24 24" xmlns="http://www.w3.org/2000/svg">
  <path d="M13.901, 7.252c-1.155, 0 -2.092, -0.936 -2.092, -2.092c0, -1.157 0.937, -2.093 2.092, -2.093c1.158, 0 2.095, 0.936 2.095, 2.093c0, 1.156 -0.937, 2.092 -2.095, 2.092m6.952, -4.095c-2.879, -2.879 -7.543, -2.879 -10.423, 0c-2.717, 2.721 -2.86, 7.036 -0.437, 9.929l-8.482, 8.482l-0.511, 1.432l1.431, -0.513l8.482, -8.48c2.897, 2.432 7.217, 2.289 9.938, -0.437c2.865, -2.875 2.867, -7.536 0.002, -10.413" style="fill: rgb(255, 0, 255);"/>
</svg>
