<svg viewBox="0 0 24 24" xmlns="http://www.w3.org/2000/svg">
  <path d="M4.822, 14.216l0, -11.61l14.354, 7.173l0, 11.615l-14.354, -7.178Zm9.866, -10.341l4.486, 2.244l0.001, 2.287l-5.637, -2.815l1.15, -1.716Zm5.374, 1.317l-5.309, -2.656c-0.278, -0.138 -0.614, -0.05 -0.785, 0.208l-1.538, 2.294l-7.946, -3.973c-0.191, -0.095 -0.417, -0.085 -0.598, 0.027c-0.18, 0.111 -0.29, 0.308 -0.29, 0.522l0, 12.982c0, 0.233 0.13, 0.443 0.339, 0.549l15.578, 7.791c0.087, 0.044 0.181, 0.064 0.276, 0.064c0.112, -0 0.223, -0.03 0.322, -0.092c0.181, -0.112 0.292, -0.308 0.292, -0.521l0, -16.647c0, -0.234 -0.133, -0.445 -0.341, -0.548" style="fill: rgb(255, 140, 0);"/>
</svg>
