<svg viewBox="0 0 24 24" xmlns="http://www.w3.org/2000/svg">
  <path d="M21.624, 1.869c-0.455, -0.04 -0.924, -0.059 -1.406, -0.059c-1.623, 0 -3.146, 0.217 -4.564, 0.653c-1.42, 0.435 -2.635, 1.154 -3.64, 2.159c-1.044, -1.005 -2.274, -1.724 -3.694, -2.159c-1.422, -0.436 -2.933, -0.653 -4.538, -0.653c-0.502, 0 -0.981, 0.019 -1.434, 0.059c-0.455, 0.039 -0.904, 0.115 -1.349, 0.231l-0, 14.988l2.031, 3.305c0.442, -0.077 0.868, -0.129 1.274, -0.161c0.406, -0.027 0.812, -0.045 1.218, -0.045c1.063, 0 2.174, 0.182 3.333, 0.538c1.159, 0.357 2.214, 0.843 3.159, 1.464c0.909, -0.621 1.944, -1.107 3.102, -1.464c1.161, -0.356 2.28, -0.538 3.364, -0.538c0.384, 0 0.781, 0.018 1.189, 0.045c0.404, 0.032 0.85, 0.084 1.33, 0.161l2.002, -3.305l-0, -14.988c-0.465, -0.116 -0.924, -0.192 -1.377, -0.231Zm-1.283, 17.163c-0.292, -0.052 -0.587, -0.081 -0.887, -0.09c-0.323, -0.01 -0.648, -0.014 -0.975, -0.014c-1.093, 0 -2.212, 0.16 -3.361, 0.481c-1.129, 0.314 -2.166, 0.75 -3.106, 1.301c-0.979, -0.553 -2.036, -0.987 -3.175, -1.301c-1.157, -0.321 -2.262, -0.481 -3.316, -0.481c-0.348, 0 -0.683, 0.004 -1.002, 0.014c-0.301, 0.009 -0.587, 0.038 -0.862, 0.089l-1.341, -2.226c0.185, -0.037 0.381, -0.059 0.585, -0.068c0.261, -0.01 0.525, -0.015 0.795, -0.015c1.496, 0 2.91, 0.283 4.25, 0.847c1.344, 0.566 2.679, 1.379 4.005, 2.435l0.063, 0.05l0.062, -0.052c1.307, -1.056 2.63, -1.869 3.962, -2.433c1.331, -0.564 2.752, -0.847 4.267, -0.847c0.249, 0 0.504, 0.005 0.762, 0.015c0.211, 0.009 0.416, 0.031 0.617, 0.069l-1.343, 2.226Zm1.502, -3.452c-0.252, -0.059 -0.508, -0.092 -0.771, -0.102c-0.26, -0.009 -0.516, -0.015 -0.766, -0.015c-1.527, 0 -2.963, 0.256 -4.305, 0.767c-1.125, 0.43 -2.245, 1.035 -3.351, 1.797l-0, -12.443c0.029, -0.03 0.063, -0.069 0.09, -0.092c0.89, -0.908 1.99, -1.556 3.304, -1.942c1.313, -0.387 2.705, -0.58 4.174, -0.58c0.271, 0 0.541, 0.005 0.811, 0.014c0.269, 0.011 0.543, 0.034 0.814, 0.073l-0, 12.523Zm-19.686, -12.523c0.272, -0.039 0.545, -0.062 0.815, -0.073c0.269, -0.009 0.539, -0.014 0.81, -0.014c1.469, 0 2.862, 0.193 4.174, 0.58c1.315, 0.386 2.414, 1.034 3.304, 1.942c0.027, 0.023 0.06, 0.061 0.089, 0.09l-0, 12.437c-1.105, -0.758 -2.228, -1.36 -3.35, -1.789c-1.342, -0.511 -2.777, -0.767 -4.304, -0.767c-0.25, 0 -0.506, 0.006 -0.766, 0.015c-0.264, 0.01 -0.52, 0.043 -0.772, 0.102l-0, -12.523Zm11.92, 12.218l-0.002, 0c-0, -0.001 0.001, -0.001 0.001, -0.001l0.001, 0.001Zm-6.546, -1.194c-1.265, -0.373 -2.608, -0.56 -4.033, -0.56c-0.058, 0 -0.113, 0 -0.165, 0.002l-0.016, -0.999c0.064, -0.002 0.123, -0.002 0.181, -0.002c1.512, 0 2.953, 0.2 4.315, 0.598c1.022, 0.301 1.93, 0.755 2.72, 1.363l-0.61, 0.792c-0.685, -0.528 -1.479, -0.924 -2.392, -1.194Zm5.935, 0.401c0.788, -0.606 1.698, -1.062 2.719, -1.362c1.362, -0.399 2.802, -0.598 4.315, -0.598c0.058, 0 0.117, 0 0.183, 0.002l-0.019, 0.997l-0.164, 0c-1.426, 0 -2.769, 0.188 -4.033, 0.56c-0.913, 0.269 -1.705, 0.667 -2.391, 1.193l-0.61, -0.792Zm-0.001, -1.912c0.788, -0.606 1.699, -1.061 2.721, -1.361l0.282, 0.96c-0.915, 0.267 -1.707, 0.667 -2.392, 1.193l-0.611, -0.792Zm-5.933, -0.4l0.282, -0.96c1.019, 0.298 1.93, 0.752 2.72, 1.361l-0.611, 0.791c-0.684, -0.527 -1.478, -0.924 -2.391, -1.192Zm13.171, -1.56l-0.06, 0.998c0, -0 -0.236, -0.014 -0.598, -0.014c-0.623, -0.002 -1.612, 0.047 -2.21, 0.247l-0.309, -0.953c0.816, -0.259 1.846, -0.29 2.519, -0.294c0.388, -0 0.65, 0.016 0.656, 0.016l0.002, -0Zm-16.75, 0.984c-0.362, -0 -0.598, 0.014 -0.598, 0.014l-0.06, -0.999c0.008, -0 0.269, -0.014 0.658, -0.014c0.67, 0.002 1.698, 0.035 2.518, 0.294l-0.307, 0.952c-0.602, -0.2 -1.59, -0.249 -2.211, -0.247Zm10.124, -0.146l-0.002, 0l0.001, -0.001l0.001, 0.001Zm-6.547, -1.192c-0.518, -0.154 -1.05, -0.276 -1.597, -0.366l0.164, -0.987c0.584, 0.097 1.158, 0.227 1.717, 0.393c1.019, 0.3 1.93, 0.752 2.719, 1.36l-0.61, 0.792c-0.685, -0.526 -1.478, -0.925 -2.393, -1.192Zm5.936, 0.4c0.788, -0.607 1.699, -1.062 2.72, -1.362c0.557, -0.164 1.132, -0.294 1.718, -0.391l0.162, 0.985c-0.547, 0.091 -1.08, 0.212 -1.598, 0.367c-0.915, 0.267 -1.707, 0.666 -2.392, 1.192l-0.61, -0.791Zm-10.026, -0.962c-0.029, -0 -0.068, -0 -0.116, 0.002l0, -1.001l0.173, -0c0.419, -0 0.83, 0.014 1.238, 0.045l-0.075, 0.997c-0.38, -0.027 -0.768, -0.043 -1.175, -0.043l-0.045, -0Zm17.061, -0c-0.394, -0 -0.783, 0.014 -1.164, 0.043l-0.074, -0.998c0.407, -0.029 0.819, -0.045 1.225, -0.043c0.018, -0.002 0.041, -0.002 0.069, -0.002c0.046, -0 0.085, 0.002 0.117, 0.002l-0, 0.998l-0.173, -0Zm-5.661, -0.668l-0.002, 0l0.001, -0.001l0.001, 0.001Zm-0.5, -0.868c0.307, -0.175 0.629, -0.332 0.965, -0.469l0.38, 0.923c-0.297, 0.124 -0.578, 0.259 -0.846, 0.413l-0.499, -0.867Zm-6.024, 0.456l0.378, -0.925c0.335, 0.138 0.656, 0.294 0.964, 0.471l-0.498, 0.865c-0.267, -0.152 -0.548, -0.29 -0.844, -0.411Zm-4.831, -0.833c-0.018, -0.002 -0.035, -0.002 -0.045, -0.002c-0.029, 0 -0.068, 0.002 -0.115, 0.002l-0, -1l0.173, 0c1.045, 0 2.054, 0.094 3.028, 0.285l-0.193, 0.982c-0.906, -0.179 -1.851, -0.267 -2.848, -0.267Zm17.016, -0.001c-0.984, -0 -1.928, 0.091 -2.835, 0.267l-0.193, -0.981c0.973, -0.191 1.983, -0.286 3.015, -0.284c0.018, -0.002 0.041, -0.002 0.069, -0.002c0.046, -0 0.085, 0.002 0.117, 0.002l-0, 0.998l-0.173, -0Zm-9.967, -0.951l-0.612, 0.791c-0.684, -0.526 -1.475, -0.924 -2.392, -1.194c-1.262, -0.372 -2.606, -0.559 -4.045, -0.559c-0.018, -0 -0.035, -0.002 -0.043, -0.002c-0.031, -0 -0.07, 0.002 -0.118, 0.002l-0, -0.999c0.032, -0 0.071, -0.002 0.118, -0.002c0.026, -0 0.049, -0 0.057, 0.002c1.511, -0.002 2.954, 0.198 4.314, 0.598c1.022, 0.3 1.932, 0.754 2.719, 1.363l0.002, -0Zm10.04, -1.963c0.038, 0 0.072, 0 0.1, 0.002l-0, 0.998l-0.173, 0c-1.426, 0 -2.769, 0.188 -4.033, 0.56c-0.915, 0.269 -1.708, 0.667 -2.393, 1.193l-0.609, -0.792c0.788, -0.607 1.699, -1.06 2.718, -1.36c1.362, -0.401 2.803, -0.601 4.303, -0.601l0.087, 0Z" style="fill: rgb(255, 140, 0);"/>
</svg>
