<svg viewBox="0 0 24 24" xmlns="http://www.w3.org/2000/svg">
  <path d="M4.323, 21.698l-2.024, 0l-0, -4.077l2.024, 0l-0, 4.077Zm-0, -5.02l-2.024, 0l-0, -4.205l2.024, 0l-0, 4.205Zm-0, -5.149l-2.024, 0l-0, -4.203l2.024, 0l-0, 4.203Zm3.103, -5.148l0, -1.967l-3.103, 0l-0, 1.967l-2.024, -0l-0, -4.082l19.397, -0l0, 4.082l-14.27, -0Zm12.591, 5.148l0, -1.72l-3.104, 0l-0, 1.72l-9.487, 0l-0, -4.203l14.271, -0l0, 4.203l-1.68, 0Zm0, 0.944l1.681, 0l0, 4.205l-1.681, 0l0, -4.205Zm1.681, 9.225l-1.682, 0l-0, -4.077l1.682, 0l-0, 4.077Zm-7.977, -4.077l3.192, -0l-0, 4.077l-3.192, 0l-0, -4.077Zm-3.102, -4.574l-0, 3.631l-3.193, -0l-0, -4.205l9.487, -0l-0, 4.205l-3.192, -0l-0, -3.631l-3.102, -0Zm-3.193, 4.574l3.193, -0l-0, 4.077l-3.193, 0l-0, -4.077Zm-6.426, 5.379l22, -0l-0, -22l-22, -0l-0, 22Z" style="fill: rgb(0, 0, 255);"/>
</svg>
