<svg viewBox="0 0 24 24" xmlns="http://www.w3.org/2000/svg">
  <path d="M6.382, 21.698l-4.082, 0l-0, -4.077l4.082, -0l-0, 4.077Zm-0, -5.022l-4.082, 0l-0, -4.205l4.082, -0l-0, 4.205Zm-3.401, -9.352l1.35, 3.819l2.051, -2.598l-0, 2.984l-4.082, -0l-0, -4.205l0.681, -0Zm-0.334, -0.943l-0.347, -0l-0, -0.985l0.347, 0.985Zm3.133, 0.943l-1.035, 1.309l-0.463, -1.309l1.498, -0Zm0.602, -5.024l-0, 4.081l-2.434, -0l-1.443, -4.081l3.877, 0Zm5.146, 0l-0, 4.081l-0.749, -0l-1.404, -3.605l-2.049, 2.593l-0, -3.069l4.202, -0Zm5.151, 4.081l-4.207, -0l0, -4.081l4.207, -0l0, 4.081Zm5.019, -0l-4.075, -0l0, -4.081l4.075, -0l0, 4.081Zm-4.075, 0.943l4.075, -0l0, 4.205l-4.075, -0l0, -4.205Zm2.572, 9.352l-2.119, -4.205l3.622, -0l0, 4.205l-1.503, 0Zm0.477, 0.945l1.026, -0l0, 2.036l-1.026, -2.036Zm-3.049, -0.945l0, -2.377l1.197, 2.377l-1.197, 0Zm0, 5.02l0, -4.075l1.674, -0l2.054, 4.075l-3.728, 0Zm-4.149, -5.02l-1.002, 0l0, -2.571l1.002, 2.571Zm-0.69, -5.147l-0.312, -0.802l0, -3.403l4.207, -0l0, 4.205l-3.895, -0Zm1.626, 4.172l-1.258, -3.23l3.038, 0l-1.78, 3.23Zm2.269, -1.572l0, 2.547l-1.401, 0l1.401, -2.547Zm-4.207, 7.568l0, -4.076l1.37, -0l0.38, 0.975l0.536, -0.975l1.921, -0l0, 4.076l-4.207, -0Zm-0.944, -5.021l-4.202, 0l0, -4.205l4.202, -0l0, 4.205Zm-0.381, -9.352l0.381, -0l0, 0.979l-0.381, -0.979Zm-3.056, -0.943l0.918, -1.162l0.453, 1.162l-1.371, -0Zm1.738, 0.943l1.639, 4.205l-4.142, 0l0, -4.179l0.02, -0.026l2.483, -0Zm-2.503, 10.297l4.202, -0l0, 4.076l-4.202, -0l0, -4.076Zm15.673, -16.621l0, -0.001l-21.998, -0l0, 0.001l-0.001, -0l0, 22l22, -0l0, -22l-0.001, -0Z" style="fill: rgb(0, 0, 255);"/>
</svg>
