<svg viewBox="0 0 24 24" xmlns="http://www.w3.org/2000/svg">
  <path d="M20.299, 1l0, 22l-15.579, 0l0, -4.88l-1.018, 0l0, -1.068l1.018, 0l0, -2.456l-1.018, 0l0, -1.07l1.018, 0l0, -2.455l-1.018, 0l0, -1.067l1.018, 0l0, -2.457l-1.018, 0l0, -1.068l1.018, 0l0, -2.458l-1.018, 0l0, -1.065l1.018, 0l0, -1.956l15.579, 0Zm-1.231, 20.772l0, -1.376l-13.122, 0l0, 1.376l13.122, -0Zm0, -2.604l0, -16.939l-13.122, -0l0, 0.727l1.024, -0l0, 1.065l-1.024, -0l0, 2.458l1.024, -0l0, 1.068l-1.024, -0l0, 2.457l1.024, -0l0, 1.067l-1.024, -0l0, 2.455l1.024, -0l0, 1.07l-1.024, -0l0, 2.456l1.024, -0l0, 1.068l-1.024, -0l0, 1.048l13.122, -0Zm-2.103, -11.028l-8.485, -0l0, -1.227l8.485, -0l0, 1.227Zm0, -2.736l-8.485, -0l0, -1.228l8.485, -0l0, 1.228Z" style="fill: rgb(255, 140, 0);"/>
</svg>
