<svg viewBox="0 0 24 24" xmlns="http://www.w3.org/2000/svg">
  <path d="M21.711, 21.71l-17.602, 0l2.964, -2.964l1.186, 1.186l0.699, -0.701l-1.184, -1.185l4.896, -4.897l1.314, 1.318l0.702, -0.701l-1.317, -1.316l5.159, -5.158l1.185, 1.185l0.7, -0.699l-1.184, -1.186l2.482, -2.484l-0, 17.602Zm-20.711, 1.289l22, 0l-0, -21.998l-22, 21.998Z" style="fill: rgb(0, 0, 255);"/>
  <path d="M16.582, 17.684c-0.611, -0 -1.104, -0.493 -1.104, -1.103c-0, -0.609 0.493, -1.102 1.104, -1.102c0.609, -0 1.102, 0.493 1.104, 1.102c-0.002, 0.61 -0.495, 1.103 -1.104, 1.103m-0, -3.492c-1.32, 0.003 -2.389, 1.069 -2.393, 2.389c0.004, 1.321 1.073, 2.389 2.393, 2.389c1.321, -0 2.389, -1.068 2.391, -2.389c-0.002, -1.32 -1.07, -2.389 -2.391, -2.389" style="fill: rgb(0, 0, 255);"/>
</svg>
