<svg viewBox="0 0 24 24" xmlns="http://www.w3.org/2000/svg">
  <path d="M14.382, 11.509c0.107, 1.546 1.961, 2.443 1.511, 5.476c-0.247, 1.659 -2.109, 1.725 -2.342, 3.235c-0.232, 1.489 0.658, 2.4 2.131, 2.706c2.373, 0.493 2.739, -1.588 3.397, -3.026c0.778, -1.691 1.713, -4.47 1.5, -6.358c-0.09, -0.787 -1.166, -2.875 -3.026, -3.46c-0.054, -0.016 -3.332, -0.885 -3.171, 1.427Zm-4.764, -5.176c-0.107, 1.546 -1.961, 2.444 -1.511, 5.476c0.247, 1.66 2.108, 1.725 2.342, 3.237c0.232, 1.487 -0.659, 2.398 -2.131, 2.704c-2.373, 0.494 -2.74, -1.587 -3.398, -3.026c-0.777, -1.691 -1.712, -4.47 -1.499, -6.358c0.089, -0.788 1.165, -2.874 3.026, -3.46c0.053, -0.016 3.332, -0.885 3.171, 1.427Zm10.847, 5.757c-0.18, -0.307 -0.005, -0.738 0.39, -0.968c0.393, -0.227 0.854, -0.167 1.034, 0.142c0.178, 0.307 0.002, 0.738 -0.393, 0.969c-0.391, 0.228 -0.853, 0.164 -1.031, -0.143Zm-0.847, -1.163c-0.301, -0.306 -0.25, -0.838 0.109, -1.189c0.36, -0.355 0.892, -0.393 1.191, -0.089c0.302, 0.308 0.254, 0.839 -0.11, 1.191c-0.359, 0.354 -0.892, 0.393 -1.19, 0.087Zm-1.248, -0.878c-0.453, -0.229 -0.601, -0.846 -0.329, -1.381c0.267, -0.533 0.854, -0.783 1.307, -0.554c0.453, 0.232 0.603, 0.847 0.33, 1.382c-0.267, 0.535 -0.855, 0.783 -1.308, 0.553Zm-3.662, -0.211c-0.778, 0.184 -1.6, -0.477 -1.84, -1.479c-0.243, -1.003 0.192, -1.966 0.97, -2.152c0.778, -0.185 1.599, 0.474 1.842, 1.479c0.24, 1.003 -0.192, 1.965 -0.972, 2.152Zm2.017, -0.29c-0.549, -0.093 -0.905, -0.692 -0.794, -1.336c0.107, -0.648 0.64, -1.097 1.187, -1.005c0.549, 0.094 0.904, 0.692 0.796, 1.338c-0.108, 0.647 -0.642, 1.097 -1.189, 1.003Zm-13.19, -2.634c0.18, -0.307 0.005, -0.738 -0.39, -0.968c-0.393, -0.227 -0.854, -0.167 -1.034, 0.142c-0.178, 0.307 -0.002, 0.738 0.393, 0.969c0.391, 0.228 0.853, 0.164 1.031, -0.143Zm0.847, -1.163c0.3, -0.306 0.25, -0.838 -0.11, -1.189c-0.359, -0.355 -0.891, -0.393 -1.19, -0.089c-0.302, 0.308 -0.254, 0.839 0.109, 1.191c0.36, 0.354 0.893, 0.393 1.191, 0.087Zm1.248, -0.877c0.452, -0.23 0.6, -0.847 0.329, -1.381c-0.268, -0.534 -0.855, -0.783 -1.307, -0.554c-0.453, 0.231 -0.603, 0.847 -0.33, 1.382c0.266, 0.534 0.855, 0.783 1.308, 0.553Zm3.661, -0.212c0.779, 0.185 1.599, -0.476 1.84, -1.478c0.243, -1.004 -0.192, -1.966 -0.97, -2.152c-0.779, -0.186 -1.599, 0.473 -1.841, 1.478c-0.241, 1.003 0.191, 1.966 0.971, 2.152Zm-2.016, -0.29c0.549, -0.093 0.906, -0.692 0.794, -1.336c-0.107, -0.648 -0.64, -1.097 -1.187, -1.005c-0.55, 0.095 -0.904, 0.691 -0.796, 1.339c0.108, 0.646 0.642, 1.096 1.189, 1.002Z" style="fill: rgb(255, 140, 0);"/>
</svg>
