<svg viewBox="0 0 24 24" xmlns="http://www.w3.org/2000/svg">
  <path d="M10.039, 8.744l0.019, 0c0.002, 0 0.004, 0.002 0.007, 0.002c0.058, 0 0.117, -0.006 0.176, -0.018l3.181, -0.633c0.055, -0.011 0.097, -0.042 0.148, -0.062c0.164, 0.459 0.257, 0.976 0.17, 1.503c-0.481, -0.068 -1.594, -0.222 -2.23, -0.229c-0.124, 0.007 -0.208, -0.012 -0.488, 0.058c-0.789, 0.317 -0.733, 0.603 -0.958, 0.869c-0.151, 0.272 -0.297, 0.605 -0.438, 0.956l-2.552, -2.535l2.965, 0.089Zm1.307, 4.182c0.096, -0.324 0.209, -0.649 0.32, -0.931c0.07, -0.177 0.141, -0.338 0.203, -0.468c0.317, 0.029 0.745, 0.081 1.103, 0.127l0.683, 0.092c0, 0 0.57, 0.02 1.126, 0.251l-1.022, 1.197c-0.183, 0.213 -0.274, 0.486 -0.261, 0.767l0.057, 1.183l-1.764, -1.763l-0.445, -0.455Zm-9.755, -2.875l12.063, 12.063c0.284, 0.285 0.627, 0.504 1.023, 0.658c0.396, 0.153 0.819, 0.228 1.267, 0.228c0.672, 0 1.287, -0.183 1.848, -0.549c0.56, -0.367 0.839, -0.865 0.839, -1.496c0, -0.266 -0.056, -0.515 -0.167, -0.749c-0.112, -0.233 -0.26, -0.433 -0.443, -0.596l-1.405, -1.404l-0.745, -0.745l-0.153, -3.173l0.853, -1c0.028, -0.032 0.036, -0.072 0.059, -0.106l0.013, 0.006c0.796, -0.946 1.026, -2.342 1.026, -3.776c0, -0.448 -0.089, -0.965 -0.231, -1.476l1.027, 0.349l2.236, 2.551c0.178, 0.203 0.427, 0.307 0.677, 0.307c0.211, 0 0.422, -0.073 0.594, -0.222c0.374, -0.327 0.411, -0.896 0.084, -1.271l-2.394, -2.73c-0.013, -0.015 -0.03, -0.02 -0.044, -0.034c-0.042, -0.042 -0.092, -0.074 -0.142, -0.108c-0.051, -0.034 -0.1, -0.068 -0.156, -0.091c-0.017, -0.007 -0.029, -0.021 -0.047, -0.027l-3.44, -1.172c-1, -0.341 -2.856, 0.855 -3.211, 0.932l-2.623, 0.522l-3.043, -0.091c-0.465, -0.015 -0.848, 0.333 -0.905, 0.788l-0.093, -0.092c-0.285, -0.305 -0.632, -0.529 -1.039, -0.672c-0.407, -0.142 -0.824, -0.213 -1.252, -0.213c-0.692, 0 -1.308, 0.179 -1.847, 0.534c-0.54, 0.357 -0.809, 0.87 -0.809, 1.542c0, 0.225 0.05, 0.454 0.152, 0.688c0.102, 0.234 0.245, 0.442 0.428, 0.625" style="fill: rgb(0, 0, 255);"/>
  <path d="M13.637, 5.434c1.003, -0.235 1.626, -1.238 1.392, -2.241c-0.235, -1.004 -1.238, -1.627 -2.24, -1.392c-1.004, 0.234 -1.627, 1.237 -1.392, 2.24c0.234, 1.004 1.236, 1.627 2.24, 1.393" style="fill: rgb(0, 0, 255);"/>
</svg>
