<svg viewBox="0 0 24 24" xmlns="http://www.w3.org/2000/svg">
  <path d="M20.947, 15.547c-0.24, -0.484 -0.822, -0.676 -1.301, -0.439l-3.887, 1.938c0, -0.001 0, -0.002 -0.001, -0.003c0, -0 -0.69, -1.297 -1.373, -2.385l-1.152, -6.537l2.234, 0.254l-0.416, 1.765c-0.132, 0.564 0.217, 1.13 0.781, 1.263c0.081, 0.019 0.161, 0.028 0.24, 0.028c0.478, -0 0.908, -0.326 1.023, -0.809l0.685, -2.915c0.005, -0.019 -0.002, -0.037 0.002, -0.056c0.004, -0.024 0.018, -0.043 0.02, -0.067c0.006, -0.053 -0.011, -0.1 -0.013, -0.152c-0.002, -0.069 -0.002, -0.136 -0.018, -0.202c-0.015, -0.066 -0.042, -0.125 -0.07, -0.186c-0.027, -0.062 -0.054, -0.122 -0.093, -0.179c-0.038, -0.053 -0.084, -0.096 -0.132, -0.142c-0.049, -0.048 -0.096, -0.094 -0.155, -0.132c-0.058, -0.037 -0.12, -0.06 -0.186, -0.085c-0.046, -0.019 -0.085, -0.051 -0.136, -0.063c-0.022, -0.005 -0.043, 0.002 -0.065, -0.001c-0.02, -0.004 -0.037, -0.017 -0.057, -0.019l-4.442, -0.506c-0.314, -0.156 -0.768, -0.309 -1.311, -0.274c-0.565, 0.037 -1.026, 0.266 -1.335, 0.469c-0.004, 0.003 -0.008, 0.003 -0.011, 0.005l-0.077, 0.055c-0.024, 0.017 -0.049, 0.033 -0.071, 0.05l-2.519, 1.779l-2.273, -1.624c-0.474, -0.339 -1.129, -0.228 -1.466, 0.243c-0.337, 0.472 -0.228, 1.128 0.242, 1.465l2.882, 2.058c0.014, 0.009 0.03, 0.013 0.044, 0.022c0.064, 0.041 0.131, 0.074 0.201, 0.101c0.028, 0.01 0.054, 0.022 0.082, 0.03c0.087, 0.024 0.176, 0.04 0.267, 0.041c0.005, -0 0.011, 0.002 0.016, 0.002c0.097, -0 0.192, -0.017 0.285, -0.043c0.025, -0.007 0.048, -0.018 0.073, -0.027c0.073, -0.026 0.142, -0.06 0.208, -0.103c0.013, -0.008 0.027, -0.011 0.04, -0.02l1.568, -1.107l-0.173, 4.832c-1.013, 0.863 -2.116, 1.862 -2.116, 1.862c-0.224, 0.156 -0.36, 0.387 -0.415, 0.639l-2.035, 5.114c-0.183, 0.457 0.037, 1.122 0.58, 1.352c0.535, 0.215 1.14, -0.049 1.353, -0.58l1.816, -4.563l0.214, -0.539c0.099, -0.046 0.198, -0.093 0.295, -0.146c0, -0 1.606, -0.845 2.746, -1.587c0.634, 0.907 2.941, 3.435 2.941, 3.435c0.209, 0.294 0.547, 0.451 0.896, 0.437c0.036, -0 0.069, -0.009 0.104, -0.014c0.053, -0.007 0.106, -0.005 0.158, -0.021c0.034, -0.011 0.055, -0.03 0.086, -0.043c0.019, -0.008 0.038, -0.007 0.057, -0.016l4.722, -2.357c0.413, -0.203 0.672, -0.803 0.438, -1.297Zm-10.221, -10.204c1.176, -0.001 2.127, -0.953 2.127, -2.128c0, -1.176 -0.951, -2.128 -2.127, -2.128c-1.176, 0 -2.129, 0.953 -2.129, 2.128c0.002, 1.176 0.953, 2.128 2.129, 2.128Z" style="fill: rgb(0, 0, 255);"/>
</svg>
