<svg viewBox="0 0 24 24" xmlns="http://www.w3.org/2000/svg">
  <path d="M23, 23c-4.256, -0.443 -6.063, -1.667 -6.063, -4.125c0, -1.154 0.938, -2.25 2.577, -2.25c1.549, 0 2.135, 1.5 1.597, 2.395c-0.338, 0.562 -1.11, 0.666 -1.657, 0.4c-0.767, -0.371 -0.941, -1.701 0.337, -2.022c-0.932, -0.242 -2.031, 0.549 -2.031, 1.602c-0, 1.05 0.99, 2.162 2.177, 2.162c1.719, 0 2.782, -1.365 2.782, -2.771c-0, -1.344 -0.852, -3.069 -3.43, -3.422c-3.945, -0.541 -9.159, 2.536 -11.164, 8.031l14.875, 0Z" style="fill: rgb(0, 0, 255);"/>
  <path d="M11.03, 15.134c-0.028, -0.4 -0.082, -0.744 -0.182, -0.947c-0.441, -0.891 -2.301, -1.575 -2.09, -1.87c0.171, -0.239 2.819, -0.536 3.319, -0.586c0.5, -0.051 0.875, 0.144 0.969, 0.55c0.035, 0.153 0.137, 0.816 0.249, 1.582c-0.535, 0.281 -1.076, 0.572 -1.621, 0.887c-0.219, 0.127 -0.431, 0.256 -0.644, 0.384m4.045, -2.152c-0.126, -0.864 -0.256, -1.695 -0.351, -2.129c-0.25, -1.146 -1.1, -1.211 -1.564, -1.203c-1.466, 0.024 -3.741, 0.463 -4.051, 0.381c-0.178, -0.049 -0.402, -0.941 -0.142, -2.436c0.048, -0.276 0.112, -0.549 0.181, -0.82c0.968, 0.119 2.76, 0.263 3.972, -0.099c1.136, -0.338 2.406, -1.629 2.779, -2.092c0.381, -0.471 0.337, -1.033 0.067, -1.282c-0.27, -0.246 -0.831, -0.201 -1.349, 0.204c-0.516, 0.404 -1.482, 1.255 -2.039, 1.386c-0.626, 0.148 -1.931, 0.071 -2.903, -0.066c0.012, -0.052 0.019, -0.099 0.028, -0.149c0.747, 0.037 1.473, -0.384 1.781, -1.117c0.397, -0.935 -0.041, -2.015 -0.979, -2.414c-0.935, -0.396 -2.017, 0.043 -2.414, 0.981c-0.269, 0.638 -0.145, 1.336 0.251, 1.844c-0.128, 0.138 -0.259, 0.291 -0.393, 0.468c-0.994, 0.313 -2.789, 0.976 -3.998, 1.997c-0.518, 0.437 -1.704, 2.658 -1.84, 3.272c-0.137, 0.614 0.113, 0.955 0.454, 1.069c0.34, 0.113 0.714, 0.133 1.091, -0.547c0.569, -1.023 1.432, -2.5 2, -2.795c0.179, -0.093 0.507, -0.255 0.889, -0.434c-0.652, 1.67 -0.982, 3.65 -0.359, 5.355c0.574, 1.569 2.394, 2.03 2.79, 2.909c0.106, 0.234 0.121, 0.646 0.096, 1.116c-4.232, 2.854 -6.916, 5.716 -6.662, 6.154c0.2, 0.347 2.609, -0.134 5.858, -1.442c2.254, -4.302 6.428, -6.822 10.103, -6.837c0.342, -0 0.678, 0.024 1.005, 0.068c0.086, 0.011 0.161, 0.032 0.244, 0.045c2.295, -1.891 3.609, -3.436 3.428, -3.749c-0.241, -0.417 -3.699, 0.367 -7.973, 2.362" style="fill: rgb(255, 140, 0);"/>
</svg>
