<svg viewBox="0 0 24 24" xmlns="http://www.w3.org/2000/svg">
  <path d="M2.647, 20.483l1.983, -1.982l-2.28, -2.28c0.13, -0.929 0.379, -1.94 0.775, -2.995l3.39, 3.39l2.475, -2.476l-0.828, -0.827l0.868, -0.87l0.829, 0.829l1.272, -1.272l-0.828, -0.827l0.869, -0.869l0.828, 0.826l1.271, -1.27l-0.828, -0.826l0.867, -0.868l0.828, 0.828l2.479, -2.479l-3.39, -3.39c1.052, -0.396 2.063, -0.645 2.993, -0.776l2.281, 2.281l1.983, -1.983c0.274, 0.109 0.469, 0.223 0.549, 0.318c0.096, 0.081 0.21, 0.276 0.32, 0.549l-1.984, 1.985l2.28, 2.281c-0.13, 0.927 -0.379, 1.938 -0.775, 2.992l-3.39, -3.389l-2.478, 2.479l0.83, 0.829l-0.867, 0.867l-0.829, -0.83l-1.272, 1.272l0.829, 0.83l-0.868, 0.868l-0.829, -0.83l-1.272, 1.272l0.829, 0.828l-0.868, 0.869l-0.83, -0.828l-2.475, 2.477l3.388, 3.388c-1.054, 0.396 -2.064, 0.645 -2.993, 0.776l-2.28, -2.279l-1.982, 1.982c-0.274, -0.11 -0.47, -0.224 -0.551, -0.319c-0.095, -0.083 -0.209, -0.279 -0.319, -0.551m19.254, -18.385c-0.757, -0.716 -2.143, -1.078 -4.017, -1.097c-3.14, -0.002 -7.59, 1.235 -11.617, 5.266c-4.029, 4.029 -5.268, 8.475 -5.266, 11.615c0.019, 1.872 0.381, 3.259 1.096, 4.019c0.76, 0.715 2.147, 1.078 4.021, 1.097l0.008, 0c3.139, 0 7.582, -1.242 11.607, -5.267c4.027, -4.025 5.267, -8.476 5.267, -11.614c-0.021, -1.874 -0.384, -3.264 -1.099, -4.019" style="fill: rgb(180, 80, 0);"/>
</svg>
