<svg viewBox="0 0 24 24" xmlns="http://www.w3.org/2000/svg">
  <path d="M13.715, 17.745c-0.21, 0.295 -0.358, 0.594 -0.424, 0.735l-0, 0.263l9.725, 0l-0.003, -1.706l-8.382, 0c-0.234, -0.024 -0.628, 0.284 -0.916, 0.708Zm-12.601, -3.115c0.305, -1.587 1.275, -2.891 2.794, -3.564c2.909, -1.336 7.102, -2.213 7.405, -2.283c0.477, -0.103 1.945, -0.393 2.585, -0.737c6.43, -3.048 8.11, -3.11 9.09, -3.106l0.012, 0.002l0, 1.299l-0.012, -0c-0.597, 0.003 -1.538, -0.022 -4.877, 1.352c0.282, 0.05 0.525, 0.093 0.628, 0.11c0.51, -0.124 0.924, -0.175 1.269, -0.175c0.681, -0.002 1.09, 0.215 1.305, 0.474c0.214, 0.255 0.22, 0.508 0.22, 0.539l0.002, 0.004c-0.121, 0.525 -0.567, 0.504 -1.142, 0.655c-0.595, 0.107 -1.393, 0.179 -2.27, 0.232c-1.524, 0.092 -3.272, 0.117 -4.512, 0.123c-0.816, 0.263 -1.689, 0.418 -2.01, 0.496c-0.275, 0.06 -3.759, 0.804 -6.422, 1.883l0, 2.696l17.829, -0l0, 0.002l0.003, 1.405l-8.38, -0c-1.643, 0.14 -2.234, 2.143 -2.302, 2.149l-0.037, 0.089l0, 0.468l-4.948, -0c-0.266, -0.001 -0.522, -0.005 -0.769, -0.013c-1.724, -0.06 -2.994, -0.321 -3.915, -0.749c-1.038, -0.469 -1.686, -1.29 -1.675, -2.21c0.002, -0.13 0.018, -0.224 0.032, -0.309c0.011, -0.259 0.038, -0.511 0.082, -0.757l0.007, -0.075l0.008, -0Zm3.064, -0l0, -2.236c-0.909, 0.501 -1.494, 1.242 -1.74, 2.236l1.74, -0Zm4.759, -1.052l-2.603, -0c-0.239, -0 -0.434, -0.194 -0.434, -0.433c0, -0.241 0.195, -0.435 0.434, -0.435l2.603, -0c0.239, 0 0.433, 0.194 0.433, 0.435c0, 0.239 -0.194, 0.433 -0.433, 0.433Zm14.063, -1.953l0, 1.25c-1.625, -0.375 -9.402, -1.25 -9.406, -1.25l9.406, -0Z" style="fill: rgb(0, 60, 150);"/>
</svg>
