<svg viewBox="0 0 24 24" xmlns="http://www.w3.org/2000/svg">
  <path d="M19.336, 15.674l-3.676, 0l0, 1.226l3.676, 0l0, -1.226Zm-2.449, -13.448l-9.773, 0l0, 1.225l9.773, 0l0, -1.225Zm-8.548, 13.448l-3.676, 0l0, 1.226l3.676, 0l0, -1.226Zm10.997, -5.485l0, -3.707c0, -0.57 -0.254, -1.015 -0.766, -1.332c-0.509, -0.316 -1.05, -0.474 -1.623, -0.474l-9.834, -0c-0.572, -0 -1.124, 0.168 -1.654, 0.506c-0.531, 0.337 -0.796, 0.771 -0.796, 1.3l0, 3.707c0, 0.247 0.07, 0.411 0.214, 0.492c0.143, 0.081 0.367, 0.122 0.674, 0.122l12.928, 0c0.287, 0 0.5, -0.041 0.644, -0.122c0.141, -0.081 0.213, -0.245 0.213, -0.492m1.227, 7.936l-1.227, 2.451l0, 1.225c0, 0.326 -0.121, 0.612 -0.367, 0.857c-0.244, 0.246 -0.531, 0.368 -0.858, 0.368c-0.328, 0 -0.613, -0.122 -0.857, -0.368c-0.246, -0.245 -0.367, -0.531 -0.367, -0.857l0, -1.225l-9.774, 0l0, 1.225c0, 0.326 -0.128, 0.612 -0.383, 0.857c-0.255, 0.246 -0.536, 0.368 -0.842, 0.368c-0.348, 0 -0.638, -0.122 -0.873, -0.368c-0.236, -0.245 -0.352, -0.531 -0.352, -0.857l0, -1.225l-1.225, -2.451l0, -14.337c0, -0.674 0.239, -1.307 0.719, -1.9c0.48, -0.592 1.057, -0.888 1.731, -0.888l12.192, 0c0.654, 0 1.231, 0.296 1.731, 0.888c0.502, 0.593 0.752, 1.226 0.752, 1.9l0, 14.337Z" style="fill: rgb(255, 0, 0);"/>
</svg>
