<svg viewBox="0 0 24 24" xmlns="http://www.w3.org/2000/svg">
  <path d="M12.049, 8.952l-1.678, 0.344l-0.133, -1.533c-0.002, -0.116 0.014, -0.226 0.027, -0.337l1.784, 0l0, 1.526Zm-8.914, 5.065l-2.135, 0c0, 0 1.954, 4.273 7.778, 4.273l10.397, 0l1.033, -2.023l0.753, 0l0, 2.023l1.558, 0l0, -2.023l0.481, 0l0, -5.117l-3.616, 0l0, 1.586c-1.245, 0.006 -2.465, 0.054 -3.638, 0.132l-0.658, -2.656c-0.113, -0.454 -0.576, -0.733 -1.03, -0.621l-0.32, 0.08c0.609, -0.455 1.003, -1.183 0.988, -2.002c-0.028, -1.351 -1.144, -2.425 -2.494, -2.4c-1.349, 0.028 -2.424, 1.143 -2.398, 2.494l0.209, 2.396l1.767, 0c-0.252, 0.079 -0.434, 0.266 -0.527, 0.498l-3.447, 3.186c-0.344, 0.062 -0.65, 0.12 -0.932, 0.174l-2.467, 0l0, -1.744l3, -1.289l-4.302, -1.849l0, 4.882Z" style="fill: rgb(0, 0, 255);"/>
</svg>
