<svg viewBox="0 0 24 24" xmlns="http://www.w3.org/2000/svg">
  <path d="M21.701, 13.998l-13.367, -0l0, -7.764l13.367, 0l0, 7.764Zm-3.303, 5.029c-0.601, -0 -1.089, -0.488 -1.089, -1.09c0, -0.601 0.488, -1.089 1.089, -1.089c0.604, -0 1.09, 0.488 1.09, 1.089c-0, 0.602 -0.486, 1.09 -1.09, 1.09m-11.363, -7.09l-4.568, -0l1.344, -3.492l3.224, -0l0, 3.492Zm-1.367, 7.09c-0.602, -0 -1.09, -0.488 -1.09, -1.09c0, -0.601 0.488, -1.089 1.09, -1.089c0.603, -0 1.09, 0.488 1.09, 1.089c0, 0.602 -0.487, 1.09 -1.09, 1.09m1.367, -14.091l0, 2.207l-4.014, -0l-2.021, 4.794l0, 6l2.168, 0c0, 1.381 1.119, 2.5 2.5, 2.5c1.381, 0 2.5, -1.119 2.5, -2.5l7.73, 0c0, 1.381 1.12, 2.5 2.5, 2.5c1.381, 0 2.5, -1.119 2.5, -2.5l2.102, 0l0, -13.001l-15.965, -0Z" style="fill: rgb(0, 0, 255);"/>
</svg>
