<svg viewBox="0 0 24 24" xmlns="http://www.w3.org/2000/svg">
  <path d="M1.021, 11.999c0, -6.062 4.916, -10.978 10.978, -10.978c6.061, 0 10.977, 4.916 10.977, 10.978c0, 6.062 -4.916, 10.978 -10.977, 10.978c-6.062, 0 -10.978, -4.916 -10.978, -10.978Zm1.301, 0c0.008, 5.343 4.333, 9.668 9.677, 9.679c5.343, -0.011 9.668, -4.336 9.678, -9.679c-0.01, -5.344 -4.335, -9.668 -9.678, -9.677c-5.344, 0.009 -9.669, 4.333 -9.677, 9.677Zm11.377, -6.867c2.603, 0 4.714, 2.108 4.714, 4.711c0, 2.604 -2.111, 4.711 -4.714, 4.711l-3.36, 0l0, 4.819l-2.361, 0l0, -14.241l5.721, 0Zm0, 7.063c1.3, -0.004 2.352, -1.053 2.354, -2.352c-0.002, -1.298 -1.054, -2.347 -2.354, -2.351l-3.36, 0l0, 4.703l3.36, 0Z" style="fill: rgb(0, 0, 255);"/>
</svg>
