<svg viewBox="0 0 24 24" xmlns="http://www.w3.org/2000/svg">
  <path d="M15.302, 6.708c1.011, 0 1.445, 0.899 1.517, 1.443c0.059, 0.457 0.593, 6.994 0.76, 9.052l1.081, 0l0.432, 5.797l-14.184, 0l0.43, -5.797l1.084, 0c0.167, -2.058 0.7, -8.595 0.761, -9.052c0.072, -0.544 0.505, -1.443 1.517, -1.443l6.602, 0Zm2.429, 15.03l-0.243, -3.272l-10.978, -0.002l-0.242, 3.274l11.463, 0Zm-1.261, -5.676c-0, 0.31 -0.252, 0.562 -0.563, 0.562c-0.312, 0 -0.563, -0.252 -0.563, -0.562c-0, -0.312 0.251, -0.563 0.563, -0.563c0.311, 0 0.563, 0.251 0.563, 0.563Zm-0.681, -1.161c0.237, -0.018 0.417, -0.227 0.399, -0.465c-0.001, -0.009 -0.473, -6.068 -0.524, -6.478c-0.029, -0.238 -0.245, -0.405 -0.482, -0.374c-0.239, 0.028 -0.406, 0.245 -0.377, 0.482c0.043, 0.332 0.518, 6.432 0.518, 6.437c0.018, 0.226 0.206, 0.398 0.432, 0.398l0.034, 0Zm3.608, -12.069l0.897, 0.895l-2.533, 2.536l-0.896, -0.896l2.532, -2.535Zm-14.8, 0.002l2.535, 2.532l-0.892, 0.893l-2.534, -2.533l0.891, -0.892Zm8.034, 1.751l-1.264, -0l0, -3.585l1.264, -0l0, 3.585Z" style="fill: rgb(255, 0, 0);"/>
</svg>
