<svg viewBox="0 0 24 24" xmlns="http://www.w3.org/2000/svg">
  <path d="M20.138, 14.083c-0.042, -1.286 0.728, -5.214 -1.019, -5.468c-1.282, -0.186 -2.401, 0.755 -2.91, 1.271c-0.193, -0.127 -0.409, -0.235 -0.669, -0.302c-0.358, -0.093 -0.696, -0.124 -1.023, -0.125c0.259, -0.218 0.503, -0.485 0.523, -0.74c0.032, -0.375 -0.157, -0.621 -0.375, -0.485c-0.459, 0.287 -1.216, 1.244 -2.727, 1.013l-0, -8.247l-1.316, -0l-0, 7.832c-0.484, -0.202 -0.409, -0.662 -0.637, -1.023c-0.194, -0.307 -0.493, -0.642 -0.493, -0.642l0.591, -0.464c-0, 0 -0.465, 0.041 -1.182, -0.296c-0.718, -0.337 -0.666, -0.704 -0.651, -0.923c0.016, -0.218 0.578, -0.328 0.578, -0.328c-0, 0 -0.913, -0.204 -1.593, -0.699c-0.28, -0.328 -0.568, -0.579 -0.861, -0.702c-0.032, -0.693 -0.118, -1.482 -0.349, -1.443c-0.229, 0.037 -0.47, 0.749 -0.642, 1.373c-0.111, 0.013 -0.203, 0.04 -0.3, 0.064c-0.158, -0.659 -0.381, -1.37 -0.594, -1.293c-0.203, 0.073 -0.309, 0.72 -0.367, 1.329c-0.313, 0.075 -0.637, 0.184 -0.637, 0.184c-0, 0 0.323, 0.156 0.481, 0.478c-0.325, 0.427 -0.465, 0.932 -0.613, 1.272c-0.313, 0.718 -0.125, 0.968 -0.625, 1.687c-0.5, 0.719 -1.531, 0.969 -0.625, 2.063c0.089, 0.107 1.008, 0.823 1.437, 0.468c0.476, -0.392 1.188, -0.968 1.188, -0.968c-0, 0 0.781, -0.094 0.531, 0.812c-0.267, 0.972 -0.469, 3.135 -0.469, 3.135c-0, 0 -3.031, 0.094 -3.156, 0.678c-0.125, 0.584 1.406, 4.489 1.406, 4.489l1.708, 0.75l-0.5, -1.958l-0.614, -0.063l-0.469, -2.281c-0, 0 1.612, 0.138 2.917, 0.428c1.135, 0.252 1.791, 0.708 3.38, 0.944c0.439, 0.066 0.814, 0.094 1.16, 0.108l-0, 6.989l1.316, -0l-0, -7.05c0.833, -0.135 1.144, -0.408 1.144, -0.408c-0, -0 0.026, 1.25 0.776, 1.458c0.75, 0.208 3.099, -0.021 3.432, 0.437c0.333, 0.459 -0.875, 2.23 -0.875, 2.23l0.5, 2.333l0.969, -1.219l-0.25, -1.062c-0, -0 1.5, -1.938 1.5, -2.938c-0, -1 -1.75, -0.937 -1.844, -2.062c-0.024, -0.294 0.192, -1.494 0.047, -2.67c0.437, -0.409 1.103, -0.775 1.228, -0.057c0.275, 1.573 -0.377, 4.096 1.451, 4.62c1.014, 0.29 2.357, -0.856 2.357, -0.856c-0, -0 -2.18, -0.022 -2.235, -1.673" style="fill: rgb(255, 0, 255);"/>
</svg>
