<svg viewBox="0 0 24 24" xmlns="http://www.w3.org/2000/svg">
  <path d="M22.898, 10.641c-0.051, -0.029 -2.205, -3.44 -5.703, -3.498c-3.641, 0.059 -6.116, 3.624 -8.032, 6.451c-1.877, 2.811 -4.275, 4.999 -7.672, 5.684l-0.491, 0.098l0.004, 3.624l1.228, -0l-0.005, -2.63c1.499, -0.368 2.806, -1.02 3.969, -1.849l0, 4.479l1.226, -0l0, -5.469c1.051, -0.956 1.97, -2.062 2.763, -3.255c0.377, -0.576 0.779, -1.162 1.201, -1.732l0, 10.456l1.23, -0l0, -11.972c1.212, -1.352 2.55, -2.393 3.966, -2.61l0, 14.582l1.226, -0l0, -14.574c1.051, 0.174 1.998, 0.77 2.719, 1.404c0.633, 0.553 1.062, 1.102 1.246, 1.352l0, 11.818l1.227, -0l0, -12.205l-0.102, -0.154Zm-15.436, 1.632l0.968, 0.716l2.667, -3.616l-1.752, -1.291l-2.123, 2.878l0.24, 1.313Zm0.222, -2.202c0.266, -0.359 0.189, -0.866 -0.171, -1.132c-0.36, -0.269 -0.867, -0.19 -1.133, 0.17c-0.266, 0.359 -0.192, 0.868 0.17, 1.134c0.361, 0.265 0.868, 0.188 1.134, -0.172Zm2.968, -1.796l0.732, 0.956l3.563, -2.739l-1.324, -1.725l-2.838, 2.181l-0.133, 1.327Zm-1.914, 0.366c0.27, -0.359 0.191, -0.867 -0.17, -1.133c-0.361, -0.265 -0.869, -0.189 -1.131, 0.17c-0.269, 0.361 -0.193, 0.869 0.169, 1.135c0.359, 0.265 0.867, 0.187 1.132, -0.172Zm2.736, -2.42c0.354, -0.271 0.422, -0.782 0.148, -1.136c-0.273, -0.356 -0.781, -0.422 -1.136, -0.149c-0.356, 0.272 -0.422, 0.783 -0.151, 1.138c0.274, 0.354 0.784, 0.42 1.139, 0.147Zm8.333, 0.139l-4.492, -0l-0, -1.2l0.914, -0.973l3.578, -0l-0, 2.173Zm-6.923, -1.221c0.354, -0.271 0.42, -0.782 0.147, -1.138c-0.272, -0.355 -0.782, -0.423 -1.135, -0.15c-0.356, 0.272 -0.422, 0.783 -0.151, 1.138c0.276, 0.356 0.784, 0.422 1.139, 0.15Zm4.333, -1.108c0.449, -0 0.813, -0.364 0.813, -0.813c-0, -0.448 -0.364, -0.809 -0.813, -0.809c-0.447, -0 -0.809, 0.361 -0.809, 0.809c-0, 0.449 0.362, 0.813 0.809, 0.813Zm1.779, -0c0.447, -0 0.811, -0.364 0.811, -0.813c0, -0.448 -0.364, -0.809 -0.811, -0.809c-0.447, -0 -0.811, 0.361 -0.811, 0.809c0, 0.449 0.364, 0.813 0.811, 0.813Z" style="fill: rgb(255, 0, 0);"/>
</svg>
