<svg viewBox="0 0 24 24" xmlns="http://www.w3.org/2000/svg">
  <path d="M17.374, 19.249c-0.697, 0 -1.266, -0.568 -1.266, -1.268c0, -0.698 0.569, -1.265 1.266, -1.265c0.672, 0 1.208, 0.528 1.25, 1.188l0, 0.155c-0.042, 0.661 -0.578, 1.19 -1.25, 1.19m-10.389, -5.431c-0.382, 0 -0.692, -0.307 -0.692, -0.69c0, -0.382 0.31, -0.692 0.692, -0.692c0.382, 0 0.691, 0.31 0.691, 0.692c0, 0.383 -0.309, 0.69 -0.691, 0.69m6.701, -12.705c-1.159, -0 -2.26, 0.286 -3.221, 0.793l0.232, 0.442l-0.001, 0c-2.05, 1.075 -3.446, 3.227 -3.446, 5.702l0, 2.583c-0.721, 0.595 -2.702, 1.986 -2.702, 4.357l-1.165, 2.276l1.742, 0c0.536, 0.978 1.333, 1.64 1.905, 2.021l-1.567, 2.709l4.536, 0l-1.567, -2.709c0.571, -0.381 1.367, -1.043 1.903, -2.021l1.744, 0l-1.167, -2.276c0, -2.334 -1.913, -3.714 -2.663, -4.324l0, -2.616c0, -2.093 1.18, -3.905 2.913, -4.818l0.233, 0.444c0.686, -0.36 1.462, -0.564 2.291, -0.564c2.727, 0.006 4.932, 2.211 4.938, 4.938l0, 7.703c-0.371, -0.209 -0.794, -0.338 -1.25, -0.338c-1.418, 0 -2.566, 1.15 -2.566, 2.566c0, 1.417 1.148, 2.568 2.566, 2.568c0.456, 0 0.879, -0.129 1.25, -0.338l0, 2.789l1.999, 0l0, -14.95c0, -3.83 -3.104, -6.937 -6.937, -6.937" style="fill: rgb(0, 0, 255);"/>
</svg>
