<svg viewBox="0 0 24 24" xmlns="http://www.w3.org/2000/svg">
  <path d="M13.546, 19.327l-1.193, -0c0.061, 0.898 0.254, 1.53 0.581, 1.898c0.326, 0.366 0.929, 0.55 1.806, 0.55l1.867, 0l-0, 1.226l-1.867, -0c-1.224, -0 -2.117, -0.302 -2.678, -0.904c-0.562, -0.602 -0.873, -1.525 -0.934, -2.77l-1.255, -0l-0.681, -9.055l5.035, -0l-0.681, 9.055Zm2.448, -14.049c0, 1.162 -0.424, 2.168 -1.27, 3.013c-0.846, 0.848 -1.852, 1.272 -3.015, 1.272c-1.204, -0 -2.225, -0.424 -3.061, -1.272c-0.837, -0.845 -1.255, -1.851 -1.255, -3.013c0, -1.205 0.418, -2.22 1.255, -3.047c0.836, -0.826 1.847, -1.239 3.03, -1.239c1.183, -0 2.2, 0.413 3.046, 1.239c0.846, 0.827 1.27, 1.842 1.27, 3.047Zm-1.093, 0.611c0, -0.223 -0.081, -0.4 -0.239, -0.537c-0.161, -0.135 -0.328, -0.203 -0.499, -0.203c-0.224, -0 -0.408, 0.068 -0.558, 0.203c-0.148, 0.137 -0.222, 0.314 -0.222, 0.537c0, 0.197 0.074, 0.371 0.222, 0.52c0.15, 0.147 0.321, 0.22 0.52, 0.22c0.197, -0 0.376, -0.073 0.537, -0.22c0.158, -0.149 0.239, -0.323 0.239, -0.52Zm-2.449, -0c0, -0.223 -0.08, -0.4 -0.239, -0.537c-0.163, -0.135 -0.328, -0.203 -0.501, -0.203c-0.221, -0 -0.408, 0.068 -0.555, 0.203c-0.149, 0.137 -0.222, 0.314 -0.222, 0.537c0, 0.197 0.073, 0.371 0.222, 0.52c0.147, 0.147 0.32, 0.22 0.518, 0.22c0.198, -0 0.375, -0.073 0.538, -0.22c0.159, -0.149 0.239, -0.323 0.239, -0.52Zm-2.485, -0l0.037, -0c0, -0.223 -0.081, -0.4 -0.24, -0.537c-0.161, -0.135 -0.329, -0.203 -0.5, -0.203c-0.223, -0 -0.408, 0.068 -0.556, 0.203c-0.149, 0.137 -0.223, 0.314 -0.223, 0.537c0, 0.197 0.074, 0.371 0.223, 0.52c0.148, 0.147 0.32, 0.22 0.519, 0.22c0.196, -0 0.371, -0.073 0.518, -0.22c0.148, -0.149 0.222, -0.323 0.222, -0.52Zm3.673, -2.449l0.037, -0c0, -0.222 -0.081, -0.401 -0.241, -0.537c-0.161, -0.135 -0.327, -0.203 -0.5, -0.203c-0.221, -0 -0.406, 0.068 -0.556, 0.203c-0.147, 0.136 -0.221, 0.315 -0.221, 0.537c0, 0.199 0.074, 0.371 0.221, 0.519c0.15, 0.148 0.321, 0.222 0.52, 0.222c0.197, -0 0.37, -0.074 0.517, -0.222c0.15, -0.148 0.223, -0.32 0.223, -0.519Zm-2.448, -0l0.037, -0c0, -0.222 -0.08, -0.401 -0.241, -0.537c-0.16, -0.135 -0.327, -0.203 -0.501, -0.203c-0.221, -0 -0.406, 0.068 -0.555, 0.203c-0.148, 0.136 -0.222, 0.315 -0.222, 0.537c0, 0.199 0.074, 0.371 0.222, 0.519c0.149, 0.148 0.321, 0.222 0.519, 0.222c0.197, -0 0.371, -0.074 0.518, -0.222c0.149, -0.148 0.223, -0.32 0.223, -0.519Z" style="fill: rgb(89, 89, 89);"/>
</svg>
