<svg viewBox="0 0 24 24" xmlns="http://www.w3.org/2000/svg">
  <path d="M21.453, 12.504c1.032, -1.033 1.549, -2.39 1.547, -3.737c0.002, -1.352 -0.517, -2.709 -1.544, -3.738c-1.032, -1.032 -2.389, -1.549 -3.739, -1.547c-1.349, -0.002 -2.707, 0.517 -3.736, 1.547l-0, 0.001c-0.232, 0.232 -0.43, 0.485 -0.609, 0.747c-0.297, -0.765 -0.75, -1.482 -1.363, -2.097c-1.187, -1.185 -2.747, -1.781 -4.298, -1.779c-1.553, -0.002 -3.11, 0.593 -4.293, 1.777l-0.001, 0.001c-0, -0 -0.001, 0.001 -0.002, 0.001c-1.183, 1.183 -1.782, 2.743 -1.779, 4.293c-0.003, 1.553 0.596, 3.113 1.782, 4.297c0.609, 0.609 1.319, 1.059 2.075, 1.356l-0, 0.674l-4.493, -0.844l-0, 6.164l4.493, -0.844l-0, 3.324l13.654, -0l-0, -3.448l1.832, -0l-0, -4.227l-1.832, -0l-0, -0.598c0.844, -0.238 1.645, -0.665 2.306, -1.323Zm-3.515, 8.387l-0, -6.344l-11.235, -0l-0.001, 6.344l11.236, -0Zm-1.081, -1.08l-9.073, 0l0, -4.181l9.073, 0l0, 4.181Zm-1.743, -6.474c-0.406, -0.228 -0.792, -0.493 -1.133, -0.835c-0.441, -0.439 -0.768, -0.948 -1.022, -1.481c-0.259, 0.446 -0.572, 0.868 -0.954, 1.25c-0.437, 0.435 -0.925, 0.791 -1.444, 1.066l4.553, -0Zm-7.884, -3.564l0.642, 2.401c-0.054, 0.002 -0.106, 0.016 -0.161, 0.016c-0.784, -0.002 -1.559, -0.225 -2.243, -0.655l1.762, -1.762Zm10.44, 2.409c-0.562, -0.008 -1.113, -0.16 -1.611, -0.439l1.178, -1.18l0.433, 1.619Zm1.797, -0.486l-0.431, -1.616l1.615, 0.433c-0.143, 0.239 -0.307, 0.468 -0.512, 0.673c-0.205, 0.205 -0.433, 0.367 -0.672, 0.51Zm-9.799, -0.012l-0.641, -2.395l2.393, 0.642c-0.192, 0.365 -0.424, 0.715 -0.731, 1.022c-0.308, 0.309 -0.658, 0.539 -1.021, 0.731Zm5.071, -1.256c-0.281, -0.503 -0.436, -1.055 -0.444, -1.618l1.627, 0.436l-1.183, 1.182Zm-11.24, -2.455c-0, -0.054 0.012, -0.107 0.014, -0.161l2.403, 0.643l-1.763, 1.764c-0.434, -0.684 -0.654, -1.462 -0.654, -2.246Zm17.195, -0.869c0.279, 0.501 0.432, 1.052 0.443, 1.612l-1.621, -0.434l1.178, -1.178Zm-9.423, -1.372c0.43, 0.682 0.651, 1.458 0.651, 2.241c-0, 0.055 -0.014, 0.108 -0.016, 0.164l-2.396, -0.644l1.761, -1.761Zm4.028, 0.612c0.205, -0.205 0.434, -0.368 0.67, -0.51l0.432, 1.614l-1.615, -0.433c0.144, -0.238 0.306, -0.466 0.511, -0.671l0.002, -0Zm2.467, -0.997c0.563, 0.008 1.111, 0.161 1.613, 0.441l-1.179, 1.178l-0.434, -1.619Zm-13.034, -0.353c0.308, -0.309 0.658, -0.539 1.022, -0.731l0.642, 2.396l-2.395, -0.643c0.192, -0.364 0.422, -0.713 0.729, -1.021l0.002, -0.001Zm5.223, -0.579l-1.762, 1.763l-0.643, -2.402c0.054, -0.003 0.106, -0.016 0.161, -0.016c0.783, 0.002 1.56, 0.223 2.244, 0.655Z" style="fill: rgb(89, 89, 89);"/>
</svg>
