<svg viewBox="0 0 24 24" xmlns="http://www.w3.org/2000/svg">
  <path d="M15.677, 19.413c-0.108, -0.26 -0.185, -0.675 -0.185, -1.157c-0, -0.308 0.03, -0.645 0.093, -0.987c0.122, -0.692 0.35, -1.294 0.598, -1.693c0.238, -0.397 0.494, -0.526 0.54, -0.521l0.005, 0.001l-0, -0.001c0.041, 0.007 0.145, 0.07 0.252, 0.323c0.107, 0.261 0.182, 0.673 0.182, 1.155c-0, 0.307 -0.03, 0.642 -0.09, 0.994c-0.119, 0.687 -0.349, 1.287 -0.598, 1.686c-0.249, 0.414 -0.516, 0.538 -0.547, 0.52l-0.018, 0c-0.004, 0.004 -0.119, -0.046 -0.232, -0.32m2.353, -1.718l-0, -0.004c0.068, -0.399 0.102, -0.788 0.102, -1.158c-0.032, -1.117 -0.23, -2.158 -1.223, -2.432c-0.058, -0.013 -0.129, -0.016 -0.181, -0.016c-1.199, 0.131 -1.771, 1.453 -2.099, 3.011c-0.073, 0.399 -0.104, 0.794 -0.104, 1.16c0.029, 1.119 0.229, 2.162 1.224, 2.434c0.06, 0.01 0.117, 0.014 0.178, 0.014c1.201, -0.128 1.772, -1.453 2.103, -3.009" style="fill: rgb(89, 89, 89);"/>
  <path d="M14.903, 21.374c-0.246, -0.255 -0.865, -1.004 -0.871, -2.775c0, -0.459 0.04, -0.982 0.148, -1.58c0.33, -1.856 0.965, -2.824 1.47, -3.336c0.254, -0.256 0.479, -0.401 0.632, -0.481c0.037, -0.019 0.069, -0.034 0.097, -0.047l1.466, 0.26c0.101, 0.156 0.247, 0.402 0.408, 0.76c0.279, 0.625 0.558, 1.516 0.558, 2.576c0, 0.341 -0.028, 0.694 -0.094, 1.065c-0.236, 1.349 -0.871, 2.346 -1.449, 3.011c-0.289, 0.332 -0.563, 0.579 -0.761, 0.738c-0.05, 0.041 -0.077, 0.06 -0.116, 0.089l-1.466, -0.258c-0.005, -0.006 -0.013, -0.013 -0.022, -0.022m-7.181, -8.171c0.447, 0.246 1.597, 1.034 2.099, 3.814c0.104, 0.599 0.148, 1.126 0.148, 1.582c-0.001, 1.181 -0.282, 1.907 -0.535, 2.337c-0.128, 0.213 -0.251, 0.356 -0.334, 0.44c-0.009, 0.008 -0.016, 0.014 -0.023, 0.02l-0.413, 0.074c0.329, -0.745 0.651, -1.792 0.655, -3.06c0, -0.41 -0.037, -0.838 -0.112, -1.281c-0.331, -1.839 -1.246, -3.122 -1.994, -3.9l0.413, -0.073c0.027, 0.011 0.057, 0.027 0.096, 0.047m10.603, -0.985l-0.488, -0.086l0.353, -1.524l0, -0.001l0.765, 0.116l0, -0.002c0.008, -0.051 0.106, -0.699 0.106, -1.653c-0.008, -1.299 -0.163, -3.173 -1.147, -4.905c-0.956, -1.751 -3.007, -3.205 -5.912, -3.162c-2.904, -0.043 -4.957, 1.411 -5.915, 3.162c-0.984, 1.732 -1.139, 3.607 -1.145, 4.905c0, 0.956 0.102, 1.61 0.107, 1.659l0.767, -0.12l0, 0.001l0.353, 1.523l-0.49, 0.087c-2.193, 0.405 -3.179, 2.583 -3.165, 4.73c0, 0.441 0.038, 0.891 0.119, 1.338c0.428, 2.406 1.975, 4.668 4.341, 4.714c0.195, -0 0.391, -0.021 0.592, -0.053l0.15, -0.025l0.006, -0.004l1.865, -0.328l0.11, -0.072c0.128, -0.067 1.548, -1.134 1.536, -3.919c0, -0.538 -0.052, -1.134 -0.168, -1.801c-0.701, -4.13 -3.062, -4.897 -3.24, -4.906l-0.128, -0.033l-0.281, 0.051l-0.351, -1.498l0.763, -0.119c0, -0.002 -0.075, -0.47 -0.075, -1.225c-0.008, -1.033 0.174, -2.488 0.772, -3.502c0.622, -0.996 1.398, -1.708 3.477, -1.751c2.08, 0.043 2.852, 0.755 3.476, 1.751c0.598, 1.014 0.779, 2.469 0.772, 3.502c0, 0.759 -0.081, 1.231 -0.072, 1.233l0.761, 0.116l-0.348, 1.495l-0.287, -0.051l-0.125, 0.031c-0.176, 0.009 -2.542, 0.774 -3.242, 4.905c-0.119, 0.666 -0.169, 1.267 -0.169, 1.802c-0.014, 2.785 1.409, 3.852 1.535, 3.918l0.112, 0.074l1.865, 0.326l0.006, 0.005l0.148, 0.025c0.198, 0.034 0.397, 0.051 0.595, 0.051c2.364, -0.044 3.91, -2.305 4.341, -4.714c0.076, -0.448 0.116, -0.892 0.116, -1.336c0.014, -2.148 -0.971, -4.324 -3.161, -4.73" style="fill: rgb(89, 89, 89);"/>
</svg>
