<svg viewBox="0 0 24 24" xmlns="http://www.w3.org/2000/svg">
  <path d="M4.731, 13.393c0.299, 1.822 0.513, 3.184 0.519, 3.221c0.255, 1.512 1.777, 3.13 5.282, 3.13c0.558, -0 1.149, -0.044 1.758, -0.131c4.804, -0.686 6.005, -2.261 6.457, -4.751c0.13, -0.726 0.267, -1.499 0.404, -2.286c2.403, 0.634 3.213, 1.298 3.213, 2.566c-0, 2.452 -7.495, 8.214 -15.402, 7.98c-4.253, -0.263 -5.31, -2.673 -5.31, -5.059c-0, -2.137 1.258, -3.777 3.079, -4.67Zm7.269, -12.227c-4.069, 0.574 -7.367, 2.451 -7.367, 4.195c0, 0.159 0.036, 0.309 0.088, 0.452c0.741, 3.772 1.81, 10.583 1.81, 10.583c0.24, 1.421 2.315, 2.395 5.574, 1.929c0.401, -0.056 0.76, -0.121 1.101, -0.188l0.043, -10.493c-0.323, 0.063 -0.641, 0.133 -0.976, 0.18c-0.833, 0.115 -1.638, 0.172 -2.398, 0.172c-1.387, -0.002 -2.612, -0.185 -3.587, -0.543c-0.344, -0.131 -0.519, -0.512 -0.392, -0.857c0.125, -0.346 0.509, -0.523 0.853, -0.393c0.77, 0.286 1.863, 0.464 3.126, 0.464c0.694, -0 1.439, -0.052 2.215, -0.159c2.018, -0.283 3.842, -0.908 5.083, -1.642c0.317, -0.188 0.723, -0.082 0.909, 0.234c0.188, 0.318 0.084, 0.724 -0.234, 0.912c-0.433, 0.255 -0.925, 0.485 -1.443, 0.701l-1.033, 10.778c1.533, -0.698 1.878, -1.663 2.095, -2.861c1.037, -5.742 1.898, -11.29 1.898, -11.345c0, -1.742 -3.298, -2.689 -7.365, -2.119Z" style="fill: rgb(89, 89, 89);"/>
  <path d="M18.082, 5.1c-0.186, -0.315 -0.592, -0.422 -0.909, -0.233c-1.241, 0.733 -3.065, 1.358 -5.083, 1.641c-0.776, 0.108 -1.521, 0.159 -2.215, 0.159c-1.263, -0 -2.356, -0.177 -3.126, -0.463c-0.344, -0.13 -0.728, 0.046 -0.853, 0.392c-0.127, 0.346 0.048, 0.727 0.392, 0.858c0.975, 0.357 2.2, 0.541 3.587, 0.542c0.76, -0 1.565, -0.056 2.398, -0.171c0.335, -0.047 0.653, -0.118 0.976, -0.181l-0.043, 10.493c0.907, -0.18 1.615, -0.395 2.166, -0.645l1.033, -10.779c0.518, -0.216 1.01, -0.446 1.443, -0.701c0.318, -0.187 0.422, -0.594 0.234, -0.912" style="fill: rgb(230, 230, 230);"/>
</svg>
