<svg viewBox="0 0 24 24" xmlns="http://www.w3.org/2000/svg">
  <path d="M21.209, 11.368c-1.095, -1.095 -2.578, -1.795 -4.183, -1.795c-1.743, -0.006 -3.59, 0.844 -5.12, 2.749c-1.537, 1.905 -2.153, 3.885 -2.151, 5.576c0.002, 1.528 0.485, 2.82 1.289, 3.632c0.809, 0.803 2.102, 1.283 3.628, 1.287c1.691, -0 3.674, -0.612 5.579, -2.149c1.906, -1.532 2.753, -3.379 2.748, -5.12c0, -1.607 -0.702, -3.09 -1.79, -4.18Zm-1.729, 8.344c-1.708, 1.375 -3.41, 1.876 -4.808, 1.878c-1.261, 0.003 -2.266, -0.425 -2.76, -0.927c-0.506, -0.499 -0.932, -1.504 -0.93, -2.765c0, -1.396 0.502, -3.1 1.881, -4.804c1.356, -1.675 2.816, -2.29 4.163, -2.294c1.24, -0 2.423, 0.546 3.314, 1.434c0.886, 0.889 1.433, 2.072 1.433, 3.314c-0.005, 1.344 -0.62, 2.805 -2.293, 4.164Zm-5.167, -1.448c-1.622, -1.621 -0.316, -3.943 -0.316, -3.943c0, -0 -2.259, 2.834 -0.417, 4.674c1.841, 1.843 4.674, -0.416 4.674, -0.416c0, -0 -2.322, 1.306 -3.941, -0.315Zm3.393, -2.21l2.06, 2.06c0.569, -0.57 0.569, -1.492 0, -2.062c-0.57, -0.569 -1.49, -0.567 -2.06, 0.002Zm-1.183, -3.242c-0.567, -0.57 -1.49, -0.57 -2.059, -0l2.059, 2.058c0.569, -0.57 0.569, -1.489 0, -2.058Zm-9.088, -3.867c-2.26, 0 -2.627, 1.465 -2.627, 1.465c0, 0 1.039, -0.428 2.627, -0.428c1.588, 0 2.625, 0.428 2.625, 0.428c0, 0 -0.367, -1.465 -2.625, -1.465Zm3.897, -2.726l-2.551, -2.549c-0.701, 0.703 -0.703, 1.844 -0, 2.549c0.705, 0.703 1.848, 0.703 2.551, -0Zm-5.248, -0c0.706, -0.705 0.706, -1.846 0, -2.549l-2.549, 2.549c0.705, 0.703 1.847, 0.703 2.549, -0Z" style="fill: rgb(89, 89, 89);"/>
  <path d="M7.436, 12.77c-0.523, 0.059 -1.989, -0.923 -3.114, -2.859c-1.085, -1.803 -1.98, -4.375 -2.084, -7.501l10.393, 0c-0.104, 3.126 -1.001, 5.698 -2.085, 7.501c-1.124, 1.936 -2.59, 2.918 -3.11, 2.859m4.163, -2.225c1.271, -2.117 2.268, -5.117 2.268, -8.748l0, -0.614l-12.867, -0l0, 0.614c0, 3.631 0.998, 6.631 2.269, 8.748c1.299, 2.096 2.744, 3.393 4.167, 3.452c1.419, -0.059 2.864, -1.356 4.163, -3.452" style="fill: rgb(89, 89, 89);"/>
</svg>
