<svg viewBox="0 0 24 24" xmlns="http://www.w3.org/2000/svg">
  <path d="M21.772, 14.175c0, -0.675 -0.241, -1.252 -0.723, -1.733c-0.481, -0.481 -1.058, -0.722 -1.733, -0.722c-0.675, -0 -1.254, 0.241 -1.734, 0.722c-0.482, 0.481 -0.721, 1.058 -0.721, 1.733c0, 0.676 0.239, 1.255 0.721, 1.734c0.48, 0.482 1.059, 0.722 1.734, 0.722c0.675, -0 1.252, -0.24 1.733, -0.722c0.482, -0.479 0.723, -1.058 0.723, -1.734m-6.139, -4.634l0, 0.031c0, -0.266 -0.089, -0.486 -0.261, -0.661c-0.174, -0.173 -0.383, -0.26 -0.629, -0.26c-0.265, -0 -0.487, 0.082 -0.659, 0.246c-0.176, 0.164 -0.262, 0.379 -0.262, 0.644c0, 0.246 0.086, 0.466 0.262, 0.66c0.172, 0.195 0.382, 0.291 0.627, 0.291c0.246, -0 0.461, -0.096 0.647, -0.291c0.183, -0.194 0.275, -0.414 0.275, -0.66m-7.336, 4.634l0, -1.841l-1.84, -0l0, -1.842l-1.843, -0l0, 1.842l-1.842, -0l0, 1.841l1.842, -0l0, 1.843l1.843, -0l0, -1.843l1.84, -0Zm14.703, -0c0, 1.312 -0.308, 2.45 -0.921, 3.423c-0.614, 0.972 -1.536, 1.458 -2.763, 1.458c-0.901, -0 -1.837, -0.308 -2.809, -0.921c-0.972, -0.614 -1.663, -1.32 -2.071, -2.117l-4.911, -0c-0.43, 0.797 -1.135, 1.503 -2.117, 2.117c-0.983, 0.613 -1.914, 0.921 -2.794, 0.921c-1.248, -0 -2.175, -0.486 -2.777, -1.458c-0.604, -0.973 -0.906, -2.111 -0.906, -3.423c0, -1.493 0.292, -2.849 0.875, -4.065c0.583, -1.217 1.488, -2.123 2.716, -2.717c0.369, -0.204 0.768, -0.354 1.198, -0.446c0.429, -0.091 0.879, -0.137 1.35, -0.137l9.791, -0c0.448, -0 0.894, 0.046 1.334, 0.137c0.439, 0.092 0.855, 0.251 1.243, 0.477c1.188, 0.593 2.078, 1.493 2.672, 2.7c0.593, 1.208 0.89, 2.558 0.89, 4.051" style="fill: rgb(89, 89, 89);"/>
</svg>
