<svg viewBox="0 0 24 24" xmlns="http://www.w3.org/2000/svg">
  <path d="M15.091, 1c0.35, 0.012 1.002, 0.078 1.564, 0.614c0.354, 0.352 2.922, 2.912 3.037, 3.026l0.001, -0c0.305, 0.279 0.391, 0.719 0.374, 0.894l-0, 16.054c-0.002, 0.78 -0.632, 1.409 -1.413, 1.412l-10.011, -0c-0.331, -0 -0.797, -0.101 -1.143, -0.461l-3.087, -3.087c-0.307, -0.307 -0.482, -0.555 -0.482, -1.051l-0, -15.988c0.002, -0.781 0.632, -1.411 1.413, -1.413l9.747, -0Zm3.563, 20.774c0.099, -0 0.184, -0.088 0.184, -0.186l-0, -15.916c-0, -0.156 -0.195, -0.344 -0.409, -0.557l-10.057, -0c-0.177, -0 -0.327, 0.151 -0.327, 0.327l0.002, 15.909l0.323, 0.323c0.094, 0.082 0.119, 0.09 0.319, 0.1l9.965, -0Zm-1.172, -17.603c-0.53, -0.526 -1.085, -1.08 -1.421, -1.416l-9.576, -0c-0.439, -0 -0.799, 0.36 -0.799, 0.799l-0, 15.438l1.415, 1.414l-0, -14.964c0.002, -0.702 0.567, -1.269 1.271, -1.271l9.11, -0Zm-3.276, 4.095l0, 2.231l3.394, -0l0, 4.292l-3.394, -0l-0, 4.134l-1.227, -0l0, -4.134l-3.397, -0l0, -4.292l3.397, -0l0, -2.231l1.227, -0Zm2.167, 5.295l0, -1.836l-2.167, -0l0, 1.836l2.167, -0Zm-3.394, -0l-0, -1.836l-2.171, -0l0, 1.836l2.171, -0Z" style="fill: rgb(255, 0, 0);"/>
</svg>
