<svg viewBox="0 0 24 24" xmlns="http://www.w3.org/2000/svg">
  <path d="M16.683, 13.01c0.098, 0.48 0.149, 0.977 0.149, 1.482c-0.005, 4.049 -3.279, 7.32 -7.326, 7.328c-4.046, -0.008 -7.316, -3.279 -7.324, -7.328c0.008, -4.045 3.278, -7.318 7.324, -7.324c0.507, -0 1, 0.051 1.476, 0.149l0.237, -1.157c-0.554, -0.114 -1.128, -0.173 -1.713, -0.173c-4.698, -0 -8.504, 3.807 -8.506, 8.505c0.002, 4.7 3.808, 8.508 8.506, 8.508c4.698, -0 8.508, -3.808 8.508, -8.508c-0, -0.588 -0.061, -1.165 -0.176, -1.72l-1.155, 0.238Zm-12.061, 1.484c0.002, 2.696 2.186, 4.882 4.885, 4.882c2.697, 0 4.883, -2.186 4.883, -4.882c0, -0.605 -0.111, -1.187 -0.313, -1.722l-1.102, 0.417l-0.002, -0.002c0.153, 0.406 0.235, 0.844 0.235, 1.307c-0.004, 2.046 -1.656, 3.698 -3.701, 3.702c-2.048, -0.004 -3.699, -1.656 -3.703, -3.702c0.004, -2.045 1.655, -3.699 3.703, -3.703c0.46, 0 0.897, 0.084 1.299, 0.235l0.419, -1.102c-0.536, -0.204 -1.116, -0.315 -1.718, -0.315c-2.699, 0 -4.883, 2.188 -4.885, 4.885Z" style="fill: rgb(255, 0, 0);"/>
  <path d="M13.384, 7.806l3.95, -3.953l-0, 1.978l-3.952, 3.953l0.002, -1.978Zm6.764, -1.141l-3.953, 3.95l-1.976, -0l3.949, -3.95l1.98, -0Zm-11.06, 7.411l0.835, 0.835l3.114, -3.114l3.647, -0.001l6.316, -6.313l-4.484, 0.002l-0, -4.485l-6.312, 6.316l-0.002, 3.646l-3.114, 3.114Z" style="fill: rgb(255, 0, 0);"/>
</svg>
