<svg viewBox="0 0 24 24" xmlns="http://www.w3.org/2000/svg">
  <path d="M10.137, 11.878c-1.344, 0 -2.434, 1.091 -2.434, 2.434c-0, 1.344 1.09, 2.434 2.434, 2.434c1.345, 0 2.435, -1.09 2.435, -2.434c-0, -1.343 -1.09, -2.434 -2.435, -2.434Zm9.737, 0c-0.908, 0 -1.691, 0.503 -2.109, 1.241c-0.001, 0 -0.002, 0.001 -0.002, 0.002c-0.199, 0.354 -0.323, 0.757 -0.323, 1.192c0, 1.343 1.09, 2.433 2.434, 2.433c0.435, 0 0.837, -0.123 1.191, -0.323l0.001, -0.001c0.186, -0.106 0.362, -0.227 0.514, -0.376c0.009, -0.009 0.018, -0.019 0.028, -0.028l0, -0.001c0.149, -0.151 0.27, -0.327 0.375, -0.512l0.001, -0.001c0.2, -0.354 0.323, -0.756 0.323, -1.191c0, -1.344 -1.088, -2.435 -2.433, -2.435Zm-9.737, 3.868c-0.791, 0 -1.434, -0.644 -1.434, -1.434c-0, -0.79 0.643, -1.433 1.434, -1.433c0.791, 0 1.435, 0.643 1.435, 1.433c-0, 0.79 -0.644, 1.434 -1.435, 1.434Zm9.737, 0c-0.79, 0 -1.434, -0.643 -1.434, -1.433c0, -0.155 0.031, -0.3 0.076, -0.439l1.796, 1.796c-0.139, 0.045 -0.284, 0.076 -0.438, 0.076Zm1.357, -0.995l-1.796, -1.796c0.139, -0.045 0.284, -0.076 0.439, -0.076c0.79, 0 1.433, 0.643 1.433, 1.434c0, 0.154 -0.031, 0.299 -0.076, 0.438Zm-10.957, -3.902c0.063, 0.189 0.143, 0.369 0.248, 0.533c0.004, 0.005 0.006, 0.011 0.009, 0.016c0.118, 0.182 0.263, 0.344 0.425, 0.488c0.014, 0.013 0.029, 0.024 0.043, 0.036c0.162, 0.138 0.34, 0.258 0.535, 0.35c0.001, 0.001 0.002, 0.002 0.003, 0.002c0.315, 0.149 0.664, 0.239 1.035, 0.239c1.343, 0 2.433, -1.091 2.433, -2.435c-0, -0.973 -0.575, -1.806 -1.399, -2.195l-0.001, -0.001c-0.153, -0.072 -0.311, -0.129 -0.478, -0.168c-0.007, -0.002 -0.013, -0.005 -0.021, -0.007c-0.173, -0.038 -0.35, -0.063 -0.534, -0.063c-1.344, 0 -2.435, 1.09 -2.435, 2.434c-0, 0.219 0.038, 0.427 0.093, 0.629c0.013, 0.049 0.028, 0.095 0.044, 0.142Zm2.907, -2.064c0.485, 0.23 0.824, 0.721 0.824, 1.293c-0, 0.791 -0.643, 1.435 -1.433, 1.435c-0.219, 0 -0.424, -0.054 -0.61, -0.141l1.219, -2.587Zm1.824, -0.482c1.346, -0 2.436, -1.09 2.436, -2.433c-0, -1.344 -1.09, -2.434 -2.436, -2.434c-1.344, -0 -2.434, 1.09 -2.434, 2.434c-0, 1.343 1.09, 2.433 2.434, 2.433Zm-0, -3.867c0.792, -0 1.436, 0.643 1.436, 1.434c-0, 0.791 -0.644, 1.433 -1.436, 1.433c-0.79, -0 -1.434, -0.642 -1.434, -1.433c-0, -0.791 0.644, -1.434 1.434, -1.434Zm0.001, 2.148c0.395, 0 0.715, -0.32 0.715, -0.715c-0, -0.394 -0.32, -0.716 -0.715, -0.716c-0.395, 0 -0.716, 0.322 -0.716, 0.716c-0, 0.395 0.321, 0.715 0.716, 0.715Z" style="fill: rgb(180, 80, 0);"/>
  <path d="M1.61, 0.999l4.002, -0l0.605, 22l-5.212, -0l0.605, -22Zm13.395, 10.879c-1.344, 0 -2.434, 1.091 -2.434, 2.434c-0, 1.344 1.09, 2.434 2.434, 2.434c1.346, 0 2.436, -1.09 2.436, -2.434c-0, -1.343 -1.09, -2.434 -2.436, -2.434Zm-0, 3.868c-0.79, 0 -1.434, -0.644 -1.434, -1.434c-0, -0.79 0.644, -1.433 1.434, -1.433c0.792, 0 1.436, 0.643 1.436, 1.433c-0, 0.79 -0.644, 1.434 -1.436, 1.434Zm-10.328, -0.534l-0.268, -10.471l-1.595, -0l-0.269, 10.471l2.132, -0Zm12.763, -2.7c1.344, 0 2.434, -1.091 2.434, -2.434c0, -1.343 -1.09, -2.433 -2.434, -2.433c-1.344, -0 -2.436, 1.09 -2.436, 2.434c0, 1.342 1.092, 2.433 2.436, 2.433Zm0, -3.867c0.79, -0 1.434, 0.643 1.434, 1.434c0, 0.791 -0.644, 1.434 -1.434, 1.434c-0.792, -0 -1.436, -0.643 -1.436, -1.434c0, -0.791 0.644, -1.434 1.436, -1.434Zm-13.064, -5.204l-0.03, -1.141l-1.469, -0l-0.03, 1.141l1.529, -0Z" style="fill: rgb(180, 80, 0);"/>
</svg>
