<svg viewBox="0 0 24 24" xmlns="http://www.w3.org/2000/svg">
  <path d="M19.576, 6.465l3.424, -3.425l-1.3, -1.295l-5.183, 1.659l0.515, 0.516l-6.338, 6.338c-0.11, -0.284 -0.155, -0.54 -0.156, -0.766c-0, -0.416 0.131, -0.777 0.285, -1.072c0.075, -0.149 0.154, -0.276 0.225, -0.395c0.045, -0.111 0.11, -0.15 0.155, -0.32l0.093, -0.139l-0.075, -0.267c-0.213, -0.555 -0.638, -0.577 -0.917, -0.592c-0.613, 0.006 -1.365, 0.344 -2.042, 1.17c-1.029, 1.359 -0.76, 2.463 -1.661, 3.293c-0.35, 0.359 -0.833, 0.41 -1.643, 0.515c-0.78, 0.102 -1.814, 0.328 -2.749, 1.276c-0.821, 0.816 -1.211, 1.922 -1.209, 3.056c0.002, 1.506 0.664, 3.084 1.907, 4.332c1.243, 1.243 2.824, 1.903 4.327, 1.905l0.01, 0c1.129, 0 2.231, -0.391 3.048, -1.207c0.949, -0.934 1.174, -1.967 1.278, -2.748c0.106, -0.811 0.156, -1.297 0.515, -1.645c0.531, -0.527 1.046, -0.65 1.735, -0.859c0.671, -0.196 1.521, -0.534 2.141, -1.491c0.119, -0.218 0.231, -0.279 0.267, -0.668c0.022, -0.185 -0.147, -0.496 -0.341, -0.582c-0.181, -0.091 -0.292, -0.087 -0.375, -0.089c-0.325, 0.011 -0.551, 0.086 -0.963, 0.086c-0.419, -0.004 -0.955, -0.081 -1.61, -0.434l6.395, -6.395l0.242, 0.243Zm-5.229, 7.795c-0.254, 0.167 -0.532, 0.261 -0.882, 0.373c-0.617, 0.189 -1.467, 0.388 -2.238, 1.164c-0.732, 0.742 -0.755, 1.629 -0.86, 2.334c-0.108, 0.73 -0.234, 1.347 -0.931, 2.058c-0.57, 0.565 -1.336, 0.848 -2.202, 0.85c-1.145, 0.002 -2.44, -0.516 -3.469, -1.547c-1.032, -1.031 -1.554, -2.328 -1.55, -3.475c-0, -0.867 0.285, -1.632 0.852, -2.197c0.711, -0.701 1.328, -0.824 2.059, -0.934c0.702, -0.103 1.587, -0.125 2.332, -0.859c1.282, -1.355 1.039, -2.629 1.745, -3.387c0.12, -0.148 0.24, -0.267 0.355, -0.365c-0.132, 0.342 -0.235, 0.754 -0.233, 1.217c-0.002, 0.514 0.137, 1.086 0.457, 1.678l-1.9, 1.9l2.303, 2.303l1.877, -1.879c0.862, 0.535 1.663, 0.736 2.285, 0.766Zm-7.118, 5.194l-3.427, -3.429l1.905, -1.903l3.426, 3.428l-1.904, 1.904Zm2.956, -5.798l-0.586, -0.586l8.29, -8.292l0.588, 0.587l-8.292, 8.291Z" style="fill: rgb(255, 0, 0);"/>
</svg>
