<svg viewBox="0 0 24 24" xmlns="http://www.w3.org/2000/svg">
  <path d="M21.673, 1.002c0.733, 0.002 1.322, 0.59 1.325, 1.323l0, 0.001l0.002, 1.396c-0.003, 0.734 -0.593, 1.322 -1.326, 1.326l-0.032, -0c0.005, -0.001 0.011, -0.001 0.015, -0.001c-0.02, -0.001 -0.035, -0.002 -0.047, -0.003c0.006, 0.002 0.014, 0.003 0.027, 0.004l-1.358, -0c-0.09, -0.001 -0.18, -0.011 -0.265, -0.028l-0.044, 0.048l1.07, 1.07l-0.869, 0.867l-1.032, -1.031l-0.633, 0.69l1.003, 1.003l-0.869, 0.868l-0.962, -0.964l-1.914, 2.089c0.603, 0.834 0.893, 1.708 0.891, 2.54c0, 1.058 -0.452, 2.009 -1.146, 2.701c-0.688, 0.663 -1.507, 1.136 -1.752, 1.604l-0.389, 0.67l-0.562, -0.53c-0.09, -0.079 -0.139, -0.095 -0.252, -0.101c-0.216, -0.012 -0.662, 0.202 -0.998, 0.581c-0.347, 0.369 -0.566, 0.863 -0.558, 1.189c0.02, 0.286 0.07, 0.454 0.483, 0.679l0.548, 0.268l-0.266, 0.551c-0.257, 0.532 -0.609, 1.08 -1.102, 1.575c-0.912, 0.908 -2.084, 1.611 -3.474, 1.611c-1.314, 0.002 -2.716, -0.632 -4.131, -2.053c-1.422, -1.417 -2.056, -2.819 -2.056, -4.132c0.001, -1.39 0.702, -2.565 1.617, -3.473c0.49, -0.493 1.041, -0.846 1.572, -1.101l0.547, -0.267l0.271, 0.548c0.221, 0.409 0.39, 0.46 0.677, 0.48c0.326, 0.01 0.819, -0.212 1.19, -0.558c0.377, -0.337 0.592, -0.783 0.58, -0.998c-0.005, -0.114 -0.023, -0.165 -0.097, -0.248l-0.536, -0.567l0.678, -0.387c0.465, -0.243 0.939, -1.061 1.6, -1.75c0.689, -0.695 1.64, -1.147 2.701, -1.147c0.834, -0.001 1.708, 0.289 2.545, 0.896l2.089, -1.914l-0.968, -0.968l0.867, -0.867l1.006, 1.005l0.692, -0.633l-1.035, -1.036l0.867, -0.867l1.073, 1.074l0.046, -0.042c-0.018, -0.087 -0.028, -0.178 -0.029, -0.271l0, -1.352c-0.002, -0.014 -0.002, -0.03 -0.002, -0.045c0.002, -0.733 0.594, -1.323 1.328, -1.323l1.393, -0Zm-6.245, 11.198c-0.002, 0.706 -0.298, 1.342 -0.784, 1.834c-0.386, 0.404 -1.049, 0.776 -1.579, 1.366c-0.167, -0.057 -0.342, -0.084 -0.511, -0.082c-1.464, 0.097 -2.701, 1.491 -2.783, 2.996c-0.014, 0.507 0.209, 1.039 0.635, 1.428c-0.168, 0.271 -0.368, 0.534 -0.611, 0.776c-0.775, 0.769 -1.652, 1.255 -2.607, 1.253c-0.801, -0 -1.742, -0.334 -2.831, -1.291l3.543, -2.854l-1.523, -1.522l-2.852, 3.545c-0.964, -1.093 -1.296, -2.035 -1.297, -2.836c0, -0.957 0.483, -1.832 1.257, -2.606c0.24, -0.242 0.503, -0.442 0.774, -0.611c0.389, 0.425 0.92, 0.646 1.426, 0.631c1.505, -0.08 2.9, -1.319 2.996, -2.783c0.003, -0.166 -0.023, -0.339 -0.079, -0.507c0.591, -0.53 0.961, -1.194 1.367, -1.578c0.488, -0.49 1.126, -0.786 1.832, -0.786c0.493, 0.001 1.04, 0.149 1.617, 0.517l-4.331, 3.968l1.861, 1.859l3.959, -4.321c0.361, 0.57 0.52, 1.113 0.521, 1.604Zm-6.501, 5.059l-2.183, -2.184l0.588, -0.587l2.182, 2.183l-0.587, 0.588Zm12.747, -13.439c0.05, -0 0.098, -0.049 0.098, -0.098l0, -1.371c0, -0.008 0, -0.016 -0.001, -0.025l0, -0.001c0, -0.047 -0.047, -0.096 -0.098, -0.096l-1.393, -0c-0.049, -0 -0.09, 0.039 -0.099, 0.081c0.002, 0.006 0.002, 0.012 0.002, 0.016l-0.002, 1.396c-0, 0.049 0.052, 0.098 0.099, 0.098l1.395, -0Z" style="fill: rgb(180, 80, 0);"/>
</svg>
