<svg viewBox="0 0 24 24" xmlns="http://www.w3.org/2000/svg">
  <path d="M11.893, 10.984c-0.335, 0.119 -0.649, 0.303 -0.948, 0.516l-2.276, 0c0.166, -0.264 0.358, -0.514 0.595, -0.739c0.525, -0.498 1.229, -1.045 1.995, -1.611l0.634, 0l-0, 1.834Zm3.17, 1.84c0.512, 0.514 0.766, 1.18 0.766, 1.852c-0, 0.058 -0.013, 0.115 -0.017, 0.172l-2.617, 0l-0, -2.348l1.469, 0c0.141, 0.093 0.275, 0.201 0.399, 0.324m-0.002, 3.706c-0.536, 0.536 -1.182, 0.891 -1.866, 1.066l-0, -1.748l2.344, 0c-0.123, 0.243 -0.274, 0.477 -0.478, 0.682m-5.78, 0c-0.211, -0.21 -0.391, -0.441 -0.547, -0.682l1.403, 0c0.093, 0.127 0.187, 0.254 0.301, 0.368c0.254, 0.253 0.665, 0.253 0.92, 0c0.102, -0.102 0.153, -0.234 0.173, -0.368l0.362, 0l-0, 1.867c-0.953, -0.063 -1.885, -0.458 -2.612, -1.185m2.612, -4.03l-0, 2.348l-0.852, 0c-0.125, -0.247 -0.195, -0.515 -0.195, -0.788c-0, -0.452 0.167, -0.894 0.51, -1.234c0.13, -0.129 0.276, -0.231 0.424, -0.326l0.113, 0Zm-3.831, 1.089c-0, -0.372 0.068, -0.736 0.168, -1.089l1.755, 0c-0.288, 0.48 -0.442, 1.019 -0.442, 1.56c-0, 0.266 0.048, 0.529 0.118, 0.788l-1.384, 0c-0.131, -0.411 -0.215, -0.834 -0.215, -1.259m5.133, -8.763c0.071, -2.292 0.85, -2.471 1.433, -2.526l0.025, 0c0.303, 0 0.597, 0.147 0.638, 0.205c0.217, 0.217 0.401, 0.543 0.399, 0.9c-0.004, 0.374 -0.172, 0.897 -0.981, 1.579c-0.437, 0.365 -0.957, 0.756 -1.514, 1.164l-0, -1.322Zm9.805, 4.324l-0, -1l-9.805, 0l-0, -0.398c0.849, -0.61 1.675, -1.213 2.346, -1.77c1.004, -0.826 1.454, -1.739 1.449, -2.577c-0.002, -0.794 -0.378, -1.419 -0.782, -1.822c-0.395, -0.378 -0.942, -0.572 -1.58, -0.583c-0.629, -0.006 -1.368, 0.249 -1.899, 0.895c-0.531, 0.643 -0.836, 1.6 -0.836, 2.931l-0, 2.258c-0.494, 0.353 -0.987, 0.711 -1.467, 1.066l-9.426, 0l-0, 1l8.135, 0c-0.273, 0.225 -0.528, 0.447 -0.76, 0.664c-0.523, 0.49 -0.91, 1.066 -1.177, 1.686l-6.198, 0l-0, 1l5.879, 0c-0.075, 0.359 -0.118, 0.724 -0.117, 1.089c-0, 0.424 0.067, 0.844 0.165, 1.259l-5.927, 0l-0, 1l6.271, 0c0.265, 0.579 0.617, 1.127 1.09, 1.599c0.978, 0.98 2.248, 1.507 3.532, 1.571l-0, 0.806c-0, 1.034 -0.838, 1.874 -1.875, 1.876c-0.534, -0.001 -1.013, -0.228 -1.354, -0.587c0.371, -0.248 0.675, -0.645 0.675, -1.223c-0, -0.906 -0.614, -1.412 -1.398, -1.495c-0.784, -0.083 -1.486, 0.448 -1.596, 1.198c-0.11, 0.75 0.34, 1.407 0.848, 1.65c0.522, 1.037 1.585, 1.756 2.825, 1.757c1.756, -0.002 3.175, -1.423 3.177, -3.176l-0, -0.896c1.02, -0.196 1.997, -0.691 2.786, -1.481c0.461, -0.462 0.766, -1.016 0.95, -1.599l6.069, 0l-0, -1l-5.887, 0c0.003, -0.057 0.016, -0.114 0.016, -0.172c-0, -0.758 -0.223, -1.519 -0.662, -2.176l6.533, 0l-0, -1l-7.514, 0c-0.681, -0.489 -1.478, -0.745 -2.277, -0.743l-0.014, 0l-0, -1.607l9.805, 0Z" style="fill: rgb(89, 89, 89);"/>
</svg>
