<svg viewBox="0 0 24 24" xmlns="http://www.w3.org/2000/svg">
  <path d="M12.001, 21.669c-3.497, -0.007 -6.547, -1.869 -8.243, -4.649l4.384, -2.664c0.796, 1.304 2.219, 2.183 3.859, 2.183c1.64, -0 3.063, -0.88 3.858, -2.184l4.384, 2.664c-1.697, 2.781 -4.745, 4.643 -8.243, 4.65m-4.501, -9.97l-5.126, -0.352c0.053, -0.769 0.187, -1.515 0.409, -2.223l4.912, 1.537c-0.104, 0.332 -0.171, 0.678 -0.195, 1.038m7.733, 0.31c-0.002, 1.784 -1.447, 3.227 -3.232, 3.231c-1.784, -0.004 -3.229, -1.449 -3.231, -3.231c0.002, -1.785 1.447, -3.23 3.232, -3.234c1.782, 0.004 3.229, 1.449 3.23, 3.234m-3.231, -9.66c3.498, 0.005 6.547, 1.868 8.243, 4.651l-4.384, 2.664c-0.795, -1.307 -2.218, -2.188 -3.859, -2.188c-1.641, -0 -3.065, 0.88 -3.861, 2.187l-4.382, -2.665c1.695, -2.781 4.746, -4.644 8.243, -4.649m4.499, 9.969l5.127, 0.352c-0.053, 0.77 -0.186, 1.517 -0.41, 2.226l-4.913, -1.54c0.104, -0.332 0.171, -0.677 0.197, -1.038m-4.499, -11.271c-6.055, -0 -10.962, 4.908 -10.962, 10.962c0, 6.054 4.908, 10.959 10.961, 10.959c6.053, -0 10.961, -4.905 10.961, -10.959c-0, -6.054 -4.908, -10.962 -10.961, -10.962" style="fill: rgb(0, 0, 255);"/>
</svg>
