<svg viewBox="0 0 24 24" xmlns="http://www.w3.org/2000/svg">
  <path d="M2.506, 16.302l-0, -8.606l4.275, -0.002l6.465, -6.194l-0, 21l-6.465, -6.198l-4.275, 0Zm15.955, -12.533l-0.918, 0.846c1.68, 1.831 2.705, 4.264 2.705, 6.941c-0, 2.678 -1.025, 5.114 -2.705, 6.941l0.92, 0.846c1.881, -2.048 3.031, -4.786 3.031, -7.787c-0, -3 -1.15, -5.737 -3.033, -7.787Zm-2.615, 2.409l-0.92, 0.846c1.098, 1.195 1.766, 2.78 1.766, 4.533c-0, 1.751 -0.668, 3.339 -1.766, 4.533l0.92, 0.848c1.297, -1.417 2.094, -3.308 2.094, -5.381c-0, -2.073 -0.797, -3.965 -2.094, -5.379Z" style="fill: rgb(0, 0, 255);"/>
</svg>
