<svg viewBox="0 0 24 24" xmlns="http://www.w3.org/2000/svg">
  <path d="M22.524, 12.985l-6.058, -6.057l-9.547, 9.549l6.515, 6.515l9.549, -9.549l-0.459, -0.458Zm-9.09, 8.169l-4.015, -4.015l6.931, -0.78l0.778, -6.93l4.016, 4.015l-7.71, 7.71Zm-9.42, -7.772c-1.02, -1.405 -3, -0.775 -3, 0.968c-0, 1.74 3, 3.513 3, 4.125c-0, -0.612 2.996, -2.385 2.996, -4.125c-0, -1.743 -1.982, -2.373 -2.996, -0.968Zm11.809, -3.971l-0.65, 5.771l-5.77, 0.65l6.42, -6.421Zm-8.427, 1.57c-0, -1.043 5.103, -4.061 5.103, -7.027c0, -2.966 -3.374, -4.036 -5.103, -1.645c-1.733, -2.391 -5.108, -1.321 -5.108, 1.645c-0, 2.966 5.108, 5.984 5.108, 7.027Zm10.73, -3.905c0, -0.617 3.024, -2.404 3.024, -4.16c0, -1.757 -1.996, -2.391 -3.024, -0.975c-1.025, -1.416 -3.024, -0.782 -3.024, 0.975c0, 1.756 3.024, 3.543 3.024, 4.16Z" style="fill: rgb(255, 0, 0);"/>
</svg>
