<svg viewBox="0 0 24 24" xmlns="http://www.w3.org/2000/svg">
  <path d="M20.559, 16.273c-0, -1.611 -0.337, -2.928 -1.011, -3.948c-0.673, -1.021 -1.764, -1.531 -3.274, -1.531c-1.53, 0 -2.826, 0.532 -3.887, 1.592c-1.062, 1.061 -1.592, 2.357 -1.592, 3.887c-0, 1.49 0.505, 2.576 1.515, 3.26c1.011, 0.683 2.301, 1.025 3.872, 1.025c1.592, 0 2.719, -0.316 3.383, -0.949c0.662, -0.632 0.994, -1.744 0.994, -3.336m1.225, -1.133c-0, -2.305 -0.547, -4.013 -1.639, -5.127c-1.091, -1.111 -2.779, -1.668 -5.065, -1.668c-1.898, 0 -3.494, 0.649 -4.79, 1.944c-1.296, 1.296 -1.943, 2.892 -1.943, 4.791c-0, 2.264 0.561, 3.947 1.683, 5.049c1.122, 1.103 2.826, 1.654 5.111, 1.654c0.063, 0 0.154, -0.006 0.275, -0.016c0.123, -0.01 0.215, -0.015 0.276, -0.015c-1.795, -0.102 -3.265, -0.608 -4.407, -1.516c-1.143, -0.906 -1.715, -2.229 -1.715, -3.963c-0, -1.856 0.654, -3.438 1.96, -4.744c1.306, -1.306 2.886, -1.959 4.744, -1.959c1.734, 0 3.056, 0.572 3.964, 1.714c0.907, 1.143 1.413, 2.612 1.514, 4.408c-0, -0.062 0.006, -0.153 0.016, -0.276c0.01, -0.122 0.016, -0.214 0.016, -0.276m-10.989, -7.406l-0, -5.51l-2.448, 0l1.836, 6.121l0.612, -0.611Zm-1.347, 1.224l-2.938, -5.509l-1.836, 1.836l4.284, 4.162l0.49, -0.489Zm13.56, 6.122c-0, 2.183 -0.776, 4.05 -2.326, 5.601c-1.553, 1.55 -3.418, 2.326 -5.602, 2.326c-2.571, 0 -4.54, -0.684 -5.907, -2.051c-1.367, -1.367 -2.051, -3.326 -2.051, -5.876c-0, -0.573 0.046, -1.113 0.138, -1.623c0.092, -0.51 0.25, -0.99 0.474, -1.438l-6.734, 0l-0, -4.898l6.122, -6.121l4.897, 0l-0, 6.734c0.449, -0.225 0.928, -0.383 1.438, -0.475c0.51, -0.091 1.051, -0.138 1.623, -0.138c2.571, 0 4.535, 0.673 5.893, 2.02c1.356, 1.347 2.035, 3.326 2.035, 5.939" style="fill: rgb(255, 0, 255);"/>
</svg>
