<svg viewBox="0 0 24 24" xmlns="http://www.w3.org/2000/svg">
  <path d="M22.311, 12.529c0.018, -0.143 0.026, -0.282 0.024, -0.419c-0.027, -2.301 -2.308, -3.884 -4.756, -3.884c-0.428, 0 -0.869, 0.05 -1.303, 0.155c-3.131, 0.712 -3.335, 2.964 -3.316, 3.068c-0.005, 0.239 0.167, 0.443 0.405, 0.482c-0, 0 0.025, 0.004 0.062, 0.01c-0.164, 0.444 -0.232, 0.82 -0.285, 1.013c-0.643, 0.245 -1.136, 0.58 -1.183, 0.609c-0.036, -0.02 -0.065, -0.051 -0.107, -0.061c-0, 0 -0.236, -0.059 -0.496, -0.158c-0.129, -0.049 -0.261, -0.108 -0.357, -0.166c-0.097, -0.052 -0.123, -0.095 -0.129, -0.091c-0.023, -0.019 -0.044, -0.085 -0.068, -0.175c0.084, -0.366 0.131, -0.71 0.131, -1.03c0.01, -1.179 -0.588, -2.056 -1.382, -2.541c-0.791, -0.498 -1.752, -0.675 -2.63, -0.679c-0.243, 0.002 -0.484, 0.015 -0.712, 0.046c-1.924, 0.181 -5.234, 1.032 -5.21, 5.166c0.034, 2.428 1.444, 3.554 1.359, 4.43c-0.005, 0.298 -0.102, 0.641 -0.475, 1.146c-0.094, 0.121 -0.118, 0.283 -0.074, 0.431c0.048, 0.146 0.162, 0.26 0.308, 0.309c0.787, 0.257 1.486, 0.379 2.113, 0.379l0.046, 0c1.593, 0 2.677, -0.887 3.229, -2.037c0.573, -1.16 0.726, -2.578 0.728, -3.884c-0, -1.413 -0.186, -2.697 -0.3, -3.347c0.064, -0.007 0.137, -0.013 0.212, -0.013c0.268, 0.003 0.53, 0.063 0.781, 0.312c0.352, 0.352 0.588, 0.725 0.733, 1.006c0.146, 0.284 0.191, 0.451 0.195, 0.451c0.001, 0.005 0.005, 0.007 0.007, 0.01c0.054, 0.187 0.111, 0.364 0.192, 0.522c0.279, 0.366 0.695, 0.566 1.03, 0.681c-0.046, 0.079 -0.097, 0.161 -0.147, 0.236c-0.162, 0.257 -0.318, 0.477 -0.318, 0.477c-0.128, 0.184 -0.113, 0.428 0.036, 0.594l0.36, 0.404c-0.009, 0.058 -0.03, 0.144 -0.101, 0.251c-0.15, 0.243 -0.143, 0.444 -0.149, 0.631c-0, 0.211 0.021, 0.421 0.021, 0.607c-0.043, 0.444 -0.015, 0.495 -0.3, 0.574c-0.37, 0.075 -0.764, 0.1 -1.102, 0.1c-0.553, 0 -0.943, -0.066 -0.945, -0.063c-0.257, -0.041 -0.5, 0.13 -0.547, 0.387l-0.322, 1.827l0.943, 0.167l0.245, -1.386c0.174, 0.014 0.388, 0.023 0.626, 0.023c0.385, 0 0.836, -0.027 1.294, -0.119c0.889, -0.164 1.104, -1.033 1.063, -1.51c-0, -0.24 -0.02, -0.459 -0.02, -0.607c-0, -0.063 0.005, -0.108 0.01, -0.128l-0.002, 0c0.196, -0.31 0.248, -0.604 0.246, -0.806c-0, -0.139 -0.021, -0.232 -0.03, -0.263l-0.107, -0.199l-0.222, -0.25c0.05, -0.078 0.108, -0.165 0.165, -0.255c0.067, -0.124 0.133, -0.227 0.195, -0.329c0.063, 0.102 0.13, 0.206 0.197, 0.331c0.056, 0.089 0.115, 0.176 0.165, 0.253l-0.221, 0.25l-0.1, 0.177c-0.012, 0.035 -0.039, 0.136 -0.039, 0.287c-0.002, 0.19 0.044, 0.474 0.226, 0.769c-0.021, 0.169 -0.26, 0.7 -0.279, 1.236c-0.049, 0.408 0.323, 0.975 0.884, 1.044c0.515, 0.105 1.034, 0.131 1.47, 0.131c0.209, 0 0.398, -0.007 0.555, -0.016l0.123, 1.326l0.952, -0.085l-0.163, -1.796c-0.011, -0.13 -0.075, -0.246 -0.175, -0.329c-0.099, -0.081 -0.229, -0.119 -0.356, -0.103c-0.002, 0 -0.396, 0.048 -0.935, 0.048c-0.396, 0 -0.864, -0.028 -1.277, -0.113c-0.116, -0.026 -0.108, -0.045 -0.113, -0.039c-0, 0 -0.007, 0 -0.007, -0.068c-0.019, -0.25 0.245, -0.741 0.275, -1.276c-0, -0.116 -0.016, -0.273 -0.118, -0.429c-0.074, -0.109 -0.095, -0.191 -0.102, -0.249l0.362, -0.405c0.148, -0.166 0.163, -0.412 0.035, -0.594c-0, 0 -0.177, -0.253 -0.351, -0.53c-0.063, -0.097 -0.122, -0.198 -0.174, -0.288c0.218, -0.121 0.521, -0.273 0.833, -0.373c0.108, -0.036 0.197, -0.107 0.257, -0.203c0.213, -0.414 0.274, -0.951 0.5, -1.498c0.96, 0.143 2.415, 0.35 3.617, 0.476c-0.458, 0.872 -1.019, 1.735 -1.019, 1.738c-0.139, 0.209 -0.09, 0.486 0.108, 0.638c0.197, 0.153 0.476, 0.128 0.645, -0.053c-0, -0.003 0.113, -0.125 0.303, -0.257c0.195, -0.134 0.442, -0.245 0.645, -0.241c0.161, 0.005 0.305, 0.04 0.514, 0.243c0.144, 0.146 0.2, 0.303 0.203, 0.511c0.002, 0.284 -0.148, 0.652 -0.396, 0.922c-0.247, 0.274 -0.566, 0.436 -0.839, 0.432c-0.072, 0 -0.143, -0.01 -0.213, -0.029c-0.144, -0.037 -0.296, -0.005 -0.414, 0.085c-0.117, 0.091 -0.185, 0.23 -0.185, 0.38c0.015, 0.849 0.542, 2.211 0.569, 2.307l0.203, 0.698l0.919, -0.266l-0.002, 0l-0.126, -0.436c0.068, -0.062 0.151, -0.13 0.26, -0.216c0.311, -0.244 0.773, -0.561 1.375, -0.848c0.973, -0.465 2.422, -1.514 2.434, -3.365c0.002, -0.69 -0.211, -1.452 -0.689, -2.281Zm-10.309, -2.396c0, -0.7 3.429, -2.728 3.429, -4.717c0, -1.99 -2.269, -2.708 -3.429, -1.106c-1.158, -1.602 -3.427, -0.884 -3.427, 1.106c0, 1.989 3.427, 4.017 3.427, 4.717Z" style="fill: rgb(255, 0, 255);"/>
</svg>
