<svg viewBox="0 0 24 24" xmlns="http://www.w3.org/2000/svg">
  <path d="M23.099, 8.625c-0, -0.213 -0.036, -0.432 -0.105, -0.631c-0.253, -0.767 -0.973, -1.304 -1.795, -1.334c-0.279, -0.749 -0.999, -1.287 -1.84, -1.292l-0.007, -0c-0.549, -0 -1.033, 0.242 -1.392, 0.609c-0.011, -0.069 -0.009, -0.141 -0.028, -0.208c0.466, -0.361 0.75, -0.918 0.757, -1.537c-0, -0.225 -0.036, -0.442 -0.104, -0.643c-0.265, -0.78 -0.981, -1.309 -1.795, -1.338c-0.275, -0.758 -1, -1.293 -1.849, -1.293c-0.848, -0 -1.572, 0.534 -1.848, 1.292c-0.839, 0.033 -1.556, 0.578 -1.806, 1.374c-0.05, 0.155 -0.066, 0.319 -0.077, 0.48c-0.182, -0.063 -0.376, -0.103 -0.576, -0.11c-0.276, -0.754 -0.999, -1.289 -1.842, -1.294l-0.014, -0c-0.84, 0.005 -1.568, 0.546 -1.844, 1.293c-0.829, 0.028 -1.549, 0.571 -1.804, 1.369c-0.061, 0.187 -0.094, 0.391 -0.094, 0.597c-0, 0.43 0.147, 0.834 0.393, 1.166l-0.947, 10.094l-3.482, 1.286l4.435, 4.494l1.286, -3.542l8.965, -0.818c0.25, 0.116 0.515, 0.198 0.799, 0.202c0.405, -0 0.794, -0.12 1.117, -0.336c0.322, 0.217 0.704, 0.336 1.103, 0.336c0.402, -0 0.79, -0.121 1.124, -0.35c0.542, -0.401 0.834, -0.975 0.843, -1.604c-0, -0.192 -0.025, -0.376 -0.074, -0.552c0.467, -0.362 0.752, -0.923 0.756, -1.545c-0, -0.192 -0.027, -0.38 -0.08, -0.566l-0.008, -0.028l-0.009, -0.026c-0.261, -0.783 -0.98, -1.32 -1.801, -1.354c-0.053, -0.149 -0.136, -0.279 -0.222, -0.408c0.038, -0.022 0.082, -0.032 0.118, -0.055c0.321, 0.215 0.701, 0.333 1.1, 0.333c0.409, -0 0.803, -0.126 1.141, -0.365c0.521, -0.379 0.823, -0.974 0.823, -1.602c-0, -0.183 -0.025, -0.364 -0.075, -0.538c0.468, -0.367 0.758, -0.94 0.758, -1.556" style="fill: rgb(255, 0, 255);"/>
  <path d="M14.613, 16.326c-0.47, -0.368 -0.757, -0.931 -0.757, -1.543c0, -0.142 0.034, -0.274 0.064, -0.408c-0.259, -0.05 -0.508, -0.132 -0.725, -0.278c-0.32, 0.215 -0.702, 0.333 -1.102, 0.333c-0.412, 0 -0.808, -0.126 -1.163, -0.379c-0.511, -0.379 -0.804, -0.958 -0.804, -1.59c0, -0.185 0.026, -0.367 0.076, -0.543c-0.467, -0.367 -0.756, -0.938 -0.756, -1.549c0, -0.138 0.035, -0.271 0.064, -0.405c-0.26, -0.05 -0.511, -0.133 -0.729, -0.28c-0.319, 0.213 -0.703, 0.331 -1.118, 0.335c-0.414, -0.006 -0.806, -0.136 -1.135, -0.377c-0.115, -0.083 -0.214, -0.18 -0.306, -0.282l-0.745, 7.952l-0.059, 0.626l-0.59, 0.219l-2.028, 0.749l2.234, 2.264l0.746, -2.055l0.217, -0.597l0.633, -0.057l8.106, -0.74c-0.126, -0.264 -0.198, -0.557 -0.201, -0.872c0.003, -0.18 0.028, -0.355 0.078, -0.523" style="fill: rgb(230, 230, 230);"/>
  <path d="M19.218, 14.135c0.045, -0.012 0.102, -0.021 0.163, -0.021c0.28, 0.003 0.547, 0.18 0.643, 0.467c0.019, 0.069 0.03, 0.137 0.03, 0.2c-0.002, 0.276 -0.166, 0.526 -0.429, 0.625c-0.011, -0 -0.031, 0.002 -0.058, 0.003c-0.249, 0.016 -0.461, 0.181 -0.537, 0.416c-0.076, 0.238 0.001, 0.495 0.195, 0.651c0.017, 0.013 0.031, 0.024 0.04, 0.033c0.069, 0.106 0.107, 0.233 0.107, 0.36c-0.003, 0.212 -0.095, 0.414 -0.278, 0.55c-0.118, 0.081 -0.255, 0.122 -0.389, 0.122c-0.198, -0 -0.387, -0.085 -0.517, -0.244c-0.006, -0.015 -0.014, -0.035 -0.025, -0.06c-0.091, -0.226 -0.309, -0.374 -0.551, -0.375c-0.245, -0.002 -0.465, 0.142 -0.559, 0.366c-0.011, 0.027 -0.019, 0.047 -0.024, 0.06c-0.129, 0.163 -0.33, 0.253 -0.526, 0.253c-0.139, -0.002 -0.272, -0.041 -0.387, -0.125c-0.186, -0.137 -0.279, -0.34 -0.281, -0.547c0.002, -0.125 0.035, -0.244 0.11, -0.359c0.009, -0.008 0.026, -0.021 0.046, -0.037c0.189, -0.158 0.265, -0.416 0.189, -0.65c-0.075, -0.235 -0.289, -0.398 -0.535, -0.414l-0.005, 0.014c-0.308, -0.101 -0.484, -0.361 -0.484, -0.64c-0, -0.063 0.01, -0.13 0.034, -0.202c0.09, -0.289 0.353, -0.467 0.633, -0.468c0.066, -0 0.134, 0.011 0.206, 0.035c0.016, 0.004 0.018, 0.02 0.018, 0.02c0.209, 0.133 0.476, 0.126 0.676, -0.018c0.202, -0.145 0.293, -0.396 0.231, -0.638c-0.007, -0.023 -0.01, -0.04 -0.014, -0.053c0.017, -0.356 0.304, -0.635 0.658, -0.637l0.007, 0.002c0.354, -0 0.639, 0.271 0.667, 0.617c-0.001, 0.01 -0.002, 0.02 -0.003, 0.03c-0.005, 0.018 -0.01, 0.042 -0.017, 0.073c-0.049, 0.236 0.047, 0.472 0.243, 0.611c0.197, 0.137 0.453, 0.144 0.658, 0.02c0.03, -0.018 0.051, -0.031 0.065, -0.04Zm-5.447, -1.256c-0.005, -0.014 -0.014, -0.034 -0.024, -0.061c-0.094, -0.223 -0.313, -0.369 -0.554, -0.369c-0.24, -0 -0.46, 0.146 -0.553, 0.369c-0.012, 0.03 -0.022, 0.052 -0.027, 0.068c-0.127, 0.158 -0.322, 0.245 -0.52, 0.245c-0.136, -0 -0.271, -0.041 -0.39, -0.126c-0.184, -0.136 -0.278, -0.336 -0.278, -0.544c0, -0.123 0.033, -0.246 0.107, -0.359c0.01, -0.008 0.025, -0.02 0.045, -0.036c0.186, -0.151 0.263, -0.401 0.198, -0.632c-0.066, -0.232 -0.268, -0.404 -0.507, -0.429c-0.039, -0.006 -0.068, -0.008 -0.088, -0.009c-0.268, -0.101 -0.434, -0.358 -0.434, -0.627c0, -0.062 0.009, -0.13 0.033, -0.202c0.091, -0.286 0.353, -0.463 0.636, -0.465c0.061, -0 0.132, 0.012 0.207, 0.035c0.005, 0.002 0.007, 0.016 0.007, 0.016c0.204, 0.135 0.469, 0.133 0.67, -0.007c0.202, -0.138 0.3, -0.386 0.246, -0.622c-0.007, -0.039 -0.014, -0.067 -0.019, -0.084c0.022, -0.35 0.313, -0.629 0.667, -0.631c0.358, -0 0.65, 0.285 0.67, 0.638c-0.004, 0.017 -0.011, 0.042 -0.02, 0.077c-0.051, 0.235 0.042, 0.476 0.24, 0.615c0.194, 0.14 0.454, 0.151 0.659, 0.026l0.002, -0.019c0.094, -0.032 0.158, -0.044 0.23, -0.044c0.277, -0 0.544, 0.179 0.635, 0.465l0.001, -0c0.021, 0.071 0.03, 0.143 0.03, 0.205c0, 0.273 -0.165, 0.526 -0.431, 0.624c-0.02, 0.001 -0.05, 0.003 -0.091, 0.009c-0.239, 0.028 -0.435, 0.195 -0.503, 0.425c-0.067, 0.229 0.008, 0.475 0.19, 0.629c0.021, 0.017 0.035, 0.029 0.045, 0.039c0.072, 0.108 0.109, 0.236 0.109, 0.365c0, 0.21 -0.094, 0.408 -0.274, 0.542c-0.12, 0.085 -0.258, 0.126 -0.393, 0.126c-0.202, -0.002 -0.393, -0.088 -0.521, -0.252Zm7.994, -4.459c0.023, 0.067 0.034, 0.14 0.034, 0.205c-0, 0.272 -0.166, 0.528 -0.425, 0.626c-0.021, 0.002 -0.052, 0.004 -0.097, 0.01c-0.237, 0.028 -0.437, 0.196 -0.505, 0.427c-0.066, 0.226 0.009, 0.477 0.193, 0.63c0.016, 0.014 0.031, 0.025 0.04, 0.033c0.076, 0.116 0.111, 0.241 0.111, 0.368c-0, 0.21 -0.095, 0.41 -0.274, 0.541c-0.12, 0.085 -0.256, 0.126 -0.391, 0.126c-0.198, 0 -0.388, -0.083 -0.519, -0.244c-0.003, -0.011 -0.009, -0.026 -0.015, -0.043c-0.086, -0.229 -0.296, -0.382 -0.539, -0.392c-0.243, -0.012 -0.466, 0.124 -0.567, 0.345c-0.02, 0.039 -0.033, 0.069 -0.04, 0.089c-0.126, 0.16 -0.322, 0.245 -0.52, 0.247c-0.139, -0.002 -0.273, -0.04 -0.393, -0.128c-0.183, -0.133 -0.276, -0.333 -0.276, -0.543c-0, -0.123 0.034, -0.245 0.108, -0.36c0.012, -0.009 0.03, -0.025 0.055, -0.045c0.179, -0.155 0.253, -0.404 0.184, -0.629c-0.069, -0.228 -0.268, -0.394 -0.503, -0.422c-0.041, -0.005 -0.071, -0.007 -0.09, -0.009c-0.271, -0.103 -0.433, -0.355 -0.435, -0.624c-0, -0.063 0.012, -0.133 0.035, -0.205c0.091, -0.285 0.352, -0.462 0.636, -0.464c0.056, 0 0.115, 0.008 0.176, 0.025c0.019, 0.011 0.046, 0.028 0.085, 0.05c0.21, 0.113 0.469, 0.092 0.655, -0.055c0.189, -0.147 0.272, -0.392 0.212, -0.623c-0.007, -0.024 -0.012, -0.043 -0.014, -0.055c0.02, -0.353 0.31, -0.633 0.666, -0.633c0.368, 0.002 0.666, 0.299 0.668, 0.669l-0.012, 0c-0.07, 0.235 0.012, 0.489 0.203, 0.642c0.189, 0.151 0.456, 0.171 0.67, 0.052c0.035, -0.021 0.06, -0.037 0.075, -0.047c0.061, -0.017 0.113, -0.025 0.174, -0.025c0.28, 0.002 0.541, 0.177 0.636, 0.461l-0.001, 0Zm-15.397, -2.662c0.093, -0.29 0.353, -0.466 0.635, -0.466c0.061, -0 0.134, 0.01 0.207, 0.035c0.009, 0.001 0.015, 0.017 0.015, 0.017c0.205, 0.132 0.466, 0.128 0.666, -0.012c0.2, -0.137 0.295, -0.384 0.246, -0.621c-0.009, -0.037 -0.015, -0.063 -0.02, -0.077c0.009, -0.341 0.303, -0.632 0.667, -0.634c0.356, 0.002 0.649, 0.283 0.668, 0.634c-0.004, 0.014 -0.01, 0.034 -0.016, 0.06c-0.059, 0.234 0.03, 0.481 0.222, 0.626c0.192, 0.144 0.454, 0.159 0.664, 0.038c0.029, -0.018 0.052, -0.032 0.066, -0.041c0.06, -0.016 0.115, -0.024 0.174, -0.024c0.28, -0 0.544, 0.177 0.639, 0.467l0.001, -0c0.02, 0.068 0.03, 0.138 0.03, 0.203c-0.002, 0.269 -0.165, 0.521 -0.427, 0.621c-0.018, 0.001 -0.046, 0.003 -0.082, 0.006c-0.24, 0.022 -0.442, 0.185 -0.516, 0.414c-0.073, 0.229 -0.003, 0.48 0.179, 0.639c0.021, 0.017 0.039, 0.032 0.05, 0.041c0.078, 0.122 0.113, 0.246 0.113, 0.37c-0.002, 0.208 -0.096, 0.408 -0.276, 0.54c-0.122, 0.085 -0.256, 0.126 -0.39, 0.126c-0.199, -0 -0.386, -0.084 -0.518, -0.244c-0.006, -0.016 -0.015, -0.041 -0.029, -0.074c-0.099, -0.222 -0.318, -0.366 -0.56, -0.362c-0.242, 0.004 -0.458, 0.152 -0.549, 0.377c-0.008, 0.023 -0.014, 0.038 -0.019, 0.049c-0.132, 0.165 -0.328, 0.252 -0.527, 0.254c-0.135, -0.002 -0.269, -0.041 -0.385, -0.126c-0.187, -0.137 -0.28, -0.336 -0.28, -0.544c0, -0.126 0.037, -0.252 0.111, -0.365c0.011, -0.009 0.028, -0.024 0.05, -0.042c0.183, -0.157 0.254, -0.408 0.181, -0.637c-0.074, -0.231 -0.278, -0.394 -0.516, -0.416c-0.04, -0.003 -0.068, -0.005 -0.082, -0.006c-0.256, -0.097 -0.425, -0.355 -0.425, -0.625c0, -0.064 0.01, -0.13 0.033, -0.201Zm6.159, -1.744c0.091, -0.289 0.349, -0.464 0.633, -0.466c0.054, -0 0.113, 0.007 0.176, 0.026c0.013, 0.007 0.033, 0.019 0.057, 0.035c0.206, 0.124 0.465, 0.116 0.66, -0.024c0.198, -0.139 0.29, -0.384 0.24, -0.618c-0.007, -0.033 -0.015, -0.057 -0.019, -0.072c0.017, -0.357 0.309, -0.637 0.666, -0.637c0.362, -0 0.651, 0.283 0.667, 0.639c-0.004, 0.015 -0.009, 0.039 -0.017, 0.07c-0.052, 0.233 0.04, 0.47 0.228, 0.611c0.192, 0.141 0.444, 0.157 0.653, 0.042c0.035, -0.021 0.061, -0.037 0.076, -0.046c0.058, -0.017 0.113, -0.024 0.172, -0.024c0.275, -0 0.539, 0.176 0.635, 0.456l-0.001, 0.001c0.024, 0.07 0.035, 0.144 0.035, 0.211c-0.003, 0.274 -0.168, 0.525 -0.435, 0.624c-0.016, 0.002 -0.038, 0.003 -0.069, 0.005c-0.236, 0.021 -0.438, 0.182 -0.515, 0.407c-0.075, 0.224 -0.011, 0.474 0.163, 0.633c0.034, 0.029 0.056, 0.048 0.067, 0.059c0.071, 0.107 0.107, 0.233 0.107, 0.363c0, 0.209 -0.095, 0.412 -0.275, 0.542c-0.12, 0.086 -0.258, 0.126 -0.392, 0.126c-0.2, -0.002 -0.389, -0.085 -0.519, -0.249c-0.009, -0.019 -0.02, -0.048 -0.038, -0.089c-0.102, -0.216 -0.325, -0.35 -0.563, -0.342c-0.24, 0.007 -0.452, 0.157 -0.538, 0.381c-0.01, 0.023 -0.016, 0.04 -0.021, 0.052c-0.127, 0.16 -0.324, 0.245 -0.521, 0.247c-0.139, -0.002 -0.271, -0.04 -0.391, -0.126c-0.184, -0.135 -0.276, -0.335 -0.276, -0.542c0, -0.129 0.037, -0.255 0.115, -0.369c0.012, -0.011 0.033, -0.027 0.058, -0.048c0.177, -0.16 0.245, -0.409 0.168, -0.636c-0.075, -0.227 -0.277, -0.388 -0.516, -0.409c-0.028, -0.002 -0.051, -0.003 -0.066, -0.004c-0.273, -0.103 -0.437, -0.359 -0.439, -0.627c0, -0.062 0.012, -0.13 0.035, -0.202Z" style="fill: rgb(255, 140, 250);"/>
</svg>
