<svg viewBox="0 0 24 24" xmlns="http://www.w3.org/2000/svg">
  <path d="M12.647, 4.464l1.247, -0l0, 1.301l-1.247, -0l0, 0.96l2.463, 2.126l0, 4.063l5.878, 4.759l0, 5.261l-17.982, -0l0, -5.261l5.883, -4.759l0, -4.063l2.46, -2.125l-0.001, -0.961l-1.247, -0l0, -1.301l1.247, -0l0, -1.246l1.299, -0l0, 1.246Zm7.042, 17.169l0, -3.339l-5.881, -4.761l0, -4.088l-1.808, -1.562l-1.81, 1.562l0, 4.088l-5.883, 4.761l0, 3.339l5.856, -0l-0.001, -3.28c0, -1.014 0.822, -1.835 1.837, -1.835c1.013, -0 1.835, 0.821 1.835, 1.835l0, 3.28l5.855, -0Zm-6.972, -6.42l-1.434, -0l0, -1.433l1.434, -0l0, 1.433Zm9.655, -5.002c-0.469, -0.469 -1.231, -0.469 -1.7, 0c-0.083, 0.083 -0.147, 0.177 -0.2, 0.274c-0.054, -0.097 -0.117, -0.191 -0.199, -0.274c-0.47, -0.469 -1.232, -0.47 -1.703, 0c-0.469, 0.47 -0.469, 1.232 0, 1.702l1.902, 1.903l1.901, -1.903l-0.001, 0c0.471, -0.47 0.471, -1.232 0, -1.702Zm-15.312, 0.886l-0.001, 0c0.672, -0.672 0.672, -1.759 -0, -2.431c-0.67, -0.67 -1.76, -0.67 -2.43, 0c-0.118, 0.118 -0.208, 0.252 -0.285, 0.392c-0.076, -0.139 -0.166, -0.274 -0.284, -0.392c-0.672, -0.671 -1.76, -0.671 -2.432, 0c-0.671, 0.672 -0.67, 1.76 -0, 2.431l2.716, 2.719l2.716, -2.719Zm10.878, -4.35l2.717, -2.719l-0.002, -0c0.672, -0.672 0.672, -1.76 0, -2.431c-0.669, -0.67 -1.76, -0.67 -2.43, -0c-0.117, 0.118 -0.207, 0.252 -0.285, 0.392c-0.076, -0.139 -0.166, -0.274 -0.284, -0.392c-0.672, -0.671 -1.76, -0.671 -2.432, -0c-0.671, 0.671 -0.67, 1.76 0, 2.431l2.716, 2.719Zm-10.975, -1.697l1.901, -1.903l-0.001, 0c0.471, -0.471 0.471, -1.232 0, -1.702c-0.468, -0.469 -1.231, -0.469 -1.7, 0c-0.083, 0.083 -0.146, 0.177 -0.2, 0.274c-0.054, -0.097 -0.116, -0.191 -0.198, -0.273c-0.471, -0.47 -1.233, -0.471 -1.703, 0c-0.469, 0.469 -0.469, 1.231 0, 1.701l1.901, 1.903Z" style="fill: rgb(255, 0, 255);"/>
</svg>
