<svg viewBox="0 0 24 24" xmlns="http://www.w3.org/2000/svg">
  <path d="M8.805, 11.584c0.595, 0.578 0.887, 1.27 0.887, 2.1c-0, 0.796 -0.245, 1.425 -0.735, 1.918c-0.49, 0.492 -1.124, 0.736 -1.918, 0.736c-0.816, 0 -1.451, -0.246 -1.933, -0.736c-0.482, -0.491 -0.72, -1.122 -0.723, -1.918c-0, -0.801 0.194, -1.489 0.583, -2.073c0.381, -0.576 0.922, -1.072 1.634, -1.49c0.878, 0.402 1.612, 0.891 2.205, 1.463m10.214, 0.027l0.001, 0c0.384, 0.586 0.579, 1.272 0.579, 2.073c-0, 0.796 -0.24, 1.427 -0.723, 1.918c-0.481, 0.492 -1.107, 0.736 -1.903, 0.736c-0.814, 0 -1.451, -0.246 -1.932, -0.736c-0.483, -0.491 -0.723, -1.122 -0.723, -1.918c-0, -0.83 0.288, -1.522 0.874, -2.1c0.583, -0.572 1.322, -1.061 2.219, -1.461c0.691, 0.416 1.227, 0.912 1.608, 1.488m-18.02, -2.836c0.527, 0 1.213, 0.086 2.055, 0.264c0.764, 0.158 1.449, 0.336 2.052, 0.533c-0.625, 0.502 -1.111, 1.084 -1.453, 1.742c-0.369, 0.711 -0.554, 1.5 -0.554, 2.37c-0, 1.115 0.373, 2.064 1.114, 2.824c0.74, 0.762 1.692, 1.144 2.826, 1.142c1.134, 0.002 2.089, -0.377 2.838, -1.127c0.754, -0.75 1.131, -1.705 1.131, -2.839c-0, -0.967 -0.293, -1.817 -0.873, -2.539c-0.532, -0.666 -1.21, -1.233 -2.025, -1.702c0.551, -0.201 1.151, -0.361 1.798, -0.474c0.729, -0.131 1.431, -0.194 2.112, -0.194c0.661, -0 1.35, 0.063 2.069, 0.194c0.641, 0.113 1.241, 0.273 1.81, 0.474c-0.831, 0.469 -1.508, 1.036 -2.025, 1.703c-0.561, 0.723 -0.841, 1.571 -0.841, 2.538c-0.002, 1.134 0.371, 2.088 1.114, 2.838c0.743, 0.751 1.689, 1.13 2.826, 1.128l0.009, -0c1.111, -0 2.053, -0.382 2.802, -1.142c0.751, -0.76 1.128, -1.709 1.128, -2.824c-0, -0.87 -0.189, -1.662 -0.568, -2.371c-0.351, -0.659 -0.842, -1.239 -1.468, -1.741c0.604, -0.197 1.283, -0.375 2.042, -0.533c0.83, -0.178 1.528, -0.264 2.092, -0.264l-0, -1.314c-0.79, -0 -1.723, 0.128 -2.804, 0.379c-1.06, 0.246 -1.969, 0.535 -2.73, 0.863c-0.777, -0.402 -1.652, -0.709 -2.626, -0.921c-0.989, -0.214 -1.932, -0.321 -2.83, -0.321c-0.936, -0 -1.894, 0.107 -2.876, 0.321c-0.962, 0.212 -1.832, 0.519 -2.611, 0.921c-0.813, -0.328 -1.735, -0.615 -2.769, -0.863c-1.054, -0.251 -1.974, -0.379 -2.765, -0.379l-0, 1.314Z" style="fill: rgb(89, 89, 89);"/>
  <path d="M23, 22.004l-22, 0l0, -1.299l22, 0l0, 1.299Zm0, -18.708l-22, 0l0, -1.301l22, 0l0, 1.301Z" style="fill: rgb(89, 89, 89);"/>
</svg>
