<svg viewBox="0 0 24 24" xmlns="http://www.w3.org/2000/svg">
  <path d="M18.561, 16.128l0, 5.171c0, 0.935 -0.766, 1.701 -1.702, 1.701l-9.785, 0c-0.936, 0 -1.701, -0.766 -1.701, -1.701l-0, -5.734c0.535, 0.326 1.152, 0.517 1.799, 0.518l-0, 2.313l9.59, 0l-0, -2.268l1.799, 0Zm-2.94, 5.32l-0, -1.752l-2.283, 0l-0, 1.752l2.283, 0Zm-2.887, 0l-0, -1.752l-1.535, 0l-0, 1.752l1.535, 0Zm-2.138, 0l0, -1.752l-2.283, 0l-0, 1.752l2.283, 0Zm8.927, -15.171l0, 0.971l-2.777, -0l0, 2.818l2.779, -0l0, 0.972l-2.779, -0l0, 3.791l-0.97, -0l0, -8.552l3.747, -0Zm-4.79, -0l0, 0.971l-2.779, -0l0.001, 2.818l2.778, -0l0, 0.973l-2.777, -0l0, 3.789l-0.971, -0l0, -8.551l3.748, -0Zm-4.786, 4.234c-0.004, -2.646 -1.083, -4.268 -2.735, -4.275c-1.655, 0.007 -2.734, 1.629 -2.738, 4.275c0.004, 2.645 1.083, 4.266 2.738, 4.274c1.652, -0.008 2.731, -1.629 2.735, -4.274Zm-4.5, 0c0.029, -2.486 0.891, -3.301 1.765, -3.306c0.874, 0.005 1.734, 0.82 1.764, 3.306c-0.03, 2.484 -0.89, 3.301 -1.764, 3.304c-0.874, -0.003 -1.736, -0.82 -1.765, -3.304Zm11.412, -9.511c0.936, 0 1.701, 0.765 1.701, 1.701l0, 2.275l-1.799, 0l0, -1.677l-9.59, 0l0, 1.639c-0.648, 0.002 -1.265, 0.193 -1.798, 0.517l0, -2.754c0, -0.936 0.765, -1.701 1.7, -1.701l9.786, 0Z" style="fill: rgb(89, 89, 89);"/>
</svg>
