<svg viewBox="0 0 24 24" xmlns="http://www.w3.org/2000/svg">
  <path d="M22.994, 12.156c-0.01, -0.057 -0.412, -2.65 -2.371, -5.614c-0.316, -0.476 -0.614, -0.897 -0.898, -1.276c-0.405, -1.593 -1.559, -3.694 -2.923, -3.694c-0.977, 0 -1.846, 1.08 -2.411, 2.278l-13.391, 8.051l0, 10.526l22, 0l0, -10.22l-0.006, -0.051Z" style="fill: rgb(255, 0, 0);"/>
  <path d="M2.227, 18.535l19.548, 0l-0, 2.665l-19.548, 0l0, -2.665Zm0, -5.672l19.548, 0l-0, 2.665l-19.548, 0l0, -2.665Zm19.391, -1.227l-17.794, 0l9.973, -5.995c-0.047, 0.248 -0.072, 0.477 -0.072, 0.674c-0, 1.481 1.378, 2.68 3.077, 2.68c1.295, 0 2.397, -0.697 2.854, -1.683c0.872, 1.338 1.41, 2.598 1.721, 3.52c0.108, 0.318 0.182, 0.578 0.241, 0.804Zm-3.242, -5.146c0.174, 0 0.314, 0.229 0.314, 0.511c0, 0.282 -0.14, 0.51 -0.314, 0.51c-0.174, 0 -0.315, -0.228 -0.315, -0.51c0, -0.282 0.141, -0.511 0.315, -0.511Zm-1.573, 0c0.174, 0 0.314, 0.229 0.314, 0.511c-0, 0.282 -0.14, 0.51 -0.314, 0.51c-0.174, 0 -0.314, -0.228 -0.314, -0.51c-0, -0.282 0.14, -0.511 0.314, -0.511Zm-1.573, 0c0.173, 0 0.314, 0.229 0.314, 0.511c0, 0.282 -0.141, 0.51 -0.314, 0.51c-0.175, 0 -0.315, -0.228 -0.315, -0.51c0, -0.282 0.14, -0.511 0.315, -0.511Zm2.36, -1.967c0.173, -0 0.314, 0.229 0.314, 0.513c-0, 0.282 -0.141, 0.51 -0.314, 0.51c-0.175, -0 -0.315, -0.228 -0.315, -0.51c-0, -0.284 0.14, -0.513 0.315, -0.513Zm-1.573, -0c0.174, -0 0.314, 0.229 0.314, 0.513c-0, 0.282 -0.14, 0.51 -0.314, 0.51c-0.174, -0 -0.315, -0.228 -0.315, -0.51c-0, -0.284 0.141, -0.513 0.315, -0.513Zm0.786, -1.966c0.174, -0 0.314, 0.229 0.314, 0.511c-0, 0.282 -0.14, 0.51 -0.314, 0.51c-0.174, -0 -0.314, -0.228 -0.314, -0.51c-0, -0.282 0.14, -0.511 0.314, -0.511Z" style="fill: rgb(230, 230, 230);"/>
</svg>
