<svg viewBox="0 0 24 24" xmlns="http://www.w3.org/2000/svg">
  <path d="M15.479, 22.997l-6.961, 0l0, -2.001c-4.031, -1.053 -6.968, -5.277 -6.97, -10.27l0, -0.65l20.903, 0l0, 0.65c-0.002, 4.993 -2.94, 9.217 -6.972, 10.27l0, 2.001Zm-4.312, -15.291c0.364, -0.329 0.61, -0.845 0.61, -1.435c-0, -0.384 -0.127, -0.711 -0.355, -1.155c-0.236, -0.461 -0.498, -1.041 -0.5, -1.75c-0, -0.954 0.397, -1.82 1.04, -2.399l0.872, 0.964c-0.364, 0.327 -0.612, 0.843 -0.612, 1.435c-0, 0.374 0.143, 0.746 0.355, 1.155c0.251, 0.486 0.502, 1.049 0.5, 1.75c-0, 0.954 -0.395, 1.818 -1.038, 2.399l-0, 0.002l-0.872, -0.966Zm5.791, 0c0.364, -0.327 0.611, -0.844 0.611, -1.434c0, -0.387 -0.128, -0.712 -0.354, -1.154c-0.238, -0.463 -0.5, -1.041 -0.5, -1.753c0, -0.952 0.393, -1.817 1.039, -2.399l0.87, 0.965c-0.363, 0.327 -0.61, 0.843 -0.61, 1.434c-0, 0.377 0.143, 0.749 0.357, 1.156c0.249, 0.486 0.5, 1.049 0.498, 1.751c-0, 0.953 -0.396, 1.817 -1.039, 2.399l-0.872, -0.965Zm-10.711, 0.965l-0.002, 0l0.001, -0.001l0.001, 0.001Zm-0.874, -0.964c0.366, -0.329 0.612, -0.845 0.612, -1.437c-0, -0.384 -0.127, -0.71 -0.355, -1.154c-0.236, -0.46 -0.499, -1.04 -0.501, -1.751c0.002, -0.953 0.396, -1.819 1.041, -2.4l0.871, 0.966c-0.363, 0.327 -0.612, 0.844 -0.612, 1.434c-0, 0.376 0.144, 0.748 0.356, 1.157c0.251, 0.485 0.501, 1.048 0.501, 1.748c-0.002, 0.954 -0.396, 1.818 -1.04, 2.4l-0.873, -0.963Z" style="fill: rgb(89, 89, 89);"/>
  <path d="M2.865, 11.377c0.251, 4.392 3.047, 7.855 6.42, 8.459l0.534, 0.099l0, 1.761l4.359, 0l0, -1.761l0.534, -0.099c3.373, -0.602 6.169, -4.067 6.42, -8.459l-18.267, 0Z" style="fill: rgb(230, 230, 230);"/>
  <path d="M6.773, 15.126l-1.456, 0l0, -1.458l1.456, 0l0, 1.458Zm3.97, 0l-1.456, 0l-0, -1.458l1.456, 0l-0, 1.458Zm3.971, 0l-1.457, 0l-0, -1.458l1.457, 0l-0, 1.458Zm3.971, -1.458l-0, 1.458l-1.458, 0l-0, -1.458l1.458, 0Z" style="fill: rgb(255, 0, 0);"/>
</svg>
