<svg viewBox="0 0 24 24" xmlns="http://www.w3.org/2000/svg">
  <path d="M15.057, 0.998c-2.478, 0.027 -4.764, 0.614 -6.234, 1.688l-0.01, 0l-5.891, 4.339c-0.181, 0.119 -0.35, 0.244 -0.51, 0.376l-0.048, 0.035l0.008, 0.001c-0.811, 0.682 -1.317, 1.535 -1.372, 2.552c0.004, 1.072 0.623, 1.976 1.519, 2.665l-0, 10.332l12.745, -0l6.164, -4.526l-0, -10.333c0.895, -0.688 1.514, -1.594 1.518, -2.664c-0.153, -2.834 -3.768, -4.42 -7.889, -4.465" style="fill: rgb(180, 80, 0);"/>
  <path d="M13.963, 21.684l-10.143, 0l-0, -9.707l-0.284, -0.191c-0.852, -0.583 -1.241, -1.218 -1.235, -1.797c-0.014, -0.687 0.564, -1.483 1.772, -2.12c1.187, -0.629 2.903, -1.043 4.805, -1.043l0.014, 0c1.906, -0.003 3.627, 0.413 4.817, 1.043c1.209, 0.637 1.787, 1.433 1.771, 2.12c0.008, 0.579 -0.382, 1.212 -1.232, 1.795l-0.285, 0.193l-0, 9.707Zm2.517, -0.893l0, -0.826l1.124, 0l-1.124, 0.826Zm-0, -0.826l-1.217, 0l-0, -1.213l1.217, 0l-0, 1.213Zm2.434, -1.213l0, 0.251l-1.217, 0.894l0, -1.145l1.217, 0l0, -1.213l1.217, 0l0, 0.569l-0.876, 0.644l-0.341, 0Zm-1.217, 0l-1.217, 0l-0, -1.213l1.217, 0l-0, 1.213Zm-1.217, -1.213l-1.217, 0l-0, -1.217l1.217, 0l-0, 1.217Zm2.434, 0l-1.217, 0l0, -1.217l1.217, 0l0, 1.217Zm-1.217, -1.217l-1.217, 0l0, -1.213l1.217, 0l0, 1.213Zm2.434, 0l-1.217, 0l0, -1.213l1.217, 0l0, 1.213Zm-3.651, -1.212l-1.217, 0l-0, -1.214l1.217, 0l-0, 1.214Zm1.217, -1.215l1.217, 0l0, 1.214l-1.217, 0l0, -1.213l-1.217, 0l0, -1.214l1.217, 0l0, 1.213Zm2.434, 0.001l-1.217, 0l0, -1.214l1.217, 0l0, 1.214Zm-2.434, -2.431l1.217, 0l0, 1.217l-1.217, 0l0, -1.217l-0.814, 0l0.814, -0.599l0, 0.599Zm-1.217, 1.216l-1.217, 0l0, -0.027l1.217, -0.894l0, 0.921Zm2.434, -2.429l1.217, 0l0, 1.213l-1.217, 0l0, -1.213l-0.381, 0l0.381, -0.28l0, 0.28Z" style="fill: rgb(230, 230, 230);"/>
</svg>
