<svg viewBox="0 0 24 24" xmlns="http://www.w3.org/2000/svg">
  <path d="M22.513, 3.71c-0.003, -0.785 -0.138, -1.593 -0.437, -2.326c-0.097, -0.239 -0.335, -0.394 -0.592, -0.384c-0.259, 0.011 -0.483, 0.181 -0.561, 0.426c-0.066, 0.35 -0.655, 0.616 -1.572, 0.828c-0.792, 0.225 -1.812, 0.355 -2.385, 1.242c-0.389, -0.193 -0.796, -0.331 -1.235, -0.337c-0.215, 0 -0.447, 0.033 -0.676, 0.13c-0.786, 0.361 -1.147, 1.011 -1.318, 1.553c-0.368, -0.162 -0.837, -0.308 -1.349, -0.318c-0.269, 0 -0.564, 0.043 -0.855, 0.183c-0.73, 0.358 -1.034, 0.953 -1.159, 1.434c-0.242, -0.042 -0.526, -0.076 -0.823, -0.077c-0.475, 0.006 -1.044, 0.071 -1.504, 0.519c-0.67, 0.713 -0.688, 1.649 -0.705, 2.202c-0, 0.098 0.004, 0.172 0.007, 0.244c0.001, 0.016 0.001, 0.041 0.002, 0.056l-5.81, 13.051c-0.105, 0.232 -0.052, 0.504 0.127, 0.684c0.118, 0.118 0.275, 0.18 0.434, 0.18c0.084, 0 0.168, -0.018 0.248, -0.053l13.059, -5.812c0.061, 0.004 0.143, 0.005 0.226, 0.006c0.026, 0 0.043, 0.002 0.071, 0.002c0.552, -0.017 1.486, -0.036 2.201, -0.705c0.442, -0.462 0.507, -1.029 0.512, -1.506c-0.001, -0.275 -0.029, -0.538 -0.066, -0.767c0.51, -0.094 1.158, -0.365 1.529, -1.117c0.132, -0.291 0.177, -0.584 0.177, -0.852c-0.01, -0.512 -0.156, -0.98 -0.317, -1.346c0.542, -0.174 1.196, -0.539 1.559, -1.337c0.086, -0.219 0.121, -0.445 0.121, -0.662c-0.009, -0.55 -0.212, -1.049 -0.487, -1.521c1.117, -0.653 1.561, -2.17 1.578, -3.62" style="fill: rgb(255, 140, 0);"/>
  <path d="M4.817, 19.648l-0, 0.856l-1.506, 0.67l0.68, -1.526l0.826, -0Zm1, 0.411l-0, -0.411l0.925, -0l-0.925, 0.411Zm-1, -1.412l-0, -0.854l-0.38, 0.854l0.38, 0Zm4.172, 0l-0.399, 0l0, -1.772l1.771, 0l0, 1.162l-1.372, 0.61Zm-1.399, -0l-1.773, -0l-0, -1.772l1.773, -0l-0, 1.772Zm3.772, -1.055l-0, -0.717l1.611, -0l-1.611, 0.717Zm-0.907, -10.178c-0.038, -0.01 -0.078, -0.019 -0.122, -0.028c-0.222, -0.049 -0.511, -0.096 -0.782, -0.094c-0.339, -0.006 -0.582, 0.087 -0.631, 0.155c-0.235, 0.191 -0.366, 0.902 -0.351, 1.338c-0, 0.182 0.011, 0.284 0.015, 0.314c0.006, 0.024 0.019, 0.086 0.073, 0.246c0.065, 0.196 0.179, 0.492 0.368, 0.865c0.377, 0.749 1.055, 1.808 2.249, 3.001c1.793, 1.793 3.279, 2.424 3.871, 2.622c0.137, 0.045 0.198, 0.06 0.231, 0.069c0.023, 0.001 0.132, 0.013 0.33, 0.013c0.434, 0.018 1.143, -0.114 1.332, -0.346c0.07, -0.051 0.16, -0.299 0.155, -0.637c0.002, -0.325 -0.063, -0.667 -0.116, -0.896c-4.226, -1.68 -6.143, -5.523 -6.622, -6.622Zm0.907, 7.546l-0, 0.913l1.217, -0c-0.382, -0.256 -0.783, -0.546 -1.217, -0.913Zm-1.001, 0.913l-1.771, -0l-0, -1.771l1.771, -0l-0, 1.771Zm-2.771, -0l-1.773, -0l-0, -0.325l0.645, -1.446l1.128, -0l-0, 1.771Zm1, -4l0, 1.228l0.917, -0c-0.369, -0.438 -0.662, -0.844 -0.917, -1.228Zm-1, 1.228l0, -1.534l-0.683, 1.534l0.683, -0Zm10.793, -2.209c-3.413, -1.527 -4.474, -3.919 -4.732, -4.713c-0.081, -0.049 -0.182, -0.105 -0.307, -0.165c-0.291, -0.142 -0.674, -0.268 -0.956, -0.263c-0.137, -0 -0.244, 0.023 -0.329, 0.065c-0.448, 0.181 -0.535, 0.73 -0.544, 0.961c0.048, 0.114 0.139, 0.33 0.296, 0.645c0.236, 0.468 0.602, 1.113 1.11, 1.808c1.007, 1.378 2.571, 2.934 4.809, 3.752c0.024, 0.001 0.051, 0.003 0.094, 0.003c0.323, -0.002 0.796, -0.094 0.944, -0.455c0.041, -0.089 0.062, -0.198 0.062, -0.333c0.004, -0.285 -0.119, -0.666 -0.259, -0.954c-0.071, -0.148 -0.138, -0.267 -0.188, -0.351Zm-1.699, -6.159c-0.383, -0.226 -0.735, -0.354 -0.953, -0.347c-0.093, 0 -0.154, 0.014 -0.21, 0.038c-0.264, 0.096 -0.471, 0.393 -0.594, 0.748c-0.084, 0.236 -0.117, 0.444 -0.13, 0.556c0.018, 0.061 0.048, 0.157 0.108, 0.304c0.106, 0.264 0.29, 0.641 0.587, 1.072c0.583, 0.833 1.608, 1.868 3.409, 2.675c0.119, -0.017 0.303, -0.048 0.512, -0.121c0.355, -0.125 0.65, -0.328 0.747, -0.592c0.022, -0.062 0.035, -0.128 0.035, -0.216c0.011, -0.269 -0.192, -0.739 -0.52, -1.223c-1.588, -0.126 -2.85, -1.436 -2.991, -2.894Zm4.536, -1.858c-0.494, 0.309 -1.082, 0.438 -1.572, 0.57c-0.931, 0.202 -1.622, 0.472 -1.685, 0.744c-0.052, 0.113 -0.075, 0.233 -0.075, 0.367c-0.005, 0.369 0.219, 0.868 0.6, 1.245c0.378, 0.382 0.883, 0.624 1.342, 0.62c0.055, -0 0.119, -0.004 0.193, -0.01l-0, 0.002c0.59, -0.034 1.281, -1.198 1.261, -2.703c0.001, -0.277 -0.02, -0.559 -0.064, -0.835Z" style="fill: rgb(230, 230, 230);"/>
</svg>
