<svg viewBox="0 0 24 24" xmlns="http://www.w3.org/2000/svg">
  <path d="M22.605, 5.272c-0.064, -0.15 -0.186, -0.267 -0.337, -0.325l-2.477, -0.972c-0.316, -0.123 -0.672, 0.03 -0.796, 0.348l-1.061, 2.703l0, -3.837c0, -0.165 -0.064, -0.318 -0.18, -0.433c-0.116, -0.117 -0.269, -0.181 -0.433, -0.181l-4.707, -0.001l0.001, -0.958c-0, -0.166 -0.066, -0.318 -0.179, -0.434c-0.117, -0.117 -0.27, -0.181 -0.435, -0.181l-2.66, -0c-0.163, -0 -0.321, 0.066 -0.434, 0.181c-0.115, 0.113 -0.181, 0.273 -0.181, 0.434l-0.001, 1.372l-2.046, -0c-0.16, -0 -0.317, 0.066 -0.433, 0.18c-0.115, 0.113 -0.181, 0.273 -0.181, 0.434l0, 3.426l-1.061, -2.705c-0.059, -0.152 -0.177, -0.275 -0.324, -0.339c-0.15, -0.064 -0.32, -0.067 -0.47, -0.009l-2.476, 0.972c-0.317, 0.123 -0.471, 0.478 -0.347, 0.796l1.832, 4.671l-0.952, 0.485l1.54, 9.945c0.197, 1.195 1.158, 2.135 2.343, 2.157l11.698, -0c1.186, -0.022 2.147, -0.962 2.342, -2.157l1.544, -9.945l-0.953, -0.484l1.831, -4.673c0.061, -0.152 0.058, -0.32 -0.008, -0.47" style="fill: rgb(255, 140, 0);"/>
  <path d="M16.705, 13.964l-1.431, -0l0, -10.161l1.431, 0l-0, 10.161Zm-2.659, -0l-1.432, -0l-0, -10.162l1.432, 0l-0, 10.162Zm-2.66, -0.002l-1.432, 0l-0, -11.734l1.432, 0.001l-0, 11.734Zm-2.66, -9.749l-0, 9.217l-1.433, 0l-0, -9.217l1.433, 0Zm-4.639, 1.128l1.979, 5.043l-0, 2.721l-0.774, -0.766l-2.539, -6.476l1.334, -0.522Zm14.621, 6.996l-0.773, 0.767l-0, -2.72l1.976, -5.043l1.335, 0.522l-2.538, 6.474Z" style="fill: rgb(230, 230, 230);"/>
</svg>
