<svg viewBox="0 0 24 24" xmlns="http://www.w3.org/2000/svg">
  <path d="M21.409, 12.331c-0.255, -5.982 -4.07, -11.295 -9.408, -11.331c-5.34, 0.036 -9.155, 5.349 -9.41, 11.331l-1.505, 0l0.314, 0.834c1.232, 3.257 3.87, 5.797 7.166, 6.858l0, 2.977l6.867, 0l0, -2.977c3.296, -1.061 5.935, -3.601 7.167, -6.858l0.314, -0.834l-1.505, 0Z" style="fill: rgb(255, 140, 0);"/>
  <path d="M17.83, 5.401c-1.491, -1.965 -3.521, -3.173 -5.829, -3.173c-2.311, 0 -4.34, 1.208 -5.832, 3.173c-1.38, 1.823 -2.251, 4.291 -2.369, 6.93l16.4, 0c-0.118, -2.639 -0.99, -5.107 -2.37, -6.93" style="fill: rgb(230, 230, 230);"/>
  <path d="M17.275, 9.766l1.695, 0l-0, 1.696l-1.695, 0l-0, -1.696Zm-6.786, 0l1.696, 0l0, 1.696l-1.696, 0l0, -1.696Zm5.089, -1.695l1.697, 0l-0, 1.695l-1.697, 0l-0, 1.696l-1.696, 0l-0, -1.696l1.696, 0l-0, -1.695Zm-3.392, 0l1.696, 0l-0, 1.695l-1.696, 0l-0, -1.695Zm3.392, -0.001l-1.696, 0l-0, -1.696l1.696, -0l-0, 1.696Z" style="fill: rgb(255, 140, 0);"/>
</svg>
