<svg viewBox="0 0 24 24" xmlns="http://www.w3.org/2000/svg">
  <path d="M17.062, 18.773l-10.126, 0c-2.131, -0.003 -3.989, -1.651 -4.54, -3.955c1.08, 1.424 2.696, 2.344 4.54, 2.35l10.125, 0c1.845, -0.006 3.461, -0.925 4.54, -2.349c-0.55, 2.304 -2.409, 3.951 -4.54, 3.954" style="fill: rgb(255, 190, 0);"/>
  <path d="M17.062, 18.773l-10.126, 0c-2.131, -0.003 -3.989, -1.651 -4.54, -3.955c1.08, 1.424 2.696, 2.344 4.54, 2.35l10.125, 0c1.845, -0.006 3.461, -0.925 4.54, -2.349c-0.55, 2.304 -2.409, 3.951 -4.54, 3.954m-10.125, -13.547l7.249, 0l0, 10.715l-7.249, 0c-2.542, -0.006 -4.705, -2.346 -4.709, -5.356c0.004, -3.011 2.167, -5.353 4.709, -5.359m9.438, 4.821l1.684, 1.459l-1.685, 1.458l-1.684, -1.458l1.684, -1.459Zm0.748, -3.596c0.766, 0 1.388, 0.54 1.388, 1.203c0, 0.664 -0.622, 1.204 -1.388, 1.204c-0.766, 0 -1.39, -0.54 -1.39, -1.204c0, -0.663 0.624, -1.203 1.39, -1.203m3.546, 7.314l-1.683, 1.459l-1.685, -1.459l1.685, -1.458l1.683, 1.458Zm-0.908, -5.029c0.766, 0 1.389, 0.539 1.389, 1.203c0, 0.663 -0.623, 1.204 -1.389, 1.204c-0.766, 0 -1.389, -0.541 -1.389, -1.204c0, -0.664 0.623, -1.203 1.389, -1.203m-2.698, -4.737l-10.125, 0c-3.334, 0.011 -5.931, 3.001 -5.937, 6.586l0, 2.831c0.006, 3.586 2.603, 6.575 5.937, 6.585l10.125, 0c3.336, -0.01 5.933, -2.999 5.938, -6.585l0, -2.831c-0.005, -3.585 -2.602, -6.575 -5.938, -6.586" style="fill: rgb(255, 140, 0);"/>
  <path d="M14.186, 5.227l-0, 10.715l-7.25, -0c-2.542, -0.006 -4.704, -2.346 -4.709, -5.358c0.005, -3.009 2.167, -5.351 4.709, -5.357l7.25, -0Zm4.798, 7.081l1.684, 1.458l-1.684, 1.459l-1.685, -1.459l1.685, -1.458Zm-2.611, -2.26l1.686, 1.459l-1.686, 1.458l-1.684, -1.458l1.684, -1.459Zm-7.447, 1.681c-0.73, -0 -1.322, -0.513 -1.322, -1.144c-0, -0.63 0.592, -1.142 1.322, -1.142c0.729, -0 1.318, 0.511 1.318, 1.142c-0, 0.631 -0.589, 1.144 -1.318, 1.144Zm10.834, -2.993c0.766, 0 1.389, 0.539 1.389, 1.203c-0, 0.663 -0.623, 1.204 -1.389, 1.204c-0.767, 0 -1.39, -0.541 -1.39, -1.204c-0, -0.664 0.623, -1.203 1.39, -1.203Zm-2.639, 0.122c-0.766, 0 -1.39, -0.54 -1.39, -1.204c0, -0.663 0.624, -1.203 1.39, -1.203c0.767, 0 1.389, 0.54 1.389, 1.203c0, 0.664 -0.622, 1.204 -1.389, 1.204Z" style="fill: rgb(230, 230, 230);"/>
  <path d="M8.926, 11.729c0.729, -0.001 1.318, -0.514 1.318, -1.145c-0, -0.63 -0.589, -1.142 -1.318, -1.142c-0.73, 0 -1.322, 0.512 -1.322, 1.142c-0, 0.631 0.592, 1.144 1.322, 1.144" style="fill: rgb(255, 0, 0);"/>
</svg>
