<svg viewBox="0 0 24 24" xmlns="http://www.w3.org/2000/svg">
  <path d="M22.999, 11.593l0, -0.002c-0.061, -4.178 -5.056, -7.226 -10.999, -7.237c-1.528, -0 -2.977, 0.21 -4.3, 0.579c-0.444, -0.444 -0.839, -0.838 -0.91, -0.912c-0.164, -0.173 -0.491, -0.416 -0.931, -0.408c-0.141, -0.002 -0.295, 0.02 -0.456, 0.07c-0.609, 0.184 -2.841, 1.373 -3.203, 1.546c-0.389, 0.173 -0.637, 0.557 -0.625, 0.908c0.004, 0.268 0.105, 0.493 0.272, 0.663c0.066, 0.066 0.448, 0.45 0.885, 0.887c-1.074, 1.103 -1.732, 2.445 -1.732, 3.904c0.004, 0.287 0.036, 0.566 0.086, 0.842c0.023, 0.138 0.066, 0.277 0.1, 0.418c0.023, 0.088 0.039, 0.178 0.066, 0.265c0.531, 1.883 1.853, 3.85 3.234, 4.815c1.749, 1.51 4.462, 2.451 7.515, 2.455c1.986, -0.002 3.814, -0.414 5.34, -1.107c0.179, 0.146 0.446, 0.291 0.783, 0.291l0.016, -0c0.144, -0 0.29, -0.024 0.445, -0.065c0.625, -0.189 2.854, -1.377 3.217, -1.549c0.389, -0.175 0.635, -0.562 0.624, -0.91c-0.004, -0.273 -0.106, -0.494 -0.274, -0.666c-0.05, -0.051 -0.306, -0.307 -0.627, -0.629c0.61, -0.933 1.102, -1.986 1.331, -3.002c0.084, -0.345 0.132, -0.701 0.139, -1.065c0, -0.03 0.005, -0.062 0.005, -0.091l-0.001, -0Z" style="fill: rgb(180, 80, 0);"/>
  <path d="M19.182, 7.215c-1.811, -1.164 -4.359, -1.905 -7.182, -1.903c-1.541, -0 -2.996, 0.224 -4.3, 0.616l-0.274, 0.083c-0, -0 -1.227, -1.227 -1.314, -1.314c-0.11, -0.102 -0.132, -0.122 -0.252, -0.128c-0.047, -0 -0.104, 0.006 -0.187, 0.031c-0.339, 0.087 -3.123, 1.529 -3.134, 1.54l1.57, 1.569l-0.372, 0.339c-1.143, 1.04 -1.78, 2.255 -1.78, 3.544l0.001, -0c-0.004, 0.205 0.018, 0.425 0.057, 0.654c0.017, 0.1 0.045, 0.196 0.07, 0.293c0.022, 0.098 0.045, 0.197 0.075, 0.297c0.383, 1.178 1.307, 2.263 2.66, 3.134c1.81, 1.165 4.36, 1.904 7.18, 1.904c1.542, -0 2.998, -0.227 4.302, -0.618l0.272, -0.084c-0, -0 1.229, 1.228 1.316, 1.315c0.11, 0.101 0.128, 0.12 0.25, 0.126c0.041, -0 0.106, -0.006 0.189, -0.03c0.339, -0.087 3.124, -1.528 3.134, -1.539l-1.569, -1.572l0.371, -0.335c0.839, -0.762 1.4, -1.621 1.643, -2.532c0.007, -0.031 0.017, -0.061 0.024, -0.09c0.007, -0.025 0.009, -0.05 0.014, -0.075c0.029, -0.135 0.054, -0.27 0.07, -0.399c0.018, -0.148 0.028, -0.298 0.028, -0.449c0.002, -1.65 -1.046, -3.207 -2.862, -4.377" style="fill: rgb(255, 140, 0);"/>
  <path d="M20.943, 11.593c0, -0.018 -0.007, -0.036 -0.008, -0.054c-0.036, -2.03 -2.084, -3.774 -5.042, -4.606l-1.954, -1.127c-0.102, -0.059 -0.232, -0.061 -0.335, -0l-1.069, 0.617c-0.175, -0.007 -0.35, -0.012 -0.531, -0.012l-0.01, -0c-4.845, 0.002 -8.78, 2.24 -8.918, 5.032c-0.004, 0.05 -0.004, 0.25 0, 0.3c0.138, 2.791 4.076, 5.032 8.925, 5.032c4.862, -0 8.809, -2.252 8.928, -5.054c0.003, -0.043 0.013, -0.085 0.014, -0.128" style="fill: rgb(89, 89, 89);"/>
  <path d="M12.877, 12.247c-0.782, 0 -1.489, 0.231 -2.008, 0.604c-0.342, -0.893 -1.443, -1.551 -2.765, -1.551c-1.593, 0 -2.884, 0.952 -2.884, 2.125c0, 0.302 0.089, 0.59 0.244, 0.849c0.73, 0.521 1.656, 0.957 2.718, 1.269c0.751, -0.015 1.429, -0.238 1.931, -0.598c0.17, 0.445 0.526, 0.826 1.008, 1.101c0.29, 0.017 0.583, 0.028 0.88, 0.028c1.079, 0 2.115, -0.122 3.07, -0.338c0.425, -0.37 0.691, -0.842 0.691, -1.364c0, -1.173 -1.291, -2.125 -2.885, -2.125" style="fill: rgb(180, 80, 0);"/>
  <path d="M8.158, 15.546c0.749, -0.012 1.444, -0.229 1.958, -0.596c0.177, 0.469 0.552, 0.856 1.049, 1.125c-1.1, -0.064 -2.108, -0.254 -3.007, -0.529Zm9.874, -0.957c-0.81, 0.492 -1.82, 0.898 -2.979, 1.168c0.424, -0.363 0.698, -0.836 0.707, -1.385c0, -0.015 -0.006, -0.027 -0.007, -0.043l0.935, 0.539c0.052, 0.032 0.109, 0.045 0.165, 0.045c0.059, -0 0.117, -0.015 0.17, -0.045l2.368, -1.369c-0.352, 0.383 -0.807, 0.754 -1.359, 1.09Zm-6.717, -0.633c-0.154, -0.052 -0.236, -0.222 -0.182, -0.376c0.053, -0.154 0.221, -0.236 0.376, -0.184l1.237, 0.425l1.003, -0.806c0.127, -0.103 0.314, -0.083 0.415, 0.045c0.103, 0.127 0.082, 0.313 -0.043, 0.418l-0.713, 0.572l0.896, 0.309c0.157, 0.053 0.237, 0.22 0.185, 0.375c-0.043, 0.123 -0.157, 0.201 -0.281, 0.201c-0.031, -0 -0.064, -0.005 -0.096, -0.017l-1.25, -0.43l-1.043, 0.837c-0.054, 0.045 -0.119, 0.068 -0.185, 0.068c-0.086, -0 -0.172, -0.039 -0.229, -0.113c-0.104, -0.126 -0.082, -0.313 0.043, -0.414l0.753, -0.605l-0.886, -0.305Zm-4.774, -0.948c-0.155, -0.053 -0.237, -0.223 -0.182, -0.377c0.052, -0.153 0.22, -0.236 0.376, -0.184l1.237, 0.426l1.003, -0.806c0.127, -0.104 0.314, -0.082 0.415, 0.045c0.103, 0.126 0.082, 0.313 -0.043, 0.417l-0.714, 0.573l0.897, 0.308c0.156, 0.054 0.237, 0.221 0.184, 0.375c-0.042, 0.123 -0.156, 0.202 -0.279, 0.202c-0.032, -0 -0.065, -0.005 -0.097, -0.017l-1.25, -0.43l-1.043, 0.837c-0.055, 0.045 -0.12, 0.068 -0.185, 0.068c-0.087, -0 -0.172, -0.04 -0.23, -0.113c-0.104, -0.126 -0.083, -0.313 0.044, -0.414l0.752, -0.605l-0.885, -0.305Zm-1.098, 1.229c-0.492, -0.361 -0.882, -0.752 -1.165, -1.146c0.871, -1.323 2.776, -2.256 5.021, -2.252c1.19, 0 2.47, 0.257 3.728, 0.843l0.577, 0.333c0.02, 0.012 0.044, 0.011 0.066, 0.018l0, 0.306c-0.255, -0.055 -0.519, -0.092 -0.793, -0.092c-0.77, 0.001 -1.488, 0.222 -2.014, 0.599c-0.351, -0.925 -1.474, -1.547 -2.759, -1.547c-1.539, 0 -2.865, 0.883 -2.885, 2.125c0.005, 0.293 0.088, 0.565 0.224, 0.813Zm13.925, -3.06l0, 1.561l-2.515, 1.455l-1.466, -0.85c-0.251, -0.334 -0.611, -0.607 -1.047, -0.796l0, -1.372l2.347, 1.356c0.053, 0.031 0.111, 0.046 0.168, 0.046c0.058, -0 0.117, -0.015 0.168, -0.046l2.345, -1.354Zm0.672, -0.53c0.149, 0.324 0.24, 0.644 0.233, 0.945c0.003, 0.305 -0.082, 0.627 -0.233, 0.952l0, -1.897Zm-16.123, 1.802c-0.104, -0.249 -0.164, -0.493 -0.178, -0.729c1.509, -1.653 3.442, -2.235 5.091, -2.235c0.658, 0 1.249, 0.104 1.755, 0.254l0, 0.34c0, 0.08 0.036, 0.149 0.086, 0.209c-0.464, -0.07 -0.924, -0.117 -1.371, -0.117c-2.277, 0.002 -4.283, 0.869 -5.383, 2.278Zm12.938, -0.594l-2.181, -1.26l2.18, -1.259l2.182, 1.259l-2.181, 1.26Zm-0.567, -2.964l-2.45, 1.415c-0.106, 0.059 -0.168, 0.169 -0.168, 0.289l0, 0.686l-2.415, -1.397l0, -1.563l2.349, 1.357c0.051, 0.03 0.109, 0.045 0.166, 0.045c0.059, -0 0.118, -0.016 0.169, -0.045l2.348, -1.355l0.001, 0.568Zm-10.535, -0.152c0.772, -0.324 1.906, -0.559 2.932, -0.557c0.769, -0.004 1.461, 0.142 1.9, 0.412l-0, 0.458c-0.53, -0.139 -1.111, -0.239 -1.755, -0.239c-1.532, 0 -3.308, 0.474 -4.825, 1.733c0.317, -0.624 0.909, -1.255 1.748, -1.807Zm11.27, -0.08c-0.021, -0.012 -0.044, -0.01 -0.066, -0.018l-0.001, -0.592c1.373, 0.598 2.361, 1.413 2.881, 2.237l-2.814, -1.627Zm-3.25, -2.179l2.18, 1.261l-2.18, 1.26l-2.185, -1.261l2.185, -1.26Zm-2.414, 0.621l-0.607, 0.351c-0.104, 0.061 -0.167, 0.17 -0.167, 0.289l0, 0.095c-0.554, -0.234 -1.215, -0.321 -1.901, -0.323c-0.043, -0 -0.087, 0.006 -0.13, 0.006c0.85, -0.228 1.793, -0.372 2.805, -0.418Z" style="fill: rgb(230, 230, 230);"/>
</svg>
