<svg viewBox="0 0 24 24" xmlns="http://www.w3.org/2000/svg">
  <path d="M21.615, 5.319c0, 0 -0.829, -0.43 -1.993, 0.903c0, 0 -0.565, 0.446 -1.399, 1.557c-0.187, -1.723 -1.162, -3.507 -2.784, -4.088c-0.359, -0.738 -1.501, -2.648 -3.928, -2.691c-2.429, 0.043 -3.571, 1.953 -3.931, 2.69c-1.728, 0.619 -2.735, 2.602 -2.826, 4.42c-0.574, 0.48 -1.82, 1.794 -1.825, 4.114c0, 0.042 0.008, 0.092 0.009, 0.135l-0.904, 0l0.182, 0.757c0.677, 2.701 3.604, 4.71 7.495, 5.246l0, 1.657l-2.701, 1.54l0, 1.441l8.999, 0l0, -1.443l-2.704, -1.538l0, -1.657c3.892, -0.535 6.823, -2.545 7.497, -5.248l0.181, -0.755l-0.905, 0c0.001, -0.044 0.009, -0.094 0.009, -0.137c-0.002, -1.33 -0.414, -2.318 -0.871, -3.018c0.948, -1.054 1.91, -1.894 2.107, -2.071c0, 0 1.225, -0.987 0.292, -1.814" style="fill: rgb(0, 0, 255);"/>
  <path d="M9.848, 10.375c0.726, -0.001 1.277, -0.523 1.565, -1.175c0.31, -0.67 0.481, -1.546 0.595, -2.63c0, 0.002 0.027, -0.179 0.092, -0.344c0.005, -0.014 0.01, -0.027 0.015, -0.04c0.102, 0.107 0.247, 0.29 0.429, 0.593c0.426, 0.696 0.635, 1.148 0.946, 1.523c0.309, 0.392 0.827, 0.588 1.377, 0.567c0.855, -0.051 1.516, -0.747 1.971, -1.788c0.13, 0.402 0.209, 0.817 0.201, 1.213l0, 0.108l-0.011, 0.348l0.295, 0.185c0, 0 0.027, 0.019 0.072, 0.053c-0.551, 0.871 -1.158, 1.982 -1.773, 3.371l-11.457, 0c-0.001, -0.044 -0.009, -0.092 -0.009, -0.135c0.002, -1.184 0.399, -1.995 0.793, -2.535c0.197, -0.268 0.394, -0.463 0.538, -0.588c0.141, -0.125 0.21, -0.162 0.208, -0.166l0.323, -0.205l-0.042, -0.383l0, -0.053c-0.005, -0.219 0.022, -0.444 0.064, -0.67l0.502, -0.352c0.288, -0.187 0.486, -0.228 0.589, -0.226c0.119, -0.027 0.211, 0.068 0.275, 0.162c0.056, 0.087 0.086, 0.171 0.09, 0.171c0.698, 1.798 1.177, 2.892 2.335, 2.995l0.017, 0Zm9.003, 1.985l-1.799, 0c0.277, -0.546 0.738, -1.373 1.333, -2.156c0.264, 0.505 0.474, 1.168 0.475, 2.02c-0, 0.043 -0.007, 0.091 -0.009, 0.136Z" style="fill: rgb(230, 230, 230);"/>
  <path d="M8.449, 7.077c0.314, 0.864 0.609, 1.491 0.868, 1.862c0.27, 0.384 0.438, 0.44 0.514, 0.436c0.255, -0.01 0.428, -0.107 0.677, -0.599c0.228, -0.481 0.403, -1.282 0.508, -2.324c0.002, -0.021 0.037, -0.284 0.15, -0.586c0.114, -0.268 0.317, -0.755 0.945, -0.794l0.041, 0l0.037, 0.005c0.218, 0.042 0.631, 0.229 1.211, 1.184c0.436, 0.723 0.677, 1.194 0.852, 1.392c0.176, 0.175 0.175, 0.194 0.615, 0.216c0.156, 0.047 0.888, -0.477 1.218, -1.608l0.13, -0.439c-0.314, -0.423 -0.716, -0.754 -1.205, -0.93l-0.489, -0.175l-0.226, -0.465c-0.356, -0.725 -1.192, -1.949 -2.763, -1.978c-1.614, 0.029 -2.45, 1.251 -2.806, 1.978l-0.227, 0.463l-0.488, 0.175c-0.57, 0.206 -1.048, 0.682 -1.395, 1.249c0.176, -0.058 0.349, -0.093 0.515, -0.093c1.092, 0.05 1.318, 1.05 1.318, 1.031" style="fill: rgb(255, 0, 0);"/>
  <path d="M19.338, 13.587c-0.869, 1.757 -3.327, 3.297 -6.705, 3.618l-0.554, 0.055l-0, 3.473l1.825, 1.04l-4.79, -0l1.825, -1.04l-0, -3.473l-0.554, -0.055c-3.375, -0.321 -5.836, -1.86 -6.703, -3.618l15.656, -0Z" style="fill: rgb(0, 155, 255);"/>
</svg>
