<svg viewBox="0 0 24 24" xmlns="http://www.w3.org/2000/svg">
  <path d="M22.336, 3.494c-0.342, -0.34 -0.767, -0.547 -1.203, -0.625c-0.078, -0.437 -0.284, -0.861 -0.624, -1.201c-0.445, -0.445 -1.032, -0.668 -1.612, -0.668c-0.583, -0 -1.17, 0.224 -1.613, 0.67c-0.444, 0.442 -0.67, 1.028 -0.668, 1.61c-0.001, 0.387 0.098, 0.776 0.295, 1.124l-0.514, 0.515c-2.211, -1.29 -4.802, -1.244 -6.373, 0.326c-0.924, 0.926 -1.322, 2.208 -1.231, 3.558c-1.351, -0.089 -2.634, 0.308 -3.56, 1.234c-1.571, 1.571 -1.616, 4.161 -0.326, 6.372l-0.503, 0.503c-0.347, -0.197 -0.736, -0.297 -1.124, -0.297c-0.581, -0 -1.17, 0.224 -1.613, 0.671c-0.443, 0.441 -0.667, 1.028 -0.667, 1.61c-0, 0.579 0.225, 1.167 0.669, 1.612c0.339, 0.339 0.762, 0.546 1.199, 0.624c0.077, 0.437 0.284, 0.862 0.626, 1.201c0.444, 0.444 1.031, 0.669 1.613, 0.667l0.006, -0c0.579, -0 1.16, -0.226 1.604, -0.663c0.447, -0.449 0.671, -1.036 0.669, -1.615c0.001, -0.387 -0.097, -0.773 -0.292, -1.12l0.502, -0.503c2.213, 1.293 4.804, 1.247 6.376, -0.324c0.926, -0.926 1.322, -2.209 1.232, -3.559c1.351, 0.09 2.633, -0.307 3.559, -1.233c1.57, -1.571 1.615, -4.162 0.325, -6.374l0.516, -0.516c0.346, 0.195 0.733, 0.294 1.119, 0.294c0.58, -0 1.166, -0.225 1.609, -0.667c0.446, -0.447 0.67, -1.034 0.668, -1.613c0.002, -0.583 -0.224, -1.169 -0.664, -1.613" style="fill: rgb(255, 140, 0);"/>
  <path d="M5.85, 21.467c-0.207, 0.203 -0.475, 0.305 -0.743, 0.307c-0.273, -0.002 -0.537, -0.102 -0.744, -0.307c-0.205, -0.207 -0.3, -0.463 -0.302, -0.74c-0, -0.036 0.002, -0.072 0.008, -0.109l0.089, -0.74l-0.745, 0.054c-0.064, 0.006 -0.11, 0.008 -0.139, 0.008c-0.275, -0 -0.533, -0.097 -0.737, -0.3c-0.208, -0.209 -0.308, -0.474 -0.308, -0.744c-0, -0.272 0.101, -0.536 0.308, -0.743c0.206, -0.21 0.472, -0.309 0.744, -0.311c0.27, 0.002 0.537, 0.101 0.745, 0.311l0.004, 0.001l0.433, 0.435l0.722, -0.723c0.137, 0.176 0.286, 0.346 0.449, 0.509c0.16, 0.161 0.33, 0.31 0.505, 0.446l-0.723, 0.722l0.436, 0.436c0.204, 0.204 0.307, 0.47 0.307, 0.743c-0, 0.269 -0.101, 0.536 -0.309, 0.745Zm15.617, -15.615c-0.209, 0.205 -0.474, 0.306 -0.744, 0.306c-0.274, -0 -0.538, -0.101 -0.744, -0.308l-0.436, -0.432l-0.734, 0.734c-0.136, -0.176 -0.285, -0.347 -0.448, -0.508c-0.163, -0.163 -0.332, -0.312 -0.506, -0.447l0.8, -0.801l-0.532, -0.401c-0.188, -0.202 -0.278, -0.455 -0.28, -0.715c0.002, -0.27 0.103, -0.537 0.31, -0.743c0.205, -0.207 0.471, -0.308 0.744, -0.31c0.27, 0.002 0.537, 0.103 0.743, 0.31c0.201, 0.202 0.3, 0.461 0.3, 0.735c-0, 0.051 -0.002, 0.092 -0.004, 0.122l-0.082, 0.762l0.763, -0.089c0.032, -0.004 0.071, -0.006 0.111, -0.006c0.275, 0.002 0.536, 0.097 0.739, 0.302c0.203, 0.204 0.305, 0.471 0.307, 0.744c-0.002, 0.272 -0.102, 0.539 -0.307, 0.745Z" style="fill: rgb(230, 230, 230);"/>
</svg>
