<svg viewBox="0 0 24 24" xmlns="http://www.w3.org/2000/svg">
  <path d="M21.136, 7.715c-2.039, -3.929 -6.418, -6.124 -6.459, -6.159l-0.398, -0.203l-13.279, 13.278l-0, 2.866l4.212, -0c0.002, 0.068 0.006, 0.13 0.006, 0.199c0.002, 1.101 -0.197, 2.317 -0.201, 3.156c-0, 0.992 0.803, 1.795 1.794, 1.795c0.991, -0 1.793, -0.803 1.793, -1.795c-0.003, -0.947 -0.222, -2.25 -0.22, -3.27c-0.005, -0.492 0.058, -0.904 0.152, -1.101c0.119, -0.196 0.08, -0.168 0.266, -0.194c0.026, -0 0.04, -0.002 0.042, -0.002c0.085, -0 0.152, 0.002 0.195, 0.006c0.03, 0.102 0.076, 0.358 0.071, 0.776c-0, 0.88 0.713, 1.595 1.597, 1.597c0.733, -0 1.343, -0.495 1.533, -1.167l10.76, -0l-0, -2.694c-0.001, -0.592 -0.089, -3.619 -1.864, -7.088" style="fill: rgb(180, 80, 0);"/>
  <path d="M11.078, 17.066c-0.002, 0.203 -0.166, 0.371 -0.371, 0.371c-0.204, 0 -0.37, -0.168 -0.37, -0.371c-0.014, -0.729 -0.043, -1.186 -0.373, -1.61c-0.386, -0.433 -0.87, -0.392 -1.12, -0.398l-0.042, 0c-0.639, -0.025 -1.193, 0.423 -1.385, 0.919c-0.217, 0.491 -0.257, 1.032 -0.261, 1.605c0.002, 1.164 0.225, 2.501 0.221, 3.269c0, 0.315 -0.254, 0.567 -0.567, 0.569c-0.312, -0.002 -0.566, -0.254 -0.566, -0.569c-0.004, -0.653 0.199, -1.931 0.201, -3.155c-0.004, -0.78 -0.073, -1.562 -0.416, -2.237c-0.327, -0.686 -1.077, -1.211 -2.007, -1.186l-0.926, 0l9.406, -9.407c1.047, 0.682 3.895, 2.701 4.935, 4.768c0.996, 1.94 1.291, 3.737 1.379, 4.639l-5.568, 0c-0.649, -0.012 -1.278, 0.287 -1.645, 0.814c-0.373, 0.523 -0.523, 1.192 -0.525, 1.979" style="fill: rgb(255, 140, 0);"/>
  <path d="M7.607, 12.278l0, 1.534l-1.534, 0l0, -1.534l1.534, 0Zm1.211, -2.342l3.925, 1.939l-0.446, 0.904l-3.926, -1.939l0.447, -0.904Z" style="fill: rgb(0, 190, 60);"/>
  <path d="M15.382, 13.517c0.944, -0 1.712, -0.768 1.712, -1.712c-0, -0.945 -0.768, -1.711 -1.712, -1.711c-0.945, -0 -1.711, 0.766 -1.711, 1.711c-0, 0.944 0.766, 1.712 1.711, 1.712Zm-3.251, -3.88c0.946, -0 1.712, -0.768 1.712, -1.712c-0, -0.946 -0.766, -1.712 -1.712, -1.712c-0.944, -0 -1.711, 0.766 -1.711, 1.712c-0, 0.944 0.767, 1.712 1.711, 1.712Z" style="fill: rgb(255, 0, 0);"/>
  <path d="M2.229, 16.27l-0, -0.769l1.794, -0c0.552, 0.025 0.708, 0.168 0.916, 0.519c0.038, 0.072 0.069, 0.16 0.098, 0.25l-2.808, -0Zm19.544, -0l-9.371, -0c0.14, -0.604 0.416, -0.746 0.846, -0.769l6.218, -0c0.203, -0 0.395, -0.103 0.508, -0.271c0.077, -0.114 0.112, -0.25 0.103, -0.385c-0.003, -0.38 -0.083, -2.909 -1.549, -5.771c-1.23, -2.332 -3.891, -4.262 -5.145, -5.091l1.12, -1.119c0.411, 0.238 1.108, 0.67 1.903, 1.285c1.269, 0.978 2.755, 2.401 3.637, 4.127c1.651, 3.218 1.73, 6.06 1.73, 6.527l0, 1.467Z" style="fill: rgb(255, 140, 0);"/>
</svg>
