<svg viewBox="0 0 24 24" xmlns="http://www.w3.org/2000/svg">
  <path d="M19.378, 7.805l-0, -2.328c0.382, -0.104 0.726, -0.311 0.997, -0.583c0.413, -0.41 0.668, -0.982 0.668, -1.611c-0.002, -0.629 -0.259, -1.203 -0.67, -1.612c-0.409, -0.411 -0.985, -0.667 -1.608, -0.671c-0.486, 0.001 -0.928, 0.154 -1.294, 0.41c-0.365, -0.254 -0.808, -0.407 -1.291, -0.408c-0.629, -0.001 -1.201, 0.256 -1.612, 0.667c-0.41, 0.413 -0.668, 0.986 -0.665, 1.612c-0.003, 0.63 0.25, 1.203 0.666, 1.61c0.273, 0.279 0.617, 0.484 1.003, 0.588l-0.001, 2.328c-0.948, 0.623 -1.576, 1.692 -1.576, 2.91l-1.603, 0c-5.374, 0 -9.732, 4.357 -9.732, 9.732c-0, 1.402 1.149, 2.551 2.551, 2.551l8.554, 0c3.973, 0 7.194, -3.222 7.194, -7.194l-0, -5.089c-0, -1.22 -0.631, -2.29 -1.581, -2.912" style="fill: rgb(255, 140, 0);"/>
  <path d="M14.414, 21.065c0, 0.357 -0.291, 0.648 -0.649, 0.648c-0.359, 0 -0.65, -0.291 -0.65, -0.649c0, -0.358 0.291, -0.649 0.65, -0.649c0.358, -0 0.649, 0.291 0.649, 0.649Zm0.895, -0.193c-0.132, -0.305 0.006, -0.66 0.311, -0.792c1.65, -0.719 2.802, -2.36 2.802, -4.272c-0, -0.333 0.268, -0.601 0.6, -0.601c0.331, 0 0.6, 0.268 0.6, 0.601c-0.001, 2.403 -1.448, 4.471 -3.521, 5.376c-0.077, 0.033 -0.158, 0.048 -0.238, 0.048c-0.234, 0 -0.456, -0.134 -0.554, -0.36Zm2.838, -13.568l0, -2.965l0.615, -0.005c0.293, 0.001 0.553, -0.112 0.745, -0.305c0.189, -0.195 0.308, -0.451 0.311, -0.746c-0, -0.291 -0.12, -0.549 -0.314, -0.742c-0.192, -0.192 -0.451, -0.308 -0.739, -0.311c-0.291, -0.001 -0.543, 0.116 -0.738, 0.309c-0.027, 0.029 -0.055, 0.057 -0.072, 0.084l-0.478, 0.602l-0.479, -0.597c-0.024, -0.022 -0.05, -0.053 -0.085, -0.087c-0.194, -0.193 -0.448, -0.308 -0.735, -0.31c-0.29, 0.001 -0.55, 0.116 -0.742, 0.306c-0.191, 0.195 -0.309, 0.455 -0.307, 0.746c-0, 0.291 0.12, 0.55 0.308, 0.746c0.187, 0.18 0.429, 0.298 0.703, 0.307l0.66, -0.094l-0, 3.063c0.22, -0.043 0.445, -0.068 0.677, -0.068c0.23, -0 0.454, 0.025 0.671, 0.067Z" style="fill: rgb(230, 230, 230);"/>
</svg>
