<svg viewBox="0 0 24 24" xmlns="http://www.w3.org/2000/svg">
  <path d="M21.602, 14.092l1.398, -2.093l-1.398, -2.091c0.112, -0.438 0.336, -1.359 0.528, -2.416l0.166, -0.912l-0.9, 0.215c-2.288, 0.539 -3.732, 1.506 -4.482, 2.133c-1.024, -1.636 -2.838, -2.728 -4.913, -2.728c-2.074, -0 -3.888, 1.091 -4.914, 2.728c-0.749, -0.627 -2.193, -1.594 -4.478, -2.134l-0.904, -0.21l0.166, 0.91c0.192, 1.054 0.418, 1.975 0.53, 2.413l-1.401, 2.093l1.401, 2.094c-0.112, 0.438 -0.338, 1.359 -0.53, 2.413l-0.167, 0.911l0.905, -0.213c2.285, -0.539 3.73, -1.505 4.478, -2.133c1.026, 1.636 2.841, 2.729 4.914, 2.729c2.075, -0 3.888, -1.093 4.913, -2.73c0.75, 0.627 2.193, 1.593 4.482, 2.135l0.9, 0.212l-0.166, -0.912c-0.192, -1.056 -0.416, -1.976 -0.528, -2.414" style="fill: rgb(255, 0, 255);"/>
  <path d="M12.001, 16.586c-0.754, -0.001 -1.454, -0.2 -2.082, -0.523l6.145, -6.145c0.323, 0.627 0.522, 1.328 0.524, 2.081c-0.006, 2.534 -2.054, 4.583 -4.587, 4.587Zm8.285, -2.713l0.073, 0.268c0, 0.003 0.187, 0.68 0.388, 1.625c-1.108, -0.36 -1.934, -0.816 -2.507, -1.21c-0.355, -0.244 -0.611, -0.461 -0.78, -0.616c0.151, -0.424 0.26, -0.87 0.308, -1.333l1.36, 0l0, -1.214l-1.36, 0c-0.048, -0.464 -0.157, -0.909 -0.307, -1.333c0.439, -0.41 1.495, -1.246 3.286, -1.827c-0.201, 0.945 -0.388, 1.624 -0.388, 1.625l-0.073, 0.267l1.253, 1.874l-1.253, 1.874Zm-14.054, -1.265c0.048, 0.464 0.157, 0.91 0.309, 1.335c-0.442, 0.408 -1.496, 1.243 -3.286, 1.823c0.201, -0.944 0.388, -1.623 0.386, -1.625l0.074, -0.269l-1.253, -1.872l1.253, -1.875l-0.074, -0.265c-0, -0.002 -0.186, -0.681 -0.387, -1.625c1.107, 0.359 1.935, 0.816 2.509, 1.208c0.354, 0.243 0.608, 0.46 0.777, 0.616c-0.152, 0.425 -0.26, 0.87 -0.308, 1.334l-1.357, -0l-0, 1.215l1.357, -0Zm5.769, -5.194c0.754, 0.002 1.454, 0.201 2.081, 0.523l-6.144, 6.144c-0.322, -0.628 -0.522, -1.328 -0.524, -2.082c0.005, -2.533 2.054, -4.581 4.587, -4.585Z" style="fill: rgb(230, 230, 230);"/>
</svg>
