<svg viewBox="0 0 24 24" xmlns="http://www.w3.org/2000/svg">
  <path d="M18.178, 8.787c0.459, 1.424 0.959, 3 1.166, 3.73c0.063, 0.25 0.098, 0.288 0.117, 0.549c-0.14, 2.688 -3.558, 4.203 -7.461, 4.244c-3.902, -0.041 -7.322, -1.556 -7.463, -4.244c0.019, -0.261 0.057, -0.299 0.118, -0.549c0.06, -0.218 1.112, -3.558 1.167, -3.73c-2.271, 1.131 -3.607, 2.83 -3.594, 4.643c-0.002, 1.58 0.97, 3.045 2.724, 4.162c1.746, 1.111 4.239, 1.816 7.05, 1.814c2.809, 0.002 5.301, -0.703 7.046, -1.814c1.755, -1.117 2.726, -2.582 2.724, -4.162c0.013, -1.813 -1.323, -3.514 -3.594, -4.643" style="fill: rgb(230, 230, 230);"/>
  <path d="M17.671, 7.221l0.507, 1.566c2.271, 1.129 3.607, 2.83 3.594, 4.643c0.002, 1.58 -0.969, 3.045 -2.724, 4.162c-1.745, 1.111 -4.237, 1.817 -7.046, 1.815c-2.811, 0.002 -5.304, -0.704 -7.05, -1.815c-1.754, -1.117 -2.726, -2.582 -2.724, -4.162c-0.013, -1.813 1.323, -3.512 3.593, -4.643l0.001, -0l0.506, -1.562c-3.112, 1.191 -5.313, 3.424 -5.328, 6.205c0.074, 4.266 5.022, 7.195 11.002, 7.205c5.977, -0.01 10.924, -2.939 10.998, -7.205c-0.016, -2.781 -2.217, -5.016 -5.329, -6.209" style="fill: rgb(89, 89, 89);"/>
  <path d="M5.821, 8.787c-0.055, 0.172 -1.106, 3.512 -1.167, 3.73c-0.061, 0.25 -0.098, 0.288 -0.118, 0.549c0.141, 2.688 3.562, 4.203 7.464, 4.244c3.902, -0.041 7.32, -1.556 7.461, -4.244c-0.02, -0.261 -0.055, -0.299 -0.118, -0.549c-0.207, -0.73 -0.707, -2.306 -1.166, -3.73c0, 0 -0.965, -2.943 -0.998, -2.99c-0.629, -1.599 -2.75, -2.397 -5.179, -2.431c-2.43, 0.034 -4.552, 0.832 -5.182, 2.433c-0.031, 0.047 -0.996, 2.988 -0.996, 2.988l-0.001, 0Z" style="fill: rgb(180, 80, 0);"/>
  <path d="M16.013, 6.197c-0.029, 1.031 -1.812, 1.866 -4.012, 1.866c-2.2, -0 -3.982, -0.834 -4.013, -1.865c-0.462, 1.437 -2.221, 6.911 -2.223, 6.917c0.016, 0.649 0.565, 1.385 1.68, 1.977c1.125, 0.598 2.752, 0.992 4.555, 0.99c1.804, 0.002 3.428, -0.392 4.555, -0.99c1.117, -0.594 1.668, -1.33 1.68, -1.978c-0.002, -0.007 -1.762, -5.483 -2.222, -6.917" style="fill: rgb(255, 190, 0);"/>
</svg>
