<svg viewBox="0 0 24 24" xmlns="http://www.w3.org/2000/svg">
  <path d="M8.05, 22.984l-0.12, -0.05c-3.962, -1.667 -6.718, -6.132 -6.739, -10.306c-0.007, -2.928 1.416, -5.364 3.596, -6.902c-0.528, -0.496 -0.86, -1.199 -0.86, -1.984c0, -1.513 1.227, -2.74 2.742, -2.74l10.604, 0c1.514, 0 2.738, 1.227 2.738, 2.74c0, 0.78 -0.327, 1.48 -0.849, 1.975c2.187, 1.539 3.615, 3.977 3.609, 6.911c-0.02, 4.174 -2.776, 8.639 -6.739, 10.306l-0.119, 0.05l-7.863, 0Z" style="fill: rgb(180, 80, 0);"/>
  <path d="M3.873, 9.607c0.933, 0.045 1.806, 0.458 1.593, 1.672c-0.291, 1.674 0.123, 2.398 1.161, 2.422c1.041, 0.023 1.383, -1.026 1.288, -2.152c-0.074, -0.866 0.346, -2.176 1.187, -2.671c0.841, -0.494 2.496, -0.519 3.312, 0.397c0.815, 0.913 0.737, 2.521 0.655, 3.311c-0.217, 2.112 0.779, 2.657 1.576, 2.657c0.797, 0 1.715, -0.282 1.539, -2.396c-0.186, -2.224 0.457, -3.277 1.372, -3.351c0.344, -0.028 1.011, 0.197 1.409, 0.717c0.503, 0.655 0.955, 1.509 1.959, 1.388c0.082, -0.01 0.253, -0.049 0.45, -0.135c-0.358, -2.282 -1.747, -4.074 -3.756, -5.178l-1.309, -0.716l1.414, -0.472c0.576, -0.193 0.99, -0.724 0.99, -1.358c-0.002, -0.795 -0.646, -1.439 -1.439, -1.441l-10.605, 0c-0.798, 0.002 -1.439, 0.646 -1.441, 1.441c-0, 0.637 0.416, 1.171 0.999, 1.36l1.437, 0.466l-1.326, 0.725c-1.438, 0.791 -2.557, 1.936 -3.209, 3.359c0.328, -0.054 0.603, -0.053 0.744, -0.045" style="fill: rgb(255, 190, 0);"/>
</svg>
