<svg viewBox="0 0 24 24" xmlns="http://www.w3.org/2000/svg">
  <path d="M18.043, 7.078c-0.043, -1.047 -0.956, -1.354 -0.956, -1.354c-0.196, -0.05 -0.394, -0.079 -0.585, -0.075c-0.42, 0 -0.838, 0.099 -1.211, 0.308l-0.002, 0.001c-0.602, 0.333 -1, 0.897 -1.138, 1.52c-0.44, 0.093 -0.854, 0.319 -1.19, 0.654c-0.303, 0.281 -0.482, 0.618 -0.576, 0.946c-0.365, 0.046 -0.727, 0.181 -1.046, 0.414c-0.337, 0.237 -0.591, 0.553 -0.755, 0.905l-0.053, 0c-0.377, 0 -0.767, 0.092 -1.121, 0.296c-0.388, 0.215 -0.677, 0.511 -0.87, 0.835c-0.093, -0.01 -0.185, -0.014 -0.278, -0.015c-0.311, 0.002 -0.617, 0.049 -0.906, 0.174c-0.346, 0.154 -0.658, 0.391 -0.904, 0.696c-0.189, -0.05 -0.387, -0.076 -0.588, -0.076c-0.223, 0 -0.458, 0.03 -0.691, 0.106c-0.654, 0.198 -1.158, 0.673 -1.422, 1.259c-0.683, 0.009 -1.359, 0.318 -1.81, 0.904c-0.321, 0.415 -0.482, 0.917 -0.482, 1.412c0, 0.281 0.052, 0.564 0.152, 0.828c-0.384, 0.4 -0.618, 0.909 -0.611, 1.456c0, 0.184 0.023, 0.37 0.072, 0.562c0.183, 0.743 0.786, 1.275 1.502, 1.433c0.098, 1.163 1.126, 1.912 2.189, 1.914c0.322, 0.001 0.656, -0.064 0.975, -0.2c0.449, 0.427 0.999, 0.664 1.565, 0.662l0.005, 0c0.591, 0 1.149, -0.261 1.575, -0.704c0.239, 0.1 0.495, 0.148 0.742, 0.147c0.811, -0.007 1.606, -0.459 2.035, -1.229c0.052, 0.004 0.104, 0.006 0.154, 0.006c0.941, -0.015 1.776, -0.604 2.017, -1.471l0.008, 0c0.594, 0.004 1.141, -0.219 1.516, -0.61c0.346, -0.351 0.541, -0.825 0.572, -1.327c0.445, -0.095 0.903, -0.347 1.246, -0.79c0.331, -0.408 0.496, -0.862 0.495, -1.27c0.407, -0.167 0.748, -0.474 0.977, -0.833c0.278, -0.405 0.409, -0.867 0.409, -1.317c0, -0.053 -0.002, -0.105 -0.005, -0.156c0.492, -0.264 0.896, -0.705 1.067, -1.303c0.05, -0.198 0.077, -0.398 0.077, -0.594c0.002, -0.296 -0.062, -0.592 -0.189, -0.86c0.354, -0.407 0.579, -0.951 0.58, -1.563c0, -0.149 -0.015, -0.292 -0.038, -0.433l0, -0.008c-0.056, -0.386 -0.237, -0.738 -0.505, -1.022c0, 0 -0.9, -0.82 -1.998, -0.228" style="fill: rgb(255, 140, 0);"/>
  <path d="M21.537, 2.922l-1.636, 2.123l0.99, -2.363l-1.456, -0.542l-0.794, 2.436l0.148, -2.675l-1.461, -0.544l-0.241, 4.367c0, -0 0.913, 0.307 0.956, 1.354c1.098, -0.592 1.998, 0.228 1.998, 0.228l2.959, -3.842l-1.463, -0.542Z" style="fill: rgb(255, 0, 0);"/>
</svg>
