<svg viewBox="0 0 24 24" xmlns="http://www.w3.org/2000/svg">
  <path d="M20.435, 21.727c0, 0.323 -0.117, 0.606 -0.348, 0.849c-0.234, 0.243 -0.521, 0.364 -0.865, 0.364c-0.344, -0 -0.631, -0.117 -0.863, -0.349c-0.233, -0.233 -0.348, -0.52 -0.348, -0.864l0, -6.09c-0.445, -0 -0.951, -0.115 -1.515, -0.348c-0.565, -0.231 -0.848, -0.519 -0.848, -0.863l0, -9.089c0, -0.525 0.488, -1.352 1.469, -2.484c0.98, -1.13 1.681, -1.696 2.105, -1.696c0.324, -0 0.608, 0.076 0.85, 0.227c0.24, 0.152 0.363, 0.389 0.363, 0.712l0, 19.631Zm-7.242, -15.723c0, 1.273 -0.347, 2.58 -1.045, 3.924c-0.697, 1.342 -1.559, 2.458 -2.589, 3.348l0, 8.451c0, 0.323 -0.127, 0.606 -0.379, 0.849c-0.253, 0.243 -0.53, 0.364 -0.834, 0.364c-0.343, -0 -0.631, -0.121 -0.863, -0.364c-0.232, -0.243 -0.348, -0.526 -0.348, -0.849l0, -8.451l0.03, -0c-1.071, -0.89 -1.949, -2.006 -2.635, -3.348c-0.688, -1.344 -1.031, -2.651 -1.031, -3.924l0, -3.635c0, -0.343 0.116, -0.632 0.349, -0.864c0.232, -0.232 0.52, -0.348 0.863, -0.348c0.303, -0 0.58, 0.116 0.833, 0.348c0.253, 0.232 0.379, 0.521 0.379, 0.864l0, 4.241c0, 0.162 0.055, 0.303 0.167, 0.424c0.11, 0.121 0.257, 0.181 0.439, 0.181c0.161, -0 0.303, -0.06 0.424, -0.181c0.121, -0.121 0.182, -0.262 0.182, -0.424l0, -4.241c0, -0.343 0.116, -0.632 0.348, -0.864c0.232, -0.232 0.52, -0.348 0.863, -0.348c0.304, -0 0.581, 0.116 0.834, 0.348c0.252, 0.232 0.379, 0.521 0.379, 0.864l0, 4.241c0, 0.162 0.056, 0.303 0.167, 0.424c0.11, 0.121 0.257, 0.181 0.438, 0.181c0.162, -0 0.304, -0.06 0.425, -0.181c0.121, -0.121 0.182, -0.262 0.182, -0.424l0, -4.241c0, -0.343 0.116, -0.632 0.349, -0.864c0.231, -0.232 0.518, -0.348 0.862, -0.348c0.304, -0 0.581, 0.116 0.833, 0.348c0.253, 0.232 0.378, 0.521 0.378, 0.864l0, 3.635Z" style="fill: rgb(0, 0, 255);"/>
</svg>
