<svg viewBox="0 0 24 24" xmlns="http://www.w3.org/2000/svg">
  <path d="M20.55, 16.186c-0, 0.285 -0.097, 0.521 -0.288, 0.703c-0.195, 0.185 -0.457, 0.359 -0.783, 0.52c-0.227, 0.082 -0.438, 0.164 -0.631, 0.245c-0.193, 0.082 -0.443, 0.195 -0.748, 0.338l-0, -8.442l1.255, 0.001c0.388, -0 0.686, 0.108 0.891, 0.321c0.202, 0.216 0.304, 0.527 0.304, 0.934l-0, 5.38Zm-2.45, -11.701c-0, -1.565 -1.27, -2.834 -2.835, -2.834l-10.207, -0c-1.567, -0 -2.835, 1.269 -2.835, 2.834l-0, 15.651c-0, 1.222 0.991, 2.213 2.213, 2.213l11.451, -0c1.222, -0 2.213, -0.991 2.213, -2.213l-0, -0.855c0.263, -0.123 0.535, -0.236 0.808, -0.338c0.278, -0.103 0.641, -0.234 1.092, -0.398c0.632, -0.265 1.086, -0.496 1.362, -0.691c0.277, -0.194 0.416, -0.555 0.416, -1.086l-0, -7.186c-0, -0.738 -0.231, -1.322 -0.692, -1.763c-0.458, -0.441 -1.045, -0.659 -1.762, -0.659l-1.224, 0l-0, -2.675Z" style="fill: rgb(255, 140, 0);"/>
  <path d="M7.201, 19.971l-1.258, -0c-0.735, -0 -1.323, -0.23 -1.762, -0.689c-0.439, -0.458 -0.659, -1.047 -0.659, -1.761l0, -1.843l1.227, -0l0, 1.843c0, 0.407 0.095, 0.714 0.29, 0.919c0.194, 0.205 0.506, 0.306 0.934, 0.306l1.227, -0l0, 1.225Zm-3.678, -6.712l1.227, -0l-0, 1.228l-1.227, -0l-0, -1.228Zm11.743, -10.309c0.846, 0 1.535, 0.688 1.535, 1.535l-0, 1.125c-0.985, 0.102 -1.791, 0.615 -2.278, 1.457c-0.012, 0.021 -0.023, 0.042 -0.034, 0.062c-0.27, 0.532 -0.287, 1.2 -0.309, 2.047c-0.06, 2.305 -0.328, 2.711 -0.868, 2.711c-0.3, 0 -0.386, -0.091 -0.427, -0.135c-0.483, -0.508 -0.402, -2.155 -0.371, -2.775c0.029, -0.576 0.046, -0.924 -0.154, -1.302c-0.225, -0.425 -0.666, -0.692 -1.147, -0.692c-0.175, -0.001 -0.296, -0.069 -0.346, -0.128c-0.253, -0.289 -0.613, -0.447 -0.982, -0.447c-0.162, 0 -0.326, 0.031 -0.484, 0.095c-0.076, 0.03 -0.149, 0.045 -0.223, 0.045c-0.193, 0 -0.32, -0.086 -0.353, -0.14c-0.24, -0.378 -0.657, -0.604 -1.1, -0.604c-0.02, 0 -0.039, 0.001 -0.059, 0.002c-0.466, 0.021 -0.887, 0.292 -1.1, 0.708c-0.019, 0.036 -0.144, 0.139 -0.363, 0.139c-0.201, 0 -0.32, -0.088 -0.354, -0.134c-0.247, -0.333 -0.636, -0.524 -1.043, -0.524c-0.076, 0 -0.153, 0.007 -0.23, 0.02c-0.04, 0.007 -0.081, 0.013 -0.123, 0.013c-0.193, 0 -0.302, -0.082 -0.33, -0.107c-0.171, -0.151 -0.378, -0.253 -0.599, -0.299l-0, -1.137c-0, -0.847 0.688, -1.535 1.535, -1.535l10.207, 0Zm-4.077, 6.759l-7.666, -0l-0, -2.627c0.266, 0.155 0.585, 0.246 0.93, 0.246c0.121, -0 0.238, -0.012 0.353, -0.033c0.294, 0.395 0.807, 0.658 1.397, 0.658c0.682, -0 1.268, -0.35 1.522, -0.85c0.279, 0.442 0.822, 0.745 1.453, 0.745c0.254, -0 0.492, -0.052 0.707, -0.139c0.301, 0.346 0.781, 0.573 1.326, 0.574c0.055, 0.104 -0.014, 0.693 -0.022, 1.426Zm4.458, -1.99c-0.17, 0.334 -0.152, 1.119 -0.185, 1.989l1.338, 0l0, -2.78c-0.401, 0.068 -0.846, 0.262 -1.153, 0.791Z" style="fill: rgb(230, 230, 230);"/>
</svg>
