<svg viewBox="0 0 24 24" xmlns="http://www.w3.org/2000/svg">
  <path d="M15.821, 8.864c0.65, 0.125 1.221, 0.299 1.715, 0.519c0.492, 0.22 0.74, 0.572 0.74, 1.054l0, 8.776c0, 0.146 -0.037, 0.304 -0.111, 0.472c-0.074, 0.168 -0.162, 0.358 -0.268, 0.567c-0.336, 0.504 -0.744, 0.879 -1.224, 1.131c-0.485, 0.252 -1.092, 0.482 -1.827, 0.693c-0.295, 0.336 -0.699, 0.57 -1.212, 0.707c-0.513, 0.137 -1.053, 0.205 -1.619, 0.205c-0.608, 0 -1.17, -0.068 -1.682, -0.205c-0.515, -0.137 -0.908, -0.371 -1.181, -0.707c-0.754, -0.19 -1.368, -0.414 -1.84, -0.678c-0.471, -0.262 -0.865, -0.642 -1.179, -1.146c-0.147, -0.19 -0.251, -0.367 -0.315, -0.535c-0.063, -0.168 -0.095, -0.336 -0.095, -0.504l0, -8.776c0, -0.336 0.121, -0.603 0.363, -0.802c0.241, -0.199 0.554, -0.34 0.927, -0.457c0.671, -0.209 1.453, -0.367 2.344, -0.472c0.891, -0.104 1.809, -0.156 2.752, -0.156c0.902, 0 1.789, 0.052 2.66, 0.156c0.621, 0.075 0.665, 0.075 1.052, 0.158Zm1.195, 10.317l0, -7.517c-0.648, 0.23 -1.41, 0.398 -2.279, 0.504c-0.871, 0.103 -1.758, 0.156 -2.659, 0.156c-0.944, 0 -1.861, -0.053 -2.752, -0.156c-0.892, -0.106 -1.673, -0.264 -2.344, -0.473l0, 7.455c0.063, 0.147 0.156, 0.315 0.283, 0.504c0.125, 0.188 0.252, 0.346 0.377, 0.471c0.399, 0.336 1.033, 0.582 1.904, 0.74c0.87, 0.158 1.693, 0.234 2.469, 0.234c0.734, 0 1.531, -0.076 2.39, -0.234c0.859, -0.158 1.512, -0.404 1.951, -0.74c0.063, -0.063 0.19, -0.219 0.379, -0.471c0.188, -0.252 0.281, -0.41 0.281, -0.473Zm-0.25, -8.744c-0.547, -0.251 -1.285, -0.42 -2.219, -0.504c-0.933, -0.084 -1.861, -0.125 -2.785, -0.125c-0.795, 0 -1.624, 0.046 -2.484, 0.141c-0.859, 0.095 -1.541, 0.257 -2.045, 0.488c0.546, 0.209 1.29, 0.367 2.234, 0.471c0.944, 0.105 1.856, 0.158 2.737, 0.158c0.775, 0 1.594, -0.053 2.453, -0.158c0.861, -0.104 1.562, -0.262 2.109, -0.471Zm0.324, -9.439c0.015, 0.896 -0.489, 1.482 -0.806, 1.802c-0.333, 0.366 -0.443, 0.463 -0.454, 0.828c0.011, 0.401 0.134, 0.521 0.454, 0.876c0.303, 0.314 0.814, 0.865 0.804, 1.728c0.007, 0.724 -0.329, 1.234 -0.62, 1.582l-1.636, 0c0.163, -0.292 0.368, -0.519 0.515, -0.688c0.298, -0.345 0.433, -0.512 0.442, -0.894c-0.011, -0.366 -0.128, -0.479 -0.456, -0.842c-0.309, -0.319 -0.816, -0.886 -0.804, -1.762c-0.012, -0.865 0.509, -1.412 0.806, -1.718c0.314, -0.351 0.439, -0.462 0.456, -0.912l1.299, 0Zm-3.809, 0c0.014, 0.896 -0.49, 1.482 -0.806, 1.802c-0.333, 0.366 -0.444, 0.463 -0.454, 0.828c0.01, 0.401 0.133, 0.521 0.454, 0.876c0.302, 0.314 0.814, 0.865 0.804, 1.728c0.007, 0.724 -0.33, 1.234 -0.62, 1.582l-1.636, 0c0.163, -0.292 0.368, -0.519 0.515, -0.688c0.298, -0.345 0.434, -0.512 0.442, -0.894c-0.01, -0.366 -0.127, -0.479 -0.457, -0.842c-0.308, -0.319 -0.815, -0.886 -0.803, -1.762c-0.012, -0.865 0.51, -1.412 0.805, -1.718c0.314, -0.351 0.439, -0.462 0.457, -0.912l1.299, 0Zm-3.81, 0c0.016, 0.896 -0.489, 1.482 -0.806, 1.802c-0.333, 0.366 -0.444, 0.463 -0.454, 0.828c0.01, 0.401 0.133, 0.521 0.454, 0.876c0.302, 0.314 0.814, 0.865 0.804, 1.728c0.007, 0.724 -0.33, 1.234 -0.62, 1.582l-1.636, 0c0.163, -0.292 0.368, -0.519 0.515, -0.688c0.298, -0.345 0.434, -0.512 0.442, -0.894c-0.01, -0.366 -0.127, -0.479 -0.457, -0.842c-0.308, -0.319 -0.815, -0.886 -0.803, -1.762c-0.012, -0.865 0.51, -1.412 0.805, -1.718c0.315, -0.351 0.44, -0.462 0.457, -0.912l1.299, 0Z" style="fill: rgb(0, 190, 60);"/>
</svg>
