<svg viewBox="0 0 24 24" xmlns="http://www.w3.org/2000/svg">
  <path d="M21.625, 14.771c-0.31, -0.175 -0.695, -0.292 -1.16, -0.351c-0.465, -0.056 -0.918, -0.085 -1.363, -0.085c-0.581, -0 -1.108, 0.024 -1.581, 0.073c-0.474, 0.049 -0.876, 0.17 -1.205, 0.363c0.368, 0.271 0.77, 0.469 1.205, 0.596c0.434, 0.125 0.922, 0.189 1.465, 0.189c0.541, -0 1.024, -0.058 1.45, -0.176c0.425, -0.115 0.822, -0.319 1.189, -0.609m0.202, 1.248c-0.405, 0.231 -0.845, 0.404 -1.319, 0.522c-0.475, 0.115 -0.952, 0.173 -1.436, 0.173c-0.58, -0 -1.117, -0.058 -1.609, -0.173c-0.492, -0.118 -0.953, -0.291 -1.379, -0.522c0.059, 1.043 0.285, 1.788 0.682, 2.232c0.396, 0.446 1.125, 0.668 2.191, 0.668c1.043, -0 1.764, -0.218 2.16, -0.654c0.397, -0.433 0.634, -1.183 0.71, -2.246m1.19, -0.551c0, 1.508 -0.308, 2.653 -0.928, 3.437c-0.618, 0.782 -1.663, 1.173 -3.132, 1.173c-0.813, -0 -1.533, -0.133 -2.162, -0.405c-0.629, -0.269 -1.09, -0.714 -1.378, -1.336c-0.232, -0.481 -0.372, -0.984 -0.419, -1.507c-0.049, -0.522 -0.074, -1.17 -0.074, -1.944c0, -0.658 0.43, -1.106 1.291, -1.347c0.861, -0.243 1.734, -0.364 2.627, -0.364c0.984, -0 1.918, 0.108 2.799, 0.321c0.879, 0.212 1.337, 0.675 1.376, 1.39l0, 0.582Zm-12.966, -12.271c-0.31, -0.175 -0.693, -0.29 -1.146, -0.348c-0.455, -0.058 -0.914, -0.087 -1.379, -0.087c-0.619, -0 -1.159, 0.019 -1.623, 0.058c-0.465, 0.039 -0.852, 0.154 -1.161, 0.347c0.367, 0.291 0.768, 0.499 1.203, 0.625c0.436, 0.125 0.925, 0.188 1.465, 0.188c0.503, -0 0.972, -0.063 1.408, -0.188c0.435, -0.126 0.846, -0.325 1.233, -0.595m2.553, 13.982c0, -0.91 -0.581, -2.462 -1.742, -4.658c-1.159, -2.193 -1.74, -3.727 -1.74, -4.596c0, -0.522 0.044, -0.972 0.131, -1.349c0.086, -0.376 0.256, -0.787 0.508, -1.233c0.019, -0.057 0.072, -0.183 0.158, -0.377c0.088, -0.193 0.151, -0.347 0.19, -0.465c-0.406, 0.214 -0.837, 0.373 -1.291, 0.48c-0.455, 0.106 -0.905, 0.159 -1.35, 0.159c-0.541, -0 -1.044, -0.053 -1.508, -0.159c-0.464, -0.107 -0.909, -0.275 -1.335, -0.509c0.04, 0.117 0.098, 0.277 0.175, 0.48c0.078, 0.203 0.135, 0.334 0.174, 0.391c0.232, 0.446 0.401, 0.852 0.507, 1.219c0.106, 0.367 0.161, 0.792 0.161, 1.275c0, 0.678 -0.185, 1.417 -0.552, 2.22c-0.367, 0.803 -0.793, 1.667 -1.277, 2.597c-0.386, 0.793 -0.759, 1.599 -1.116, 2.422c-0.358, 0.822 -0.537, 1.522 -0.537, 2.103c0, 0.638 0.053, 1.203 0.16, 1.696c0.106, 0.494 0.343, 0.914 0.71, 1.261c0.407, 0.426 1.005, 0.717 1.799, 0.872c0.793, 0.155 1.643, 0.23 2.552, 0.23c0.871, -0 1.707, -0.075 2.51, -0.23c0.803, -0.155 1.416, -0.446 1.842, -0.872c0.329, -0.347 0.555, -0.771 0.682, -1.275c0.126, -0.504 0.189, -1.063 0.189, -1.682m1.158, -0c0, 0.813 -0.084, 1.527 -0.26, 2.146c-0.174, 0.619 -0.492, 1.17 -0.957, 1.655c-0.561, 0.539 -1.295, 0.912 -2.205, 1.116c-0.909, 0.201 -1.895, 0.303 -2.959, 0.303c-1.121, 0 -2.127, -0.098 -3.016, -0.288c-0.89, -0.195 -1.615, -0.573 -2.176, -1.131c-0.483, -0.485 -0.802, -1.026 -0.958, -1.625c-0.154, -0.601 -0.231, -1.287 -0.231, -2.06c0, -0.794 0.164, -1.597 0.494, -2.41c0.328, -0.81 0.763, -1.74 1.305, -2.784c0.444, -0.831 0.835, -1.619 1.174, -2.364c0.339, -0.744 0.507, -1.349 0.507, -1.813c0, -0.637 -0.192, -1.383 -0.579, -2.233c-0.388, -0.851 -0.58, -1.597 -0.58, -2.234l0, -0.174c0.019, -0.349 0.12, -0.605 0.304, -0.769c0.184, -0.164 0.469, -0.323 0.855, -0.478c0.369, -0.174 0.779, -0.29 1.233, -0.349c0.455, -0.059 0.962, -0.087 1.524, -0.087c1.025, 0 1.963, 0.102 2.814, 0.305c0.85, 0.203 1.314, 0.662 1.391, 1.378l0, 0.174c0, 0.637 -0.192, 1.383 -0.58, 2.234c-0.386, 0.85 -0.579, 1.596 -0.579, 2.233c0, 0.445 0.193, 1.093 0.579, 1.944c0.388, 0.85 0.745, 1.595 1.074, 2.233c0.522, 0.987 0.957, 1.896 1.304, 2.727c0.35, 0.831 0.522, 1.614 0.522, 2.35" style="fill: rgb(180, 80, 0);"/>
</svg>
