<svg viewBox="0 0 24 24" xmlns="http://www.w3.org/2000/svg">
  <path d="M21.946, 9.158c0.124, -0.292 0.313, -0.833 0.316, -1.488c0.023, -0.785 -0.362, -1.806 -1.462, -2.354c-0.534, -0.272 -1.155, -0.353 -1.835, -0.356c-1.37, 0.003 -2.998, 0.364 -4.376, 0.809c-0.689, 0.225 -1.311, 0.468 -1.806, 0.71c-0.233, 0.121 -0.431, 0.224 -0.608, 0.339c-0.835, -0.598 -1.847, -0.497 -2.646, -0.845c-1.439, -0.524 -3.044, -1.277 -4.52, -1.293c-0.359, 0 -0.715, 0.05 -1.056, 0.177c-1.665, 0.619 -1.992, 2.233 -1.975, 3.216c0, 0.452 0.056, 0.81 0.093, 1.009l-1.071, 4.008l0, 9.91l6.99, 0l0.182, -0.279c0.098, -0.145 0.195, -0.331 0.254, -0.549l2.57, -9.597c0.089, 0.025 0.179, 0.051 0.293, 0.056l0.033, 0c0.633, -0.05 1.117, -0.391 1.468, -0.854l2.783, 10.395c0.058, 0.218 0.154, 0.402 0.252, 0.549l0.182, 0.278l6.993, 0l0, -9.913l-1.054, -3.928Z" style="fill: rgb(255, 140, 0);"/>
  <path d="M5.606, 21.773l-0.925, 0c-0.221, -0.091 -0.376, -0.311 -0.36, -0.563c0.021, -0.319 0.296, -0.56 0.612, -0.538c0.122, 0.008 0.254, 0.008 0.386, -0.005c0.121, -0.011 0.235, -0.034 0.341, -0.07c0.039, -0.015 0.079, -0.025 0.114, -0.042c0.237, -0.118 0.439, -0.284 0.586, -0.771c0.004, -0.011 0.006, -0.017 0.01, -0.028c0.21, -0.78 0.632, -2.355 0.632, -2.357l1.114, 0.297c0, 0 -0.526, 1.97 -0.632, 2.359c-0.201, 0.791 -0.698, 1.319 -1.226, 1.55c-0.084, 0.038 -0.169, 0.061 -0.253, 0.087c-0.139, 0.046 -0.268, 0.06 -0.399, 0.081Zm13.714, -0.002l-0.929, 0c-0.13, -0.02 -0.258, -0.032 -0.396, -0.078c-0.083, -0.027 -0.168, -0.051 -0.252, -0.088c-0.529, -0.233 -1.026, -0.759 -1.227, -1.55c-0.105, -0.389 -0.632, -2.358 -0.632, -2.358l1.114, -0.299c-0, 0.002 0.422, 1.578 0.633, 2.358c0.003, 0.011 0.005, 0.017 0.011, 0.029c0.145, 0.486 0.347, 0.652 0.584, 0.77c0.035, 0.018 0.075, 0.027 0.114, 0.041c0.106, 0.037 0.223, 0.061 0.343, 0.072c0.13, 0.012 0.262, 0.012 0.384, 0.002l-0, 0.002c0.318, -0.021 0.591, 0.219 0.612, 0.538c0.016, 0.251 -0.138, 0.469 -0.359, 0.562Zm-10.988, -4.853l-1.124, -0.301l0.3, -1.122l1.124, 0.301l-0.3, 1.122Zm8.16, -1.423l0.299, 1.124l-1.123, 0.299l-0.299, -1.124l1.123, -0.299Zm-3.793, -7.541c0.474, -0.501 4.124, -1.812 6.266, -1.767c0.569, -0.004 1.029, 0.086 1.268, 0.217c0.679, 0.372 0.78, 0.772 0.803, 1.265c0, 0.29 -0.07, 0.591 -0.146, 0.811l0, 0.003c-0.459, 0.03 -1.231, 0.192 -1.583, 1.043c-0.351, 1.002 -0.218, 2.617 -0.342, 2.899c-0.205, 0.517 -0.153, 0.47 -0.408, 0.519c-0.019, 0 -0.045, 0.002 -0.045, 0.002c-0.202, -0.008 -0.291, -0.082 -0.467, -0.429c-0.04, -0.057 -0.175, -0.69 -0.336, -1.238c-0.215, -0.508 -0.283, -1.266 -1.274, -1.417c-0.092, 0 -0.162, 0.016 -0.211, 0.029c-0.497, 0.102 -1.971, 0.579 -2.859, 0.573c-0.151, 0.004 -0.259, -0.014 -0.331, -0.031c-0.067, -0.018 -0.103, -0.036 -0.106, -0.032c-0.286, -0.247 -0.556, -0.791 -0.551, -1.371c0, -0.352 0.09, -0.718 0.311, -1.071c0.002, -0.001 0.011, -0.005 0.011, -0.005Zm-1.369, 3.446c-0.009, -0.008 -0.021, -0.019 -0.041, -0.036c-0.182, -0.162 -0.669, -0.66 -1.508, -0.742c-0.041, -0.004 -0.096, -0.01 -0.164, -0.01c-0.868, 0.041 -1.307, 0.641 -1.716, 1.04c-0.396, 0.45 -0.767, 0.699 -0.829, 0.658c-0.012, 0 -0.033, -0.001 -0.049, -0.006c-0.066, 0.03 -0.309, -0.292 -0.505, -0.966c-0.223, -0.625 -0.362, -1.437 -1.093, -1.978c-0.743, -0.493 -1.653, -0.707 -2.194, -0.8c-0.014, -0.138 -0.026, -0.304 -0.025, -0.488c0.018, -0.827 0.206, -1.71 1.176, -2.065c0.173, -0.066 0.38, -0.099 0.628, -0.099c1.033, -0.015 2.621, 0.658 4.093, 1.216c1.048, 0.339 1.897, 0.422 2.311, 0.631c-0.182, 0.422 -0.266, 0.859 -0.266, 1.275c0.005, 0.767 0.269, 1.457 0.692, 1.976c-0.172, 0.241 -0.366, 0.37 -0.51, 0.394Z" style="fill: rgb(230, 230, 230);"/>
</svg>
