<svg viewBox="0 0 24 24" xmlns="http://www.w3.org/2000/svg">
  <path d="M2.637, 5.866c0.005, -2.01 1.628, -3.635 3.64, -3.639c1.836, 0.004 3.336, 1.367 3.585, 3.137l-3.437, 0l-0.172, 0.33c-0.012, 0.03 -0.757, 1.462 -1.293, 3.552c-1.356, -0.528 -2.319, -1.837 -2.323, -3.38m11.534, 0.724l-1.38, 2.972l-3.388, 0c0.878, -0.743 1.484, -1.781 1.665, -2.972l3.103, 0Zm-0.778, 10.079c-0.695, 0 -1.26, -0.565 -1.26, -1.26c-0, -0.694 0.565, -1.259 1.26, -1.259c0.695, 0 1.258, 0.565 1.258, 1.259c-0, 0.695 -0.563, 1.26 -1.258, 1.26m1.605, -4.125c-0, -0.697 0.565, -1.26 1.26, -1.26c0.695, 0 1.26, 0.563 1.26, 1.26c-0, 0.694 -0.565, 1.259 -1.26, 1.259c-0.695, 0 -1.26, -0.565 -1.26, -1.259m-8.721, -3.042c-0.038, 0 -0.074, -0.01 -0.112, -0.011c0.107, -0.406 0.219, -0.791 0.333, -1.137c0.265, -0.802 0.527, -1.414 0.688, -1.764l2.652, 0c-0.338, 1.661 -1.802, 2.909 -3.561, 2.912m10.701, -2.912c0.159, 0.35 0.419, 0.962 0.683, 1.764c0.122, 0.366 0.24, 0.776 0.35, 1.208l-3.867, 0l1.38, -2.972l1.454, 0Zm0.758, -1.226l-1.644, 0l0.89, -1.919l5.609, -1.212l-0.259, -1.2l-0.002, 0l-6.202, 1.34l-1.388, 2.991l-3.651, 0c-0.254, -2.449 -2.299, -4.364 -4.812, -4.364c-2.69, 0 -4.868, 2.178 -4.868, 4.866c-0, 2.13 1.378, 3.918 3.286, 4.576c-0.162, 0.876 -0.272, 1.827 -0.274, 2.815c0.017, 3.561 3.235, 5.759 7.046, 5.977l-0, 2.536l-4.101, 0l-0, 1.23l9.43, 0l-0, -1.23l-4.101, 0l-0, -2.536c3.811, -0.219 7.028, -2.417 7.045, -5.977c-0.007, -4.062 -1.814, -7.516 -1.834, -7.563l-0.17, -0.33Z" style="fill: rgb(255, 0, 0);"/>
</svg>
