<svg viewBox="0 0 24 24" xmlns="http://www.w3.org/2000/svg">
  <path d="M17.594, 13.666c-0.151, 0 -0.305, -0.053 -0.428, -0.159c-0.27, -0.235 -0.3, -0.647 -0.063, -0.917c1.457, -1.653 2.52, -3.408 2.495, -4.668c-0, -0.919 -0.243, -1.619 -0.605, -2.135c-0.208, -0.294 -0.135, -0.697 0.159, -0.905c0.292, -0.207 0.697, -0.137 0.904, 0.157c0.529, 0.75 0.844, 1.731 0.842, 2.883c-0.024, 1.909 -1.309, 3.767 -2.814, 5.521c-0.128, 0.148 -0.308, 0.223 -0.49, 0.223m-1.674, 2.002c-0.414, 0 -0.75, -0.336 -0.75, -0.75c-0, -0.414 0.336, -0.75 0.75, -0.75c0.414, 0 0.75, 0.336 0.75, 0.75c-0, 0.414 -0.336, 0.75 -0.75, 0.75m-3.92, -11.044c-3.465, -4.784 -10.227, -2.64 -10.227, 3.299c-0, 5.938 10.227, 11.987 10.227, 14.077c-0, -2.09 10.227, -8.139 10.227, -14.077c-0, -5.939 -6.763, -8.083 -10.227, -3.299" style="fill: rgb(255, 0, 0);"/>
</svg>
