<svg viewBox="0 0 24 24" xmlns="http://www.w3.org/2000/svg">
  <path d="M18.245, 10.769c-0.085, -2.864 -1.182, -3.588 -3.021, -3.72c1.839, -0.133 2.936, -0.857 3.021, -3.72c0.084, 2.863 1.18, 3.587 3.02, 3.72c-1.84, 0.132 -2.936, 0.856 -3.02, 3.72m-12.489, 9.908c-0.085, -2.864 -1.182, -3.588 -3.021, -3.72c1.839, -0.132 2.936, -0.857 3.021, -3.72c0.084, 2.863 1.179, 3.588 3.019, 3.72c-1.84, 0.132 -2.935, 0.856 -3.019, 3.72m13.712, -15.537c-0.602, -1.178 -1.223, -3.713 -1.223, -3.713c0, -0 -0.621, 2.535 -1.223, 3.713c-0.032, 0.063 -0.09, 0.129 -0.142, 0.194c-1.912, -1.061 -4.528, -0.688 -6.218, 1.647c-2.927, -4.043 -8.641, -2.231 -8.641, 2.786c0, 1.792 1.109, 3.593 2.526, 5.252c-0.005, 0.01 -0.009, 0.021 -0.014, 0.029c-0.407, 0.799 -2.494, 1.809 -3.532, 1.907c1.038, 0.097 3.125, 1.107 3.532, 1.906c0.602, 1.178 1.223, 3.713 1.223, 3.713c0, -0 0.621, -2.535 1.222, -3.713c0.112, -0.22 0.358, -0.454 0.667, -0.683c1.646, 1.543 3.017, 2.779 3.017, 3.482c0, -1.766 8.64, -6.876 8.64, -11.893c0, -0.135 -0.02, -0.259 -0.029, -0.39c0.065, -0.153 0.13, -0.297 0.195, -0.424c0.407, -0.799 2.494, -1.809 3.532, -1.907c-1.038, -0.097 -3.125, -1.107 -3.532, -1.906" style="fill: rgb(255, 0, 0);"/>
</svg>
