<svg viewBox="0 0 24 24" xmlns="http://www.w3.org/2000/svg">
  <path d="M21.27, 12.369l-9.27, 9.282l-9.273, -9.282c-2.288, -2.293 -2.291, -6.01 0, -8.303c2.294, -2.29 6.008, -2.286 8.302, -0c0.402, 0.407 0.711, 0.865 0.971, 1.342c0.261, -0.481 0.569, -0.939 0.972, -1.342c2.287, -2.286 6.008, -2.286 8.296, -0c2.294, 2.293 2.294, 6.01 0, 8.303l0.002, -0Zm-1.78, -6.781c-1.849, -1.846 -4.857, -1.846 -6.705, -0c-0.325, 0.326 -0.574, 0.697 -0.785, 1.084c-0.21, -0.385 -0.459, -0.754 -0.785, -1.084c-1.854, -1.846 -4.855, -1.85 -6.708, -0c-1.852, 1.855 -1.849, 4.857 0, 6.711l7.493, 7.5l7.491, -7.5l-0.001, -0c1.852, -1.854 1.852, -4.856 0, -6.711Zm-2.569, 2.443c-1.15, -1.151 -3.016, -1.15 -4.166, 0c-0.385, 0.385 -0.63, 0.854 -0.757, 1.346c-0.127, -0.492 -0.371, -0.961 -0.757, -1.346c-1.15, -1.151 -3.014, -1.15 -4.166, 0c-1.149, 1.149 -1.149, 3.014 0.001, 4.164l4.924, 4.929l4.92, -4.929c1.15, -1.151 1.15, -3.015 0.001, -4.164Z" style="fill: rgb(255, 0, 255);"/>
</svg>
