<svg viewBox="0 0 24 24" xmlns="http://www.w3.org/2000/svg">
  <path d="M18.018, 13.789c-0.163, 0 -0.328, -0.057 -0.46, -0.17c-0.291, -0.252 -0.323, -0.695 -0.068, -0.986c1.567, -1.779 2.711, -3.666 2.683, -5.022c-0, -0.988 -0.261, -1.741 -0.65, -2.296c-0.224, -0.316 -0.146, -0.75 0.171, -0.973c0.313, -0.223 0.75, -0.147 0.972, 0.169c0.569, 0.806 0.908, 1.861 0.905, 3.1c-0.025, 2.054 -1.407, 4.053 -3.026, 5.94c-0.137, 0.158 -0.332, 0.238 -0.527, 0.238m-1.801, 2.154c-0.445, 0 -0.806, -0.361 -0.806, -0.806c-0, -0.446 0.361, -0.807 0.806, -0.807c0.446, 0 0.807, 0.361 0.807, 0.807c-0, 0.445 -0.361, 0.806 -0.807, 0.806m-4.216, -11.879c-3.726, -5.145 -11.001, -2.838 -11.001, 3.548c-0, 6.388 11.001, 12.894 11.001, 15.142c-0, -2.248 10.999, -8.754 10.999, -15.142c-0, -6.386 -7.273, -8.693 -10.999, -3.548" style="fill: rgb(0, 190, 60);"/>
</svg>
