<svg viewBox="0 0 24 24" xmlns="http://www.w3.org/2000/svg">
  <path d="M22.244, 20.493l-3.119, 1.59c-0.266, -0.836 -1.235, -4.23 -1.438, -5.046c-0.103, -0.407 -0.433, -0.739 -0.994, -0.994c-0.56, -0.254 -1.066, -0.383 -1.513, -0.383l-6.085, 0l0, -10.09l0.03, 0c-0.388, -0.203 -0.694, -0.499 -0.918, -0.887c-0.224, -0.387 -0.335, -0.795 -0.335, -1.223c0, -0.673 0.239, -1.249 0.718, -1.728c0.479, -0.478 1.054, -0.718 1.727, -0.718c0.674, 0 1.248, 0.24 1.728, 0.718c0.479, 0.479 0.719, 1.055 0.719, 1.728c0, 0.672 -0.24, 1.248 -0.719, 1.727c-0.48, 0.479 -1.054, 0.719 -1.728, 0.719l0, 2.447l6.087, 0l0, 1.222l-6.087, 0l0, 4.894l4.863, 0c0.816, 0 1.584, 0.198 2.308, 0.595c0.725, 0.399 1.188, 0.965 1.391, 1.698c0.062, 0.224 0.847, 3.089 1.01, 3.577l1.773, -0.917l0.582, 1.071Zm-8.258, -3.608c0, 1.692 -0.599, 3.134 -1.804, 4.326c-1.202, 1.192 -2.639, 1.789 -4.31, 1.789c-1.713, 0 -3.16, -0.597 -4.343, -1.789c-1.182, -1.192 -1.773, -2.634 -1.773, -4.326c0, -1.694 0.591, -3.131 1.773, -4.313c1.183, -1.182 2.63, -1.773 4.343, -1.773l0, 1.222c-1.366, 0 -2.524, 0.475 -3.471, 1.423c-0.948, 0.947 -1.423, 2.095 -1.423, 3.441c0, 1.344 0.479, 2.496 1.438, 3.454c0.958, 0.958 2.11, 1.438 3.456, 1.438c1.345, 0 2.496, -0.48 3.454, -1.438c0.959, -0.958 1.438, -2.11 1.438, -3.454l1.222, 0Z" style="fill: rgb(0, 0, 255);"/>
</svg>
