<svg viewBox="0 0 24 24" xmlns="http://www.w3.org/2000/svg">
  <path d="M14.027, 15.648c-1.773, -0.083 -2.025, -0.648 -2.1, -1.57l0.002, 0c0.073, -0.921 0.325, -1.484 2.086, -1.571c0.006, 0 0.01, 0.001 0.012, 0.001c0.004, 0 0.008, -0.001 0.014, -0.001c1.757, 0.086 2.011, 0.65 2.086, 1.571c-0.075, 0.921 -0.329, 1.487 -2.1, 1.57m0, -7.296c1.602, 0.082 1.787, 0.562 1.861, 1.375c-0.074, 0.814 -0.261, 1.295 -1.861, 1.377c-1.601, -0.082 -1.788, -0.561 -1.862, -1.377c0.076, -0.815 0.261, -1.293 1.862, -1.375m3.504, 5.726c0.004, -0.769 -0.256, -1.562 -0.877, -2.124c-0.076, -0.071 -0.17, -0.123 -0.256, -0.186c0.022, -0.019 0.051, -0.033 0.072, -0.053c0.582, -0.528 0.827, -1.273 0.821, -1.988c0.006, -0.715 -0.239, -1.46 -0.821, -1.986c-0.578, -0.531 -1.414, -0.796 -2.443, -0.794c-1.033, -0.002 -1.867, 0.263 -2.446, 0.794c-0.58, 0.526 -0.825, 1.271 -0.819, 1.986c-0.006, 0.715 0.239, 1.46 0.819, 1.986c0.024, 0.022 0.053, 0.036 0.075, 0.054c-0.086, 0.063 -0.179, 0.116 -0.257, 0.187c-0.621, 0.562 -0.88, 1.355 -0.876, 2.124l0.002, 0c-0.006, 0.768 0.255, 1.561 0.874, 2.124c0.617, 0.564 1.511, 0.85 2.628, 0.848l0.012, 0c1.111, 0 2, -0.286 2.615, -0.848c0.621, -0.563 0.881, -1.356 0.877, -2.124" style="fill: rgb(255, 0, 0);"/>
  <path d="M12, 1c-6.076, 0 -11, 4.924 -11, 10.999c-0, 6.075 4.924, 10.999 11, 11.001c6.076, -0.002 10.998, -4.926 11, -11.001c-0.002, -6.075 -4.924, -10.999 -11, -10.999Zm-9.595, 10.999c0.004, -2.397 0.888, -4.581 2.341, -6.262l1.784, 1.787l0.995, -0.993l-1.788, -1.786c1.682, -1.452 3.865, -2.336 6.263, -2.341c5.301, 0.01 9.586, 4.294 9.594, 9.595c-0.004, 2.397 -0.887, 4.581 -2.34, 6.262l-1.879, -1.88l-0.994, 0.994l1.879, 1.879c-1.68, 1.452 -3.863, 2.337 -6.26, 2.342c-5.301, -0.01 -9.587, -4.297 -9.595, -9.597Zm7.201, -4.763l0, 9.525l-1.406, 0l0, -7.826l-1.308, 0.716l-0.673, -1.233l2.166, -1.182l1.221, 0Z" style="fill: rgb(255, 0, 0);"/>
</svg>
