<svg viewBox="0 0 24 24" xmlns="http://www.w3.org/2000/svg">
  <path d="M23, 21.7l-0, 1.3l-21.995, 0l0, -1.3l21.995, 0Zm-2.817, -10.325l0, 7.712l-1.3, -0l0, -1.489c-0.6, 0.916 -1.443, 1.563 -2.523, 1.569c-1.348, -0.007 -2.334, -1.006 -2.928, -2.29c-0.607, -1.302 -0.92, -3.005 -0.922, -4.855c0.002, -1.855 0.315, -3.557 0.922, -4.86c0.594, -1.283 1.58, -2.281 2.928, -2.29c1.348, 0.009 2.333, 1.007 2.928, 2.29c0.297, 0.637 0.521, 1.373 0.676, 2.171l-1.345, -0c-0.134, -0.606 -0.302, -1.162 -0.516, -1.614c-0.514, -1.076 -1.128, -1.546 -1.743, -1.537c-0.615, -0.009 -1.229, 0.461 -1.743, 1.537c-0.498, 1.055 -0.803, 2.6 -0.8, 4.303c-0.003, 1.699 0.302, 3.244 0.8, 4.3c0.514, 1.076 1.128, 1.547 1.743, 1.539c0.615, 0.008 1.229, -0.463 1.743, -1.539c0.433, -0.917 0.705, -2.211 0.772, -3.647l-2.575, -0l0, -1.3l3.883, -0Zm-9.267, -6.457l-0, 14.168l-1.775, -0l-4.506, -12.822l-0, 12.799l-1.3, -0l-0, -14.143l2.212, -0l4.069, 11.614l-0, -11.616l1.3, -0Zm12.084, -3.913l-0, 1.3l-21.995, 0l0, -1.3l21.995, 0Z" style="fill: rgb(255, 0, 0);"/>
</svg>
