<svg viewBox="0 0 24 24" xmlns="http://www.w3.org/2000/svg">
  <path d="M12.001, 1c-6.078, 0.002 -11.001, 4.924 -11.001, 11c-0, 6.074 4.923, 11 11.001, 11c6.076, -0 10.998, -4.926 11, -11c-0.002, -6.076 -4.924, -10.998 -11, -11Zm-0, 20.595c-5.302, -0.009 -9.587, -4.297 -9.598, -9.595c0.011, -5.3 4.296, -9.585 9.598, -9.594c5.3, 0.009 9.585, 4.294 9.595, 9.594c-0.01, 5.298 -4.295, 9.586 -9.595, 9.595Zm-4.485, -12.809l0, -1.924c-1.06, 0.163 -1.949, 0.278 -1.959, 0.281l-0.168, -1.288c0.004, -0.004 3.631, -0.481 4.786, -0.82l0.362, 1.247c-0.424, 0.121 -1.053, 0.248 -1.721, 0.367l0, 2.137l1.996, 0l0, 1.301l-1.996, 0l0, 1.645c0.569, 0.257 1.126, 0.605 1.685, 1.041l-0.416, 1.334c-0.441, -0.375 -0.862, -0.673 -1.269, -0.91l0, 6.137l-1.3, 0l0, -5.595c-0.521, 0.896 -1.162, 1.715 -1.912, 2.422l-0.893, -0.949c1.425, -1.342 2.428, -3.123 2.794, -5.125l-2.255, 0l0, -1.301l2.266, 0Zm6.773, -0.338l0, 4.788c1.345, -2.056 2.38, -4.478 3.101, -6.79l1.24, 0.391c-0.451, 1.419 -1.007, 2.892 -1.686, 4.315l0.967, -0.497c0.009, 0.024 1.27, 2.457 1.717, 4.334l-1.266, 0.297c-0.32, -1.382 -1.27, -3.362 -1.536, -3.896c-0.708, 1.45 -1.548, 2.838 -2.537, 4.058l0, 1.656l-0.003, 0.017c0, 0.054 0.021, 0.196 0.068, 0.26c0.058, 0.063 0.044, 0.126 0.394, 0.145l2.789, -0l0, 1.299l-2.789, -0c-0.018, 0.001 -0.034, 0.001 -0.051, 0.001c-0.679, -0 -1.224, -0.358 -1.453, -0.767c-0.243, -0.41 -0.253, -0.782 -0.257, -0.949c0, -0.026 0.001, -0.047 0.002, -0.067l0, -0.184c-0.783, 0.743 -1.638, 1.384 -2.583, 1.876l-0.592, -1.159c1.177, -0.595 2.234, -1.5 3.175, -2.595l0, -6.533l1.3, -0Zm-2.574, 6.551c0.083, -0.497 0.8, -4.844 0.8, -4.844l-1.281, -0.212c-0.002, 0.004 -0.72, 4.349 -0.802, 4.84l1.283, 0.216Zm4.271, -7.472c-1.097, -1.029 -2.38, -1.878 -2.746, -2.088l-0.637, 1.133c0.252, 0.139 1.77, 1.146 2.755, 2.154l0.628, -1.199Z" style="fill: rgb(255, 0, 0);"/>
</svg>
