<svg viewBox="0 0 24 24" xmlns="http://www.w3.org/2000/svg">
  <path d="M4.522, 11.999c-0, -4.13 3.347, -7.478 7.477, -7.478c4.131, 0 7.479, 3.348 7.479, 7.477c-0, 4.131 -3.348, 7.479 -7.479, 7.479c-4.13, 0 -7.477, -3.348 -7.477, -7.479Zm11.564, 4.631c1.28, -1.132 2.088, -2.785 2.092, -4.631c-0.007, -3.411 -2.766, -6.17 -6.179, -6.177c-3.411, 0.007 -6.171, 2.766 -6.177, 6.177c0.006, 3.414 2.766, 6.172 6.177, 6.18c1.476, -0.004 2.829, -0.521 3.891, -1.383l-1.197, -0.01l-2.046, -4.054l-2.999, 0l0, 4.067l-1.3, 0l0, -9.583l4.488, 0c0.708, 0.003 1.42, 0.157 1.989, 0.621c0.571, 0.465 0.894, 1.23 0.887, 2.137c0.007, 0.864 -0.322, 1.611 -0.877, 2.084c-0.249, 0.212 -0.532, 0.363 -0.832, 0.472l2.083, 4.1Zm-3.25, -5.197c1.009, -0.062 1.534, -0.383 1.577, -1.459c-0.066, -1.207 -0.514, -1.369 -1.577, -1.458l-3.188, 0l0, 2.917l3.188, 0Z" style="fill: rgb(89, 89, 89);"/>
</svg>
