<svg viewBox="0 0 24 24" xmlns="http://www.w3.org/2000/svg">
  <path d="M21.201, 23l-18.416, 0c-0.986, 0 -1.783, -0.797 -1.785, -1.783l-0, -18.433c0.002, -0.986 0.799, -1.784 1.785, -1.784l18.416, 0c0.985, 0 1.784, 0.798 1.784, 1.784l-0, 18.433c-0, 0.986 -0.799, 1.783 -1.784, 1.783Zm-0, -20.699l-18.416, 0c-0.266, 0 -0.484, 0.215 -0.484, 0.483l-0, 18.433c-0, 0.265 0.218, 0.482 0.484, 0.484l18.416, 0c0.268, -0.002 0.483, -0.219 0.483, -0.484l-0, -18.433c-0, -0.268 -0.215, -0.483 -0.483, -0.483Zm-3.06, 11.361l-0, 1.299l-5.492, 0l-0, 3.372l7.398, 0l-0, 1.301l-15.969, 0l-0, -1.301l7.271, 0l-0, -3.372l-5.516, 0l-0, -1.299l12.308, 0Zm-5.444, -9.912l0, 2.071l7.026, 0l0.002, 3.327l-1.302, 0l0, -2.029l-4.071, 0l0, 3.22l-0.001, 0.006c0.005, 0.054 0.024, 0.152 0.057, 0.2c0.052, 0.051 0.016, 0.096 0.325, 0.117l3.547, 0l0, 1.3l-3.547, 0c-0.017, 0.001 -0.032, 0.001 -0.049, 0.001c-0.654, 0 -1.184, -0.363 -1.397, -0.758c-0.227, -0.397 -0.233, -0.749 -0.237, -0.895c0, -0.022 0, -0.043 0.002, -0.062l0, -3.129l-2.435, 0l0, 0.974c0.012, 1.406 -0.736, 2.44 -1.661, 3.11c-0.925, 0.687 -2.035, 1.133 -3.022, 1.604l-0.557, -1.176c1.03, -0.483 2.074, -0.921 2.802, -1.468c0.728, -0.563 1.126, -1.116 1.139, -2.07l0, -0.974l-3.689, 0l0, 2.446l-1.3, 0l0, -3.744l7.067, 0l0, -2.071l1.301, 0Z" style="fill: rgb(0, 0, 255);"/>
</svg>
