<svg viewBox="0 0 24 24" xmlns="http://www.w3.org/2000/svg">
  <path d="M21.201, 23l-18.416, 0c-0.986, 0 -1.783, -0.797 -1.785, -1.783l-0, -18.433c0.002, -0.986 0.799, -1.784 1.785, -1.784l18.416, 0c0.985, 0 1.784, 0.798 1.784, 1.784l-0, 18.433c-0, 0.986 -0.799, 1.783 -1.784, 1.783Zm-0, -20.699l-18.416, 0c-0.266, 0 -0.484, 0.215 -0.484, 0.483l-0, 18.433c-0, 0.265 0.218, 0.482 0.484, 0.484l18.416, 0c0.268, -0.002 0.483, -0.219 0.483, -0.484l-0, -18.433c-0, -0.268 -0.215, -0.483 -0.483, -0.483Zm-3.398, 11.256l0, 6.317l-11.605, -0.014l-0, -6.303l11.605, 0Zm-1.301, 5.017l-0, -3.718l-9.003, 0l-0, 3.718l9.003, 0Zm3.332, -8.072l-0.649, 1.125c-2.199, -1.258 -4.799, -2.895 -7.16, -5.948c-2.414, 3.058 -5.067, 4.704 -7.265, 5.963l-0.646, -1.128c2.325, -1.335 4.986, -2.996 7.393, -6.301l0.531, -0.732l0.525, 0.739c2.35, 3.302 4.944, 4.946 7.269, 6.282l0.002, -0Zm-11.991, -0.304l8.049, 0l0, 1.302l-8.049, 0l0, -1.302Z" style="fill: rgb(255, 0, 0);"/>
</svg>
