<svg viewBox="0 0 24 24" xmlns="http://www.w3.org/2000/svg">
  <path d="M21.35, 1l-18.696, 0c-0.914, 0 -1.654, 0.741 -1.654, 1.653l-0, 18.697c-0, 0.912 0.74, 1.65 1.654, 1.65l18.696, 0c0.912, 0 1.65, -0.738 1.65, -1.65l-0, -18.697c-0, -0.912 -0.736, -1.653 -1.65, -1.653" style="fill: rgb(255, 140, 0);"/>
  <path d="M14.757, 14.809l-2.205, 2.205l1.563, 1.565l-1.332, 1.393c-0.322, 0.341 -0.309, 0.88 0.032, 1.204c0.164, 0.156 0.377, 0.235 0.586, 0.235c0.225, -0 0.451, -0.088 0.617, -0.266l2.884, -3.018c0.323, -0.339 0.311, -0.879 -0.029, -1.203l-2.116, -2.115Zm-4.874, 3.769l1.564, -1.564l-2.204, -2.206l-2.116, 2.116c-0.339, 0.324 -0.353, 0.863 -0.03, 1.203l2.887, 3.017c0.166, 0.178 0.39, 0.266 0.616, 0.266c0.211, 0 0.422, -0.078 0.586, -0.234c0.34, -0.325 0.354, -0.864 0.029, -1.204l-1.332, -1.394Zm3.606, -10.017l3.494, -3.349c0.394, -0.379 1.024, -0.366 1.402, 0.031c0.381, 0.395 0.366, 1.022 -0.028, 1.403l-3.359, 3.219l-0, 3.917l-5.996, 0l-0, -3.916l-3.358, -3.221c-0.396, -0.38 -0.408, -1.007 -0.029, -1.402c0.379, -0.396 1.008, -0.411 1.402, -0.031l3.491, 3.349l2.981, 0Zm-1.489, -0.603c1.482, 0 2.684, -1.201 2.684, -2.685c0, -1.481 -1.202, -2.683 -2.684, -2.683c-1.483, 0 -2.685, 1.202 -2.685, 2.683c0, 1.484 1.202, 2.685 2.685, 2.685Z" style="fill: rgb(230, 230, 230);"/>
</svg>
