<svg viewBox="0 0 24 24" xmlns="http://www.w3.org/2000/svg">
  <path d="M23, 21.7l-0, 1.3l-21.995, 0l0, -1.3l21.995, 0Zm-2.406, -3.846c-0, 0.57 -0.407, 1.033 -0.909, 1.033c-0.5, -0 -0.907, -0.463 -0.907, -1.034c-0, -0.568 0.407, -1.031 0.907, -1.031c0.502, 0 0.909, 0.463 0.909, 1.031Zm-8.155, 0.954l-1.415, 0l0, -14.401c0, 0 1.413, -0.002 3.434, -0.002c1.201, -0.01 2.175, 0.519 2.756, 1.288c0.587, 0.766 0.826, 1.716 0.826, 2.634c-0, 0.92 -0.239, 1.869 -0.826, 2.635c-0.581, 0.767 -1.555, 1.293 -2.756, 1.283l-2.019, 0l-0, 6.563Zm-6.209, -0.002c-0.799, 0.008 -1.769, -0.209 -2.472, -1.023c-0.694, -0.811 -1.057, -2.043 -1.059, -3.901c-0.003, -1.771 0, -9.475 0, -9.475l1.417, -0c0, -0 -0.002, 5.934 -0.002, 9.475c-0.002, 1.684 0.349, 2.559 0.715, 2.971c0.361, 0.408 0.802, 0.529 1.401, 0.537c0.599, -0.008 1.04, -0.127 1.399, -0.537c0.368, -0.412 0.717, -1.287 0.715, -2.971l0, -9.475l1.417, -0c0, -0 -0.002, 5.934 -0.002, 9.475c0, 1.858 -0.363, 3.09 -1.059, 3.901c-0.69, 0.798 -1.638, 1.025 -2.43, 1.025c-0.013, -0 -0.026, -0 -0.04, -0.002Zm14.162, -14.4l-0, 10.802l-1.415, -0l-0, -10.802l1.415, -0Zm-5.934, 1.417l-2.019, 0l-0, 5.006l2.019, 0c1.553, -0.016 2.112, -1.119 2.167, -2.502c-0.055, -1.383 -0.614, -2.488 -2.167, -2.504Zm8.542, -4.817l-0, 1.3l-21.995, 0l-0, -1.3l21.995, 0Z" style="fill: rgb(255, 0, 0);"/>
</svg>
