<svg viewBox="0 0 24 24" xmlns="http://www.w3.org/2000/svg">
  <path d="M21.347, 1c0.915, 0.002 1.653, 0.74 1.654, 1.653l0, 18.696c-0.002, 0.914 -0.742, 1.651 -1.654, 1.651l-18.695, -0c-0.914, -0 -1.653, -0.739 -1.653, -1.651l0, -18.696c0, -0.911 0.737, -1.653 1.653, -1.653l18.695, -0Zm0, 20.774c0.235, -0.002 0.425, -0.192 0.425, -0.425l0, -18.696c0, -0.233 -0.193, -0.425 -0.425, -0.426l-18.695, -0c-0.234, 0.001 -0.425, 0.192 -0.425, 0.426l0, 18.696c0, 0.235 0.19, 0.423 0.425, 0.425l18.695, -0Zm-11.596, -16.339c0.299, -0.835 0.555, -1.692 0.726, -2.58l1.206, 0.232c-0.155, 0.805 -0.379, 1.583 -0.633, 2.348l9.173, 0l0, 1.228l-9.616, -0c-0.351, 0.852 -0.771, 1.666 -1.237, 2.45l8.601, -0l0, 9.528l-0.008, -0c-0.019, 0.606 -0.15, 1.139 -0.51, 1.545c-0.39, 0.433 -0.957, 0.593 -1.523, 0.593l-1.065, -0l0, -1.228l1.043, -0c0.391, -0.004 0.541, -0.088 0.631, -0.188c0.091, -0.092 0.192, -0.332 0.203, -0.795l0, -1.457l-7.483, -0l0, 3.668l-1.228, -0l0, -9.681c-1.063, 1.359 -2.307, 2.57 -3.698, 3.593l-0.728, -0.988c2.451, -1.803 4.4, -4.232 5.653, -7.04l-5.282, -0l0, -1.228l5.775, -0Zm6.991, 10.448l0, -2.156l-7.483, -0l0, 2.156l7.483, 0Zm0, -3.385l0, -2.156l-7.483, -0l0, 2.156l7.483, -0Z" style="fill: rgb(255, 0, 0);"/>
</svg>
