<svg viewBox="0 0 24 24" xmlns="http://www.w3.org/2000/svg">
  <path d="M21.348, 1c0.914, 0.002 1.652, 0.74 1.654, 1.653l0, 18.697c-0.002, 0.914 -0.742, 1.65 -1.654, 1.65l-18.695, -0c-0.914, -0 -1.653, -0.738 -1.653, -1.65l0, -18.697c0, -0.911 0.737, -1.653 1.653, -1.653l18.695, -0Zm0, 20.774c0.234, -0.002 0.425, -0.192 0.425, -0.424l0, -18.697c0, -0.233 -0.193, -0.425 -0.425, -0.426l-18.695, -0c-0.234, 0.001 -0.425, 0.192 -0.425, 0.426l0, 18.697c0, 0.234 0.19, 0.422 0.425, 0.424l18.695, -0Zm-1.928, -18.006l0, 0.024l0.023, 0l0, 14.159c0, 0.668 -0.129, 1.25 -0.517, 1.688c-0.391, 0.433 -0.957, 0.593 -1.524, 0.593l-1.064, 0l0, -1.228l1.043, 0c0.39, -0.004 0.541, -0.088 0.631, -0.188c0.095, -0.097 0.207, -0.349 0.207, -0.865l-0.002, -4.172l-9.348, 0c-0.514, 2.769 -1.655, 4.801 -3.496, 6.424l-0.815, -0.92c2.31, -2.07 3.391, -4.619 3.408, -9.338l-0.004, 0l0, -6.153l0.024, 0l0, -0.024l11.434, 0Zm-1.203, 8.785l0, -3.001l-9.028, 0l0, 0.393l0.003, 0c0.003, 0.94 -0.055, 1.794 -0.145, 2.608l9.17, 0Zm0, -4.229l0, -3.329l-9.027, 0l0, 3.329l9.027, 0Z" style="fill: rgb(0, 190, 60);"/>
</svg>
