<svg viewBox="0 0 24 24" xmlns="http://www.w3.org/2000/svg">
  <path d="M21.201, 23l-18.416, 0c-0.986, 0 -1.783, -0.797 -1.785, -1.783l-0, -18.433c0.002, -0.986 0.799, -1.784 1.785, -1.784l18.416, 0c0.985, 0 1.784, 0.798 1.784, 1.784l-0, 18.433c-0, 0.986 -0.799, 1.783 -1.784, 1.783Zm-0, -20.699l-18.416, 0c-0.266, 0 -0.484, 0.215 -0.484, 0.483l-0, 18.433c-0, 0.265 0.218, 0.482 0.484, 0.484l18.416, 0c0.268, -0.002 0.483, -0.219 0.483, -0.484l-0, -18.433c-0, -0.268 -0.215, -0.483 -0.483, -0.483Zm-13.108, 2.196l0, 3.115l1.943, -0l0, 1.301l-1.943, -0l0, 2.991l1.743, -0.613l0.432, 1.226l-2.175, 0.765l0, 4.48c0.018, 0.86 -0.389, 1.526 -0.891, 1.819c-0.494, 0.299 -0.973, 0.313 -1.21, 0.314l-1.018, 0l0, -1.299l1.018, -0c0.136, 0.003 0.383, -0.028 0.523, -0.12c0.127, -0.099 0.259, -0.177 0.278, -0.714l0, -4.021l-2.291, 0.806l-0.432, -1.228l2.723, -0.958l0, -3.449l-2.647, 0l0, -1.301l2.647, 0l0, -3.115l1.3, 0Zm10.734, 7.883l0, 7.432l-7.619, 0l0, -7.432l7.619, 0Zm-1.301, 6.131l0, -1.736l-5.018, 0l0, 1.736l5.018, 0Zm0, -3.036l0, -1.795l-5.018, 0l0, 1.795l5.018, 0Zm-5.093, -11.291l-0, 2.576c2.45, -0.274 5.93, -1.375 5.94, -1.383l0.002, 0l0.398, 1.237c-0.03, 0.004 -3.627, 1.175 -6.34, 1.452l-0, 1.137c0.008, 0.465 0.116, 0.558 0.173, 0.611c0.06, 0.054 0.21, 0.099 0.403, 0.097l6.829, 0l-0, 1.3l-6.829, 0c-0.335, -0.002 -0.798, -0.053 -1.218, -0.384c-0.426, -0.336 -0.667, -0.92 -0.658, -1.624l-0, -5.019l1.3, 0Z" style="fill: rgb(0, 190, 60);"/>
</svg>
