<svg viewBox="0 0 24 24" xmlns="http://www.w3.org/2000/svg">
  <path d="M9.746, 16.416l-0.197, -5.623c-0.068, -1.83 0.334, -3.441 1.621, -4.713c1.053, -1.054 2.705, -2.707 2.972, -2.972c0.008, -0.011 0.024, -0.024 0.036, -0.036l-0.002, -0.002l0.81, -0.81c1.125, -1.121 2.729, -1.479 4.229, -1.106l0.043, 1.33c-1.162, -0.392 -2.453, -0.171 -3.338, 0.709l-0.371, 0.373l0, 0.001l-0.399, 0.398c-0.002, 0.002 -0.002, 0.004 -0.004, 0.006c-0.025, 0.041 -0.062, 0.105 -0.107, 0.19c-0.092, 0.169 -0.217, 0.426 -0.34, 0.753c-0.246, 0.651 -0.482, 1.58 -0.447, 2.678l0.197, 5.624c0.067, 1.83 -0.334, 3.44 -1.62, 4.712c-1.112, 1.112 -2.887, 2.889 -3.001, 3.002c-0.001, 0.002 -0.003, 0.004 -0.007, 0.007l0.002, 0.001l-0.811, 0.81c-1.223, 1.223 -3.014, 1.526 -4.621, 0.979l-0.043, -1.358c1.254, 0.598 2.745, 0.428 3.73, -0.554l0.764, -0.766c0.004, -0.004 0.006, -0.008 0.008, -0.014c0.026, -0.039 0.063, -0.103 0.109, -0.19c0.093, -0.169 0.217, -0.425 0.34, -0.749c0.246, -0.651 0.484, -1.582 0.449, -2.68l-0.002, -0Zm-6.71, 3.883c-1.035, -1.345 -1.004, -3.209 0.153, -4.373l0.773, -0.773c0.036, -0.024 0.101, -0.061 0.2, -0.113c0.516, -0.279 1.786, -0.837 3.426, -0.783l0.808, 0.028l-0.125, -3.525c-0.012, -0.316 -0.01, -0.621 0.005, -0.918c-0.813, 0.25 -1.551, 0.674 -2.199, 1.33c-1.064, 1.064 -2.735, 2.733 -2.979, 2.979c-0.012, 0.01 -0.016, 0.024 -0.027, 0.035l-0.004, -0.004l-0.812, 0.81c-1.751, 1.753 -1.659, 4.684 0.207, 6.55c0.198, 0.197 0.411, 0.364 0.63, 0.523l-0.056, -1.766Zm5.855, -0.294l0, 0.001l-0.002, -0.001l0, -0.001l0.002, 0.001Zm11.619, -18.31l0.051, 1.563c0.031, 0.031 0.068, 0.052 0.101, 0.085l-0, -0.001c1.348, 1.353 1.412, 3.47 0.149, 4.74l-0.768, 0.767c-0.027, 0.018 -0.084, 0.052 -0.209, 0.119c-0.513, 0.278 -1.781, 0.836 -3.424, 0.784l-0.804, -0.03l0.123, 3.527c0.011, 0.315 0.01, 0.62 -0.006, 0.917c0.805, -0.248 1.537, -0.666 2.183, -1.313l0.018, -0.017l3.008, -3.008l0.439, -0.44l0.373, -0.373c1.752, -1.752 1.659, -4.683 -0.205, -6.55l-0.002, 0c-0.312, -0.313 -0.664, -0.557 -1.027, -0.77Z" style="fill: rgb(0, 0, 255);"/>
</svg>
