<svg viewBox="0 0 24 24" xmlns="http://www.w3.org/2000/svg">
  <path d="M12, 1c-6.077, -0 -10.999, 4.924 -11.001, 10.999c0.002, 6.075 4.924, 10.999 11.001, 11.001c6.077, -0.002 10.999, -4.926 11.001, -11.001c-0.002, -6.075 -4.924, -10.999 -11.001, -10.999Zm0, 20.594c-5.301, -0.008 -9.587, -4.296 -9.595, -9.595c0.008, -5.3 4.294, -9.585 9.595, -9.594c5.3, 0.009 9.586, 4.294 9.595, 9.594c-0.009, 5.299 -4.295, 9.587 -9.595, 9.595Zm6.788, -15.509l0, 1.3l-2.015, -0l0, 10.4c0, 0.995 -0.804, 1.801 -1.802, 1.801l-0.96, 0.003l0, -1.302l0.96, -0c0.278, -0.001 0.503, -0.226 0.503, -0.502l0, -10.4l-10.262, -0l0, -1.3l13.576, -0Zm-11.563, 3.421l6.486, 0l0, 6.174l-6.486, 0l0, -6.174Zm5.186, 4.874l0, -3.575l-3.887, 0l0, 3.575l3.887, 0Z" style="fill: rgb(255, 0, 0);"/>
</svg>
