<svg viewBox="0 0 24 24" xmlns="http://www.w3.org/2000/svg">
  <path d="M13.853, 12.016c-0, 0.489 -0.184, 0.917 -0.553, 1.283c-0.366, 0.368 -0.794, 0.552 -1.284, 0.552c-0.509, -0 -0.942, -0.184 -1.298, -0.552c-0.358, -0.366 -0.536, -0.794 -0.536, -1.283c-0, -0.511 0.178, -0.943 0.536, -1.3c0.356, -0.357 0.789, -0.536 1.298, -0.536c0.49, -0 0.918, 0.179 1.284, 0.536c0.369, 0.357 0.553, 0.789 0.553, 1.3m7.922, -0c-0, -1.041 -0.356, -1.912 -1.072, -2.616c-0.713, -0.702 -1.58, -1.055 -2.6, -1.055l-2.445, -0l-0, -2.446c-0, -1.04 -0.36, -1.911 -1.073, -2.615c-0.712, -0.704 -1.57, -1.056 -2.569, -1.056c-1.04, -0 -1.91, 0.352 -2.614, 1.056c-0.704, 0.704 -1.055, 1.575 -1.055, 2.615l-0, 2.446l-2.448, -0c-1.04, -0 -1.911, 0.353 -2.615, 1.055c-0.702, 0.704 -1.055, 1.575 -1.055, 2.616c-0, 0.999 0.357, 1.855 1.07, 2.569c0.715, 0.713 1.58, 1.071 2.6, 1.071l2.448, -0l-0, 2.445c-0, 1.019 0.351, 1.887 1.055, 2.602c0.704, 0.713 1.574, 1.069 2.614, 1.069c0.999, -0 1.857, -0.356 2.569, -1.069c0.713, -0.715 1.073, -1.583 1.073, -2.602l-0, -2.445l2.445, -0c1.02, -0 1.887, -0.358 2.6, -1.071c0.716, -0.714 1.072, -1.57 1.072, -2.569m1.221, -0c-0, 1.324 -0.479, 2.468 -1.436, 3.427c-0.959, 0.956 -2.109, 1.435 -3.457, 1.435l-1.225, -0l-0, 1.223c-0, 1.348 -0.478, 2.499 -1.437, 3.457c-0.957, 0.959 -2.1, 1.437 -3.425, 1.437c-1.345, -0 -2.497, -0.478 -3.456, -1.437c-0.958, -0.958 -1.438, -2.109 -1.438, -3.457l-0, -1.223l-1.223, -0c-1.366, -0 -2.523, -0.479 -3.471, -1.435c-0.949, -0.959 -1.423, -2.103 -1.423, -3.427c-0, -1.346 0.479, -2.499 1.438, -3.457c0.958, -0.958 2.111, -1.437 3.456, -1.437l1.223, -0l-0, -1.223c-0, -1.346 0.48, -2.498 1.438, -3.456c0.959, -0.958 2.111, -1.438 3.456, -1.438c1.325, -0 2.468, 0.474 3.425, 1.422c0.959, 0.948 1.437, 2.107 1.437, 3.472l-0, 1.223l1.225, -0c1.348, -0 2.498, 0.479 3.457, 1.437c0.957, 0.958 1.436, 2.111 1.436, 3.457" style="fill: rgb(255, 0, 255);"/>
</svg>
