<svg viewBox="0 0 24 24" xmlns="http://www.w3.org/2000/svg">
  <path d="M22.998, 8.345c-0, 0.327 -0.117, 0.612 -0.352, 0.857c-0.235, 0.245 -0.525, 0.367 -0.872, 0.367c-0.346, -0 -0.637, -0.122 -0.872, -0.367c-0.234, -0.245 -0.351, -0.53 -0.351, -0.857c-0, -0.367 0.117, -0.663 0.351, -0.887c0.235, -0.225 0.526, -0.337 0.872, -0.337c0.347, -0 0.637, 0.112 0.872, 0.337c0.235, 0.224 0.352, 0.52 0.352, 0.887m-1.224, 4.896c-0, 0.326 -0.118, 0.611 -0.351, 0.855c-0.236, 0.246 -0.527, 0.367 -0.872, 0.367c-0.348, -0 -0.639, -0.121 -0.873, -0.367c-0.235, -0.244 -0.352, -0.529 -0.352, -0.855c-0, -0.368 0.117, -0.664 0.352, -0.887c0.234, -0.225 0.525, -0.338 0.873, -0.338c0.345, -0 0.636, 0.113 0.872, 0.338c0.233, 0.223 0.351, 0.519 0.351, 0.887m-0, -9.791c-0, 0.326 -0.118, 0.612 -0.351, 0.856c-0.236, 0.245 -0.527, 0.368 -0.872, 0.368c-0.348, -0 -0.639, -0.123 -0.873, -0.368c-0.235, -0.244 -0.352, -0.53 -0.352, -0.856c-0, -0.347 0.117, -0.637 0.352, -0.873c0.234, -0.234 0.525, -0.351 0.873, -0.351c0.345, -0 0.636, 0.117 0.872, 0.351c0.233, 0.236 0.351, 0.526 0.351, 0.873m-4.895, -1.224c-0, 0.327 -0.117, 0.612 -0.352, 0.857c-0.234, 0.244 -0.525, 0.367 -0.871, 0.367c-0.347, -0 -0.633, -0.123 -0.857, -0.367c-0.225, -0.245 -0.337, -0.53 -0.337, -0.857c-0, -0.347 0.112, -0.637 0.337, -0.872c0.224, -0.235 0.51, -0.352 0.857, -0.352c0.346, -0 0.637, 0.117 0.871, 0.352c0.235, 0.235 0.352, 0.525 0.352, 0.872m-4.865, 1.224c-0, 0.326 -0.122, 0.612 -0.367, 0.856c-0.245, 0.245 -0.53, 0.368 -0.857, 0.368c-0.367, -0 -0.663, -0.123 -0.887, -0.368c-0.224, -0.244 -0.336, -0.53 -0.336, -0.856c-0, -0.347 0.112, -0.637 0.336, -0.873c0.224, -0.234 0.52, -0.351 0.887, -0.351c0.327, -0 0.612, 0.117 0.857, 0.351c0.245, 0.236 0.367, 0.526 0.367, 0.873m6.824, 3.365l-3.52, 3.488c0.491, 0.673 0.873, 1.423 1.149, 2.248c0.274, 0.827 0.412, 1.668 0.412, 2.525c-0, 2.182 -0.776, 4.049 -2.324, 5.599c-1.551, 1.55 -3.418, 2.325 -5.6, 2.325c-2.203, -0 -4.08, -0.775 -5.63, -2.325c-1.55, -1.55 -2.325, -3.417 -2.325, -5.599c-0, -2.203 0.775, -4.08 2.325, -5.629c1.55, -1.55 3.427, -2.326 5.63, -2.326c0.836, -0 1.662, 0.133 2.478, 0.398c0.815, 0.265 1.571, 0.653 2.264, 1.162l3.488, -3.487l1.653, 1.621Z" style="fill: rgb(89, 89, 89);"/>
</svg>
