<svg viewBox="0 0 24 24" xmlns="http://www.w3.org/2000/svg">
  <path d="M18.635, 13.011l-0, 0.001c-0.533, -0.195 -1.061, -0.242 -1.535, -0.242c-0.079, 0 -0.148, 0.002 -0.21, 0.004c-2.7, 0.177 -6.795, 2.093 -9.861, 5.143l0.609, 1.091c0.854, -0.201 2.046, -0.305 3.321, -0.305c1.852, 0 3.897, 0.22 5.443, 0.625c0.335, 0.087 0.679, 0.13 1.019, 0.13l0.027, 0c1.354, 0 2.683, -0.752 3.192, -2.151c0.133, -0.38 0.199, -0.765 0.199, -1.144c0.002, -1.37 -0.844, -2.656 -2.204, -3.152Zm0.78, 3.858c-0.309, 0.832 -1.068, 1.278 -1.994, 1.291c-0.227, 0 -0.461, -0.031 -0.694, -0.091c-1.696, -0.442 -3.812, -0.665 -5.768, -0.665c-0.497, 0 -0.982, 0.014 -1.446, 0.044c2.589, -2.031 5.645, -3.287 7.434, -3.376c0.044, -0.002 0.102, -0.004 0.153, -0.004c0.389, 0 0.757, 0.041 1.088, 0.163l0.002, 0.002c0.831, 0.3 1.348, 1.089 1.35, 1.93c-0, 0.23 -0.041, 0.466 -0.125, 0.706Zm-1.734, -10.06c0, -0.222 -0.019, -0.446 -0.06, -0.674c-0.346, -1.936 -2.024, -3.298 -3.923, -3.298c-0.232, 0 -0.465, 0.023 -0.695, 0.064c-0.757, 0.133 -1.403, 0.461 -1.954, 0.798c-2.723, 1.82 -5.922, 6.381 -7.303, 11.501l1.072, 0.642c1.981, -1.869 6.389, -4.226 9.629, -5.106c1.817, -0.496 3.228, -2.018 3.234, -3.927Zm-12.039, 6.723c1.502, -3.994 4.131, -7.454 6.106, -8.737c0.463, -0.285 0.963, -0.524 1.481, -0.615c0.161, -0.028 0.317, -0.043 0.469, -0.043c1.276, 0 2.411, 0.917 2.644, 2.222c0.026, 0.152 0.039, 0.302 0.039, 0.45c0.004, 1.224 -0.922, 2.292 -2.28, 2.672c-2.744, 0.764 -6.068, 2.379 -8.459, 4.051Z" style="fill: rgb(89, 89, 89);"/>
</svg>
