<svg viewBox="0 0 24 24" xmlns="http://www.w3.org/2000/svg">
  <path d="M6.512, 8.032l-0.004, 0.463c-0, 0.003 0.317, 8.959 0.317, 8.959l3.482, 0l0.106, -0.481c-0, -0.003 0.231, -1.023 0.897, -2.042c0.681, -1.024 1.687, -1.958 3.344, -1.963c1.658, 0.003 2.738, 0.949 3.473, 1.983c0.363, 0.512 0.619, 1.034 0.784, 1.426c0.162, 0.389 0.223, 0.627 0.226, 0.627l0.124, 0.45l3.127, 0l-0, -1.228l-2.221, 0c-0.442, -1.204 -1.926, -4.417 -5.513, -4.485c-2.18, -0.004 -3.591, 1.306 -4.372, 2.52c-0.494, 0.76 -0.781, 1.502 -0.93, 1.965l-1.385, 0l-0.234, -7.289c0.691, -0.245 2.019, -0.809 2.852, -1.913c0.004, -0.007 0.012, -0.013 0.018, -0.02l-0.001, 0c0.396, -0.535 0.678, -1.192 0.713, -2.001c-0, -0.406 -0.075, -0.834 -0.237, -1.276c-0.643, -1.78 -2.214, -2.737 -3.789, -2.727c-1.964, -0.016 -3.956, 1.472 -4.336, 4.186c-0.271, 1.858 -1.055, 11.05 -1.333, 15.272c-0.007, 0.068 -0.007, 0.148 -0.007, 0.212c-0.002, 0.658 0.214, 1.251 0.61, 1.675c0.392, 0.421 0.95, 0.655 1.536, 0.655l18.629, 0l-0, -1.228l-18.615, 0c-0.543, -0.027 -0.898, -0.307 -0.933, -1.102c-0, -0.051 0.002, -0.086 0.004, -0.102c0.272, -4.203 1.067, -13.465 1.322, -15.203c0.34, -2.195 1.76, -3.12 3.123, -3.138c1.103, 0.01 2.151, 0.614 2.636, 1.92c0.117, 0.322 0.163, 0.603 0.163, 0.856c0.005, 0.497 -0.193, 0.93 -0.499, 1.309l-0.001, -0.001c-0.164, 0.241 -0.426, 0.368 -0.701, 0.368c-0.166, 0 -0.331, -0.046 -0.479, -0.145c-0.24, -0.166 -0.368, -0.433 -0.368, -0.704c-0, -0.171 0.046, -0.33 0.146, -0.471l-1.003, -0.706c-0.256, 0.359 -0.372, 0.775 -0.37, 1.177c-0.002, 0.661 0.317, 1.312 0.904, 1.717c0.027, 0.018 0.059, 0.023 0.086, 0.04c-0.48, 0.216 -0.846, 0.317 -0.846, 0.323l-0.445, 0.122Z" style="fill: rgb(255, 140, 0);"/>
</svg>
