<svg viewBox="0 0 24 24" xmlns="http://www.w3.org/2000/svg">
  <path d="M16.778, 12.672l-0.013, -0.031l-2.654, 1.212l-2.001, -2.168l-0.029, 0.013l0.331, 2.929l-2.659, 1.213l0.013, 0.031l2.861, 0.574l0.326, 2.952l0.025, -0.002l1.458, -2.575l2.9, 0.585l0.019, -0.016l-2.014, -2.182l1.437, -2.535Zm3.445, -2.241c-1.657, -1.317 -3.948, -2.636 -6.602, -3.729c-3.332, -1.371 -6.5, -2.094 -8.829, -2.098c-1.69, 0.017 -3.09, 0.338 -3.651, 1.553c-0.1, 0.229 -0.141, 0.482 -0.141, 0.725c0.041, 1.326 1.08, 2.548 2.638, 3.842c1.577, 1.279 3.759, 2.565 6.296, 3.653l0.563, 0.243l0.487, -1.127l-0.565, -0.243c-2.449, -1.048 -4.55, -2.294 -6.007, -3.479c-1.475, -1.17 -2.226, -2.347 -2.184, -2.889c-0, -0.104 0.016, -0.18 0.045, -0.247c0.096, -0.373 0.954, -0.819 2.519, -0.802c2.08, -0.004 5.151, 0.676 8.363, 2.003c2.559, 1.055 4.766, 2.33 6.305, 3.556c1.557, 1.205 2.357, 2.433 2.313, 2.991c-0, 0.1 -0.018, 0.182 -0.051, 0.265c-0.088, 0.356 -0.948, 0.804 -2.514, 0.785c-0.412, -0 -0.865, -0.025 -1.345, -0.078l-0.612, -0.065l-0.131, 1.22l0.612, 0.067c0.517, 0.054 1.012, 0.083 1.476, 0.083c1.691, -0.015 3.09, -0.334 3.653, -1.55c0.092, -0.233 0.139, -0.478 0.139, -0.727c-0.045, -1.362 -1.136, -2.619 -2.777, -3.952Z" style="fill: rgb(255, 140, 0);"/>
</svg>
