<svg viewBox="0 0 24 24" xmlns="http://www.w3.org/2000/svg">
  <path d="M14.626, 11.358c0, 3.451 -2.16, 5.798 -5.331, 5.798c3.171, -0 5.33, 2.35 5.33, 5.801c0, -3.451 2.158, -5.801 5.329, -5.801c-3.171, -0 -5.328, -2.347 -5.328, -5.798Zm-0.001, 8.025c-0.509, -0.936 -1.231, -1.697 -2.115, -2.229c0.886, -0.529 1.606, -1.289 2.117, -2.226c0.509, 0.935 1.231, 1.695 2.115, 2.226c-0.886, 0.53 -1.606, 1.293 -2.117, 2.229Zm-5.932, -18.383c-0, 4.981 -3.116, 8.369 -7.693, 8.369c4.577, 0 7.693, 3.393 7.693, 8.373c-0, -4.98 3.115, -8.373 7.691, -8.373c-4.576, 0 -7.691, -3.388 -7.691, -8.369Zm10.529, 5.292c-0, 2.72 -1.703, 4.57 -4.202, 4.57c2.499, -0 4.2, 1.853 4.2, 4.574c-0, -2.721 1.702, -4.574 4.201, -4.574c-2.499, -0 -4.199, -1.85 -4.199, -4.57Zm-10.529, 6.905c-0.791, -1.682 -2.038, -3.004 -3.621, -3.827c1.583, -0.822 2.83, -2.144 3.621, -3.829c0.79, 1.685 2.038, 3.007 3.62, 3.829c-1.582, 0.823 -2.83, 2.145 -3.62, 3.827Zm10.526, -0.941c-0.35, -0.559 -0.799, -1.029 -1.328, -1.395c0.531, -0.361 0.98, -0.833 1.33, -1.391c0.351, 0.558 0.8, 1.027 1.328, 1.391c-0.531, 0.366 -0.979, 0.836 -1.33, 1.395Z" style="fill: rgb(255, 140, 0);"/>
</svg>
