<svg viewBox="0 0 24 24" xmlns="http://www.w3.org/2000/svg">
  <path d="M12.647, 1c0.303, 4.897 0.781, 7.366 1.898, 8.52c1.061, 1.184 3.15, 1.532 7.147, 1.836l-0, 1.289c-3.997, 0.304 -6.086, 0.651 -7.147, 1.836c-1.117, 1.155 -1.595, 3.624 -1.898, 8.519l-1.291, -0c-0.302, -4.895 -0.781, -7.364 -1.9, -8.519c-1.06, -1.185 -3.147, -1.532 -7.147, -1.836l-0, -1.289c4, -0.304 6.087, -0.652 7.147, -1.836c1.119, -1.154 1.598, -3.623 1.9, -8.52l1.291, -0Zm-8.238, 19.509l-0.916, -0.915l3.563, -3.563l0.915, 0.916l-3.562, 3.562Zm15.186, -0.002l-3.563, -3.563l0.916, -0.915l3.562, 3.562l-0.915, 0.916Zm-5.996, -6.908c-0.792, 0.873 -1.272, 2.002 -1.598, 3.548c-0.326, -1.546 -0.805, -2.675 -1.596, -3.548c-0.78, -0.814 -1.746, -1.288 -2.987, -1.599c1.241, -0.309 2.207, -0.784 2.987, -1.597c0.791, -0.874 1.27, -2.003 1.596, -3.55c0.326, 1.547 0.806, 2.676 1.598, 3.55c0.777, 0.813 1.745, 1.288 2.985, 1.597c-1.24, 0.311 -2.208, 0.785 -2.985, 1.599Zm-9.192, -10.106l3.563, 3.562l-0.915, 0.915l-3.563, -3.562l0.915, -0.915Zm15.187, -0l0.913, 0.913l-3.565, 3.561l-0.912, -0.914l3.564, -3.56Z" style="fill: rgb(255, 140, 0);"/>
</svg>
