<svg viewBox="0 0 24 24" xmlns="http://www.w3.org/2000/svg">
  <path d="M19.625, 11.207c-0.359, 0 -0.65, -0.291 -0.65, -0.65c0, -0.36 0.291, -0.65 0.65, -0.65c0.357, 0 0.648, 0.29 0.648, 0.65c0, 0.359 -0.291, 0.65 -0.648, 0.65m-1.871, -0.15l-4.285, -0.012l-1.946, -5.831l0.002, 0c-0.088, -0.261 0.055, -0.547 0.317, -0.632c0.258, -0.087 0.543, 0.052 0.631, 0.314l1.716, 5.151l3.569, 0.011c0.273, 0 0.498, 0.225 0.496, 0.503c0, 0.273 -0.227, 0.496 -0.5, 0.496m-6.334, 6.156l-3.84, 2.747c-0.09, 0.062 -0.191, 0.093 -0.291, 0.093c-0.156, 0 -0.31, -0.073 -0.406, -0.208c-0.16, -0.227 -0.11, -0.539 0.115, -0.7l3.842, -2.745c0.224, -0.16 0.537, -0.109 0.697, 0.117c0.16, 0.223 0.108, 0.536 -0.117, 0.696m10.545, -8.1l-7.051, -0.057l-2.228, -6.687c-0.379, -1.132 -0.995, -1.132 -1.374, -0l-2.228, 6.687l-7.049, 0.053c-1.191, 0.011 -1.383, 0.596 -0.424, 1.305l5.674, 4.188l-2.131, 6.718c-0.355, 1.139 0.141, 1.501 1.112, 0.809l5.736, -4.101l5.732, 4.101c0.973, 0.692 1.471, 0.332 1.114, -0.809l-2.127, -6.718l5.666, -4.182c0.961, -0.712 0.771, -1.296 -0.422, -1.307" style="fill: rgb(255, 140, 0);"/>
</svg>
