<svg viewBox="0 0 24 24" xmlns="http://www.w3.org/2000/svg">
  <path d="M15.678, 7.924c0.002, -0.467 0.219, -1.023 0.566, -1.426c0.358, -0.414 0.811, -0.656 1.258, -0.656c0.949, -0 1.821, 0.893 1.822, 2.102c-0.001, 1.209 -0.873, 2.097 -1.822, 2.101c-0.447, -0 -0.9, -0.24 -1.258, -0.656c-0.347, -0.406 -0.564, -0.961 -0.566, -1.428l-0, -0.037Zm1.824, -3.379l-0.004, -0c-0.705, 0.016 -1.324, 0.291 -1.82, 0.705l-0, -3.592l-1.303, -0l-0, 9.684l1.303, -0l-0, -0.705c0.496, 0.414 1.115, 0.689 1.82, 0.705c1.785, -0.008 3.125, -1.572 3.129, -3.398c-0.004, -1.829 -1.344, -3.391 -3.125, -3.399" style="fill: rgb(89, 89, 89);"/>
  <path d="M23, 23l-11, -0l0, -11l11, -0l0, 11Zm-2.375, -10.342l-1.299, -0l0, 3.592c-0.496, -0.416 -1.115, -0.693 -1.822, -0.709c-1.783, 0.012 -3.125, 1.574 -3.129, 3.401c0.004, 1.828 1.346, 3.39 3.125, 3.4c0.711, -0.016 1.33, -0.293 1.826, -0.709l0, 0.709l1.299, -0l0, -9.684Zm-3.086, 4.178c0, -0 -0.002, -0 -0.037, 0.006c-0.953, -0 -1.822, 0.889 -1.826, 2.099c0.002, 1.209 0.873, 2.102 1.826, 2.102c0.443, 0.002 0.9, -0.242 1.254, -0.656c0.351, -0.408 0.57, -0.965 0.57, -1.434l0, -0.019c0, -0.469 -0.219, -1.032 -0.57, -1.436c-0.356, -0.414 -0.811, -0.658 -1.217, -0.662Zm-10.682, -1.363c0.676, -0 1.271, 0.295 1.661, 0.74l0.098, 0.112l0.981, -0.854l-0.098, -0.113c-0.638, -0.727 -1.59, -1.182 -2.642, -1.182c-1.886, 0.002 -3.45, 1.465 -3.455, 3.324c0.005, 1.862 1.569, 3.323 3.453, 3.325c1.051, -0 2.006, -0.454 2.642, -1.18l0.098, -0.113l-0.977, -0.858l-0.1, 0.113c-0.39, 0.448 -0.987, 0.739 -1.661, 0.739c-1.215, -0.002 -2.154, -0.932 -2.154, -2.026c-0, -1.093 0.939, -2.023 2.154, -2.027Zm5.142, -3.473l-11, -0l0, -11l11, -0l0, 11Zm-2.537, -1.746l0, -4.42l-0.003, -0.018c0, -0.941 -0.315, -1.74 -0.87, -2.275c-0.559, -0.545 -1.314, -0.795 -2.083, -0.795c-1.081, 0.002 -2.045, 0.524 -2.569, 1.356l1.1, 0.691c0.261, -0.42 0.81, -0.748 1.461, -0.746l0, -0.008c0.86, 0.063 1.388, 0.361 1.587, 1.209c-0.265, -0.053 -0.531, -0.08 -0.797, -0.08c-1.676, 0.031 -3.383, 0.881 -3.714, 2.4c-0.025, 0.151 -0.038, 0.293 -0.038, 0.44c0, 1.303 1.071, 2.246 2.349, 2.246c0.335, -0 0.686, -0.059 1.043, -0.182c0.496, -0.175 0.901, -0.418 1.232, -0.673l-0.001, 0.855l1.303, -0Zm-2.234, -3.789c-0.015, -0.002 -0.028, -0.002 -0.043, -0.002c-1.188, -0 -2.325, 0.877 -2.329, 1.334c-0.015, 0.076 -0.021, 0.147 -0.021, 0.205c0.025, 0.592 0.359, 0.918 1.05, 0.953c0.181, -0 0.39, -0.033 0.615, -0.109c0.616, -0.217 1.05, -0.59 1.334, -0.91l0.002, -0c0.168, -0.192 0.268, -0.344 0.326, -0.438l-0, -0.871c-0.28, -0.099 -0.574, -0.16 -0.886, -0.16c-0.013, -0.002 -0.026, -0.002 -0.048, -0.002Z" style="fill: rgb(89, 89, 89);"/>
</svg>
