<svg viewBox="0 0 24 24" xmlns="http://www.w3.org/2000/svg">
  <path d="M11.999, 12l11.002, 0l0, 11l-11.002, 0l0, -11l-11, 0l0, -11l11, 0l0, 11Zm-6.932, 4.298l-1.185, -0l0, -0.249l0.002, -0.308c-0.004, -0.019 -0.004, -0.047 -0.004, -0.049c0, -0.572 0.196, -1.163 0.66, -1.585c0.464, -0.426 1.13, -0.639 1.947, -0.639l0.023, -0c0.815, -0 1.482, 0.213 1.943, 0.637c0.467, 0.422 0.663, 1.015 0.661, 1.589l0.002, 0.012l0, 0.154l-0.007, 0.003c-0.029, 0.525 -0.227, 1.052 -0.654, 1.44c-0.002, 0.002 -0.004, 0.004 -0.006, 0.006c0.052, 0.039 0.102, 0.081 0.15, 0.126c0.496, 0.45 0.704, 1.082 0.704, 1.697l0, 0.091l-0.001, 0.001c-0.015, 0.59 -0.225, 1.189 -0.703, 1.621c-0.494, 0.454 -1.206, 0.683 -2.089, 0.683l-0.012, -0c-0.889, 0.002 -1.606, -0.227 -2.102, -0.683c-0.496, -0.453 -0.703, -1.081 -0.703, -1.694c0, -0.004 0, -0.019 0.002, -0.01l0, -0.595l1.185, -0l0, 0.582c0.074, 0.745 0.214, 1.126 1.612, 1.212c1.409, -0.084 1.549, -0.467 1.626, -1.189c-0.075, -0.741 -0.217, -1.124 -1.608, -1.212l-0.904, -0l0, -1.186l0.886, -0c1.277, -0.087 1.362, -0.395 1.436, -1.035c-0.074, -0.665 -0.159, -0.973 -1.422, -1.062c-1.278, 0.089 -1.363, 0.397 -1.439, 1.05l0, 0.592Zm13.972, -2.827l-1.024, 0l-3.888, 5.025l0, 1.041l3.726, 0l0, 1.99l1.186, 0l0, -1.992l1.832, 0.002l0, -1.188l-1.832, 0l0, -4.878Zm-1.186, 4.879l0, -2.73l-2.113, 2.73l2.113, -0Zm-9.964, -15.634l-1.013, 0l-1.753, 0.955l0.567, 1.042l1.013, -0.552l0, 6.155l1.186, 0l0, -7.6Zm7.991, 2.967l-1.187, -0l0, -0.582c-0.001, -0.013 0, -0.02 0, -0.021c-0.002, -0.615 0.205, -1.247 0.703, -1.7c0.496, -0.453 1.215, -0.681 2.104, -0.681c0.886, -0 1.602, 0.228 2.1, 0.681c0.479, 0.437 0.69, 1.039 0.701, 1.633l0.003, 0.005l0, 0.07c-0.01, 1.193 -0.925, 1.825 -1.714, 2.259c-0.819, 0.451 -1.687, 0.85 -2.152, 1.397c-0.084, 0.094 -0.175, 0.228 -0.26, 0.369l4.126, -0l0, 1.187l-5.611, -0l0, -0.864l0.019, -0.043l0.041, -0.095l0.003, -0.012c0.011, -0.025 0.027, -0.06 0.047, -0.101c0.037, -0.087 0.093, -0.204 0.163, -0.338c0.14, -0.269 0.335, -0.603 0.579, -0.886c0.728, -0.82 1.73, -1.231 2.464, -1.649c0.77, -0.44 1.112, -0.755 1.106, -1.216l0, -0.018c-0.075, -0.732 -0.225, -1.106 -1.609, -1.192c-1.412, 0.086 -1.552, 0.467 -1.626, 1.212l0, 0.585Z" style="fill: rgb(89, 89, 89);"/>
</svg>
