<svg viewBox="0 0 24 24" xmlns="http://www.w3.org/2000/svg">
  <path d="M21.502, 19.365c-0.006, 1.023 -0.805, 1.834 -1.778, 1.843c-0.974, -0.007 -1.777, -0.82 -1.779, -1.845c0.002, -1.028 0.805, -1.84 1.783, -1.848c0.969, 0.01 1.768, 0.82 1.774, 1.844l-0, 0.006Zm-6.647, 1.78l4.294, -7.762l0.964, 0.531l-4.296, 7.764l-0.962, -0.533Zm-1.355, -5.509c0.002, -1.028 0.804, -1.838 1.783, -1.846c0.969, 0.008 1.768, 0.818 1.774, 1.843l0, 0.003c-0.006, 1.025 -0.805, 1.835 -1.78, 1.846c-0.973, -0.009 -1.775, -0.821 -1.777, -1.846m-1.499, 7.364l11, 0l0, -11l-11, 0l0, 11Z" style="fill: rgb(89, 89, 89);"/>
  <path d="M7.29, 17.578c0, 0.033 -0.004, 0.124 -0.004, 0.232c0, 0.026 0.001, 0.051 0.001, 0.079c-0.039, 0.513 -0.477, 0.926 -1.008, 0.928c-0.551, -0.002 -0.996, -0.449 -0.998, -0.998c0.021, -0.669 0.249, -0.918 0.702, -1.169c0.337, -0.171 0.808, -0.264 1.307, -0.301l-0, 1.229Zm-0.792, -4.336c-2.351, 0 -4.256, 1.903 -4.259, 4.256c0.003, 2.351 1.906, 4.254 4.259, 4.256c0.909, 0 1.755, -0.288 2.449, -0.776l-0.634, -0.897l0, -0.002c-0.515, 0.362 -1.138, 0.574 -1.815, 0.574c-1.744, -0.004 -3.155, -1.414 -3.158, -3.155c0.003, -1.743 1.414, -3.153 3.158, -3.155c1.743, 0.002 3.15, 1.412 3.155, 3.155l-0, 0.613c-0.002, 0.377 -0.361, 0.665 -0.622, 0.665c-0.387, -0.02 -0.418, -0.101 -0.523, -0.26c-0.081, -0.149 -0.116, -0.401 -0.121, -0.617c0.001, -0.026 0.002, -0.053 0.002, -0.08l-0.002, 0l-0, -0.009c-0, -0.086 0.002, -0.158 0.002, -0.232l-0, -2.348l-0.55, 0c-0.769, 0.004 -1.613, 0.076 -2.346, 0.436c-0.735, 0.342 -1.331, 1.111 -1.311, 2.153c-0, 1.158 0.939, 2.097 2.097, 2.099c0.564, -0.001 1.078, -0.223 1.458, -0.584c0.282, 0.32 0.743, 0.558 1.294, 0.543c0.893, -0.01 1.706, -0.743 1.721, -1.766l-0, -0.613c-0, -2.353 -1.904, -4.256 -4.254, -4.256" style="fill: rgb(89, 89, 89);"/>
  <path d="M19.728, 18.616c-0.34, 0 -0.684, 0.307 -0.682, 0.747c-0.002, 0.439 0.342, 0.745 0.677, 0.745c0.328, 0 0.676, -0.304 0.677, -0.746c-0.001, -0.44 -0.349, -0.746 -0.673, -0.746Zm-4.441, -3.725c0.322, -0 0.669, 0.305 0.67, 0.744c-0.001, 0.441 -0.351, 0.747 -0.679, 0.747c-0.333, -0 -0.676, -0.307 -0.676, -0.745c0, -0.441 0.34, -0.746 0.682, -0.746l0.003, -0Zm-3.285, -2.891l-11.002, -0l-0, -11l11.002, -0l-0, 11Zm5.765, -9.739l-0, 0.309c0.362, 0.884 2.546, 1.745 2.546, 3.434c-0, 1.191 -1.068, 1.934 -1.687, 2.433l-0.39, -0.5c0.568, -0.539 1.171, -1.062 1.171, -1.796c-0, -0.665 -1, -1.235 -1.64, -1.565l-0, 4.596l-0.001, -0c0.041, 0.557 -0.415, 1.151 -1.128, 1.411c-0.819, 0.298 -1.665, 0.04 -1.891, -0.578c-0.223, -0.618 0.258, -1.36 1.078, -1.657c0.324, -0.119 0.65, -0.147 0.942, -0.103l-0, -5.984l1, -0Zm-7.864, 2.723l-6.804, -0l0, 1.099l2.85, -0l0, 4.024l1.101, -0l0, -4.024l2.853, -0l0, -1.099Zm0, -2.182l-6.805, -0l0, 1.099l6.805, -0l0, -1.099Z" style="fill: rgb(89, 89, 89);"/>
</svg>
