<svg viewBox="0 0 24 24" xmlns="http://www.w3.org/2000/svg">
  <path d="M23.007, 20.587l-0, 1.3l-21.995, 0l-0, -1.3l21.995, 0Zm-19.196, -8.588c0.022, -3.528 1.667, -6.646 4.352, -6.749c1.31, 0.008 2.4, 0.857 3.133, 2.042l0, 0.002l-1.103, 0.686c-0.601, -0.959 -1.331, -1.432 -2.03, -1.428c-0.712, -0.004 -1.459, 0.484 -2.062, 1.473c-0.597, 0.977 -0.992, 2.397 -0.99, 3.975c-0.002, 1.576 0.393, 2.996 0.99, 3.974c0.603, 0.988 1.35, 1.478 2.062, 1.473c0.697, 0.005 1.429, -0.47 2.03, -1.427l1.103, 0.686c-0.733, 1.183 -1.823, 2.035 -3.133, 2.041c-2.685, -0.101 -4.33, -3.222 -4.352, -6.748Zm11.462, 5.251l5.665, -0l-0, 1.299l-6.966, -0l-0, -13.212l1.301, -0l-0, 11.913Zm7.734, -15.361l0, 1.3l-21.995, -0l0, -1.3l21.995, -0Z" style="fill: rgb(255, 0, 0);"/>
</svg>
