<svg viewBox="0 0 24 24" xmlns="http://www.w3.org/2000/svg">
  <path d="M16.773, 13.333l-0.708, 0.708l-1.05, -1.05c0.886, -1.298 1.335, -2.807 1.333, -4.315c0.002, -1.962 -0.748, -3.931 -2.246, -5.428c-1.498, -1.5 -3.467, -2.25 -5.429, -2.25c-1.962, -0 -3.931, 0.75 -5.428, 2.248c-1.497, 1.497 -2.248, 3.463 -2.248, 5.426c0, 1.964 0.753, 3.932 2.25, 5.429c1.498, 1.498 3.466, 2.253 5.43, 2.25l0.008, -0c1.502, -0 3.003, -0.446 4.297, -1.326l1.05, 1.049l-0.701, 0.702l6.243, 6.249l3.446, -3.451l-6.247, -6.241Zm-8.096, 1.718c-1.635, -0 -3.264, -0.623 -4.51, -1.869c-1.247, -1.246 -1.868, -2.875 -1.87, -4.51c0.002, -1.634 0.621, -3.261 1.868, -4.507c1.246, -1.246 2.875, -1.867 4.508, -1.867c1.633, -0 3.262, 0.621 4.51, 1.869c1.246, 1.247 1.866, 2.874 1.866, 4.509c0, 1.633 -0.622, 3.26 -1.866, 4.506c-1.246, 1.248 -2.873, 1.869 -4.506, 1.869Zm4.952, -6.435c-0.027, -2.712 -2.235, -4.899 -4.954, -4.899c-0.36, 0 -0.65, 0.29 -0.65, 0.65c-0, 0.36 0.29, 0.65 0.65, 0.65c1.996, 0.004 3.615, 1.599 3.655, 3.584c-0.016, 0.091 0.048, 0.418 0.153, 0.489c0.129, 0.154 0.314, 0.234 0.501, 0.234c0.146, 0 0.292, -0.049 0.414, -0.15c0.169, -0.142 0.25, -0.352 0.231, -0.558Z" style="fill: rgb(0, 0, 255);"/>
</svg>
