<svg viewBox="0 0 24 24" xmlns="http://www.w3.org/2000/svg">
  <path d="M17.069, 2.849c1.406, 0.003 2.724, 0.331 3.802, 0.973c1.066, 0.628 2.064, 1.752 2.083, 3.302l0, 3.236l-3.703, -0l0, -2.631c0, -0.476 -0.578, -1.091 -2.186, -1.113c-1.605, 0.022 -2.186, 0.637 -2.186, 1.089l0, 1.857l2.064, -0l0, 11.59l-15.898, -0l0, -11.59l10.131, -0l0, -2.442c0.019, -1.546 1.019, -2.672 2.083, -3.298c1.079, -0.642 2.396, -0.97 3.804, -0.973l0.006, -0Zm-1.425, 17.002l-0.002, -8.989l-13.296, -0l-0.002, 8.989l13.3, -0Zm-7.255, -4.287l-0.278, 2.63l1.768, -0l-0.279, -2.63c0.565, -0.236 0.962, -0.794 0.962, -1.444c-0, -0.867 -0.702, -1.568 -1.567, -1.568c-0.865, 0 -1.567, 0.701 -1.567, 1.567c-0, 0.65 0.397, 1.209 0.961, 1.445Zm13.264, -6.505l0, -1.929c-0.004, -0.943 -0.625, -1.698 -1.446, -2.19c-0.843, -0.505 -1.936, -0.791 -3.14, -0.793l-0.002, -0c-1.206, 0.002 -2.299, 0.288 -3.139, 0.793c-0.824, 0.492 -1.445, 1.247 -1.449, 2.186l0, 2.436l1.103, -0l0, -1.882c0.089, -1.528 1.61, -2.384 3.485, -2.366c1.873, -0.018 3.399, 0.838 3.485, 2.391l0, 1.354l1.103, -0Z" style="fill: rgb(255, 140, 0);"/>
</svg>
