<svg viewBox="0 0 24 24" xmlns="http://www.w3.org/2000/svg">
  <path d="M8.948, 4.693c1.409, 0.005 2.727, 0.331 3.801, 0.973c1.066, 0.627 2.067, 1.752 2.084, 3.305l0, 2.437l2.064, 0l0, 11.589l-15.897, 0l0, -11.589l2.059, 0l0, -2.446c0.016, -1.544 1.016, -2.667 2.081, -3.294c1.077, -0.644 2.398, -0.97 3.806, -0.975l0.002, -0Zm6.649, 17.005l0, -8.989l-13.297, 0l0, 8.989l13.297, 0Zm-5.764, -1.659l-1.768, 0l0.278, -2.628c-0.564, -0.237 -0.961, -0.795 -0.961, -1.445c-0, -0.866 0.702, -1.568 1.567, -1.568c0.865, 0 1.567, 0.702 1.567, 1.568c-0, 0.65 -0.397, 1.208 -0.962, 1.445l0.279, 2.628Zm13.167, -19.039l0, 4.163l-2.963, 2.874l0, 2.413l2.088, -0l0, 1.321l-2.088, 0l0, 0.988l2.088, 0l0, 1.766l-2.088, 0.002l-1.264, 0l0, -6.491l-2.96, -2.873l0, -4.163l7.187, -0Zm-11.869, 10.408l-0, -1.833c-0, -0.474 -0.579, -1.091 -2.185, -1.114c-1.607, 0.023 -2.185, 0.64 -2.185, 1.09l0, 1.857l4.37, 0Zm2.402, 0l-0, -2.433c-0.004, -0.942 -0.624, -1.697 -1.449, -2.19c-0.837, -0.504 -1.931, -0.79 -3.136, -0.792l-0.002, -0c-1.205, 0.002 -2.299, 0.288 -3.142, 0.792c-0.821, 0.491 -1.442, 1.248 -1.446, 2.184l-0, 2.439l1.101, -0l0.003, -1.882c0.086, -1.529 1.609, -2.385 3.484, -2.366c1.873, -0.019 3.396, 0.837 3.487, 2.391l-0, 1.857l1.1, -0Zm8.387, -7.605l-0, -1.142l-5.025, -0l-0, 1.142l5.025, -0Z" style="fill: rgb(255, 140, 0);"/>
</svg>
