<svg viewBox="0 0 24 24" xmlns="http://www.w3.org/2000/svg">
  <path d="M18.02, 15.513l2.461, -2.642l1.372, -0l-2.479, 2.754l3.021, 3.688l-1.473, 0l-2.295, -2.859l-0.607, 0.676l0, 2.184l-1.153, -0l-0, -6.444l1.153, -0l0, 2.643Zm-6.109, 2.588c-0.37, -0.667 -0.463, -1.446 -0.465, -2.137c0.002, -0.71 0.134, -1.457 0.531, -2.075c0.391, -0.619 1.082, -1.052 1.972, -1.05c0.002, 0 0.026, -0.002 0.03, 0.002c1.892, 0.026 2.38, 1.831 2.382, 1.84l0.035, 0.128l-0.919, 0.379l-0.058, -0.134c-0.113, -0.257 -0.237, -0.463 -0.34, -0.594c-0.228, -0.272 -0.516, -0.515 -1.1, -0.523c-1.13, 0.014 -1.433, 0.839 -1.486, 2.023c0.051, 1.244 0.276, 2.223 1.486, 2.223l0.044, 0c1.091, 0.023 1.361, -1.335 1.361, -1.339l0.028, -0.148l1.021, 0.202l-0.019, 0.14c-0.024, 0.182 -0.37, 2.195 -2.435, 2.244l-0.04, 0c-0.958, 0.002 -1.667, -0.507 -2.027, -1.181l-0.001, 0Zm-2.287, -5.26l2.312, 6.441l-1.183, -0l-0.593, -1.65l-2.16, -0l-0.558, 1.65l-1.181, -0l2.177, -6.441l1.186, -0Zm0.133, 3.67l-0.711, -1.979l-0.668, 1.979l1.379, -0Z" style="fill: rgb(0, 0, 255);"/>
  <path d="M2.814, 13.9l1.777, 0c0.14, 0.013 0.586, 0.054 0.586, 0.629c-0.029, 0.758 -0.24, 0.79 -0.545, 0.817l-1.818, 0l0, -1.446Zm0, 2.51l1.963, 0c0.434, 0.002 0.766, 0.531 0.766, 0.901c-0.009, 0.72 -0.398, 0.9 -0.659, 0.909l-2.07, 0l0, -1.81Zm3.015, -0.664c0.212, -0.314 0.329, -0.72 0.327, -1.217c-0.002, -1.376 -1.147, -1.688 -1.565, -1.69l-2.842, 0.001l0, 6.438l3.135, 0c0.8, -0.002 1.64, -0.727 1.638, -1.967c0, -0.766 -0.315, -1.261 -0.693, -1.565" style="fill: rgb(0, 0, 255);"/>
  <path d="M6.97, 11.156l13.475, 0l-0, -5.369l-13.475, 0l-0, -1.661l-4.414, 4.321l4.414, 4.326l-0, -1.617Z" style="fill: rgb(0, 0, 255);"/>
</svg>
