<svg viewBox="0 0 24 24" xmlns="http://www.w3.org/2000/svg">
  <path d="M4.267, 15.036l4.222, 0.468l0.469, 4.225l11.579, -11.579l-1.495, -1.498l-0.072, 0.04c0.004, 0.033 0.006, 0.069 0.006, 0.107l0, 0.092l-0.004, 0.002c-0.021, 0.423 -0.192, 0.838 -0.494, 1.139l-0.023, 0.028c-0.346, 0.342 -0.801, 0.517 -1.249, 0.517l-0.006, 0c-0.457, 0 -0.916, -0.175 -1.26, -0.52c-0.348, -0.349 -0.521, -0.808 -0.521, -1.258c0, -0.453 0.175, -0.912 0.521, -1.258c0.346, -0.346 0.805, -0.521 1.26, -0.521c0.037, 0 0.072, 0.002 0.107, 0.006l0.039, -0.072l-1.498, -1.498l-11.581, 11.58Zm2.859, 1.834l-6.132, -0.686l14.854, -14.855l2.247, 2.248l1.342, -2.464l1.322, 0.718l-1.554, 2.856l0.104, 0.105l2.854, -1.554l0.72, 1.323l-2.462, 1.34l2.246, 2.246l-14.862, 14.864l-0.679, -6.141Z" style="fill: rgb(89, 89, 89);"/>
</svg>
