<svg viewBox="0 0 24 24" xmlns="http://www.w3.org/2000/svg">
  <path d="M19.188, 13.776l-0.94, 2.579c-0.143, 0.401 -0.526, 0.65 -0.933, 0.652c-0.111, 0 -0.23, -0.02 -0.346, -0.061c-0.398, -0.143 -0.651, -0.529 -0.651, -0.935c0, -0.117 0.018, -0.226 0.056, -0.323l0.002, -0.003c-0, -0.004 0.003, -0.006 0.003, -0.009l0.948, -2.601c0.148, -0.391 0.529, -0.642 0.931, -0.642c0.114, 0 0.223, 0.018 0.335, 0.06c0.404, 0.146 0.656, 0.532 0.656, 0.94c0, 0.111 -0.018, 0.226 -0.061, 0.343m-2.591, 6.088c-0.736, 0.817 -1.692, 1.286 -2.508, 1.28l-5.603, 0c-0.815, 0.006 -1.768, -0.461 -2.503, -1.276c-0.735, -0.811 -1.237, -1.935 -1.235, -3.159l0, -1.962c-0.006, -0.578 0.337, -1.181 0.848, -1.64c0.5, -0.459 1.165, -0.725 1.505, -0.712l3.061, 0c0.648, 0.023 1.119, 0.333 1.121, 0.825c-0.018, 0.683 -0.477, 1.377 -1.371, 1.379l-1.373, 0l0, 1.302c1.203, 0 2.176, 0.974 2.178, 2.179l1.301, 0c0, -0.942 -0.377, -1.791 -0.983, -2.418c0.37, -0.17 0.657, -0.436 0.9, -0.733c0.017, 0.921 0.587, 1.782 1.505, 2.115c0.255, 0.092 0.519, 0.137 0.783, 0.137c0.358, 0 0.694, -0.106 1.008, -0.261c0.243, 0.555 0.683, 1.025 1.299, 1.25c0.258, 0.09 0.521, 0.135 0.785, 0.135l0.005, 0c0.078, 0 0.149, -0.027 0.227, -0.035c-0.22, 0.601 -0.544, 1.148 -0.95, 1.594m-11.646, -16.113c-0.037, -0.12 -0.052, -0.212 -0.052, -0.298c-0, -0.373 0.239, -0.724 0.611, -0.844c0.093, -0.03 0.183, -0.043 0.271, -0.043c0.373, 0 0.724, 0.239 0.845, 0.613l2.429, 7.475l1.247, -0.032l2.033, -7.593c0.104, -0.393 0.467, -0.658 0.854, -0.658c0.078, 0 0.149, 0.008 0.226, 0.03c0.397, 0.104 0.658, 0.465 0.658, 0.854c-0, 0.074 -0.01, 0.156 -0.032, 0.245l-1.745, 7.669l0.776, 0.177l-0.54, 1.484c-0.236, -1.196 -1.423, -1.734 -2.369, -1.736l-3.061, 0c-0.026, 0.001 -0.053, 0.009 -0.079, 0.011l-2.072, -7.354Zm10.477, 6.838c0.114, 0 0.224, 0.019 0.337, 0.06l0.002, 0.002c0.403, 0.144 0.652, 0.528 0.652, 0.936c-0, 0.111 -0.018, 0.228 -0.061, 0.347l-1.085, 2.983l-0.115, 0.313c-0.145, 0.4 -0.528, 0.651 -0.934, 0.651c-0.11, 0 -0.23, -0.02 -0.346, -0.059c-0.398, -0.144 -0.649, -0.53 -0.651, -0.938c-0, -0.115 0.021, -0.226 0.058, -0.325l1.207, -3.312c0.142, -0.403 0.531, -0.658 0.936, -0.658m3.614, 0.684l-0.003, 0c-0.258, -0.098 -0.523, -0.141 -0.781, -0.141c-0.204, 0 -0.401, 0.04 -0.594, 0.092c-0.128, -0.791 -0.643, -1.499 -1.451, -1.795c-0.261, -0.097 -0.528, -0.14 -0.785, -0.14c-0.564, 0 -1.09, 0.229 -1.506, 0.598l1.383, -6.087c0.041, -0.169 0.068, -0.356 0.068, -0.545c-0, -0.962 -0.64, -1.845 -1.617, -2.108c-0.189, -0.053 -0.382, -0.076 -0.567, -0.076c-0.97, 0 -1.847, 0.648 -2.11, 1.622l-1.464, 5.473l-1.752, -5.388c-0.303, -0.923 -1.157, -1.514 -2.082, -1.514c-0.224, 0 -0.453, 0.035 -0.675, 0.109c-0.923, 0.3 -1.507, 1.158 -1.507, 2.08c0.001, 0.228 0.034, 0.456 0.107, 0.676l2.063, 7.319c-1.184, 0.557 -2.256, 1.735 -2.321, 3.299l-0, 1.962c0.029, 3.155 2.475, 5.693 5.039, 5.736l5.602, 0c2.351, -0.039 4.604, -2.181 4.987, -4.974c0.163, -0.196 0.302, -0.418 0.395, -0.672l0.943, -2.583c0.09, -0.258 0.134, -0.522 0.134, -0.783c0.003, -0.936 -0.573, -1.819 -1.506, -2.16" style="fill: rgb(255, 140, 0);"/>
</svg>
