<svg viewBox="0 0 24 24" xmlns="http://www.w3.org/2000/svg">
  <path d="M19.922, 19.309l-6.105, -0c-0.982, -0.002 -1.783, -0.801 -1.783, -1.778c-0, -0.985 0.801, -1.781 1.783, -1.784l6.105, -0c0.979, 0.003 1.78, 0.801 1.783, 1.782c-0.003, 0.983 -0.801, 1.778 -1.783, 1.78m-10.979, -2.523c-0.984, -0.002 -1.781, -0.801 -1.781, -1.783l-0.001, -6.661l-1.299, -0l-0, 5.528l-0.001, -0c-0.002, 0.981 -0.8, 1.78 -1.78, 1.782c-0.984, -0.002 -1.78, -0.801 -1.78, -1.782l-0, -6.092c0.002, -1.391 1.128, -2.517 2.519, -2.522l1.984, -0l0.185, -0.166c0.529, -0.476 1.202, -0.764 1.954, -0.764c0.75, -0 1.426, 0.291 1.955, 0.764l0.185, 0.166l0.582, -0l0.185, -0.166c0.53, -0.476 1.202, -0.764 1.953, -0.764c0.752, -0 1.427, 0.291 1.954, 0.764l0.185, 0.166l0.772, -0l0.173, -0.129c0.38, -0.284 0.829, -0.451 1.325, -0.451c1.232, 0.002 2.231, 1.003 2.232, 2.233l-0, 7.592c-0.17, -0.029 -0.343, -0.052 -0.522, -0.052l-3.039, -0l-0, -6.106l-1.298, -0l-0, 6.106l-1.768, -0c-0.669, -0 -1.285, 0.218 -1.791, 0.582c-0, -0.01 -0.003, -0.018 -0.003, -0.028l0.001, -0l-0, -6.66l-1.302, -0l-0, 6.66l0.001, -0c-0.003, 0.98 -0.801, 1.781 -1.78, 1.783m12.798, -1.732c-0, -0.017 0.004, -0.033 0.004, -0.051l-0, -8.094c-0.002, -1.949 -1.58, -3.532 -3.533, -3.534c-0.679, -0 -1.311, 0.202 -1.843, 0.533c-0.708, -0.545 -1.597, -0.883 -2.566, -0.883c-0.909, -0 -1.746, 0.297 -2.429, 0.783c-0.684, -0.486 -1.522, -0.783 -2.431, -0.783c-1, -0 -1.912, 0.359 -2.628, 0.933l-1.495, -0c-2.11, -0 -3.82, 1.708 -3.82, 3.82l-0, 6.092c-0, 1.7 1.377, 3.081 3.081, 3.083c0.773, -0.001 1.479, -0.287 2.02, -0.757c0.466, 1.108 1.561, 1.888 2.842, 1.888c0.673, -0 1.288, -0.229 1.795, -0.596c-0.001, 0.014 -0.004, 0.028 -0.004, 0.043c0.001, 1.7 1.381, 3.077 3.083, 3.079l6.105, -0c1.7, -0.002 3.082, -1.379 3.082, -3.081c-0, -1.019 -0.501, -1.914 -1.263, -2.475" style="fill: rgb(255, 140, 0);"/>
</svg>
