<svg viewBox="0 0 24 24" xmlns="http://www.w3.org/2000/svg">
  <path d="M7.663, 2.878l0, 4.374c-0.182, -0.059 -0.375, -0.091 -0.576, -0.091c-1.039, 0.002 -1.88, 0.841 -1.88, 1.878l0, 6.057c0.012, 0.626 0.21, 1.321 0.526, 1.86l1.597, 2.597c0.156, 0.228 0.348, 0.9 0.333, 1.175l0, 2.272l1.301, -0l0, -2.272c-0.013, -0.624 -0.21, -1.318 -0.526, -1.857l-1.597, -2.597c-0.157, -0.229 -0.349, -0.9 -0.334, -1.178l0, -6.057c0, -0.318 0.258, -0.578 0.58, -0.578c0.317, 0.002 0.576, 0.26 0.576, 0.578l0, 4.419l1.302, -0l0, -4.419l-0.001, -0l0, -6.161c0.002, -0.319 0.259, -0.576 0.58, -0.578c0.316, 0.002 0.576, 0.262 0.578, 0.578l0, 5.733l1.3, -0c0, -0.319 0.26, -0.578 0.578, -0.578c0.317, -0 0.578, 0.262 0.578, 0.578l0, 1.638l1.3, -0c0, -0.319 0.26, -0.578 0.58, -0.578c0.317, -0 0.576, 0.259 0.576, 0.578l0, 1.491l1.117, 0.355l0.258, -0.476c0.101, -0.185 0.287, -0.308 0.506, -0.308c0.316, -0 0.576, 0.259 0.578, 0.576l0, 2.987c0.021, 0.284 -0.208, 1.242 -0.333, 1.397l-1.599, 2.6c-0.315, 0.539 -0.514, 1.233 -0.527, 1.857l0, 2.272l1.301, -0l0, -2.272c-0.013, -0.275 0.177, -0.947 0.333, -1.175l1.599, -2.599c0.345, -0.609 0.505, -1.461 0.526, -2.08l0, -2.987c-0.002, -1.037 -0.841, -1.876 -1.878, -1.876c-0.205, -0 -0.402, 0.033 -0.586, 0.094c-0.073, -0.97 -0.883, -1.734 -1.871, -1.734c-0.204, -0 -0.401, 0.032 -0.586, 0.093c-0.077, -0.968 -0.885, -1.731 -1.872, -1.731c-0.201, -0 -0.396, 0.032 -0.578, 0.09l0, -3.945c-0.002, -1.037 -0.843, -1.878 -1.878, -1.878c-1.039, -0 -1.879, 0.841 -1.881, 1.878" style="fill: rgb(255, 140, 0);"/>
</svg>
