<svg viewBox="0 0 24 24" xmlns="http://www.w3.org/2000/svg">
  <path d="M13.492, 22.844l-1.23, 0l-0, -1.963c-1.837, -0.677 -3.361, -2.135 -3.804, -2.576c-0.683, -0.177 -3.313, -0.864 -4.149, -1.088c-1.06, -0.286 -1.373, -1.289 -1.352, -1.92c0, -0.253 0.033, -0.477 0.099, -0.678c0.22, -0.569 0.783, -1.337 1.865, -1.4c0.165, 0 0.333, 0.027 0.5, 0.079c0.148, 0.048 0.376, 0.118 0.65, 0.201c-0.782, -0.632 -1.418, -1.165 -1.793, -1.462c-0.608, -0.486 -0.888, -1.195 -0.888, -1.856c0.002, -0.482 0.146, -0.968 0.494, -1.338c0.313, -0.339 0.713, -0.685 1.243, -0.797c-0.018, -0.106 -0.027, -0.213 -0.028, -0.322c-0.003, -0.511 0.224, -1.023 0.624, -1.416c0.431, -0.437 1.006, -0.64 1.556, -0.638c0.582, 0.001 1.153, 0.215 1.612, 0.601l0.037, 0.032l0.032, 0.036c0.002, 0.003 0.696, 0.809 1.772, 2.026c-0.296, -0.76 -0.581, -1.504 -0.771, -2.039c-0.088, -0.241 -0.126, -0.484 -0.126, -0.709c0.015, -0.929 0.596, -1.589 1.233, -1.839c0.194, -0.074 0.386, -0.099 0.569, -0.101c0.703, 0.019 1.439, 0.345 1.808, 1.087c0.42, 0.941 2.193, 4.406 3.285, 6.158c0.995, -2.198 2.098, -3.159 3.208, -3.397c0.2, -0.043 0.402, -0.062 0.599, -0.062c0.422, 0 0.852, 0.092 1.215, 0.364c0.369, 0.269 0.605, 0.751 0.594, 1.259c-0.006, 0.719 -0.437, 1.145 -0.759, 1.516c-0.345, 0.39 -0.714, 0.816 -1.044, 1.617c-0.15, 0.369 -0.187, 0.627 -0.189, 0.927c-0.008, 0.501 0.159, 1.172 0.16, 2.242c-0, 0.139 -0.001, 0.29 -0.01, 0.448c-0.086, 1.796 -0.844, 3.599 -1.062, 4.095l0.002, 2.913l-1.229, 0l-0.002, -3.178l0.06, -0.124c-0.007, -0.007 0.936, -2.024 1.006, -3.76c0.006, -0.138 0.008, -0.268 0.008, -0.394c0.002, -0.935 -0.156, -1.511 -0.164, -2.242c-0.002, -0.427 0.074, -0.894 0.284, -1.396c0.393, -0.967 0.904, -1.56 1.257, -1.959c0.377, -0.422 0.463, -0.561 0.455, -0.705c-0.027, -0.309 -0.074, -0.334 -0.582, -0.395c-0.109, 0 -0.228, 0.012 -0.355, 0.037c-0.602, 0.105 -1.694, 0.871 -2.735, 3.678l-0.36, 0.975l-0.681, -0.785c-1.092, -1.292 -3.487, -6.047 -4.078, -7.323c-0.037, -0.15 -0.435, -0.385 -0.691, -0.367c-0.064, 0 -0.109, 0.009 -0.128, 0.019c-0.172, 0.053 -0.463, 0.358 -0.447, 0.692c0, 0.087 0.014, 0.178 0.054, 0.293c0.565, 1.588 2.031, 5.199 2.032, 5.203l-1.024, 0.645c-2.125, -2.333 -3.813, -4.291 -4.063, -4.581c-0.233, -0.183 -0.519, -0.281 -0.782, -0.279c-0.266, 0.002 -0.494, 0.086 -0.686, 0.278c-0.212, 0.216 -0.26, 0.375 -0.264, 0.548c-0.002, 0.176 0.078, 0.407 0.276, 0.67c0.402, 0.383 3.256, 3.105 4.454, 4.303l-0.869, 0.869c-1.151, -1.151 -3.9, -3.777 -4.398, -4.252c-0.133, -0.055 -0.238, -0.08 -0.31, -0.08c-0.177, -0.004 -0.38, 0.104 -0.705, 0.449c-0.081, 0.082 -0.159, 0.266 -0.159, 0.498c-0, 0.319 0.142, 0.675 0.423, 0.895c0.785, 0.621 2.527, 2.117 4.38, 3.457l-0.534, 1.088c-0.004, -0.002 -3.025, -0.89 -3.84, -1.152c-0.049, -0.016 -0.087, -0.022 -0.126, -0.022c-0.228, -0.063 -0.698, 0.449 -0.698, 0.55c-0.017, 0.049 -0.038, 0.169 -0.038, 0.3c0.021, 0.386 0.109, 0.648 0.442, 0.736c0.952, 0.254 4.298, 1.126 4.302, 1.126l0.169, 0.045l0.123, 0.128c0.004, 0 0.462, 0.489 1.186, 1.058c0.722, 0.571 1.702, 1.198 2.634, 1.456l0.451, 0.124l0, 2.874Zm5.721, -17.901c0.491, 0.493 0.754, 0.936 0.894, 1.246c0.069, 0.156 0.108, 0.275 0.129, 0.354c0.022, 0.076 0.018, 0.084 0.022, 0.084l1.218, -0.165l-0.003, 0c-0.01, -0.097 -0.188, -1.183 -1.392, -2.387c-1.204, -1.204 -2.292, -1.381 -2.389, -1.393l-0.161, 1.218c0.002, 0 0.018, 0.001 0.082, 0.02c0.231, 0.064 0.86, 0.287 1.6, 1.023Zm-15.451, 1.6c0.064, -0.23 0.287, -0.861 1.025, -1.601c0.493, -0.49 0.934, -0.752 1.245, -0.892c0.155, -0.07 0.277, -0.11 0.353, -0.129c0.077, -0.022 0.085, -0.018 0.083, -0.022l-0.162, -1.217c-0.096, 0.012 -1.185, 0.188 -2.387, 1.392c-1.206, 1.205 -1.384, 2.29 -1.396, 2.387l1.218, 0.165c-0, -0.002 0.001, -0.015 0.021, -0.083Zm18.021, -1.443l-0.002, 0c-0.002, 0 0, -0.012 -0.02, -0.083c-0.021, -0.076 -0.06, -0.197 -0.13, -0.352c-0.142, -0.311 -0.405, -0.753 -0.895, -1.247c-0.738, -0.736 -1.367, -0.959 -1.598, -1.023c-0.076, -0.022 -0.083, -0.022 -0.083, -0.02l0.165, -1.218c0.098, 0.01 1.184, 0.19 2.383, 1.393c1.205, 1.202 1.384, 2.287 1.395, 2.385l0.002, 0l-1.217, 0.165Zm-17.276, -2.576c0.153, -0.07 0.275, -0.108 0.351, -0.129c0.078, -0.022 0.085, -0.018 0.085, -0.022l-0.165, -1.217c-0.099, 0.012 -1.184, 0.19 -2.385, 1.395c-1.203, 1.202 -1.382, 2.286 -1.393, 2.384l1.216, 0.164c0, 0 0, -0.005 0.02, -0.083c0.066, -0.23 0.289, -0.861 1.025, -1.596c0.493, -0.493 0.936, -0.754 1.246, -0.896Z" style="fill: rgb(255, 140, 0);"/>
</svg>
