<svg viewBox="0 0 24 24" xmlns="http://www.w3.org/2000/svg">
  <path d="M21.769, 13.799c-0.043, 0.391 -0.254, 0.557 -0.566, 0.721c-0.147, 0.07 -0.305, 0.113 -0.422, 0.138c-0.058, 0.002 -0.112, 0.02 -0.167, 0.028c-1.448, 0.045 -2.654, 0.537 -2.691, 0.549l0.458, 1.14c0, -0.004 1.086, -0.433 2.268, -0.461l0, -0.004c0.008, -0 0.016, 0.004 0.023, 0.002c0.017, -0.002 0.099, -0.006 0.224, -0.027c0.125, 0.016 0.349, 0.092 0.502, 0.225c0.183, 0.156 0.289, 0.322 0.293, 0.58c0, 0.074 -0.012, 0.162 -0.035, 0.269c-0.131, 0.576 -0.722, 0.656 -1.137, 0.672l-0.003, -0c-0.067, -0.008 -0.137, -0.012 -0.206, -0.012l-0.004, -0c-0.227, -0.019 -0.447, -0.029 -0.654, -0.029c-1.108, -0 -1.811, 0.248 -1.857, 0.264l0.413, 1.156c0, -0 0.107, -0.039 0.359, -0.09c0.251, -0.051 0.625, -0.103 1.085, -0.103c0.177, -0 0.365, 0.007 0.568, 0.027c0.007, -0 0.011, -0 0.023, 0.002c0.595, 0.09 0.65, 0.191 0.707, 0.691c0, 0.033 -0.002, 0.082 -0.004, 0.145c-0.082, 0.277 0.019, 0.517 -0.74, 0.656c-0.198, 0.024 -0.393, 0.033 -0.586, 0.033c-0.416, -0 -0.826, -0.047 -1.275, -0.047c-0.307, -0 -0.639, 0.024 -0.982, 0.121l-0.24, 0.131c-0.111, 0.133 -1.515, 0.926 -2.383, 0.889c-0.29, -0.002 -0.504, -0.066 -0.654, -0.182c-0.379, -0.183 -0.649, -0.959 -0.631, -1.91c-0.008, -0.984 0.237, -2.092 0.384, -2.428c0.052, -0.128 0.061, -0.265 0.024, -0.4c-0.223, -0.773 -0.297, -1.641 -0.295, -2.404c0, -1.067 0.139, -1.905 0.162, -2.053c0.054, -0.184 0.238, -0.871 0.317, -1.861c0.018, -0.213 0.023, -0.397 0.023, -0.559c0, -0.459 -0.049, -0.762 -0.046, -0.937c0.002, -0.124 0.011, -0.202 0.059, -0.34c0.126, -0.295 0.199, -0.342 0.602, -0.373c0.049, -0 0.095, 0.002 0.144, 0.006c0.515, 0.089 0.711, 0.216 0.851, 1.343c0.004, 0.061 0.006, 0.125 0.006, 0.194c0, 0.459 -0.115, 0.906 -0.236, 1.23c-0.119, 0.324 -0.228, 0.494 -0.224, 0.5c-0.07, 0.117 -0.096, 0.25 -0.081, 0.379l-0.001, -0l-0.001, -0.002c0, 0.002 0.042, 0.391 0.042, 0.981c0, 0.658 -0.059, 1.55 -0.278, 2.318l1.18, 0.336c0.267, -0.947 0.324, -1.926 0.327, -2.654c0, -0.256 -0.009, -0.465 -0.018, -0.643l0.279, -0.113c0.016, -0.004 0.206, -0.067 0.721, -0.262l0.215, -0.137c0.634, -0.658 1.886, -1.336 2.324, -1.347c0.056, -0.004 0.093, -0.006 0.119, -0.006c0.547, -0 0.946, 0.314 0.962, 0.564c0.012, 0.071 0.016, 0.137 0.016, 0.199c-0.006, 0.338 -0.146, 0.497 -0.34, 0.655c-0.081, 0.062 -0.168, 0.109 -0.238, 0.142c-0.046, 0.012 -0.093, 0.037 -0.14, 0.055c-1.544, 0.289 -2.412, 0.818 -2.462, 0.85l0.651, 1.043c0, -0.002 0.149, -0.096 0.501, -0.245c0.355, -0.144 0.888, -0.326 1.584, -0.453l-0.002, -0.007c0.018, -0.002 0.035, 0.001 0.052, -0.004c0.007, -0.002 0.083, -0.022 0.2, -0.069c0.02, -0.002 0.043, -0.002 0.071, -0.002c0.4, 0.026 0.862, 0.227 0.862, 0.789c0, 0.036 -0.002, 0.08 -0.002, 0.141m1.23, -0.141c-0.008, -0.865 -0.472, -1.422 -1.022, -1.726c0.157, -0.27 0.268, -0.608 0.281, -1.028c0, -0.126 -0.01, -0.261 -0.033, -0.402c-0.211, -1.072 -1.223, -1.59 -2.171, -1.59c-0.09, -0 -0.167, 0.006 -0.233, 0.012c-0.967, 0.119 -2.113, 0.811 -2.971, 1.6c-0.017, 0.007 -0.034, 0.013 -0.05, 0.019c0.066, -0.295 0.11, -0.627 0.113, -0.982c0, -0.088 -0.002, -0.182 -0.01, -0.28c-0.033, -1.33 -0.769, -2.408 -1.956, -2.478c-0.09, -0.01 -0.18, -0.014 -0.262, -0.014c-0.719, -0.031 -1.515, 0.395 -1.761, 1.196c-0.093, 0.257 -0.129, 0.519 -0.129, 0.746c0.004, 0.33 0.049, 0.572 0.047, 0.937c0, 0.137 -0.004, 0.287 -0.017, 0.459c-0.08, 1.02 -0.287, 1.637 -0.279, 1.639l-0.019, 0.074c-0.003, 0.023 -0.189, 1.008 -0.189, 2.301c0.002, 0.781 0.069, 1.674 0.29, 2.547c-0.208, 0.623 -0.395, 1.631 -0.402, 2.685c0.018, 1.078 0.168, 2.272 1.17, 2.924c0.365, 0.283 0.863, 0.395 1.332, 0.395l0.012, -0c1.306, -0.034 2.512, -0.698 3.057, -1.09c0.167, -0.037 0.346, -0.051 0.548, -0.051c0.352, -0.002 0.776, 0.045 1.275, 0.047c0.227, -0 0.474, -0.01 0.735, -0.041c1.398, -0.127 1.835, -1.317 1.816, -1.799c0.002, -0.08 0.005, -0.145 0.005, -0.221c0.021, -0.369 -0.079, -0.726 -0.265, -1.027c0.397, -0.236 0.759, -0.623 0.934, -1.25c0.049, -0.201 0.072, -0.389 0.072, -0.57c-0.021, -0.623 -0.273, -1.098 -0.621, -1.43c0.352, -0.311 0.652, -0.775 0.698, -1.402c0.004, -0.084 0.005, -0.133 0.005, -0.2" style="fill: rgb(255, 140, 0);"/>
  <path d="M9.975, 21.244c-0.211, 0.156 -0.426, 0.219 -0.714, 0.221c-0.866, 0.037 -2.271, -0.756 -2.38, -0.889l-0.241, -0.133c-0.347, -0.095 -0.676, -0.119 -0.985, -0.119c-0.448, 0 -0.858, 0.047 -1.271, 0.047c-0.192, 0 -0.387, -0.01 -0.587, -0.033c-0.756, -0.139 -0.654, -0.379 -0.738, -0.678c-0.006, -0.047 -0.006, -0.074 -0.006, -0.123c0.055, -0.498 0.11, -0.602 0.709, -0.691c0.013, -0.002 0.019, -0.002 0.025, -0.004l-0, 0.002c0.202, -0.02 0.39, -0.028 0.563, -0.028c0.461, 0 0.835, 0.053 1.088, 0.104c0.242, 0.049 0.349, 0.088 0.359, 0.088l0.415, -1.153c-0.049, -0.017 -0.756, -0.265 -1.862, -0.265c-0.206, 0 -0.424, 0.009 -0.65, 0.029l-0.004, 0c-0.071, 0 -0.139, 0.004 -0.206, 0.012l-0.004, 0c-0.415, -0.016 -1.005, -0.096 -1.138, -0.682c-0.029, -0.107 -0.039, -0.185 -0.039, -0.262c0.004, -0.256 0.107, -0.423 0.292, -0.58c0.155, -0.131 0.383, -0.209 0.509, -0.222c0.123, 0.019 0.203, 0.025 0.219, 0.027c0.009, 0.002 0.017, -0.002 0.026, -0.002l-0, 0.004l-0.002, 0c1.17, 0.027 2.241, 0.459 2.272, 0.459l0.458, -1.139c-0.039, -0.011 -1.25, -0.504 -2.697, -0.549l-0, 0.002c-0.059, -0.009 -0.117, -0.027 -0.178, -0.029c-0.112, -0.025 -0.26, -0.066 -0.407, -0.139c-0.313, -0.164 -0.521, -0.33 -0.565, -0.761c-0.005, -0.049 -0.007, -0.073 -0.007, -0.1c-0, -0.56 0.462, -0.762 0.865, -0.789c0.027, -0.002 0.052, 0 0.072, 0.004c0.116, 0.045 0.192, 0.064 0.199, 0.068c0.017, 0.004 0.036, 0 0.053, 0.004l-0.001, 0.006c0.696, 0.127 1.229, 0.309 1.582, 0.455c0.348, 0.143 0.495, 0.24 0.504, 0.24l0.001, 0l0.647, -1.041c-0.049, -0.031 -0.918, -0.56 -2.463, -0.849c-0.046, -0.018 -0.09, -0.041 -0.134, -0.055c-0.253, -0.125 -0.592, -0.344 -0.583, -0.797c-0, -0.055 0.006, -0.121 0.018, -0.197c0.013, -0.25 0.411, -0.568 0.96, -0.568c0.027, 0 0.066, 0.003 0.119, 0.007c0.44, 0.012 1.692, 0.69 2.329, 1.348l0.213, 0.137c0.579, 0.22 0.747, 0.271 0.774, 0.279l0.225, 0.094c-0.009, 0.177 -0.018, 0.388 -0.018, 0.644c0.002, 0.727 0.057, 1.709 0.327, 2.657l1.18, -0.34c-0.222, -0.768 -0.28, -1.657 -0.277, -2.317c-0, -0.59 0.044, -0.976 0.042, -0.978l-0.003, 0c0.014, -0.131 -0.011, -0.266 -0.081, -0.383c-0, 0 -0.105, -0.174 -0.226, -0.498c-0.119, -0.32 -0.236, -0.768 -0.236, -1.229c-0, -0.058 0.004, -0.121 0.008, -0.187c0.14, -1.133 0.335, -1.26 0.846, -1.348c0.051, -0.006 0.097, -0.008 0.147, -0.008c0.403, 0.032 0.477, 0.079 0.601, 0.365c0.043, 0.132 0.053, 0.216 0.056, 0.344c0.002, 0.186 -0.044, 0.487 -0.046, 0.946c-0, 0.168 0.01, 0.351 0.025, 0.554c0.082, 0.987 0.266, 1.67 0.321, 1.86c0.025, 0.15 0.159, 0.986 0.159, 2.054c-0, 0.766 -0.072, 1.633 -0.291, 2.407c-0.036, 0.131 -0.031, 0.269 0.022, 0.396c0.144, 0.34 0.39, 1.446 0.384, 2.428c0.018, 0.953 -0.254, 1.73 -0.574, 1.873m1.687, -7.104c-0, -1.292 -0.179, -2.275 -0.184, -2.296l-0.018, -0.079c-0.002, 0 -0.198, -0.619 -0.282, -1.64c-0.014, -0.178 -0.021, -0.326 -0.021, -0.453c-0, -0.371 0.041, -0.617 0.044, -0.946c-0, -0.219 -0.029, -0.472 -0.119, -0.738c-0.251, -0.804 -1.044, -1.23 -1.764, -1.199c-0.083, 0 -0.175, 0.004 -0.269, 0.016c-1.178, 0.07 -1.914, 1.147 -1.947, 2.476c-0.008, 0.086 -0.012, 0.18 -0.012, 0.279c0.002, 0.356 0.048, 0.688 0.114, 0.983c-0.017, -0.006 -0.033, -0.012 -0.049, -0.02c-0.86, -0.789 -2.005, -1.482 -2.974, -1.597c-0.062, -0.006 -0.143, -0.014 -0.232, -0.014c-0.951, 0.002 -1.965, 0.518 -2.17, 1.588c-0.023, 0.135 -0.035, 0.269 -0.035, 0.404c0.014, 0.418 0.125, 0.756 0.281, 1.026c-0.551, 0.304 -1.017, 0.863 -1.025, 1.728c-0, 0.07 0.004, 0.147 0.014, 0.215c0.043, 0.615 0.341, 1.074 0.69, 1.387c-0.348, 0.33 -0.601, 0.802 -0.622, 1.427c-0, 0.186 0.026, 0.383 0.08, 0.582c0.172, 0.623 0.533, 1.006 0.928, 1.241c-0.185, 0.3 -0.284, 0.656 -0.264, 1.027c-0, 0.062 -0, 0.146 0.012, 0.246c-0.022, 0.457 0.415, 1.647 1.811, 1.774c0.261, 0.031 0.506, 0.041 0.735, 0.041c0.499, -0.002 0.92, -0.049 1.271, -0.047c0.205, 0 0.382, 0.013 0.552, 0.05c0.543, 0.393 1.748, 1.057 3.054, 1.09c0.47, 0 0.975, -0.111 1.399, -0.429c0.951, -0.618 1.1, -1.813 1.117, -2.891c-0.004, -1.055 -0.196, -2.065 -0.4, -2.686c0.221, -0.871 0.283, -1.765 0.285, -2.545" style="fill: rgb(255, 140, 0);"/>
  <path d="M5.354, 2.693l2.255, 2.257l-0.868, 0.868l-2.256, -2.258l0.869, -0.867Zm13.302, 0.005l0.862, 0.863l-2.259, 2.253l-0.861, -0.863l2.258, -2.253Zm-6.04, 1.802l-1.228, 0l0, -3.192l1.228, 0l0, 3.192Z" style="fill: rgb(255, 140, 0);"/>
</svg>
