<svg viewBox="0 0 24 24" xmlns="http://www.w3.org/2000/svg">
  <path d="M16.214, 11.243c-0.556, -0.002 -1.008, -0.453 -1.008, -1.006c-0, -0.556 0.452, -1.007 1.008, -1.009l4.476, 0c0.553, 0.002 1.006, 0.453 1.008, 1.009c-0.002, 0.553 -0.455, 1.004 -1.008, 1.006l-4.476, 0Zm5.484, 2.308c-0.002, 0.551 -0.455, 1.004 -1.008, 1.004l-4.476, 0c-0.554, 0 -1.003, -0.447 -1.007, -0.998l-0, -0.009c0.001, -0.555 0.452, -1.004 1.007, -1.006l4.476, 0c0.553, 0.002 1.006, 0.455 1.008, 1.009m-6.492, -6.628c-0, -0.556 0.454, -1.007 1.008, -1.009l4.476, 0c0.551, 0.002 1.006, 0.455 1.008, 1.009c-0.002, 0.553 -0.455, 1.004 -1.008, 1.006l-4.476, 0c-0.556, -0.002 -1.008, -0.453 -1.008, -1.006m4.406, -4.323c0.554, 0.002 1.005, 0.453 1.007, 1.008c-0.002, 0.552 -0.449, 0.999 -1, 1.005l-2.823, 0c-0.553, -0.006 -1.001, -0.453 -1.001, -1.005c-0, -0.555 0.452, -1.006 1.008, -1.008l2.809, 0Zm3.385, 7.637c-0, -0.653 -0.273, -1.239 -0.708, -1.658c0.435, -0.419 0.708, -1.004 0.708, -1.656c-0, -0.959 -0.585, -1.78 -1.416, -2.13c0.209, -0.347 0.337, -0.749 0.337, -1.185c-0, -1.276 -1.033, -2.307 -2.306, -2.307l-2.809, 0c-0.281, 0 -0.547, 0.058 -0.796, 0.15l-5.104, 0c-2.095, -0.017 -3.814, 0.254 -5.941, 1.853c-0.474, 0.351 -1.095, 0.544 -1.775, 0.544l-2.186, 0l-0, 1.301l2.186, 0c0.925, 0 1.822, -0.261 2.548, -0.801c1.958, -1.429 3.134, -1.583 5.168, -1.598l3.761, 0c-0.107, 0.266 -0.17, 0.555 -0.17, 0.858c0.001, 0.52 0.18, 0.994 0.469, 1.379c-0.634, 0.412 -1.056, 1.123 -1.056, 1.936c-0, 0.652 0.273, 1.237 0.706, 1.656c-0.343, 0.332 -0.581, 0.769 -0.666, 1.261c-0.796, -1.067 -1.919, -1.877 -3.22, -2.283l-0.387, 1.243c2.069, 0.643 3.576, 2.574 3.574, 4.859l0.004, 0c0.02, 0.418 0.147, 0.807 0.359, 1.137l-0.006, 0.004c0.453, 0.936 0.708, 1.984 0.708, 3.095c-0, 0.867 -0.177, 1.701 -0.453, 2.503c-0.116, 0.325 -0.218, 0.554 -0.486, 0.816c-0.138, 0.129 -0.299, 0.201 -0.473, 0.201c-0.365, 0 -0.661, -0.296 -0.661, -0.661l-0, -0.72c0.037, -2.997 -0.636, -4.06 -1.34, -4.716l-2.39, -2.027c-0.767, -0.679 -1.793, -1.095 -2.91, -1.095l-5.245, 0l-0, 1.298l5.245, 0c0.792, 0.003 1.509, 0.295 2.058, 0.778l2.366, 2.003c0.452, 0.494 0.88, 0.823 0.915, 3.759l-0, 0.72c-0, 1.083 0.877, 1.96 1.962, 1.962c0.545, 0 1.029, -0.233 1.373, -0.566c0.462, -0.438 0.681, -0.932 0.815, -1.328c0.311, -0.903 0.524, -1.881 0.524, -2.927c-0, -0.711 -0.095, -1.399 -0.262, -2.059c0.065, 0.006 0.13, 0.02 0.197, 0.02l4.476, 0c1.271, -0.002 2.307, -1.031 2.307, -2.305c-0, -0.653 -0.273, -1.239 -0.708, -1.658c0.435, -0.42 0.708, -1.004 0.708, -1.656" style="fill: rgb(255, 140, 0);"/>
</svg>
